M48
; DRILL file {KiCad 5.1.0-060a0da~80~ubuntu18.04.1} date нд, 21-кві-2019 23:40:08 +0300
; FORMAT={2:4/ absolute / inch / suppress trailing zeros}
; #@! TF.CreationDate,2019-04-21T23:40:08+03:00
; #@! TF.GenerationSoftware,Kicad,Pcbnew,5.1.0-060a0da~80~ubuntu18.04.1
; #@! TF.FileFunction,Plated,1,2,PTH
FMAT,2
INCH,LZ
T1C0.0299
T2C0.0354
T3C0.0394
T4C0.0433
T5C0.0472
T6C0.0512
%
G90
G05
T1
X04775Y-0215
X04825Y-0205
X04875Y-0215
X04925Y-0205
X04175Y-0215
X04225Y-0205
X04275Y-0215
X04325Y-0205
T2
X02075Y-03575
X02175Y-02525
X02175Y-03575
X02275Y-02525
X02275Y-03575
X02375Y-03575
X0425Y-0375
X0435Y-0375
X0445Y-0375
X045Y-02628
X0455Y-0375
X046Y-02628
X0465Y-0375
X0475Y-0375
X0485Y-0375
X03275Y-022
X03275Y-023
X03275Y-024
X03275Y-025
X03275Y-025
X03275Y-025
X03275Y-026
X03275Y-027
X03275Y-028
X03275Y-029
X03275Y-03
X03275Y-031
X03275Y-032
X03275Y-033
X03275Y-034
X03275Y-035
X03275Y-036
X03875Y-022
X03875Y-023
X03875Y-024
X03875Y-025
X03875Y-026
X03875Y-027
X03875Y-028
X03875Y-029
X03875Y-03
X03875Y-031
X03875Y-032
X03875Y-033
X03875Y-034
X03875Y-035
X03875Y-036
T3
X0275Y-037244
X0285Y-037244
X0295Y-037244
T4
X0265Y-024173
X0285Y-024173
X0305Y-024173
T5
X026563Y-02
X028563Y-02
T6
X034437Y-0165
X036406Y-0165
X0305Y-0165
X032469Y-0165
X021281Y-0165
X02325Y-0165
X026563Y-0165
X028531Y-0165
T0
M30
