G04 #@! TF.GenerationSoftware,KiCad,Pcbnew,5.1.0-060a0da~80~ubuntu18.04.1*
G04 #@! TF.CreationDate,2019-04-21T23:40:02+03:00*
G04 #@! TF.ProjectId,Borjomi,426f726a-6f6d-4692-9e6b-696361645f70,w01*
G04 #@! TF.SameCoordinates,Original*
G04 #@! TF.FileFunction,Soldermask,Bot*
G04 #@! TF.FilePolarity,Negative*
%FSLAX46Y46*%
G04 Gerber Fmt 4.6, Leading zero omitted, Abs format (unit mm)*
G04 Created by KiCad (PCBNEW 5.1.0-060a0da~80~ubuntu18.04.1) date 2019-04-21 23:40:02*
%MOMM*%
%LPD*%
G04 APERTURE LIST*
%ADD10C,2.000000*%
%ADD11C,0.120000*%
%ADD12C,0.150000*%
G04 APERTURE END LIST*
D10*
X91200000Y-38100000D02*
X83820000Y-38100000D01*
X92470000Y-39370000D02*
X91200000Y-38100000D01*
X92470000Y-41910000D02*
X92470000Y-39370000D01*
X82470000Y-39370000D02*
X83820000Y-38100000D01*
X82470000Y-41910000D02*
X82470000Y-39370000D01*
X87470000Y-45720000D02*
X87470000Y-41910000D01*
X85725000Y-47625000D02*
X87470000Y-45880000D01*
X77470000Y-47625000D02*
X85725000Y-47625000D01*
X77470000Y-41910000D02*
X77470000Y-47625000D01*
D11*
X48895000Y-99060000D02*
X48895000Y-34925000D01*
X130810000Y-99060000D02*
X48895000Y-99060000D01*
X130810000Y-34925000D02*
X130810000Y-99060000D01*
X48895000Y-34925000D02*
X130810000Y-34925000D01*
D12*
G36*
X123467395Y-94335546D02*
G01*
X123640466Y-94407234D01*
X123640467Y-94407235D01*
X123796227Y-94511310D01*
X123928690Y-94643773D01*
X123928691Y-94643775D01*
X124032766Y-94799534D01*
X124104454Y-94972605D01*
X124141000Y-95156333D01*
X124141000Y-95343667D01*
X124104454Y-95527395D01*
X124032766Y-95700466D01*
X124032765Y-95700467D01*
X123928690Y-95856227D01*
X123796227Y-95988690D01*
X123717818Y-96041081D01*
X123640466Y-96092766D01*
X123467395Y-96164454D01*
X123283667Y-96201000D01*
X123096333Y-96201000D01*
X122912605Y-96164454D01*
X122739534Y-96092766D01*
X122662182Y-96041081D01*
X122583773Y-95988690D01*
X122451310Y-95856227D01*
X122347235Y-95700467D01*
X122347234Y-95700466D01*
X122275546Y-95527395D01*
X122239000Y-95343667D01*
X122239000Y-95156333D01*
X122275546Y-94972605D01*
X122347234Y-94799534D01*
X122451309Y-94643775D01*
X122451310Y-94643773D01*
X122583773Y-94511310D01*
X122739533Y-94407235D01*
X122739534Y-94407234D01*
X122912605Y-94335546D01*
X123096333Y-94299000D01*
X123283667Y-94299000D01*
X123467395Y-94335546D01*
X123467395Y-94335546D01*
G37*
G36*
X120927395Y-94335546D02*
G01*
X121100466Y-94407234D01*
X121100467Y-94407235D01*
X121256227Y-94511310D01*
X121388690Y-94643773D01*
X121388691Y-94643775D01*
X121492766Y-94799534D01*
X121564454Y-94972605D01*
X121601000Y-95156333D01*
X121601000Y-95343667D01*
X121564454Y-95527395D01*
X121492766Y-95700466D01*
X121492765Y-95700467D01*
X121388690Y-95856227D01*
X121256227Y-95988690D01*
X121177818Y-96041081D01*
X121100466Y-96092766D01*
X120927395Y-96164454D01*
X120743667Y-96201000D01*
X120556333Y-96201000D01*
X120372605Y-96164454D01*
X120199534Y-96092766D01*
X120122182Y-96041081D01*
X120043773Y-95988690D01*
X119911310Y-95856227D01*
X119807235Y-95700467D01*
X119807234Y-95700466D01*
X119735546Y-95527395D01*
X119699000Y-95343667D01*
X119699000Y-95156333D01*
X119735546Y-94972605D01*
X119807234Y-94799534D01*
X119911309Y-94643775D01*
X119911310Y-94643773D01*
X120043773Y-94511310D01*
X120199533Y-94407235D01*
X120199534Y-94407234D01*
X120372605Y-94335546D01*
X120556333Y-94299000D01*
X120743667Y-94299000D01*
X120927395Y-94335546D01*
X120927395Y-94335546D01*
G37*
G36*
X108227395Y-94335546D02*
G01*
X108400466Y-94407234D01*
X108400467Y-94407235D01*
X108556227Y-94511310D01*
X108688690Y-94643773D01*
X108688691Y-94643775D01*
X108792766Y-94799534D01*
X108864454Y-94972605D01*
X108901000Y-95156333D01*
X108901000Y-95343667D01*
X108864454Y-95527395D01*
X108792766Y-95700466D01*
X108792765Y-95700467D01*
X108688690Y-95856227D01*
X108556227Y-95988690D01*
X108477818Y-96041081D01*
X108400466Y-96092766D01*
X108227395Y-96164454D01*
X108043667Y-96201000D01*
X107856333Y-96201000D01*
X107672605Y-96164454D01*
X107499534Y-96092766D01*
X107422182Y-96041081D01*
X107343773Y-95988690D01*
X107211310Y-95856227D01*
X107107235Y-95700467D01*
X107107234Y-95700466D01*
X107035546Y-95527395D01*
X106999000Y-95343667D01*
X106999000Y-95156333D01*
X107035546Y-94972605D01*
X107107234Y-94799534D01*
X107211309Y-94643775D01*
X107211310Y-94643773D01*
X107343773Y-94511310D01*
X107499533Y-94407235D01*
X107499534Y-94407234D01*
X107672605Y-94335546D01*
X107856333Y-94299000D01*
X108043667Y-94299000D01*
X108227395Y-94335546D01*
X108227395Y-94335546D01*
G37*
G36*
X110767395Y-94335546D02*
G01*
X110940466Y-94407234D01*
X110940467Y-94407235D01*
X111096227Y-94511310D01*
X111228690Y-94643773D01*
X111228691Y-94643775D01*
X111332766Y-94799534D01*
X111404454Y-94972605D01*
X111441000Y-95156333D01*
X111441000Y-95343667D01*
X111404454Y-95527395D01*
X111332766Y-95700466D01*
X111332765Y-95700467D01*
X111228690Y-95856227D01*
X111096227Y-95988690D01*
X111017818Y-96041081D01*
X110940466Y-96092766D01*
X110767395Y-96164454D01*
X110583667Y-96201000D01*
X110396333Y-96201000D01*
X110212605Y-96164454D01*
X110039534Y-96092766D01*
X109962182Y-96041081D01*
X109883773Y-95988690D01*
X109751310Y-95856227D01*
X109647235Y-95700467D01*
X109647234Y-95700466D01*
X109575546Y-95527395D01*
X109539000Y-95343667D01*
X109539000Y-95156333D01*
X109575546Y-94972605D01*
X109647234Y-94799534D01*
X109751309Y-94643775D01*
X109751310Y-94643773D01*
X109883773Y-94511310D01*
X110039533Y-94407235D01*
X110039534Y-94407234D01*
X110212605Y-94335546D01*
X110396333Y-94299000D01*
X110583667Y-94299000D01*
X110767395Y-94335546D01*
X110767395Y-94335546D01*
G37*
G36*
X115847395Y-94335546D02*
G01*
X116020466Y-94407234D01*
X116020467Y-94407235D01*
X116176227Y-94511310D01*
X116308690Y-94643773D01*
X116308691Y-94643775D01*
X116412766Y-94799534D01*
X116484454Y-94972605D01*
X116521000Y-95156333D01*
X116521000Y-95343667D01*
X116484454Y-95527395D01*
X116412766Y-95700466D01*
X116412765Y-95700467D01*
X116308690Y-95856227D01*
X116176227Y-95988690D01*
X116097818Y-96041081D01*
X116020466Y-96092766D01*
X115847395Y-96164454D01*
X115663667Y-96201000D01*
X115476333Y-96201000D01*
X115292605Y-96164454D01*
X115119534Y-96092766D01*
X115042182Y-96041081D01*
X114963773Y-95988690D01*
X114831310Y-95856227D01*
X114727235Y-95700467D01*
X114727234Y-95700466D01*
X114655546Y-95527395D01*
X114619000Y-95343667D01*
X114619000Y-95156333D01*
X114655546Y-94972605D01*
X114727234Y-94799534D01*
X114831309Y-94643775D01*
X114831310Y-94643773D01*
X114963773Y-94511310D01*
X115119533Y-94407235D01*
X115119534Y-94407234D01*
X115292605Y-94335546D01*
X115476333Y-94299000D01*
X115663667Y-94299000D01*
X115847395Y-94335546D01*
X115847395Y-94335546D01*
G37*
G36*
X113307395Y-94335546D02*
G01*
X113480466Y-94407234D01*
X113480467Y-94407235D01*
X113636227Y-94511310D01*
X113768690Y-94643773D01*
X113768691Y-94643775D01*
X113872766Y-94799534D01*
X113944454Y-94972605D01*
X113981000Y-95156333D01*
X113981000Y-95343667D01*
X113944454Y-95527395D01*
X113872766Y-95700466D01*
X113872765Y-95700467D01*
X113768690Y-95856227D01*
X113636227Y-95988690D01*
X113557818Y-96041081D01*
X113480466Y-96092766D01*
X113307395Y-96164454D01*
X113123667Y-96201000D01*
X112936333Y-96201000D01*
X112752605Y-96164454D01*
X112579534Y-96092766D01*
X112502182Y-96041081D01*
X112423773Y-95988690D01*
X112291310Y-95856227D01*
X112187235Y-95700467D01*
X112187234Y-95700466D01*
X112115546Y-95527395D01*
X112079000Y-95343667D01*
X112079000Y-95156333D01*
X112115546Y-94972605D01*
X112187234Y-94799534D01*
X112291309Y-94643775D01*
X112291310Y-94643773D01*
X112423773Y-94511310D01*
X112579533Y-94407235D01*
X112579534Y-94407234D01*
X112752605Y-94335546D01*
X112936333Y-94299000D01*
X113123667Y-94299000D01*
X113307395Y-94335546D01*
X113307395Y-94335546D01*
G37*
G36*
X118387395Y-94335546D02*
G01*
X118560466Y-94407234D01*
X118560467Y-94407235D01*
X118716227Y-94511310D01*
X118848690Y-94643773D01*
X118848691Y-94643775D01*
X118952766Y-94799534D01*
X119024454Y-94972605D01*
X119061000Y-95156333D01*
X119061000Y-95343667D01*
X119024454Y-95527395D01*
X118952766Y-95700466D01*
X118952765Y-95700467D01*
X118848690Y-95856227D01*
X118716227Y-95988690D01*
X118637818Y-96041081D01*
X118560466Y-96092766D01*
X118387395Y-96164454D01*
X118203667Y-96201000D01*
X118016333Y-96201000D01*
X117832605Y-96164454D01*
X117659534Y-96092766D01*
X117582182Y-96041081D01*
X117503773Y-95988690D01*
X117371310Y-95856227D01*
X117267235Y-95700467D01*
X117267234Y-95700466D01*
X117195546Y-95527395D01*
X117159000Y-95343667D01*
X117159000Y-95156333D01*
X117195546Y-94972605D01*
X117267234Y-94799534D01*
X117371309Y-94643775D01*
X117371310Y-94643773D01*
X117503773Y-94511310D01*
X117659533Y-94407235D01*
X117659534Y-94407234D01*
X117832605Y-94335546D01*
X118016333Y-94299000D01*
X118203667Y-94299000D01*
X118387395Y-94335546D01*
X118387395Y-94335546D01*
G37*
G36*
X70156564Y-93589389D02*
G01*
X70347833Y-93668615D01*
X70347835Y-93668616D01*
X70519973Y-93783635D01*
X70666365Y-93930027D01*
X70781385Y-94102167D01*
X70860611Y-94293436D01*
X70901000Y-94496484D01*
X70901000Y-94703516D01*
X70860611Y-94906564D01*
X70833256Y-94972604D01*
X70781384Y-95097835D01*
X70666365Y-95269973D01*
X70519973Y-95416365D01*
X70347835Y-95531384D01*
X70347834Y-95531385D01*
X70347833Y-95531385D01*
X70156564Y-95610611D01*
X69953516Y-95651000D01*
X69746484Y-95651000D01*
X69543436Y-95610611D01*
X69352167Y-95531385D01*
X69352166Y-95531385D01*
X69352165Y-95531384D01*
X69180027Y-95416365D01*
X69033635Y-95269973D01*
X68918616Y-95097835D01*
X68866744Y-94972604D01*
X68839389Y-94906564D01*
X68799000Y-94703516D01*
X68799000Y-94496484D01*
X68839389Y-94293436D01*
X68918615Y-94102167D01*
X69033635Y-93930027D01*
X69180027Y-93783635D01*
X69352165Y-93668616D01*
X69352167Y-93668615D01*
X69543436Y-93589389D01*
X69746484Y-93549000D01*
X69953516Y-93549000D01*
X70156564Y-93589389D01*
X70156564Y-93589389D01*
G37*
G36*
X72696564Y-93589389D02*
G01*
X72887833Y-93668615D01*
X72887835Y-93668616D01*
X73059973Y-93783635D01*
X73206365Y-93930027D01*
X73321385Y-94102167D01*
X73400611Y-94293436D01*
X73441000Y-94496484D01*
X73441000Y-94703516D01*
X73400611Y-94906564D01*
X73373256Y-94972604D01*
X73321384Y-95097835D01*
X73206365Y-95269973D01*
X73059973Y-95416365D01*
X72887835Y-95531384D01*
X72887834Y-95531385D01*
X72887833Y-95531385D01*
X72696564Y-95610611D01*
X72493516Y-95651000D01*
X72286484Y-95651000D01*
X72083436Y-95610611D01*
X71892167Y-95531385D01*
X71892166Y-95531385D01*
X71892165Y-95531384D01*
X71720027Y-95416365D01*
X71573635Y-95269973D01*
X71458616Y-95097835D01*
X71406744Y-94972604D01*
X71379389Y-94906564D01*
X71339000Y-94703516D01*
X71339000Y-94496484D01*
X71379389Y-94293436D01*
X71458615Y-94102167D01*
X71573635Y-93930027D01*
X71720027Y-93783635D01*
X71892165Y-93668616D01*
X71892167Y-93668615D01*
X72083436Y-93589389D01*
X72286484Y-93549000D01*
X72493516Y-93549000D01*
X72696564Y-93589389D01*
X72696564Y-93589389D01*
G37*
G36*
X75236564Y-93589389D02*
G01*
X75427833Y-93668615D01*
X75427835Y-93668616D01*
X75599973Y-93783635D01*
X75746365Y-93930027D01*
X75861385Y-94102167D01*
X75940611Y-94293436D01*
X75981000Y-94496484D01*
X75981000Y-94703516D01*
X75940611Y-94906564D01*
X75913256Y-94972604D01*
X75861384Y-95097835D01*
X75746365Y-95269973D01*
X75599973Y-95416365D01*
X75427835Y-95531384D01*
X75427834Y-95531385D01*
X75427833Y-95531385D01*
X75236564Y-95610611D01*
X75033516Y-95651000D01*
X74826484Y-95651000D01*
X74623436Y-95610611D01*
X74432167Y-95531385D01*
X74432166Y-95531385D01*
X74432165Y-95531384D01*
X74260027Y-95416365D01*
X74113635Y-95269973D01*
X73998616Y-95097835D01*
X73946744Y-94972604D01*
X73919389Y-94906564D01*
X73879000Y-94703516D01*
X73879000Y-94496484D01*
X73919389Y-94293436D01*
X73998615Y-94102167D01*
X74113635Y-93930027D01*
X74260027Y-93783635D01*
X74432165Y-93668616D01*
X74432167Y-93668615D01*
X74623436Y-93589389D01*
X74826484Y-93549000D01*
X75033516Y-93549000D01*
X75236564Y-93589389D01*
X75236564Y-93589389D01*
G37*
G36*
X98535443Y-90545519D02*
G01*
X98601627Y-90552037D01*
X98771466Y-90603557D01*
X98927991Y-90687222D01*
X98963729Y-90716552D01*
X99065186Y-90799814D01*
X99146310Y-90898665D01*
X99177778Y-90937009D01*
X99261443Y-91093534D01*
X99312963Y-91263373D01*
X99330359Y-91440000D01*
X99312963Y-91616627D01*
X99261443Y-91786466D01*
X99177778Y-91942991D01*
X99148448Y-91978729D01*
X99065186Y-92080186D01*
X98963729Y-92163448D01*
X98927991Y-92192778D01*
X98771466Y-92276443D01*
X98601627Y-92327963D01*
X98535443Y-92334481D01*
X98469260Y-92341000D01*
X98380740Y-92341000D01*
X98314557Y-92334481D01*
X98248373Y-92327963D01*
X98078534Y-92276443D01*
X97922009Y-92192778D01*
X97886271Y-92163448D01*
X97784814Y-92080186D01*
X97701552Y-91978729D01*
X97672222Y-91942991D01*
X97588557Y-91786466D01*
X97537037Y-91616627D01*
X97519641Y-91440000D01*
X97537037Y-91263373D01*
X97588557Y-91093534D01*
X97672222Y-90937009D01*
X97703690Y-90898665D01*
X97784814Y-90799814D01*
X97886271Y-90716552D01*
X97922009Y-90687222D01*
X98078534Y-90603557D01*
X98248373Y-90552037D01*
X98314557Y-90545519D01*
X98380740Y-90539000D01*
X98469260Y-90539000D01*
X98535443Y-90545519D01*
X98535443Y-90545519D01*
G37*
G36*
X83295443Y-90545519D02*
G01*
X83361627Y-90552037D01*
X83531466Y-90603557D01*
X83687991Y-90687222D01*
X83723729Y-90716552D01*
X83825186Y-90799814D01*
X83906310Y-90898665D01*
X83937778Y-90937009D01*
X84021443Y-91093534D01*
X84072963Y-91263373D01*
X84090359Y-91440000D01*
X84072963Y-91616627D01*
X84021443Y-91786466D01*
X83937778Y-91942991D01*
X83908448Y-91978729D01*
X83825186Y-92080186D01*
X83723729Y-92163448D01*
X83687991Y-92192778D01*
X83531466Y-92276443D01*
X83361627Y-92327963D01*
X83295443Y-92334481D01*
X83229260Y-92341000D01*
X83140740Y-92341000D01*
X83074557Y-92334481D01*
X83008373Y-92327963D01*
X82838534Y-92276443D01*
X82682009Y-92192778D01*
X82646271Y-92163448D01*
X82544814Y-92080186D01*
X82461552Y-91978729D01*
X82432222Y-91942991D01*
X82348557Y-91786466D01*
X82297037Y-91616627D01*
X82279641Y-91440000D01*
X82297037Y-91263373D01*
X82348557Y-91093534D01*
X82432222Y-90937009D01*
X82463690Y-90898665D01*
X82544814Y-90799814D01*
X82646271Y-90716552D01*
X82682009Y-90687222D01*
X82838534Y-90603557D01*
X83008373Y-90552037D01*
X83074557Y-90545519D01*
X83140740Y-90539000D01*
X83229260Y-90539000D01*
X83295443Y-90545519D01*
X83295443Y-90545519D01*
G37*
G36*
X52982395Y-89890546D02*
G01*
X53155466Y-89962234D01*
X53155467Y-89962235D01*
X53311227Y-90066310D01*
X53443690Y-90198773D01*
X53443691Y-90198775D01*
X53547766Y-90354534D01*
X53619454Y-90527605D01*
X53656000Y-90711333D01*
X53656000Y-90898667D01*
X53619454Y-91082395D01*
X53547766Y-91255466D01*
X53542481Y-91263375D01*
X53443690Y-91411227D01*
X53311227Y-91543690D01*
X53232818Y-91596081D01*
X53155466Y-91647766D01*
X52982395Y-91719454D01*
X52798667Y-91756000D01*
X52611333Y-91756000D01*
X52427605Y-91719454D01*
X52254534Y-91647766D01*
X52177182Y-91596081D01*
X52098773Y-91543690D01*
X51966310Y-91411227D01*
X51867519Y-91263375D01*
X51862234Y-91255466D01*
X51790546Y-91082395D01*
X51754000Y-90898667D01*
X51754000Y-90711333D01*
X51790546Y-90527605D01*
X51862234Y-90354534D01*
X51966309Y-90198775D01*
X51966310Y-90198773D01*
X52098773Y-90066310D01*
X52254533Y-89962235D01*
X52254534Y-89962234D01*
X52427605Y-89890546D01*
X52611333Y-89854000D01*
X52798667Y-89854000D01*
X52982395Y-89890546D01*
X52982395Y-89890546D01*
G37*
G36*
X55522395Y-89890546D02*
G01*
X55695466Y-89962234D01*
X55695467Y-89962235D01*
X55851227Y-90066310D01*
X55983690Y-90198773D01*
X55983691Y-90198775D01*
X56087766Y-90354534D01*
X56159454Y-90527605D01*
X56196000Y-90711333D01*
X56196000Y-90898667D01*
X56159454Y-91082395D01*
X56087766Y-91255466D01*
X56082481Y-91263375D01*
X55983690Y-91411227D01*
X55851227Y-91543690D01*
X55772818Y-91596081D01*
X55695466Y-91647766D01*
X55522395Y-91719454D01*
X55338667Y-91756000D01*
X55151333Y-91756000D01*
X54967605Y-91719454D01*
X54794534Y-91647766D01*
X54717182Y-91596081D01*
X54638773Y-91543690D01*
X54506310Y-91411227D01*
X54407519Y-91263375D01*
X54402234Y-91255466D01*
X54330546Y-91082395D01*
X54294000Y-90898667D01*
X54294000Y-90711333D01*
X54330546Y-90527605D01*
X54402234Y-90354534D01*
X54506309Y-90198775D01*
X54506310Y-90198773D01*
X54638773Y-90066310D01*
X54794533Y-89962235D01*
X54794534Y-89962234D01*
X54967605Y-89890546D01*
X55151333Y-89854000D01*
X55338667Y-89854000D01*
X55522395Y-89890546D01*
X55522395Y-89890546D01*
G37*
G36*
X58062395Y-89890546D02*
G01*
X58235466Y-89962234D01*
X58235467Y-89962235D01*
X58391227Y-90066310D01*
X58523690Y-90198773D01*
X58523691Y-90198775D01*
X58627766Y-90354534D01*
X58699454Y-90527605D01*
X58736000Y-90711333D01*
X58736000Y-90898667D01*
X58699454Y-91082395D01*
X58627766Y-91255466D01*
X58622481Y-91263375D01*
X58523690Y-91411227D01*
X58391227Y-91543690D01*
X58312818Y-91596081D01*
X58235466Y-91647766D01*
X58062395Y-91719454D01*
X57878667Y-91756000D01*
X57691333Y-91756000D01*
X57507605Y-91719454D01*
X57334534Y-91647766D01*
X57257182Y-91596081D01*
X57178773Y-91543690D01*
X57046310Y-91411227D01*
X56947519Y-91263375D01*
X56942234Y-91255466D01*
X56870546Y-91082395D01*
X56834000Y-90898667D01*
X56834000Y-90711333D01*
X56870546Y-90527605D01*
X56942234Y-90354534D01*
X57046309Y-90198775D01*
X57046310Y-90198773D01*
X57178773Y-90066310D01*
X57334533Y-89962235D01*
X57334534Y-89962234D01*
X57507605Y-89890546D01*
X57691333Y-89854000D01*
X57878667Y-89854000D01*
X58062395Y-89890546D01*
X58062395Y-89890546D01*
G37*
G36*
X60602395Y-89890546D02*
G01*
X60775466Y-89962234D01*
X60775467Y-89962235D01*
X60931227Y-90066310D01*
X61063690Y-90198773D01*
X61063691Y-90198775D01*
X61167766Y-90354534D01*
X61239454Y-90527605D01*
X61276000Y-90711333D01*
X61276000Y-90898667D01*
X61239454Y-91082395D01*
X61167766Y-91255466D01*
X61162481Y-91263375D01*
X61063690Y-91411227D01*
X60931227Y-91543690D01*
X60852818Y-91596081D01*
X60775466Y-91647766D01*
X60602395Y-91719454D01*
X60418667Y-91756000D01*
X60231333Y-91756000D01*
X60047605Y-91719454D01*
X59874534Y-91647766D01*
X59797182Y-91596081D01*
X59718773Y-91543690D01*
X59586310Y-91411227D01*
X59487519Y-91263375D01*
X59482234Y-91255466D01*
X59410546Y-91082395D01*
X59374000Y-90898667D01*
X59374000Y-90711333D01*
X59410546Y-90527605D01*
X59482234Y-90354534D01*
X59586309Y-90198775D01*
X59586310Y-90198773D01*
X59718773Y-90066310D01*
X59874533Y-89962235D01*
X59874534Y-89962234D01*
X60047605Y-89890546D01*
X60231333Y-89854000D01*
X60418667Y-89854000D01*
X60602395Y-89890546D01*
X60602395Y-89890546D01*
G37*
G36*
X83295443Y-88005519D02*
G01*
X83361627Y-88012037D01*
X83531466Y-88063557D01*
X83687991Y-88147222D01*
X83723729Y-88176552D01*
X83825186Y-88259814D01*
X83908448Y-88361271D01*
X83937778Y-88397009D01*
X84021443Y-88553534D01*
X84072963Y-88723373D01*
X84090359Y-88900000D01*
X84072963Y-89076627D01*
X84021443Y-89246466D01*
X83937778Y-89402991D01*
X83908448Y-89438729D01*
X83825186Y-89540186D01*
X83723729Y-89623448D01*
X83687991Y-89652778D01*
X83531466Y-89736443D01*
X83361627Y-89787963D01*
X83295443Y-89794481D01*
X83229260Y-89801000D01*
X83140740Y-89801000D01*
X83074557Y-89794481D01*
X83008373Y-89787963D01*
X82838534Y-89736443D01*
X82682009Y-89652778D01*
X82646271Y-89623448D01*
X82544814Y-89540186D01*
X82461552Y-89438729D01*
X82432222Y-89402991D01*
X82348557Y-89246466D01*
X82297037Y-89076627D01*
X82279641Y-88900000D01*
X82297037Y-88723373D01*
X82348557Y-88553534D01*
X82432222Y-88397009D01*
X82461552Y-88361271D01*
X82544814Y-88259814D01*
X82646271Y-88176552D01*
X82682009Y-88147222D01*
X82838534Y-88063557D01*
X83008373Y-88012037D01*
X83074557Y-88005519D01*
X83140740Y-87999000D01*
X83229260Y-87999000D01*
X83295443Y-88005519D01*
X83295443Y-88005519D01*
G37*
G36*
X98591823Y-88061313D02*
G01*
X98752242Y-88109976D01*
X98821922Y-88147221D01*
X98900078Y-88188996D01*
X99029659Y-88295341D01*
X99136004Y-88424922D01*
X99136005Y-88424924D01*
X99215024Y-88572758D01*
X99263687Y-88733177D01*
X99280117Y-88900000D01*
X99263687Y-89066823D01*
X99215024Y-89227242D01*
X99204747Y-89246468D01*
X99136004Y-89375078D01*
X99029659Y-89504659D01*
X98900078Y-89611004D01*
X98900076Y-89611005D01*
X98752242Y-89690024D01*
X98591823Y-89738687D01*
X98466804Y-89751000D01*
X98383196Y-89751000D01*
X98258177Y-89738687D01*
X98097758Y-89690024D01*
X97949924Y-89611005D01*
X97949922Y-89611004D01*
X97820341Y-89504659D01*
X97713996Y-89375078D01*
X97645253Y-89246468D01*
X97634976Y-89227242D01*
X97586313Y-89066823D01*
X97569883Y-88900000D01*
X97586313Y-88733177D01*
X97634976Y-88572758D01*
X97713995Y-88424924D01*
X97713996Y-88424922D01*
X97820341Y-88295341D01*
X97949922Y-88188996D01*
X98028078Y-88147221D01*
X98097758Y-88109976D01*
X98258177Y-88061313D01*
X98383196Y-88049000D01*
X98466804Y-88049000D01*
X98591823Y-88061313D01*
X98591823Y-88061313D01*
G37*
G36*
X83371425Y-85422760D02*
G01*
X83371428Y-85422761D01*
X83371429Y-85422761D01*
X83550693Y-85477140D01*
X83550696Y-85477142D01*
X83550697Y-85477142D01*
X83715903Y-85565446D01*
X83860712Y-85684288D01*
X83979554Y-85829097D01*
X84067858Y-85994303D01*
X84067860Y-85994307D01*
X84122239Y-86173571D01*
X84122240Y-86173575D01*
X84140601Y-86360000D01*
X84122240Y-86546425D01*
X84122239Y-86546428D01*
X84122239Y-86546429D01*
X84067860Y-86725693D01*
X84067858Y-86725696D01*
X84067858Y-86725697D01*
X83979554Y-86890903D01*
X83860712Y-87035712D01*
X83715903Y-87154554D01*
X83610299Y-87211000D01*
X83550693Y-87242860D01*
X83371429Y-87297239D01*
X83371428Y-87297239D01*
X83371425Y-87297240D01*
X83231718Y-87311000D01*
X83138282Y-87311000D01*
X82998575Y-87297240D01*
X82998572Y-87297239D01*
X82998571Y-87297239D01*
X82819307Y-87242860D01*
X82759701Y-87211000D01*
X82654097Y-87154554D01*
X82509288Y-87035712D01*
X82390446Y-86890903D01*
X82302142Y-86725697D01*
X82302142Y-86725696D01*
X82302140Y-86725693D01*
X82247761Y-86546429D01*
X82247761Y-86546428D01*
X82247760Y-86546425D01*
X82229399Y-86360000D01*
X82247760Y-86173575D01*
X82247761Y-86173571D01*
X82302140Y-85994307D01*
X82302142Y-85994303D01*
X82390446Y-85829097D01*
X82509288Y-85684288D01*
X82654097Y-85565446D01*
X82819303Y-85477142D01*
X82819304Y-85477142D01*
X82819307Y-85477140D01*
X82998571Y-85422761D01*
X82998572Y-85422761D01*
X82998575Y-85422760D01*
X83138282Y-85409000D01*
X83231718Y-85409000D01*
X83371425Y-85422760D01*
X83371425Y-85422760D01*
G37*
G36*
X98591823Y-85521313D02*
G01*
X98752242Y-85569976D01*
X98884906Y-85640886D01*
X98900078Y-85648996D01*
X99029659Y-85755341D01*
X99136004Y-85884922D01*
X99136005Y-85884924D01*
X99215024Y-86032758D01*
X99263687Y-86193177D01*
X99280117Y-86360000D01*
X99263687Y-86526823D01*
X99215024Y-86687242D01*
X99194471Y-86725693D01*
X99136004Y-86835078D01*
X99029659Y-86964659D01*
X98900078Y-87071004D01*
X98900076Y-87071005D01*
X98752242Y-87150024D01*
X98591823Y-87198687D01*
X98466804Y-87211000D01*
X98383196Y-87211000D01*
X98258177Y-87198687D01*
X98097758Y-87150024D01*
X97949924Y-87071005D01*
X97949922Y-87071004D01*
X97820341Y-86964659D01*
X97713996Y-86835078D01*
X97655529Y-86725693D01*
X97634976Y-86687242D01*
X97586313Y-86526823D01*
X97569883Y-86360000D01*
X97586313Y-86193177D01*
X97634976Y-86032758D01*
X97713995Y-85884924D01*
X97713996Y-85884922D01*
X97820341Y-85755341D01*
X97949922Y-85648996D01*
X97965094Y-85640886D01*
X98097758Y-85569976D01*
X98258177Y-85521313D01*
X98383196Y-85509000D01*
X98466804Y-85509000D01*
X98591823Y-85521313D01*
X98591823Y-85521313D01*
G37*
G36*
X98611425Y-82882760D02*
G01*
X98611428Y-82882761D01*
X98611429Y-82882761D01*
X98790693Y-82937140D01*
X98790696Y-82937142D01*
X98790697Y-82937142D01*
X98955903Y-83025446D01*
X99100712Y-83144288D01*
X99219554Y-83289097D01*
X99307858Y-83454303D01*
X99307860Y-83454307D01*
X99362239Y-83633571D01*
X99362240Y-83633575D01*
X99380601Y-83820000D01*
X99362240Y-84006425D01*
X99362239Y-84006428D01*
X99362239Y-84006429D01*
X99307860Y-84185693D01*
X99307858Y-84185696D01*
X99307858Y-84185697D01*
X99219554Y-84350903D01*
X99100712Y-84495712D01*
X98955903Y-84614554D01*
X98790697Y-84702858D01*
X98790693Y-84702860D01*
X98611429Y-84757239D01*
X98611428Y-84757239D01*
X98611425Y-84757240D01*
X98471718Y-84771000D01*
X98378282Y-84771000D01*
X98238575Y-84757240D01*
X98238572Y-84757239D01*
X98238571Y-84757239D01*
X98059307Y-84702860D01*
X98059303Y-84702858D01*
X97894097Y-84614554D01*
X97749288Y-84495712D01*
X97630446Y-84350903D01*
X97542142Y-84185697D01*
X97542142Y-84185696D01*
X97542140Y-84185693D01*
X97487761Y-84006429D01*
X97487761Y-84006428D01*
X97487760Y-84006425D01*
X97469399Y-83820000D01*
X97487760Y-83633575D01*
X97487761Y-83633571D01*
X97542140Y-83454307D01*
X97542142Y-83454303D01*
X97630446Y-83289097D01*
X97749288Y-83144288D01*
X97894097Y-83025446D01*
X98059303Y-82937142D01*
X98059304Y-82937142D01*
X98059307Y-82937140D01*
X98238571Y-82882761D01*
X98238572Y-82882761D01*
X98238575Y-82882760D01*
X98378282Y-82869000D01*
X98471718Y-82869000D01*
X98611425Y-82882760D01*
X98611425Y-82882760D01*
G37*
G36*
X83371425Y-82882760D02*
G01*
X83371428Y-82882761D01*
X83371429Y-82882761D01*
X83550693Y-82937140D01*
X83550696Y-82937142D01*
X83550697Y-82937142D01*
X83715903Y-83025446D01*
X83860712Y-83144288D01*
X83979554Y-83289097D01*
X84067858Y-83454303D01*
X84067860Y-83454307D01*
X84122239Y-83633571D01*
X84122240Y-83633575D01*
X84140601Y-83820000D01*
X84122240Y-84006425D01*
X84122239Y-84006428D01*
X84122239Y-84006429D01*
X84067860Y-84185693D01*
X84067858Y-84185696D01*
X84067858Y-84185697D01*
X83979554Y-84350903D01*
X83860712Y-84495712D01*
X83715903Y-84614554D01*
X83550697Y-84702858D01*
X83550693Y-84702860D01*
X83371429Y-84757239D01*
X83371428Y-84757239D01*
X83371425Y-84757240D01*
X83231718Y-84771000D01*
X83138282Y-84771000D01*
X82998575Y-84757240D01*
X82998572Y-84757239D01*
X82998571Y-84757239D01*
X82819307Y-84702860D01*
X82819303Y-84702858D01*
X82654097Y-84614554D01*
X82509288Y-84495712D01*
X82390446Y-84350903D01*
X82302142Y-84185697D01*
X82302142Y-84185696D01*
X82302140Y-84185693D01*
X82247761Y-84006429D01*
X82247761Y-84006428D01*
X82247760Y-84006425D01*
X82229399Y-83820000D01*
X82247760Y-83633575D01*
X82247761Y-83633571D01*
X82302140Y-83454307D01*
X82302142Y-83454303D01*
X82390446Y-83289097D01*
X82509288Y-83144288D01*
X82654097Y-83025446D01*
X82819303Y-82937142D01*
X82819304Y-82937142D01*
X82819307Y-82937140D01*
X82998571Y-82882761D01*
X82998572Y-82882761D01*
X82998575Y-82882760D01*
X83138282Y-82869000D01*
X83231718Y-82869000D01*
X83371425Y-82882760D01*
X83371425Y-82882760D01*
G37*
G36*
X83371425Y-80342760D02*
G01*
X83371428Y-80342761D01*
X83371429Y-80342761D01*
X83550693Y-80397140D01*
X83550696Y-80397142D01*
X83550697Y-80397142D01*
X83715903Y-80485446D01*
X83860712Y-80604288D01*
X83979554Y-80749097D01*
X84067858Y-80914303D01*
X84067860Y-80914307D01*
X84122239Y-81093571D01*
X84122240Y-81093575D01*
X84140601Y-81280000D01*
X84122240Y-81466425D01*
X84122239Y-81466428D01*
X84122239Y-81466429D01*
X84067860Y-81645693D01*
X84067858Y-81645696D01*
X84067858Y-81645697D01*
X83979554Y-81810903D01*
X83860712Y-81955712D01*
X83715903Y-82074554D01*
X83610299Y-82131000D01*
X83550693Y-82162860D01*
X83371429Y-82217239D01*
X83371428Y-82217239D01*
X83371425Y-82217240D01*
X83231718Y-82231000D01*
X83138282Y-82231000D01*
X82998575Y-82217240D01*
X82998572Y-82217239D01*
X82998571Y-82217239D01*
X82819307Y-82162860D01*
X82759701Y-82131000D01*
X82654097Y-82074554D01*
X82509288Y-81955712D01*
X82390446Y-81810903D01*
X82302142Y-81645697D01*
X82302142Y-81645696D01*
X82302140Y-81645693D01*
X82247761Y-81466429D01*
X82247761Y-81466428D01*
X82247760Y-81466425D01*
X82229399Y-81280000D01*
X82247760Y-81093575D01*
X82247761Y-81093571D01*
X82302140Y-80914307D01*
X82302142Y-80914303D01*
X82390446Y-80749097D01*
X82509288Y-80604288D01*
X82654097Y-80485446D01*
X82819303Y-80397142D01*
X82819304Y-80397142D01*
X82819307Y-80397140D01*
X82998571Y-80342761D01*
X82998572Y-80342761D01*
X82998575Y-80342760D01*
X83138282Y-80329000D01*
X83231718Y-80329000D01*
X83371425Y-80342760D01*
X83371425Y-80342760D01*
G37*
G36*
X98591823Y-80441313D02*
G01*
X98752242Y-80489976D01*
X98884906Y-80560886D01*
X98900078Y-80568996D01*
X99029659Y-80675341D01*
X99136004Y-80804922D01*
X99136005Y-80804924D01*
X99215024Y-80952758D01*
X99263687Y-81113177D01*
X99280117Y-81280000D01*
X99263687Y-81446823D01*
X99215024Y-81607242D01*
X99194471Y-81645693D01*
X99136004Y-81755078D01*
X99029659Y-81884659D01*
X98900078Y-81991004D01*
X98900076Y-81991005D01*
X98752242Y-82070024D01*
X98591823Y-82118687D01*
X98466804Y-82131000D01*
X98383196Y-82131000D01*
X98258177Y-82118687D01*
X98097758Y-82070024D01*
X97949924Y-81991005D01*
X97949922Y-81991004D01*
X97820341Y-81884659D01*
X97713996Y-81755078D01*
X97655529Y-81645693D01*
X97634976Y-81607242D01*
X97586313Y-81446823D01*
X97569883Y-81280000D01*
X97586313Y-81113177D01*
X97634976Y-80952758D01*
X97713995Y-80804924D01*
X97713996Y-80804922D01*
X97820341Y-80675341D01*
X97949922Y-80568996D01*
X97965094Y-80560886D01*
X98097758Y-80489976D01*
X98258177Y-80441313D01*
X98383196Y-80429000D01*
X98466804Y-80429000D01*
X98591823Y-80441313D01*
X98591823Y-80441313D01*
G37*
G36*
X83371425Y-77802760D02*
G01*
X83371428Y-77802761D01*
X83371429Y-77802761D01*
X83550693Y-77857140D01*
X83550696Y-77857142D01*
X83550697Y-77857142D01*
X83715903Y-77945446D01*
X83860712Y-78064288D01*
X83979554Y-78209097D01*
X84067858Y-78374303D01*
X84067860Y-78374307D01*
X84122239Y-78553571D01*
X84122240Y-78553575D01*
X84140601Y-78740000D01*
X84122240Y-78926425D01*
X84122239Y-78926428D01*
X84122239Y-78926429D01*
X84067860Y-79105693D01*
X84067858Y-79105696D01*
X84067858Y-79105697D01*
X83979554Y-79270903D01*
X83860712Y-79415712D01*
X83715903Y-79534554D01*
X83610299Y-79591000D01*
X83550693Y-79622860D01*
X83371429Y-79677239D01*
X83371428Y-79677239D01*
X83371425Y-79677240D01*
X83231718Y-79691000D01*
X83138282Y-79691000D01*
X82998575Y-79677240D01*
X82998572Y-79677239D01*
X82998571Y-79677239D01*
X82819307Y-79622860D01*
X82759701Y-79591000D01*
X82654097Y-79534554D01*
X82509288Y-79415712D01*
X82390446Y-79270903D01*
X82302142Y-79105697D01*
X82302142Y-79105696D01*
X82302140Y-79105693D01*
X82247761Y-78926429D01*
X82247761Y-78926428D01*
X82247760Y-78926425D01*
X82229399Y-78740000D01*
X82247760Y-78553575D01*
X82247761Y-78553571D01*
X82302140Y-78374307D01*
X82302142Y-78374303D01*
X82390446Y-78209097D01*
X82509288Y-78064288D01*
X82654097Y-77945446D01*
X82819303Y-77857142D01*
X82819304Y-77857142D01*
X82819307Y-77857140D01*
X82998571Y-77802761D01*
X82998572Y-77802761D01*
X82998575Y-77802760D01*
X83138282Y-77789000D01*
X83231718Y-77789000D01*
X83371425Y-77802760D01*
X83371425Y-77802760D01*
G37*
G36*
X98591823Y-77901313D02*
G01*
X98752242Y-77949976D01*
X98884906Y-78020886D01*
X98900078Y-78028996D01*
X99029659Y-78135341D01*
X99136004Y-78264922D01*
X99136005Y-78264924D01*
X99215024Y-78412758D01*
X99263687Y-78573177D01*
X99280117Y-78740000D01*
X99263687Y-78906823D01*
X99215024Y-79067242D01*
X99194471Y-79105693D01*
X99136004Y-79215078D01*
X99029659Y-79344659D01*
X98900078Y-79451004D01*
X98900076Y-79451005D01*
X98752242Y-79530024D01*
X98591823Y-79578687D01*
X98466804Y-79591000D01*
X98383196Y-79591000D01*
X98258177Y-79578687D01*
X98097758Y-79530024D01*
X97949924Y-79451005D01*
X97949922Y-79451004D01*
X97820341Y-79344659D01*
X97713996Y-79215078D01*
X97655529Y-79105693D01*
X97634976Y-79067242D01*
X97586313Y-78906823D01*
X97569883Y-78740000D01*
X97586313Y-78573177D01*
X97634976Y-78412758D01*
X97713995Y-78264924D01*
X97713996Y-78264922D01*
X97820341Y-78135341D01*
X97949922Y-78028996D01*
X97965094Y-78020886D01*
X98097758Y-77949976D01*
X98258177Y-77901313D01*
X98383196Y-77889000D01*
X98466804Y-77889000D01*
X98591823Y-77901313D01*
X98591823Y-77901313D01*
G37*
G36*
X83371425Y-75262760D02*
G01*
X83371428Y-75262761D01*
X83371429Y-75262761D01*
X83550693Y-75317140D01*
X83550696Y-75317142D01*
X83550697Y-75317142D01*
X83715903Y-75405446D01*
X83860712Y-75524288D01*
X83979554Y-75669097D01*
X84067858Y-75834303D01*
X84067860Y-75834307D01*
X84122239Y-76013571D01*
X84122240Y-76013575D01*
X84140601Y-76200000D01*
X84122240Y-76386425D01*
X84122239Y-76386428D01*
X84122239Y-76386429D01*
X84067860Y-76565693D01*
X84067858Y-76565696D01*
X84067858Y-76565697D01*
X83979554Y-76730903D01*
X83860712Y-76875712D01*
X83715903Y-76994554D01*
X83610299Y-77051000D01*
X83550693Y-77082860D01*
X83371429Y-77137239D01*
X83371428Y-77137239D01*
X83371425Y-77137240D01*
X83231718Y-77151000D01*
X83138282Y-77151000D01*
X82998575Y-77137240D01*
X82998572Y-77137239D01*
X82998571Y-77137239D01*
X82819307Y-77082860D01*
X82759701Y-77051000D01*
X82654097Y-76994554D01*
X82509288Y-76875712D01*
X82390446Y-76730903D01*
X82302142Y-76565697D01*
X82302142Y-76565696D01*
X82302140Y-76565693D01*
X82247761Y-76386429D01*
X82247761Y-76386428D01*
X82247760Y-76386425D01*
X82229399Y-76200000D01*
X82247760Y-76013575D01*
X82247761Y-76013571D01*
X82302140Y-75834307D01*
X82302142Y-75834303D01*
X82390446Y-75669097D01*
X82509288Y-75524288D01*
X82654097Y-75405446D01*
X82819303Y-75317142D01*
X82819304Y-75317142D01*
X82819307Y-75317140D01*
X82998571Y-75262761D01*
X82998572Y-75262761D01*
X82998575Y-75262760D01*
X83138282Y-75249000D01*
X83231718Y-75249000D01*
X83371425Y-75262760D01*
X83371425Y-75262760D01*
G37*
G36*
X98591823Y-75361313D02*
G01*
X98752242Y-75409976D01*
X98884906Y-75480886D01*
X98900078Y-75488996D01*
X99029659Y-75595341D01*
X99136004Y-75724922D01*
X99136005Y-75724924D01*
X99215024Y-75872758D01*
X99263687Y-76033177D01*
X99280117Y-76200000D01*
X99263687Y-76366823D01*
X99215024Y-76527242D01*
X99194471Y-76565693D01*
X99136004Y-76675078D01*
X99029659Y-76804659D01*
X98900078Y-76911004D01*
X98900076Y-76911005D01*
X98752242Y-76990024D01*
X98591823Y-77038687D01*
X98466804Y-77051000D01*
X98383196Y-77051000D01*
X98258177Y-77038687D01*
X98097758Y-76990024D01*
X97949924Y-76911005D01*
X97949922Y-76911004D01*
X97820341Y-76804659D01*
X97713996Y-76675078D01*
X97655529Y-76565693D01*
X97634976Y-76527242D01*
X97586313Y-76366823D01*
X97569883Y-76200000D01*
X97586313Y-76033177D01*
X97634976Y-75872758D01*
X97713995Y-75724924D01*
X97713996Y-75724922D01*
X97820341Y-75595341D01*
X97949922Y-75488996D01*
X97965094Y-75480886D01*
X98097758Y-75409976D01*
X98258177Y-75361313D01*
X98383196Y-75349000D01*
X98466804Y-75349000D01*
X98591823Y-75361313D01*
X98591823Y-75361313D01*
G37*
G36*
X83371425Y-72722760D02*
G01*
X83371428Y-72722761D01*
X83371429Y-72722761D01*
X83550693Y-72777140D01*
X83550696Y-72777142D01*
X83550697Y-72777142D01*
X83715903Y-72865446D01*
X83860712Y-72984288D01*
X83979554Y-73129097D01*
X84067858Y-73294303D01*
X84067860Y-73294307D01*
X84122239Y-73473571D01*
X84122240Y-73473575D01*
X84140601Y-73660000D01*
X84122240Y-73846425D01*
X84122239Y-73846428D01*
X84122239Y-73846429D01*
X84067860Y-74025693D01*
X84067858Y-74025696D01*
X84067858Y-74025697D01*
X83979554Y-74190903D01*
X83860712Y-74335712D01*
X83715903Y-74454554D01*
X83610299Y-74511000D01*
X83550693Y-74542860D01*
X83371429Y-74597239D01*
X83371428Y-74597239D01*
X83371425Y-74597240D01*
X83231718Y-74611000D01*
X83138282Y-74611000D01*
X82998575Y-74597240D01*
X82998572Y-74597239D01*
X82998571Y-74597239D01*
X82819307Y-74542860D01*
X82759701Y-74511000D01*
X82654097Y-74454554D01*
X82509288Y-74335712D01*
X82390446Y-74190903D01*
X82302142Y-74025697D01*
X82302142Y-74025696D01*
X82302140Y-74025693D01*
X82247761Y-73846429D01*
X82247761Y-73846428D01*
X82247760Y-73846425D01*
X82229399Y-73660000D01*
X82247760Y-73473575D01*
X82247761Y-73473571D01*
X82302140Y-73294307D01*
X82302142Y-73294303D01*
X82390446Y-73129097D01*
X82509288Y-72984288D01*
X82654097Y-72865446D01*
X82819303Y-72777142D01*
X82819304Y-72777142D01*
X82819307Y-72777140D01*
X82998571Y-72722761D01*
X82998572Y-72722761D01*
X82998575Y-72722760D01*
X83138282Y-72709000D01*
X83231718Y-72709000D01*
X83371425Y-72722760D01*
X83371425Y-72722760D01*
G37*
G36*
X98591823Y-72821313D02*
G01*
X98752242Y-72869976D01*
X98884906Y-72940886D01*
X98900078Y-72948996D01*
X99029659Y-73055341D01*
X99136004Y-73184922D01*
X99136005Y-73184924D01*
X99215024Y-73332758D01*
X99263687Y-73493177D01*
X99280117Y-73660000D01*
X99263687Y-73826823D01*
X99215024Y-73987242D01*
X99194471Y-74025693D01*
X99136004Y-74135078D01*
X99029659Y-74264659D01*
X98900078Y-74371004D01*
X98900076Y-74371005D01*
X98752242Y-74450024D01*
X98591823Y-74498687D01*
X98466804Y-74511000D01*
X98383196Y-74511000D01*
X98258177Y-74498687D01*
X98097758Y-74450024D01*
X97949924Y-74371005D01*
X97949922Y-74371004D01*
X97820341Y-74264659D01*
X97713996Y-74135078D01*
X97655529Y-74025693D01*
X97634976Y-73987242D01*
X97586313Y-73826823D01*
X97569883Y-73660000D01*
X97586313Y-73493177D01*
X97634976Y-73332758D01*
X97713995Y-73184924D01*
X97713996Y-73184922D01*
X97820341Y-73055341D01*
X97949922Y-72948996D01*
X97965094Y-72940886D01*
X98097758Y-72869976D01*
X98258177Y-72821313D01*
X98383196Y-72809000D01*
X98466804Y-72809000D01*
X98591823Y-72821313D01*
X98591823Y-72821313D01*
G37*
G36*
X83371425Y-70182760D02*
G01*
X83371428Y-70182761D01*
X83371429Y-70182761D01*
X83550693Y-70237140D01*
X83550696Y-70237142D01*
X83550697Y-70237142D01*
X83715903Y-70325446D01*
X83860712Y-70444288D01*
X83979554Y-70589097D01*
X84067858Y-70754303D01*
X84067860Y-70754307D01*
X84122239Y-70933571D01*
X84122240Y-70933575D01*
X84140601Y-71120000D01*
X84122240Y-71306425D01*
X84122239Y-71306428D01*
X84122239Y-71306429D01*
X84067860Y-71485693D01*
X84067858Y-71485696D01*
X84067858Y-71485697D01*
X83979554Y-71650903D01*
X83860712Y-71795712D01*
X83715903Y-71914554D01*
X83610299Y-71971000D01*
X83550693Y-72002860D01*
X83371429Y-72057239D01*
X83371428Y-72057239D01*
X83371425Y-72057240D01*
X83231718Y-72071000D01*
X83138282Y-72071000D01*
X82998575Y-72057240D01*
X82998572Y-72057239D01*
X82998571Y-72057239D01*
X82819307Y-72002860D01*
X82759701Y-71971000D01*
X82654097Y-71914554D01*
X82509288Y-71795712D01*
X82390446Y-71650903D01*
X82302142Y-71485697D01*
X82302142Y-71485696D01*
X82302140Y-71485693D01*
X82247761Y-71306429D01*
X82247761Y-71306428D01*
X82247760Y-71306425D01*
X82229399Y-71120000D01*
X82247760Y-70933575D01*
X82247761Y-70933571D01*
X82302140Y-70754307D01*
X82302142Y-70754303D01*
X82390446Y-70589097D01*
X82509288Y-70444288D01*
X82654097Y-70325446D01*
X82819303Y-70237142D01*
X82819304Y-70237142D01*
X82819307Y-70237140D01*
X82998571Y-70182761D01*
X82998572Y-70182761D01*
X82998575Y-70182760D01*
X83138282Y-70169000D01*
X83231718Y-70169000D01*
X83371425Y-70182760D01*
X83371425Y-70182760D01*
G37*
G36*
X98591823Y-70281313D02*
G01*
X98752242Y-70329976D01*
X98884906Y-70400886D01*
X98900078Y-70408996D01*
X99029659Y-70515341D01*
X99136004Y-70644922D01*
X99136005Y-70644924D01*
X99215024Y-70792758D01*
X99263687Y-70953177D01*
X99280117Y-71120000D01*
X99263687Y-71286823D01*
X99215024Y-71447242D01*
X99194471Y-71485693D01*
X99136004Y-71595078D01*
X99029659Y-71724659D01*
X98900078Y-71831004D01*
X98900076Y-71831005D01*
X98752242Y-71910024D01*
X98591823Y-71958687D01*
X98466804Y-71971000D01*
X98383196Y-71971000D01*
X98258177Y-71958687D01*
X98097758Y-71910024D01*
X97949924Y-71831005D01*
X97949922Y-71831004D01*
X97820341Y-71724659D01*
X97713996Y-71595078D01*
X97655529Y-71485693D01*
X97634976Y-71447242D01*
X97586313Y-71286823D01*
X97569883Y-71120000D01*
X97586313Y-70953177D01*
X97634976Y-70792758D01*
X97713995Y-70644924D01*
X97713996Y-70644922D01*
X97820341Y-70515341D01*
X97949922Y-70408996D01*
X97965094Y-70400886D01*
X98097758Y-70329976D01*
X98258177Y-70281313D01*
X98383196Y-70269000D01*
X98466804Y-70269000D01*
X98591823Y-70281313D01*
X98591823Y-70281313D01*
G37*
G36*
X83295443Y-67685519D02*
G01*
X83361627Y-67692037D01*
X83531466Y-67743557D01*
X83687991Y-67827222D01*
X83723729Y-67856552D01*
X83825186Y-67939814D01*
X83908448Y-68041271D01*
X83937778Y-68077009D01*
X84021443Y-68233534D01*
X84072963Y-68403373D01*
X84090359Y-68580000D01*
X84072963Y-68756627D01*
X84021443Y-68926466D01*
X83937778Y-69082991D01*
X83908448Y-69118729D01*
X83825186Y-69220186D01*
X83723729Y-69303448D01*
X83687991Y-69332778D01*
X83531466Y-69416443D01*
X83361627Y-69467963D01*
X83295442Y-69474482D01*
X83229260Y-69481000D01*
X83140740Y-69481000D01*
X83074558Y-69474482D01*
X83008373Y-69467963D01*
X82838534Y-69416443D01*
X82682009Y-69332778D01*
X82646271Y-69303448D01*
X82544814Y-69220186D01*
X82461552Y-69118729D01*
X82432222Y-69082991D01*
X82348557Y-68926466D01*
X82297037Y-68756627D01*
X82279641Y-68580000D01*
X82297037Y-68403373D01*
X82348557Y-68233534D01*
X82432222Y-68077009D01*
X82461552Y-68041271D01*
X82544814Y-67939814D01*
X82646271Y-67856552D01*
X82682009Y-67827222D01*
X82838534Y-67743557D01*
X83008373Y-67692037D01*
X83074557Y-67685519D01*
X83140740Y-67679000D01*
X83229260Y-67679000D01*
X83295443Y-67685519D01*
X83295443Y-67685519D01*
G37*
G36*
X98591823Y-67741313D02*
G01*
X98752242Y-67789976D01*
X98821922Y-67827221D01*
X98900078Y-67868996D01*
X99029659Y-67975341D01*
X99136004Y-68104922D01*
X99136005Y-68104924D01*
X99215024Y-68252758D01*
X99263687Y-68413177D01*
X99280117Y-68580000D01*
X99263687Y-68746823D01*
X99215024Y-68907242D01*
X99204747Y-68926468D01*
X99136004Y-69055078D01*
X99029659Y-69184659D01*
X98900078Y-69291004D01*
X98900076Y-69291005D01*
X98752242Y-69370024D01*
X98591823Y-69418687D01*
X98466804Y-69431000D01*
X98383196Y-69431000D01*
X98258177Y-69418687D01*
X98097758Y-69370024D01*
X97949924Y-69291005D01*
X97949922Y-69291004D01*
X97820341Y-69184659D01*
X97713996Y-69055078D01*
X97645253Y-68926468D01*
X97634976Y-68907242D01*
X97586313Y-68746823D01*
X97569883Y-68580000D01*
X97586313Y-68413177D01*
X97634976Y-68252758D01*
X97713995Y-68104924D01*
X97713996Y-68104922D01*
X97820341Y-67975341D01*
X97949922Y-67868996D01*
X98028078Y-67827221D01*
X98097758Y-67789976D01*
X98258177Y-67741313D01*
X98383196Y-67729000D01*
X98466804Y-67729000D01*
X98591823Y-67741313D01*
X98591823Y-67741313D01*
G37*
G36*
X117117395Y-65835546D02*
G01*
X117290466Y-65907234D01*
X117290467Y-65907235D01*
X117446227Y-66011310D01*
X117578690Y-66143773D01*
X117578691Y-66143775D01*
X117682766Y-66299534D01*
X117754454Y-66472605D01*
X117791000Y-66656333D01*
X117791000Y-66843667D01*
X117754454Y-67027395D01*
X117682766Y-67200466D01*
X117682765Y-67200467D01*
X117578690Y-67356227D01*
X117446227Y-67488690D01*
X117367818Y-67541081D01*
X117290466Y-67592766D01*
X117117395Y-67664454D01*
X116933667Y-67701000D01*
X116746333Y-67701000D01*
X116562605Y-67664454D01*
X116389534Y-67592766D01*
X116312182Y-67541081D01*
X116233773Y-67488690D01*
X116101310Y-67356227D01*
X115997235Y-67200467D01*
X115997234Y-67200466D01*
X115925546Y-67027395D01*
X115889000Y-66843667D01*
X115889000Y-66656333D01*
X115925546Y-66472605D01*
X115997234Y-66299534D01*
X116101309Y-66143775D01*
X116101310Y-66143773D01*
X116233773Y-66011310D01*
X116389533Y-65907235D01*
X116389534Y-65907234D01*
X116562605Y-65835546D01*
X116746333Y-65799000D01*
X116933667Y-65799000D01*
X117117395Y-65835546D01*
X117117395Y-65835546D01*
G37*
G36*
X114577395Y-65835546D02*
G01*
X114750466Y-65907234D01*
X114750467Y-65907235D01*
X114906227Y-66011310D01*
X115038690Y-66143773D01*
X115038691Y-66143775D01*
X115142766Y-66299534D01*
X115214454Y-66472605D01*
X115251000Y-66656333D01*
X115251000Y-66843667D01*
X115214454Y-67027395D01*
X115142766Y-67200466D01*
X115142765Y-67200467D01*
X115038690Y-67356227D01*
X114906227Y-67488690D01*
X114827818Y-67541081D01*
X114750466Y-67592766D01*
X114577395Y-67664454D01*
X114393667Y-67701000D01*
X114206333Y-67701000D01*
X114022605Y-67664454D01*
X113849534Y-67592766D01*
X113772182Y-67541081D01*
X113693773Y-67488690D01*
X113561310Y-67356227D01*
X113457235Y-67200467D01*
X113457234Y-67200466D01*
X113385546Y-67027395D01*
X113349000Y-66843667D01*
X113349000Y-66656333D01*
X113385546Y-66472605D01*
X113457234Y-66299534D01*
X113561309Y-66143775D01*
X113561310Y-66143773D01*
X113693773Y-66011310D01*
X113849533Y-65907235D01*
X113849534Y-65907234D01*
X114022605Y-65835546D01*
X114206333Y-65799000D01*
X114393667Y-65799000D01*
X114577395Y-65835546D01*
X114577395Y-65835546D01*
G37*
G36*
X98591823Y-65201313D02*
G01*
X98752242Y-65249976D01*
X98884906Y-65320886D01*
X98900078Y-65328996D01*
X99029659Y-65435341D01*
X99136004Y-65564922D01*
X99136005Y-65564924D01*
X99215024Y-65712758D01*
X99263687Y-65873177D01*
X99280117Y-66040000D01*
X99263687Y-66206823D01*
X99215024Y-66367242D01*
X99158707Y-66472604D01*
X99136004Y-66515078D01*
X99029659Y-66644659D01*
X98900078Y-66751004D01*
X98900076Y-66751005D01*
X98752242Y-66830024D01*
X98591823Y-66878687D01*
X98466804Y-66891000D01*
X98383196Y-66891000D01*
X98258177Y-66878687D01*
X98097758Y-66830024D01*
X97949924Y-66751005D01*
X97949922Y-66751004D01*
X97820341Y-66644659D01*
X97713996Y-66515078D01*
X97691293Y-66472604D01*
X97634976Y-66367242D01*
X97586313Y-66206823D01*
X97569883Y-66040000D01*
X97586313Y-65873177D01*
X97634976Y-65712758D01*
X97713995Y-65564924D01*
X97713996Y-65564922D01*
X97820341Y-65435341D01*
X97949922Y-65328996D01*
X97965094Y-65320886D01*
X98097758Y-65249976D01*
X98258177Y-65201313D01*
X98383196Y-65189000D01*
X98466804Y-65189000D01*
X98591823Y-65201313D01*
X98591823Y-65201313D01*
G37*
G36*
X83351823Y-65201313D02*
G01*
X83512242Y-65249976D01*
X83644906Y-65320886D01*
X83660078Y-65328996D01*
X83789659Y-65435341D01*
X83896004Y-65564922D01*
X83896005Y-65564924D01*
X83975024Y-65712758D01*
X84023687Y-65873177D01*
X84040117Y-66040000D01*
X84023687Y-66206823D01*
X83975024Y-66367242D01*
X83918707Y-66472604D01*
X83896004Y-66515078D01*
X83789659Y-66644659D01*
X83660078Y-66751004D01*
X83660076Y-66751005D01*
X83512242Y-66830024D01*
X83351823Y-66878687D01*
X83226804Y-66891000D01*
X83143196Y-66891000D01*
X83018177Y-66878687D01*
X82857758Y-66830024D01*
X82709924Y-66751005D01*
X82709922Y-66751004D01*
X82580341Y-66644659D01*
X82473996Y-66515078D01*
X82451293Y-66472604D01*
X82394976Y-66367242D01*
X82346313Y-66206823D01*
X82329883Y-66040000D01*
X82346313Y-65873177D01*
X82394976Y-65712758D01*
X82473995Y-65564924D01*
X82473996Y-65564922D01*
X82580341Y-65435341D01*
X82709922Y-65328996D01*
X82725094Y-65320886D01*
X82857758Y-65249976D01*
X83018177Y-65201313D01*
X83143196Y-65189000D01*
X83226804Y-65189000D01*
X83351823Y-65201313D01*
X83351823Y-65201313D01*
G37*
G36*
X58062395Y-63220546D02*
G01*
X58235466Y-63292234D01*
X58235467Y-63292235D01*
X58391227Y-63396310D01*
X58523690Y-63528773D01*
X58523691Y-63528775D01*
X58627766Y-63684534D01*
X58699454Y-63857605D01*
X58736000Y-64041333D01*
X58736000Y-64228667D01*
X58699454Y-64412395D01*
X58627766Y-64585466D01*
X58627765Y-64585467D01*
X58523690Y-64741227D01*
X58391227Y-64873690D01*
X58312818Y-64926081D01*
X58235466Y-64977766D01*
X58062395Y-65049454D01*
X57878667Y-65086000D01*
X57691333Y-65086000D01*
X57507605Y-65049454D01*
X57334534Y-64977766D01*
X57257182Y-64926081D01*
X57178773Y-64873690D01*
X57046310Y-64741227D01*
X56942235Y-64585467D01*
X56942234Y-64585466D01*
X56870546Y-64412395D01*
X56834000Y-64228667D01*
X56834000Y-64041333D01*
X56870546Y-63857605D01*
X56942234Y-63684534D01*
X57046309Y-63528775D01*
X57046310Y-63528773D01*
X57178773Y-63396310D01*
X57334533Y-63292235D01*
X57334534Y-63292234D01*
X57507605Y-63220546D01*
X57691333Y-63184000D01*
X57878667Y-63184000D01*
X58062395Y-63220546D01*
X58062395Y-63220546D01*
G37*
G36*
X55522395Y-63220546D02*
G01*
X55695466Y-63292234D01*
X55695467Y-63292235D01*
X55851227Y-63396310D01*
X55983690Y-63528773D01*
X55983691Y-63528775D01*
X56087766Y-63684534D01*
X56159454Y-63857605D01*
X56196000Y-64041333D01*
X56196000Y-64228667D01*
X56159454Y-64412395D01*
X56087766Y-64585466D01*
X56087765Y-64585467D01*
X55983690Y-64741227D01*
X55851227Y-64873690D01*
X55772818Y-64926081D01*
X55695466Y-64977766D01*
X55522395Y-65049454D01*
X55338667Y-65086000D01*
X55151333Y-65086000D01*
X54967605Y-65049454D01*
X54794534Y-64977766D01*
X54717182Y-64926081D01*
X54638773Y-64873690D01*
X54506310Y-64741227D01*
X54402235Y-64585467D01*
X54402234Y-64585466D01*
X54330546Y-64412395D01*
X54294000Y-64228667D01*
X54294000Y-64041333D01*
X54330546Y-63857605D01*
X54402234Y-63684534D01*
X54506309Y-63528775D01*
X54506310Y-63528773D01*
X54638773Y-63396310D01*
X54794533Y-63292235D01*
X54794534Y-63292234D01*
X54967605Y-63220546D01*
X55151333Y-63184000D01*
X55338667Y-63184000D01*
X55522395Y-63220546D01*
X55522395Y-63220546D01*
G37*
G36*
X83371425Y-62562760D02*
G01*
X83371428Y-62562761D01*
X83371429Y-62562761D01*
X83550693Y-62617140D01*
X83550696Y-62617142D01*
X83550697Y-62617142D01*
X83715903Y-62705446D01*
X83860712Y-62824288D01*
X83979554Y-62969097D01*
X84067858Y-63134303D01*
X84067860Y-63134307D01*
X84115767Y-63292235D01*
X84122240Y-63313575D01*
X84140601Y-63500000D01*
X84122240Y-63686425D01*
X84122239Y-63686428D01*
X84122239Y-63686429D01*
X84067860Y-63865693D01*
X84067858Y-63865696D01*
X84067858Y-63865697D01*
X83979554Y-64030903D01*
X83860712Y-64175712D01*
X83715903Y-64294554D01*
X83550697Y-64382858D01*
X83550693Y-64382860D01*
X83371429Y-64437239D01*
X83371428Y-64437239D01*
X83371425Y-64437240D01*
X83231718Y-64451000D01*
X83138282Y-64451000D01*
X82998575Y-64437240D01*
X82998572Y-64437239D01*
X82998571Y-64437239D01*
X82819307Y-64382860D01*
X82819303Y-64382858D01*
X82654097Y-64294554D01*
X82509288Y-64175712D01*
X82390446Y-64030903D01*
X82302142Y-63865697D01*
X82302142Y-63865696D01*
X82302140Y-63865693D01*
X82247761Y-63686429D01*
X82247761Y-63686428D01*
X82247760Y-63686425D01*
X82229399Y-63500000D01*
X82247760Y-63313575D01*
X82254233Y-63292235D01*
X82302140Y-63134307D01*
X82302142Y-63134303D01*
X82390446Y-62969097D01*
X82509288Y-62824288D01*
X82654097Y-62705446D01*
X82819303Y-62617142D01*
X82819304Y-62617142D01*
X82819307Y-62617140D01*
X82998571Y-62562761D01*
X82998572Y-62562761D01*
X82998575Y-62562760D01*
X83138282Y-62549000D01*
X83231718Y-62549000D01*
X83371425Y-62562760D01*
X83371425Y-62562760D01*
G37*
G36*
X98611425Y-62562760D02*
G01*
X98611428Y-62562761D01*
X98611429Y-62562761D01*
X98790693Y-62617140D01*
X98790696Y-62617142D01*
X98790697Y-62617142D01*
X98955903Y-62705446D01*
X99100712Y-62824288D01*
X99219554Y-62969097D01*
X99307858Y-63134303D01*
X99307860Y-63134307D01*
X99355767Y-63292235D01*
X99362240Y-63313575D01*
X99380601Y-63500000D01*
X99362240Y-63686425D01*
X99362239Y-63686428D01*
X99362239Y-63686429D01*
X99307860Y-63865693D01*
X99307858Y-63865696D01*
X99307858Y-63865697D01*
X99219554Y-64030903D01*
X99100712Y-64175712D01*
X98955903Y-64294554D01*
X98790697Y-64382858D01*
X98790693Y-64382860D01*
X98611429Y-64437239D01*
X98611428Y-64437239D01*
X98611425Y-64437240D01*
X98471718Y-64451000D01*
X98378282Y-64451000D01*
X98238575Y-64437240D01*
X98238572Y-64437239D01*
X98238571Y-64437239D01*
X98059307Y-64382860D01*
X98059303Y-64382858D01*
X97894097Y-64294554D01*
X97749288Y-64175712D01*
X97630446Y-64030903D01*
X97542142Y-63865697D01*
X97542142Y-63865696D01*
X97542140Y-63865693D01*
X97487761Y-63686429D01*
X97487761Y-63686428D01*
X97487760Y-63686425D01*
X97469399Y-63500000D01*
X97487760Y-63313575D01*
X97494233Y-63292235D01*
X97542140Y-63134307D01*
X97542142Y-63134303D01*
X97630446Y-62969097D01*
X97749288Y-62824288D01*
X97894097Y-62705446D01*
X98059303Y-62617142D01*
X98059304Y-62617142D01*
X98059307Y-62617140D01*
X98238571Y-62562761D01*
X98238572Y-62562761D01*
X98238575Y-62562760D01*
X98378282Y-62549000D01*
X98471718Y-62549000D01*
X98611425Y-62562760D01*
X98611425Y-62562760D01*
G37*
G36*
X67534549Y-60271116D02*
G01*
X67645734Y-60293232D01*
X67855203Y-60379997D01*
X68043720Y-60505960D01*
X68204040Y-60666280D01*
X68330003Y-60854797D01*
X68416768Y-61064266D01*
X68461000Y-61286636D01*
X68461000Y-61513364D01*
X68416768Y-61735734D01*
X68330003Y-61945203D01*
X68204040Y-62133720D01*
X68043720Y-62294040D01*
X67855203Y-62420003D01*
X67645734Y-62506768D01*
X67534549Y-62528884D01*
X67423365Y-62551000D01*
X67196635Y-62551000D01*
X67085451Y-62528884D01*
X66974266Y-62506768D01*
X66764797Y-62420003D01*
X66576280Y-62294040D01*
X66415960Y-62133720D01*
X66289997Y-61945203D01*
X66203232Y-61735734D01*
X66159000Y-61513364D01*
X66159000Y-61286636D01*
X66203232Y-61064266D01*
X66289997Y-60854797D01*
X66415960Y-60666280D01*
X66576280Y-60505960D01*
X66764797Y-60379997D01*
X66974266Y-60293232D01*
X67085451Y-60271116D01*
X67196635Y-60249000D01*
X67423365Y-60249000D01*
X67534549Y-60271116D01*
X67534549Y-60271116D01*
G37*
G36*
X77694549Y-60271116D02*
G01*
X77805734Y-60293232D01*
X78015203Y-60379997D01*
X78203720Y-60505960D01*
X78364040Y-60666280D01*
X78490003Y-60854797D01*
X78576768Y-61064266D01*
X78621000Y-61286636D01*
X78621000Y-61513364D01*
X78576768Y-61735734D01*
X78490003Y-61945203D01*
X78364040Y-62133720D01*
X78203720Y-62294040D01*
X78015203Y-62420003D01*
X77805734Y-62506768D01*
X77694549Y-62528884D01*
X77583365Y-62551000D01*
X77356635Y-62551000D01*
X77245451Y-62528884D01*
X77134266Y-62506768D01*
X76924797Y-62420003D01*
X76736280Y-62294040D01*
X76575960Y-62133720D01*
X76449997Y-61945203D01*
X76363232Y-61735734D01*
X76319000Y-61513364D01*
X76319000Y-61286636D01*
X76363232Y-61064266D01*
X76449997Y-60854797D01*
X76575960Y-60666280D01*
X76736280Y-60505960D01*
X76924797Y-60379997D01*
X77134266Y-60293232D01*
X77245451Y-60271116D01*
X77356635Y-60249000D01*
X77583365Y-60249000D01*
X77694549Y-60271116D01*
X77694549Y-60271116D01*
G37*
G36*
X72614549Y-60271116D02*
G01*
X72725734Y-60293232D01*
X72935203Y-60379997D01*
X73123720Y-60505960D01*
X73284040Y-60666280D01*
X73410003Y-60854797D01*
X73496768Y-61064266D01*
X73541000Y-61286636D01*
X73541000Y-61513364D01*
X73496768Y-61735734D01*
X73410003Y-61945203D01*
X73284040Y-62133720D01*
X73123720Y-62294040D01*
X72935203Y-62420003D01*
X72725734Y-62506768D01*
X72614549Y-62528884D01*
X72503365Y-62551000D01*
X72276635Y-62551000D01*
X72165451Y-62528884D01*
X72054266Y-62506768D01*
X71844797Y-62420003D01*
X71656280Y-62294040D01*
X71495960Y-62133720D01*
X71369997Y-61945203D01*
X71283232Y-61735734D01*
X71239000Y-61513364D01*
X71239000Y-61286636D01*
X71283232Y-61064266D01*
X71369997Y-60854797D01*
X71495960Y-60666280D01*
X71656280Y-60505960D01*
X71844797Y-60379997D01*
X72054266Y-60293232D01*
X72165451Y-60271116D01*
X72276635Y-60249000D01*
X72503365Y-60249000D01*
X72614549Y-60271116D01*
X72614549Y-60271116D01*
G37*
G36*
X83371425Y-60022760D02*
G01*
X83371428Y-60022761D01*
X83371429Y-60022761D01*
X83550693Y-60077140D01*
X83550696Y-60077142D01*
X83550697Y-60077142D01*
X83715903Y-60165446D01*
X83860712Y-60284288D01*
X83979554Y-60429097D01*
X84067858Y-60594303D01*
X84067860Y-60594307D01*
X84122239Y-60773571D01*
X84122240Y-60773575D01*
X84140601Y-60960000D01*
X84122240Y-61146425D01*
X84122239Y-61146428D01*
X84122239Y-61146429D01*
X84067860Y-61325693D01*
X84067858Y-61325696D01*
X84067858Y-61325697D01*
X83979554Y-61490903D01*
X83860712Y-61635712D01*
X83715903Y-61754554D01*
X83550697Y-61842858D01*
X83550693Y-61842860D01*
X83371429Y-61897239D01*
X83371428Y-61897239D01*
X83371425Y-61897240D01*
X83231718Y-61911000D01*
X83138282Y-61911000D01*
X82998575Y-61897240D01*
X82998572Y-61897239D01*
X82998571Y-61897239D01*
X82819307Y-61842860D01*
X82819303Y-61842858D01*
X82654097Y-61754554D01*
X82509288Y-61635712D01*
X82390446Y-61490903D01*
X82302142Y-61325697D01*
X82302142Y-61325696D01*
X82302140Y-61325693D01*
X82247761Y-61146429D01*
X82247761Y-61146428D01*
X82247760Y-61146425D01*
X82229399Y-60960000D01*
X82247760Y-60773575D01*
X82247761Y-60773571D01*
X82302140Y-60594307D01*
X82302142Y-60594303D01*
X82390446Y-60429097D01*
X82509288Y-60284288D01*
X82654097Y-60165446D01*
X82819303Y-60077142D01*
X82819304Y-60077142D01*
X82819307Y-60077140D01*
X82998571Y-60022761D01*
X82998572Y-60022761D01*
X82998575Y-60022760D01*
X83138282Y-60009000D01*
X83231718Y-60009000D01*
X83371425Y-60022760D01*
X83371425Y-60022760D01*
G37*
G36*
X98611425Y-60022760D02*
G01*
X98611428Y-60022761D01*
X98611429Y-60022761D01*
X98790693Y-60077140D01*
X98790696Y-60077142D01*
X98790697Y-60077142D01*
X98955903Y-60165446D01*
X99100712Y-60284288D01*
X99219554Y-60429097D01*
X99307858Y-60594303D01*
X99307860Y-60594307D01*
X99362239Y-60773571D01*
X99362240Y-60773575D01*
X99380601Y-60960000D01*
X99362240Y-61146425D01*
X99362239Y-61146428D01*
X99362239Y-61146429D01*
X99307860Y-61325693D01*
X99307858Y-61325696D01*
X99307858Y-61325697D01*
X99219554Y-61490903D01*
X99100712Y-61635712D01*
X98955903Y-61754554D01*
X98790697Y-61842858D01*
X98790693Y-61842860D01*
X98611429Y-61897239D01*
X98611428Y-61897239D01*
X98611425Y-61897240D01*
X98471718Y-61911000D01*
X98378282Y-61911000D01*
X98238575Y-61897240D01*
X98238572Y-61897239D01*
X98238571Y-61897239D01*
X98059307Y-61842860D01*
X98059303Y-61842858D01*
X97894097Y-61754554D01*
X97749288Y-61635712D01*
X97630446Y-61490903D01*
X97542142Y-61325697D01*
X97542142Y-61325696D01*
X97542140Y-61325693D01*
X97487761Y-61146429D01*
X97487761Y-61146428D01*
X97487760Y-61146425D01*
X97469399Y-60960000D01*
X97487760Y-60773575D01*
X97487761Y-60773571D01*
X97542140Y-60594307D01*
X97542142Y-60594303D01*
X97630446Y-60429097D01*
X97749288Y-60284288D01*
X97894097Y-60165446D01*
X98059303Y-60077142D01*
X98059304Y-60077142D01*
X98059307Y-60077140D01*
X98238571Y-60022761D01*
X98238572Y-60022761D01*
X98238575Y-60022760D01*
X98378282Y-60009000D01*
X98471718Y-60009000D01*
X98611425Y-60022760D01*
X98611425Y-60022760D01*
G37*
G36*
X98611425Y-57482760D02*
G01*
X98611428Y-57482761D01*
X98611429Y-57482761D01*
X98790693Y-57537140D01*
X98790696Y-57537142D01*
X98790697Y-57537142D01*
X98955903Y-57625446D01*
X99100712Y-57744288D01*
X99219554Y-57889097D01*
X99307858Y-58054303D01*
X99307860Y-58054307D01*
X99362239Y-58233571D01*
X99362240Y-58233575D01*
X99380601Y-58420000D01*
X99362240Y-58606425D01*
X99362239Y-58606428D01*
X99362239Y-58606429D01*
X99307860Y-58785693D01*
X99307858Y-58785696D01*
X99307858Y-58785697D01*
X99219554Y-58950903D01*
X99100712Y-59095712D01*
X98955903Y-59214554D01*
X98790697Y-59302858D01*
X98790693Y-59302860D01*
X98611429Y-59357239D01*
X98611428Y-59357239D01*
X98611425Y-59357240D01*
X98471718Y-59371000D01*
X98378282Y-59371000D01*
X98238575Y-59357240D01*
X98238572Y-59357239D01*
X98238571Y-59357239D01*
X98059307Y-59302860D01*
X98059303Y-59302858D01*
X97894097Y-59214554D01*
X97749288Y-59095712D01*
X97630446Y-58950903D01*
X97542142Y-58785697D01*
X97542142Y-58785696D01*
X97542140Y-58785693D01*
X97487761Y-58606429D01*
X97487761Y-58606428D01*
X97487760Y-58606425D01*
X97469399Y-58420000D01*
X97487760Y-58233575D01*
X97487761Y-58233571D01*
X97542140Y-58054307D01*
X97542142Y-58054303D01*
X97630446Y-57889097D01*
X97749288Y-57744288D01*
X97894097Y-57625446D01*
X98059303Y-57537142D01*
X98059304Y-57537142D01*
X98059307Y-57537140D01*
X98238571Y-57482761D01*
X98238572Y-57482761D01*
X98238575Y-57482760D01*
X98378282Y-57469000D01*
X98471718Y-57469000D01*
X98611425Y-57482760D01*
X98611425Y-57482760D01*
G37*
G36*
X83371425Y-57482760D02*
G01*
X83371428Y-57482761D01*
X83371429Y-57482761D01*
X83550693Y-57537140D01*
X83550696Y-57537142D01*
X83550697Y-57537142D01*
X83715903Y-57625446D01*
X83860712Y-57744288D01*
X83979554Y-57889097D01*
X84067858Y-58054303D01*
X84067860Y-58054307D01*
X84122239Y-58233571D01*
X84122240Y-58233575D01*
X84140601Y-58420000D01*
X84122240Y-58606425D01*
X84122239Y-58606428D01*
X84122239Y-58606429D01*
X84067860Y-58785693D01*
X84067858Y-58785696D01*
X84067858Y-58785697D01*
X83979554Y-58950903D01*
X83860712Y-59095712D01*
X83715903Y-59214554D01*
X83550697Y-59302858D01*
X83550693Y-59302860D01*
X83371429Y-59357239D01*
X83371428Y-59357239D01*
X83371425Y-59357240D01*
X83231718Y-59371000D01*
X83138282Y-59371000D01*
X82998575Y-59357240D01*
X82998572Y-59357239D01*
X82998571Y-59357239D01*
X82819307Y-59302860D01*
X82819303Y-59302858D01*
X82654097Y-59214554D01*
X82509288Y-59095712D01*
X82390446Y-58950903D01*
X82302142Y-58785697D01*
X82302142Y-58785696D01*
X82302140Y-58785693D01*
X82247761Y-58606429D01*
X82247761Y-58606428D01*
X82247760Y-58606425D01*
X82229399Y-58420000D01*
X82247760Y-58233575D01*
X82247761Y-58233571D01*
X82302140Y-58054307D01*
X82302142Y-58054303D01*
X82390446Y-57889097D01*
X82509288Y-57744288D01*
X82654097Y-57625446D01*
X82819303Y-57537142D01*
X82819304Y-57537142D01*
X82819307Y-57537140D01*
X82998571Y-57482761D01*
X82998572Y-57482761D01*
X82998575Y-57482760D01*
X83138282Y-57469000D01*
X83231718Y-57469000D01*
X83371425Y-57482760D01*
X83371425Y-57482760D01*
G37*
G36*
X84136000Y-56831000D02*
G01*
X82234000Y-56831000D01*
X82234000Y-54929000D01*
X84136000Y-54929000D01*
X84136000Y-56831000D01*
X84136000Y-56831000D01*
G37*
G36*
X98611425Y-54942760D02*
G01*
X98611428Y-54942761D01*
X98611429Y-54942761D01*
X98790693Y-54997140D01*
X98790696Y-54997142D01*
X98790697Y-54997142D01*
X98955903Y-55085446D01*
X99100712Y-55204288D01*
X99219554Y-55349097D01*
X99307858Y-55514303D01*
X99307860Y-55514307D01*
X99362239Y-55693571D01*
X99362240Y-55693575D01*
X99380601Y-55880000D01*
X99362240Y-56066425D01*
X99362239Y-56066428D01*
X99362239Y-56066429D01*
X99307860Y-56245693D01*
X99307858Y-56245696D01*
X99307858Y-56245697D01*
X99219554Y-56410903D01*
X99100712Y-56555712D01*
X98955903Y-56674554D01*
X98790697Y-56762858D01*
X98790693Y-56762860D01*
X98611429Y-56817239D01*
X98611428Y-56817239D01*
X98611425Y-56817240D01*
X98471718Y-56831000D01*
X98378282Y-56831000D01*
X98238575Y-56817240D01*
X98238572Y-56817239D01*
X98238571Y-56817239D01*
X98059307Y-56762860D01*
X98059303Y-56762858D01*
X97894097Y-56674554D01*
X97749288Y-56555712D01*
X97630446Y-56410903D01*
X97542142Y-56245697D01*
X97542142Y-56245696D01*
X97542140Y-56245693D01*
X97487761Y-56066429D01*
X97487761Y-56066428D01*
X97487760Y-56066425D01*
X97469399Y-55880000D01*
X97487760Y-55693575D01*
X97487761Y-55693571D01*
X97542140Y-55514307D01*
X97542142Y-55514303D01*
X97630446Y-55349097D01*
X97749288Y-55204288D01*
X97894097Y-55085446D01*
X98059303Y-54997142D01*
X98059304Y-54997142D01*
X98059307Y-54997140D01*
X98238571Y-54942761D01*
X98238572Y-54942761D01*
X98238575Y-54942760D01*
X98378282Y-54929000D01*
X98471718Y-54929000D01*
X98611425Y-54942760D01*
X98611425Y-54942760D01*
G37*
G36*
X124061560Y-53830166D02*
G01*
X124209153Y-53891301D01*
X124341982Y-53980055D01*
X124454945Y-54093018D01*
X124543699Y-54225847D01*
X124604834Y-54373440D01*
X124636000Y-54530123D01*
X124636000Y-54689877D01*
X124604834Y-54846560D01*
X124543699Y-54994153D01*
X124454945Y-55126982D01*
X124341982Y-55239945D01*
X124209153Y-55328699D01*
X124209152Y-55328700D01*
X124209151Y-55328700D01*
X124061560Y-55389834D01*
X123904878Y-55421000D01*
X123745122Y-55421000D01*
X123588440Y-55389834D01*
X123440849Y-55328700D01*
X123440848Y-55328700D01*
X123440847Y-55328699D01*
X123308018Y-55239945D01*
X123195055Y-55126982D01*
X123106301Y-54994153D01*
X123045166Y-54846560D01*
X123014000Y-54689877D01*
X123014000Y-54530123D01*
X123045166Y-54373440D01*
X123106301Y-54225847D01*
X123195055Y-54093018D01*
X123308018Y-53980055D01*
X123440847Y-53891301D01*
X123588440Y-53830166D01*
X123745122Y-53799000D01*
X123904878Y-53799000D01*
X124061560Y-53830166D01*
X124061560Y-53830166D01*
G37*
G36*
X108821560Y-53830166D02*
G01*
X108969153Y-53891301D01*
X109101982Y-53980055D01*
X109214945Y-54093018D01*
X109303699Y-54225847D01*
X109364834Y-54373440D01*
X109396000Y-54530123D01*
X109396000Y-54689877D01*
X109364834Y-54846560D01*
X109303699Y-54994153D01*
X109214945Y-55126982D01*
X109101982Y-55239945D01*
X108969153Y-55328699D01*
X108969152Y-55328700D01*
X108969151Y-55328700D01*
X108821560Y-55389834D01*
X108664878Y-55421000D01*
X108505122Y-55421000D01*
X108348440Y-55389834D01*
X108200849Y-55328700D01*
X108200848Y-55328700D01*
X108200847Y-55328699D01*
X108068018Y-55239945D01*
X107955055Y-55126982D01*
X107866301Y-54994153D01*
X107805166Y-54846560D01*
X107774000Y-54689877D01*
X107774000Y-54530123D01*
X107805166Y-54373440D01*
X107866301Y-54225847D01*
X107955055Y-54093018D01*
X108068018Y-53980055D01*
X108200847Y-53891301D01*
X108348440Y-53830166D01*
X108505122Y-53799000D01*
X108664878Y-53799000D01*
X108821560Y-53830166D01*
X108821560Y-53830166D01*
G37*
G36*
X106281560Y-53830166D02*
G01*
X106429153Y-53891301D01*
X106561982Y-53980055D01*
X106674945Y-54093018D01*
X106763699Y-54225847D01*
X106824834Y-54373440D01*
X106856000Y-54530123D01*
X106856000Y-54689877D01*
X106824834Y-54846560D01*
X106763699Y-54994153D01*
X106674945Y-55126982D01*
X106561982Y-55239945D01*
X106429153Y-55328699D01*
X106429152Y-55328700D01*
X106429151Y-55328700D01*
X106281560Y-55389834D01*
X106124878Y-55421000D01*
X105965122Y-55421000D01*
X105808440Y-55389834D01*
X105660849Y-55328700D01*
X105660848Y-55328700D01*
X105660847Y-55328699D01*
X105528018Y-55239945D01*
X105415055Y-55126982D01*
X105326301Y-54994153D01*
X105265166Y-54846560D01*
X105234000Y-54689877D01*
X105234000Y-54530123D01*
X105265166Y-54373440D01*
X105326301Y-54225847D01*
X105415055Y-54093018D01*
X105528018Y-53980055D01*
X105660847Y-53891301D01*
X105808440Y-53830166D01*
X105965122Y-53799000D01*
X106124878Y-53799000D01*
X106281560Y-53830166D01*
X106281560Y-53830166D01*
G37*
G36*
X121521560Y-53830166D02*
G01*
X121669153Y-53891301D01*
X121801982Y-53980055D01*
X121914945Y-54093018D01*
X122003699Y-54225847D01*
X122064834Y-54373440D01*
X122096000Y-54530123D01*
X122096000Y-54689877D01*
X122064834Y-54846560D01*
X122003699Y-54994153D01*
X121914945Y-55126982D01*
X121801982Y-55239945D01*
X121669153Y-55328699D01*
X121669152Y-55328700D01*
X121669151Y-55328700D01*
X121521560Y-55389834D01*
X121364878Y-55421000D01*
X121205122Y-55421000D01*
X121048440Y-55389834D01*
X120900849Y-55328700D01*
X120900848Y-55328700D01*
X120900847Y-55328699D01*
X120768018Y-55239945D01*
X120655055Y-55126982D01*
X120566301Y-54994153D01*
X120505166Y-54846560D01*
X120474000Y-54689877D01*
X120474000Y-54530123D01*
X120505166Y-54373440D01*
X120566301Y-54225847D01*
X120655055Y-54093018D01*
X120768018Y-53980055D01*
X120900847Y-53891301D01*
X121048440Y-53830166D01*
X121205122Y-53799000D01*
X121364878Y-53799000D01*
X121521560Y-53830166D01*
X121521560Y-53830166D01*
G37*
G36*
X125285746Y-51281053D02*
G01*
X125331560Y-51290166D01*
X125479153Y-51351301D01*
X125611982Y-51440055D01*
X125724945Y-51553018D01*
X125813699Y-51685847D01*
X125874834Y-51833440D01*
X125906000Y-51990123D01*
X125906000Y-52149877D01*
X125874834Y-52306560D01*
X125813699Y-52454153D01*
X125724945Y-52586982D01*
X125611982Y-52699945D01*
X125479153Y-52788699D01*
X125479152Y-52788700D01*
X125479151Y-52788700D01*
X125331560Y-52849834D01*
X125174878Y-52881000D01*
X125015122Y-52881000D01*
X124858440Y-52849834D01*
X124710849Y-52788700D01*
X124710848Y-52788700D01*
X124710847Y-52788699D01*
X124578018Y-52699945D01*
X124465055Y-52586982D01*
X124376301Y-52454153D01*
X124315166Y-52306560D01*
X124284000Y-52149877D01*
X124284000Y-51990123D01*
X124315166Y-51833440D01*
X124376301Y-51685847D01*
X124465055Y-51553018D01*
X124578018Y-51440055D01*
X124710847Y-51351301D01*
X124858440Y-51290166D01*
X124904254Y-51281053D01*
X125015122Y-51259000D01*
X125174878Y-51259000D01*
X125285746Y-51281053D01*
X125285746Y-51281053D01*
G37*
G36*
X107505746Y-51281053D02*
G01*
X107551560Y-51290166D01*
X107699153Y-51351301D01*
X107831982Y-51440055D01*
X107944945Y-51553018D01*
X108033699Y-51685847D01*
X108094834Y-51833440D01*
X108126000Y-51990123D01*
X108126000Y-52149877D01*
X108094834Y-52306560D01*
X108033699Y-52454153D01*
X107944945Y-52586982D01*
X107831982Y-52699945D01*
X107699153Y-52788699D01*
X107699152Y-52788700D01*
X107699151Y-52788700D01*
X107551560Y-52849834D01*
X107394878Y-52881000D01*
X107235122Y-52881000D01*
X107078440Y-52849834D01*
X106930849Y-52788700D01*
X106930848Y-52788700D01*
X106930847Y-52788699D01*
X106798018Y-52699945D01*
X106685055Y-52586982D01*
X106596301Y-52454153D01*
X106535166Y-52306560D01*
X106504000Y-52149877D01*
X106504000Y-51990123D01*
X106535166Y-51833440D01*
X106596301Y-51685847D01*
X106685055Y-51553018D01*
X106798018Y-51440055D01*
X106930847Y-51351301D01*
X107078440Y-51290166D01*
X107124254Y-51281053D01*
X107235122Y-51259000D01*
X107394878Y-51259000D01*
X107505746Y-51281053D01*
X107505746Y-51281053D01*
G37*
G36*
X110045746Y-51281053D02*
G01*
X110091560Y-51290166D01*
X110239153Y-51351301D01*
X110371982Y-51440055D01*
X110484945Y-51553018D01*
X110573699Y-51685847D01*
X110634834Y-51833440D01*
X110666000Y-51990123D01*
X110666000Y-52149877D01*
X110634834Y-52306560D01*
X110573699Y-52454153D01*
X110484945Y-52586982D01*
X110371982Y-52699945D01*
X110239153Y-52788699D01*
X110239152Y-52788700D01*
X110239151Y-52788700D01*
X110091560Y-52849834D01*
X109934878Y-52881000D01*
X109775122Y-52881000D01*
X109618440Y-52849834D01*
X109470849Y-52788700D01*
X109470848Y-52788700D01*
X109470847Y-52788699D01*
X109338018Y-52699945D01*
X109225055Y-52586982D01*
X109136301Y-52454153D01*
X109075166Y-52306560D01*
X109044000Y-52149877D01*
X109044000Y-51990123D01*
X109075166Y-51833440D01*
X109136301Y-51685847D01*
X109225055Y-51553018D01*
X109338018Y-51440055D01*
X109470847Y-51351301D01*
X109618440Y-51290166D01*
X109664254Y-51281053D01*
X109775122Y-51259000D01*
X109934878Y-51259000D01*
X110045746Y-51281053D01*
X110045746Y-51281053D01*
G37*
G36*
X122745746Y-51281053D02*
G01*
X122791560Y-51290166D01*
X122939153Y-51351301D01*
X123071982Y-51440055D01*
X123184945Y-51553018D01*
X123273699Y-51685847D01*
X123334834Y-51833440D01*
X123366000Y-51990123D01*
X123366000Y-52149877D01*
X123334834Y-52306560D01*
X123273699Y-52454153D01*
X123184945Y-52586982D01*
X123071982Y-52699945D01*
X122939153Y-52788699D01*
X122939152Y-52788700D01*
X122939151Y-52788700D01*
X122791560Y-52849834D01*
X122634878Y-52881000D01*
X122475122Y-52881000D01*
X122318440Y-52849834D01*
X122170849Y-52788700D01*
X122170848Y-52788700D01*
X122170847Y-52788699D01*
X122038018Y-52699945D01*
X121925055Y-52586982D01*
X121836301Y-52454153D01*
X121775166Y-52306560D01*
X121744000Y-52149877D01*
X121744000Y-51990123D01*
X121775166Y-51833440D01*
X121836301Y-51685847D01*
X121925055Y-51553018D01*
X122038018Y-51440055D01*
X122170847Y-51351301D01*
X122318440Y-51290166D01*
X122364254Y-51281053D01*
X122475122Y-51259000D01*
X122634878Y-51259000D01*
X122745746Y-51281053D01*
X122745746Y-51281053D01*
G37*
G36*
X72795239Y-49567101D02*
G01*
X73031053Y-49638634D01*
X73248381Y-49754799D01*
X73438871Y-49911129D01*
X73595201Y-50101619D01*
X73711366Y-50318947D01*
X73782899Y-50554761D01*
X73807053Y-50800000D01*
X73782899Y-51045239D01*
X73711366Y-51281053D01*
X73595201Y-51498381D01*
X73438871Y-51688871D01*
X73248381Y-51845201D01*
X73031053Y-51961366D01*
X72795239Y-52032899D01*
X72611457Y-52051000D01*
X72488543Y-52051000D01*
X72304761Y-52032899D01*
X72068947Y-51961366D01*
X71851619Y-51845201D01*
X71661129Y-51688871D01*
X71504799Y-51498381D01*
X71388634Y-51281053D01*
X71317101Y-51045239D01*
X71292947Y-50800000D01*
X71317101Y-50554761D01*
X71388634Y-50318947D01*
X71504799Y-50101619D01*
X71661129Y-49911129D01*
X71851619Y-49754799D01*
X72068947Y-49638634D01*
X72304761Y-49567101D01*
X72488543Y-49549000D01*
X72611457Y-49549000D01*
X72795239Y-49567101D01*
X72795239Y-49567101D01*
G37*
G36*
X68721000Y-52051000D02*
G01*
X66219000Y-52051000D01*
X66219000Y-49549000D01*
X68721000Y-49549000D01*
X68721000Y-52051000D01*
X68721000Y-52051000D01*
G37*
G36*
X113410256Y-44111298D02*
G01*
X113516579Y-44132447D01*
X113817042Y-44256903D01*
X114087451Y-44437585D01*
X114317415Y-44667549D01*
X114498097Y-44937958D01*
X114622553Y-45238421D01*
X114686000Y-45557391D01*
X114686000Y-45882609D01*
X114622553Y-46201579D01*
X114498097Y-46502042D01*
X114317415Y-46772451D01*
X114087451Y-47002415D01*
X113817042Y-47183097D01*
X113516579Y-47307553D01*
X113410256Y-47328702D01*
X113197611Y-47371000D01*
X112872389Y-47371000D01*
X112659744Y-47328702D01*
X112553421Y-47307553D01*
X112252958Y-47183097D01*
X111982549Y-47002415D01*
X111752585Y-46772451D01*
X111571903Y-46502042D01*
X111447447Y-46201579D01*
X111384000Y-45882609D01*
X111384000Y-45557391D01*
X111447447Y-45238421D01*
X111571903Y-44937958D01*
X111752585Y-44667549D01*
X111982549Y-44437585D01*
X112252958Y-44256903D01*
X112553421Y-44132447D01*
X112659744Y-44111298D01*
X112872389Y-44069000D01*
X113197611Y-44069000D01*
X113410256Y-44111298D01*
X113410256Y-44111298D01*
G37*
G36*
X118490256Y-44111298D02*
G01*
X118596579Y-44132447D01*
X118897042Y-44256903D01*
X119167451Y-44437585D01*
X119397415Y-44667549D01*
X119578097Y-44937958D01*
X119702553Y-45238421D01*
X119766000Y-45557391D01*
X119766000Y-45882609D01*
X119702553Y-46201579D01*
X119578097Y-46502042D01*
X119397415Y-46772451D01*
X119167451Y-47002415D01*
X118897042Y-47183097D01*
X118596579Y-47307553D01*
X118490256Y-47328702D01*
X118277611Y-47371000D01*
X117952389Y-47371000D01*
X117739744Y-47328702D01*
X117633421Y-47307553D01*
X117332958Y-47183097D01*
X117062549Y-47002415D01*
X116832585Y-46772451D01*
X116651903Y-46502042D01*
X116527447Y-46201579D01*
X116464000Y-45882609D01*
X116464000Y-45557391D01*
X116527447Y-45238421D01*
X116651903Y-44937958D01*
X116832585Y-44667549D01*
X117062549Y-44437585D01*
X117332958Y-44256903D01*
X117633421Y-44132447D01*
X117739744Y-44111298D01*
X117952389Y-44069000D01*
X118277611Y-44069000D01*
X118490256Y-44111298D01*
X118490256Y-44111298D01*
G37*
G36*
X103250256Y-44111298D02*
G01*
X103356579Y-44132447D01*
X103657042Y-44256903D01*
X103927451Y-44437585D01*
X104157415Y-44667549D01*
X104338097Y-44937958D01*
X104462553Y-45238421D01*
X104526000Y-45557391D01*
X104526000Y-45882609D01*
X104462553Y-46201579D01*
X104338097Y-46502042D01*
X104157415Y-46772451D01*
X103927451Y-47002415D01*
X103657042Y-47183097D01*
X103356579Y-47307553D01*
X103250256Y-47328702D01*
X103037611Y-47371000D01*
X102712389Y-47371000D01*
X102499744Y-47328702D01*
X102393421Y-47307553D01*
X102092958Y-47183097D01*
X101822549Y-47002415D01*
X101592585Y-46772451D01*
X101411903Y-46502042D01*
X101287447Y-46201579D01*
X101224000Y-45882609D01*
X101224000Y-45557391D01*
X101287447Y-45238421D01*
X101411903Y-44937958D01*
X101592585Y-44667549D01*
X101822549Y-44437585D01*
X102092958Y-44256903D01*
X102393421Y-44132447D01*
X102499744Y-44111298D01*
X102712389Y-44069000D01*
X103037611Y-44069000D01*
X103250256Y-44111298D01*
X103250256Y-44111298D01*
G37*
G36*
X128650256Y-44111298D02*
G01*
X128756579Y-44132447D01*
X129057042Y-44256903D01*
X129327451Y-44437585D01*
X129557415Y-44667549D01*
X129738097Y-44937958D01*
X129862553Y-45238421D01*
X129926000Y-45557391D01*
X129926000Y-45882609D01*
X129862553Y-46201579D01*
X129738097Y-46502042D01*
X129557415Y-46772451D01*
X129327451Y-47002415D01*
X129057042Y-47183097D01*
X128756579Y-47307553D01*
X128650256Y-47328702D01*
X128437611Y-47371000D01*
X128112389Y-47371000D01*
X127899744Y-47328702D01*
X127793421Y-47307553D01*
X127492958Y-47183097D01*
X127222549Y-47002415D01*
X126992585Y-46772451D01*
X126811903Y-46502042D01*
X126687447Y-46201579D01*
X126624000Y-45882609D01*
X126624000Y-45557391D01*
X126687447Y-45238421D01*
X126811903Y-44937958D01*
X126992585Y-44667549D01*
X127222549Y-44437585D01*
X127492958Y-44256903D01*
X127793421Y-44132447D01*
X127899744Y-44111298D01*
X128112389Y-44069000D01*
X128437611Y-44069000D01*
X128650256Y-44111298D01*
X128650256Y-44111298D01*
G37*
G36*
X60406000Y-43261000D02*
G01*
X57704000Y-43261000D01*
X57704000Y-40559000D01*
X60406000Y-40559000D01*
X60406000Y-43261000D01*
X60406000Y-43261000D01*
G37*
G36*
X93821000Y-43261000D02*
G01*
X91119000Y-43261000D01*
X91119000Y-40559000D01*
X93821000Y-40559000D01*
X93821000Y-43261000D01*
X93821000Y-43261000D01*
G37*
G36*
X87864072Y-40610918D02*
G01*
X88109939Y-40712759D01*
X88331212Y-40860610D01*
X88519390Y-41048788D01*
X88667241Y-41270061D01*
X88769082Y-41515928D01*
X88821000Y-41776938D01*
X88821000Y-42043062D01*
X88769082Y-42304072D01*
X88667241Y-42549939D01*
X88519390Y-42771212D01*
X88331212Y-42959390D01*
X88109939Y-43107241D01*
X88109938Y-43107242D01*
X88109937Y-43107242D01*
X87864072Y-43209082D01*
X87603063Y-43261000D01*
X87336937Y-43261000D01*
X87075928Y-43209082D01*
X86830063Y-43107242D01*
X86830062Y-43107242D01*
X86830061Y-43107241D01*
X86608788Y-42959390D01*
X86420610Y-42771212D01*
X86272759Y-42549939D01*
X86170918Y-42304072D01*
X86119000Y-42043062D01*
X86119000Y-41776938D01*
X86170918Y-41515928D01*
X86272759Y-41270061D01*
X86420610Y-41048788D01*
X86608788Y-40860610D01*
X86830061Y-40712759D01*
X87075928Y-40610918D01*
X87336937Y-40559000D01*
X87603063Y-40559000D01*
X87864072Y-40610918D01*
X87864072Y-40610918D01*
G37*
G36*
X83821000Y-43261000D02*
G01*
X81119000Y-43261000D01*
X81119000Y-40559000D01*
X83821000Y-40559000D01*
X83821000Y-43261000D01*
X83821000Y-43261000D01*
G37*
G36*
X77864072Y-40610918D02*
G01*
X78109939Y-40712759D01*
X78331212Y-40860610D01*
X78519390Y-41048788D01*
X78667241Y-41270061D01*
X78769082Y-41515928D01*
X78821000Y-41776938D01*
X78821000Y-42043062D01*
X78769082Y-42304072D01*
X78667241Y-42549939D01*
X78519390Y-42771212D01*
X78331212Y-42959390D01*
X78109939Y-43107241D01*
X78109938Y-43107242D01*
X78109937Y-43107242D01*
X77864072Y-43209082D01*
X77603063Y-43261000D01*
X77336937Y-43261000D01*
X77075928Y-43209082D01*
X76830063Y-43107242D01*
X76830062Y-43107242D01*
X76830061Y-43107241D01*
X76608788Y-42959390D01*
X76420610Y-42771212D01*
X76272759Y-42549939D01*
X76170918Y-42304072D01*
X76119000Y-42043062D01*
X76119000Y-41776938D01*
X76170918Y-41515928D01*
X76272759Y-41270061D01*
X76420610Y-41048788D01*
X76608788Y-40860610D01*
X76830061Y-40712759D01*
X77075928Y-40610918D01*
X77336937Y-40559000D01*
X77603063Y-40559000D01*
X77864072Y-40610918D01*
X77864072Y-40610918D01*
G37*
G36*
X73821000Y-43261000D02*
G01*
X71119000Y-43261000D01*
X71119000Y-40559000D01*
X73821000Y-40559000D01*
X73821000Y-43261000D01*
X73821000Y-43261000D01*
G37*
G36*
X67864072Y-40610918D02*
G01*
X68109939Y-40712759D01*
X68331212Y-40860610D01*
X68519390Y-41048788D01*
X68667241Y-41270061D01*
X68769082Y-41515928D01*
X68821000Y-41776938D01*
X68821000Y-42043062D01*
X68769082Y-42304072D01*
X68667241Y-42549939D01*
X68519390Y-42771212D01*
X68331212Y-42959390D01*
X68109939Y-43107241D01*
X68109938Y-43107242D01*
X68109937Y-43107242D01*
X67864072Y-43209082D01*
X67603063Y-43261000D01*
X67336937Y-43261000D01*
X67075928Y-43209082D01*
X66830063Y-43107242D01*
X66830062Y-43107242D01*
X66830061Y-43107241D01*
X66608788Y-42959390D01*
X66420610Y-42771212D01*
X66272759Y-42549939D01*
X66170918Y-42304072D01*
X66119000Y-42043062D01*
X66119000Y-41776938D01*
X66170918Y-41515928D01*
X66272759Y-41270061D01*
X66420610Y-41048788D01*
X66608788Y-40860610D01*
X66830061Y-40712759D01*
X67075928Y-40610918D01*
X67336937Y-40559000D01*
X67603063Y-40559000D01*
X67864072Y-40610918D01*
X67864072Y-40610918D01*
G37*
G36*
X54449072Y-40610918D02*
G01*
X54694939Y-40712759D01*
X54916212Y-40860610D01*
X55104390Y-41048788D01*
X55252241Y-41270061D01*
X55354082Y-41515928D01*
X55406000Y-41776938D01*
X55406000Y-42043062D01*
X55354082Y-42304072D01*
X55252241Y-42549939D01*
X55104390Y-42771212D01*
X54916212Y-42959390D01*
X54694939Y-43107241D01*
X54694938Y-43107242D01*
X54694937Y-43107242D01*
X54449072Y-43209082D01*
X54188063Y-43261000D01*
X53921937Y-43261000D01*
X53660928Y-43209082D01*
X53415063Y-43107242D01*
X53415062Y-43107242D01*
X53415061Y-43107241D01*
X53193788Y-42959390D01*
X53005610Y-42771212D01*
X52857759Y-42549939D01*
X52755918Y-42304072D01*
X52704000Y-42043062D01*
X52704000Y-41776938D01*
X52755918Y-41515928D01*
X52857759Y-41270061D01*
X53005610Y-41048788D01*
X53193788Y-40860610D01*
X53415061Y-40712759D01*
X53660928Y-40610918D01*
X53921937Y-40559000D01*
X54188063Y-40559000D01*
X54449072Y-40610918D01*
X54449072Y-40610918D01*
G37*
M02*
