G04 #@! TF.GenerationSoftware,KiCad,Pcbnew,5.1.0-060a0da~80~ubuntu18.04.1*
G04 #@! TF.CreationDate,2019-04-21T23:40:02+03:00*
G04 #@! TF.ProjectId,Borjomi,426f726a-6f6d-4692-9e6b-696361645f70,w01*
G04 #@! TF.SameCoordinates,Original*
G04 #@! TF.FileFunction,Legend,Top*
G04 #@! TF.FilePolarity,Positive*
%FSLAX46Y46*%
G04 Gerber Fmt 4.6, Leading zero omitted, Abs format (unit mm)*
G04 Created by KiCad (PCBNEW 5.1.0-060a0da~80~ubuntu18.04.1) date 2019-04-21 23:40:02*
%MOMM*%
%LPD*%
G04 APERTURE LIST*
%ADD10C,0.150000*%
%ADD11C,0.120000*%
%ADD12C,0.100000*%
G04 APERTURE END LIST*
D10*
X104688095Y-37282380D02*
X104688095Y-36282380D01*
X104926190Y-36282380D01*
X105069047Y-36330000D01*
X105164285Y-36425238D01*
X105211904Y-36520476D01*
X105259523Y-36710952D01*
X105259523Y-36853809D01*
X105211904Y-37044285D01*
X105164285Y-37139523D01*
X105069047Y-37234761D01*
X104926190Y-37282380D01*
X104688095Y-37282380D01*
X106116666Y-37282380D02*
X106116666Y-36758571D01*
X106069047Y-36663333D01*
X105973809Y-36615714D01*
X105783333Y-36615714D01*
X105688095Y-36663333D01*
X106116666Y-37234761D02*
X106021428Y-37282380D01*
X105783333Y-37282380D01*
X105688095Y-37234761D01*
X105640476Y-37139523D01*
X105640476Y-37044285D01*
X105688095Y-36949047D01*
X105783333Y-36901428D01*
X106021428Y-36901428D01*
X106116666Y-36853809D01*
X106450000Y-36615714D02*
X106830952Y-36615714D01*
X106592857Y-36282380D02*
X106592857Y-37139523D01*
X106640476Y-37234761D01*
X106735714Y-37282380D01*
X106830952Y-37282380D01*
X107592857Y-37282380D02*
X107592857Y-36758571D01*
X107545238Y-36663333D01*
X107450000Y-36615714D01*
X107259523Y-36615714D01*
X107164285Y-36663333D01*
X107592857Y-37234761D02*
X107497619Y-37282380D01*
X107259523Y-37282380D01*
X107164285Y-37234761D01*
X107116666Y-37139523D01*
X107116666Y-37044285D01*
X107164285Y-36949047D01*
X107259523Y-36901428D01*
X107497619Y-36901428D01*
X107592857Y-36853809D01*
X109021428Y-36282380D02*
X109211904Y-36282380D01*
X109307142Y-36330000D01*
X109402380Y-36425238D01*
X109450000Y-36615714D01*
X109450000Y-36949047D01*
X109402380Y-37139523D01*
X109307142Y-37234761D01*
X109211904Y-37282380D01*
X109021428Y-37282380D01*
X108926190Y-37234761D01*
X108830952Y-37139523D01*
X108783333Y-36949047D01*
X108783333Y-36615714D01*
X108830952Y-36425238D01*
X108926190Y-36330000D01*
X109021428Y-36282380D01*
X109878571Y-36282380D02*
X109878571Y-37091904D01*
X109926190Y-37187142D01*
X109973809Y-37234761D01*
X110069047Y-37282380D01*
X110259523Y-37282380D01*
X110354761Y-37234761D01*
X110402380Y-37187142D01*
X110450000Y-37091904D01*
X110450000Y-36282380D01*
X110783333Y-36282380D02*
X111354761Y-36282380D01*
X111069047Y-37282380D02*
X111069047Y-36282380D01*
X120594761Y-37282380D02*
X120594761Y-36282380D01*
X120832857Y-36282380D01*
X120975714Y-36330000D01*
X121070952Y-36425238D01*
X121118571Y-36520476D01*
X121166190Y-36710952D01*
X121166190Y-36853809D01*
X121118571Y-37044285D01*
X121070952Y-37139523D01*
X120975714Y-37234761D01*
X120832857Y-37282380D01*
X120594761Y-37282380D01*
X122023333Y-37282380D02*
X122023333Y-36758571D01*
X121975714Y-36663333D01*
X121880476Y-36615714D01*
X121690000Y-36615714D01*
X121594761Y-36663333D01*
X122023333Y-37234761D02*
X121928095Y-37282380D01*
X121690000Y-37282380D01*
X121594761Y-37234761D01*
X121547142Y-37139523D01*
X121547142Y-37044285D01*
X121594761Y-36949047D01*
X121690000Y-36901428D01*
X121928095Y-36901428D01*
X122023333Y-36853809D01*
X122356666Y-36615714D02*
X122737619Y-36615714D01*
X122499523Y-36282380D02*
X122499523Y-37139523D01*
X122547142Y-37234761D01*
X122642380Y-37282380D01*
X122737619Y-37282380D01*
X123499523Y-37282380D02*
X123499523Y-36758571D01*
X123451904Y-36663333D01*
X123356666Y-36615714D01*
X123166190Y-36615714D01*
X123070952Y-36663333D01*
X123499523Y-37234761D02*
X123404285Y-37282380D01*
X123166190Y-37282380D01*
X123070952Y-37234761D01*
X123023333Y-37139523D01*
X123023333Y-37044285D01*
X123070952Y-36949047D01*
X123166190Y-36901428D01*
X123404285Y-36901428D01*
X123499523Y-36853809D01*
X124737619Y-37282380D02*
X124737619Y-36282380D01*
X125213809Y-37282380D02*
X125213809Y-36282380D01*
X125785238Y-37282380D01*
X125785238Y-36282380D01*
X51943571Y-52892142D02*
X52229285Y-52987380D01*
X52324523Y-53082619D01*
X52419761Y-53273095D01*
X52419761Y-53558809D01*
X52324523Y-53749285D01*
X52229285Y-53844523D01*
X52038809Y-53939761D01*
X51276904Y-53939761D01*
X51276904Y-51939761D01*
X51943571Y-51939761D01*
X52134047Y-52035000D01*
X52229285Y-52130238D01*
X52324523Y-52320714D01*
X52324523Y-52511190D01*
X52229285Y-52701666D01*
X52134047Y-52796904D01*
X51943571Y-52892142D01*
X51276904Y-52892142D01*
X53562619Y-53939761D02*
X53372142Y-53844523D01*
X53276904Y-53749285D01*
X53181666Y-53558809D01*
X53181666Y-52987380D01*
X53276904Y-52796904D01*
X53372142Y-52701666D01*
X53562619Y-52606428D01*
X53848333Y-52606428D01*
X54038809Y-52701666D01*
X54134047Y-52796904D01*
X54229285Y-52987380D01*
X54229285Y-53558809D01*
X54134047Y-53749285D01*
X54038809Y-53844523D01*
X53848333Y-53939761D01*
X53562619Y-53939761D01*
X55086428Y-53939761D02*
X55086428Y-52606428D01*
X55086428Y-52987380D02*
X55181666Y-52796904D01*
X55276904Y-52701666D01*
X55467380Y-52606428D01*
X55657857Y-52606428D01*
X56324523Y-52606428D02*
X56324523Y-54320714D01*
X56229285Y-54511190D01*
X56038809Y-54606428D01*
X55943571Y-54606428D01*
X56324523Y-51939761D02*
X56229285Y-52035000D01*
X56324523Y-52130238D01*
X56419761Y-52035000D01*
X56324523Y-51939761D01*
X56324523Y-52130238D01*
X57562619Y-53939761D02*
X57372142Y-53844523D01*
X57276904Y-53749285D01*
X57181666Y-53558809D01*
X57181666Y-52987380D01*
X57276904Y-52796904D01*
X57372142Y-52701666D01*
X57562619Y-52606428D01*
X57848333Y-52606428D01*
X58038809Y-52701666D01*
X58134047Y-52796904D01*
X58229285Y-52987380D01*
X58229285Y-53558809D01*
X58134047Y-53749285D01*
X58038809Y-53844523D01*
X57848333Y-53939761D01*
X57562619Y-53939761D01*
X59086428Y-53939761D02*
X59086428Y-52606428D01*
X59086428Y-52796904D02*
X59181666Y-52701666D01*
X59372142Y-52606428D01*
X59657857Y-52606428D01*
X59848333Y-52701666D01*
X59943571Y-52892142D01*
X59943571Y-53939761D01*
X59943571Y-52892142D02*
X60038809Y-52701666D01*
X60229285Y-52606428D01*
X60515000Y-52606428D01*
X60705476Y-52701666D01*
X60800714Y-52892142D01*
X60800714Y-53939761D01*
X61753095Y-53939761D02*
X61753095Y-52606428D01*
X61753095Y-51939761D02*
X61657857Y-52035000D01*
X61753095Y-52130238D01*
X61848333Y-52035000D01*
X61753095Y-51939761D01*
X61753095Y-52130238D01*
X53657857Y-55756428D02*
X54134047Y-57089761D01*
X54610238Y-55756428D01*
X56419761Y-57089761D02*
X55276904Y-57089761D01*
X55848333Y-57089761D02*
X55848333Y-55089761D01*
X55657857Y-55375476D01*
X55467380Y-55565952D01*
X55276904Y-55661190D01*
X57276904Y-56899285D02*
X57372142Y-56994523D01*
X57276904Y-57089761D01*
X57181666Y-56994523D01*
X57276904Y-56899285D01*
X57276904Y-57089761D01*
X59276904Y-57089761D02*
X58134047Y-57089761D01*
X58705476Y-57089761D02*
X58705476Y-55089761D01*
X58515000Y-55375476D01*
X58324523Y-55565952D01*
X58134047Y-55661190D01*
X55276904Y-36409761D02*
X55419761Y-36457380D01*
X55657857Y-36457380D01*
X55753095Y-36409761D01*
X55800714Y-36362142D01*
X55848333Y-36266904D01*
X55848333Y-36171666D01*
X55800714Y-36076428D01*
X55753095Y-36028809D01*
X55657857Y-35981190D01*
X55467380Y-35933571D01*
X55372142Y-35885952D01*
X55324523Y-35838333D01*
X55276904Y-35743095D01*
X55276904Y-35647857D01*
X55324523Y-35552619D01*
X55372142Y-35505000D01*
X55467380Y-35457380D01*
X55705476Y-35457380D01*
X55848333Y-35505000D01*
X56419761Y-36457380D02*
X56324523Y-36409761D01*
X56276904Y-36362142D01*
X56229285Y-36266904D01*
X56229285Y-35981190D01*
X56276904Y-35885952D01*
X56324523Y-35838333D01*
X56419761Y-35790714D01*
X56562619Y-35790714D01*
X56657857Y-35838333D01*
X56705476Y-35885952D01*
X56753095Y-35981190D01*
X56753095Y-36266904D01*
X56705476Y-36362142D01*
X56657857Y-36409761D01*
X56562619Y-36457380D01*
X56419761Y-36457380D01*
X57181666Y-36457380D02*
X57181666Y-35790714D01*
X57181666Y-35457380D02*
X57134047Y-35505000D01*
X57181666Y-35552619D01*
X57229285Y-35505000D01*
X57181666Y-35457380D01*
X57181666Y-35552619D01*
X57800714Y-36457380D02*
X57705476Y-36409761D01*
X57657857Y-36314523D01*
X57657857Y-35457380D01*
X53610238Y-38107380D02*
X53610238Y-37107380D01*
X53943571Y-37821666D01*
X54276904Y-37107380D01*
X54276904Y-38107380D01*
X54895952Y-38107380D02*
X54800714Y-38059761D01*
X54753095Y-38012142D01*
X54705476Y-37916904D01*
X54705476Y-37631190D01*
X54753095Y-37535952D01*
X54800714Y-37488333D01*
X54895952Y-37440714D01*
X55038809Y-37440714D01*
X55134047Y-37488333D01*
X55181666Y-37535952D01*
X55229285Y-37631190D01*
X55229285Y-37916904D01*
X55181666Y-38012142D01*
X55134047Y-38059761D01*
X55038809Y-38107380D01*
X54895952Y-38107380D01*
X55657857Y-38107380D02*
X55657857Y-37440714D01*
X55657857Y-37107380D02*
X55610238Y-37155000D01*
X55657857Y-37202619D01*
X55705476Y-37155000D01*
X55657857Y-37107380D01*
X55657857Y-37202619D01*
X56086428Y-38059761D02*
X56181666Y-38107380D01*
X56372142Y-38107380D01*
X56467380Y-38059761D01*
X56515000Y-37964523D01*
X56515000Y-37916904D01*
X56467380Y-37821666D01*
X56372142Y-37774047D01*
X56229285Y-37774047D01*
X56134047Y-37726428D01*
X56086428Y-37631190D01*
X56086428Y-37583571D01*
X56134047Y-37488333D01*
X56229285Y-37440714D01*
X56372142Y-37440714D01*
X56467380Y-37488333D01*
X56800714Y-37440714D02*
X57181666Y-37440714D01*
X56943571Y-37107380D02*
X56943571Y-37964523D01*
X56991190Y-38059761D01*
X57086428Y-38107380D01*
X57181666Y-38107380D01*
X57943571Y-37440714D02*
X57943571Y-38107380D01*
X57515000Y-37440714D02*
X57515000Y-37964523D01*
X57562619Y-38059761D01*
X57657857Y-38107380D01*
X57800714Y-38107380D01*
X57895952Y-38059761D01*
X57943571Y-38012142D01*
X58419761Y-38107380D02*
X58419761Y-37440714D01*
X58419761Y-37631190D02*
X58467380Y-37535952D01*
X58515000Y-37488333D01*
X58610238Y-37440714D01*
X58705476Y-37440714D01*
X59419761Y-38059761D02*
X59324523Y-38107380D01*
X59134047Y-38107380D01*
X59038809Y-38059761D01*
X58991190Y-37964523D01*
X58991190Y-37583571D01*
X59038809Y-37488333D01*
X59134047Y-37440714D01*
X59324523Y-37440714D01*
X59419761Y-37488333D01*
X59467380Y-37583571D01*
X59467380Y-37678809D01*
X58991190Y-37774047D01*
X70175714Y-37869761D02*
X70318571Y-37917380D01*
X70556666Y-37917380D01*
X70651904Y-37869761D01*
X70699523Y-37822142D01*
X70747142Y-37726904D01*
X70747142Y-37631666D01*
X70699523Y-37536428D01*
X70651904Y-37488809D01*
X70556666Y-37441190D01*
X70366190Y-37393571D01*
X70270952Y-37345952D01*
X70223333Y-37298333D01*
X70175714Y-37203095D01*
X70175714Y-37107857D01*
X70223333Y-37012619D01*
X70270952Y-36965000D01*
X70366190Y-36917380D01*
X70604285Y-36917380D01*
X70747142Y-36965000D01*
X71080476Y-37250714D02*
X71270952Y-37917380D01*
X71461428Y-37441190D01*
X71651904Y-37917380D01*
X71842380Y-37250714D01*
X72223333Y-37917380D02*
X72223333Y-37250714D01*
X72223333Y-36917380D02*
X72175714Y-36965000D01*
X72223333Y-37012619D01*
X72270952Y-36965000D01*
X72223333Y-36917380D01*
X72223333Y-37012619D01*
X72556666Y-37250714D02*
X72937619Y-37250714D01*
X72699523Y-36917380D02*
X72699523Y-37774523D01*
X72747142Y-37869761D01*
X72842380Y-37917380D01*
X72937619Y-37917380D01*
X73699523Y-37869761D02*
X73604285Y-37917380D01*
X73413809Y-37917380D01*
X73318571Y-37869761D01*
X73270952Y-37822142D01*
X73223333Y-37726904D01*
X73223333Y-37441190D01*
X73270952Y-37345952D01*
X73318571Y-37298333D01*
X73413809Y-37250714D01*
X73604285Y-37250714D01*
X73699523Y-37298333D01*
X74128095Y-37917380D02*
X74128095Y-36917380D01*
X74556666Y-37917380D02*
X74556666Y-37393571D01*
X74509047Y-37298333D01*
X74413809Y-37250714D01*
X74270952Y-37250714D01*
X74175714Y-37298333D01*
X74128095Y-37345952D01*
X79486428Y-37917380D02*
X78915000Y-37917380D01*
X79200714Y-37917380D02*
X79200714Y-36917380D01*
X79105476Y-37060238D01*
X79010238Y-37155476D01*
X78915000Y-37203095D01*
X79867380Y-37012619D02*
X79915000Y-36965000D01*
X80010238Y-36917380D01*
X80248333Y-36917380D01*
X80343571Y-36965000D01*
X80391190Y-37012619D01*
X80438809Y-37107857D01*
X80438809Y-37203095D01*
X80391190Y-37345952D01*
X79819761Y-37917380D01*
X80438809Y-37917380D01*
X80724523Y-36917380D02*
X81057857Y-37917380D01*
X81391190Y-36917380D01*
X82676904Y-36917380D02*
X82867380Y-36917380D01*
X82962619Y-36965000D01*
X83057857Y-37060238D01*
X83105476Y-37250714D01*
X83105476Y-37584047D01*
X83057857Y-37774523D01*
X82962619Y-37869761D01*
X82867380Y-37917380D01*
X82676904Y-37917380D01*
X82581666Y-37869761D01*
X82486428Y-37774523D01*
X82438809Y-37584047D01*
X82438809Y-37250714D01*
X82486428Y-37060238D01*
X82581666Y-36965000D01*
X82676904Y-36917380D01*
X83534047Y-36917380D02*
X83534047Y-37726904D01*
X83581666Y-37822142D01*
X83629285Y-37869761D01*
X83724523Y-37917380D01*
X83915000Y-37917380D01*
X84010238Y-37869761D01*
X84057857Y-37822142D01*
X84105476Y-37726904D01*
X84105476Y-36917380D01*
X84438809Y-36917380D02*
X85010238Y-36917380D01*
X84724523Y-37917380D02*
X84724523Y-36917380D01*
X90948095Y-37917380D02*
X90376666Y-37917380D01*
X90662380Y-37917380D02*
X90662380Y-36917380D01*
X90567142Y-37060238D01*
X90471904Y-37155476D01*
X90376666Y-37203095D01*
X91329047Y-37012619D02*
X91376666Y-36965000D01*
X91471904Y-36917380D01*
X91710000Y-36917380D01*
X91805238Y-36965000D01*
X91852857Y-37012619D01*
X91900476Y-37107857D01*
X91900476Y-37203095D01*
X91852857Y-37345952D01*
X91281428Y-37917380D01*
X91900476Y-37917380D01*
X92186190Y-36917380D02*
X92519523Y-37917380D01*
X92852857Y-36917380D01*
X93948095Y-37917380D02*
X93948095Y-36917380D01*
X94424285Y-37917380D02*
X94424285Y-36917380D01*
X94995714Y-37917380D01*
X94995714Y-36917380D01*
X87089047Y-37536428D02*
X87850952Y-37536428D01*
X87470000Y-37917380D02*
X87470000Y-37155476D01*
X77089047Y-37536428D02*
X77850952Y-37536428D01*
X77470000Y-37917380D02*
X77470000Y-37155476D01*
X67089047Y-37536428D02*
X67850952Y-37536428D01*
X67470000Y-37917380D02*
X67470000Y-37155476D01*
D11*
X48895000Y-99060000D02*
X48895000Y-34925000D01*
X130810000Y-99060000D02*
X48895000Y-99060000D01*
X130810000Y-34925000D02*
X130810000Y-99060000D01*
X48895000Y-34925000D02*
X130810000Y-34925000D01*
D12*
X63890000Y-97700000D02*
X80890000Y-97700000D01*
X80890000Y-97700000D02*
X80890000Y-54700000D01*
X63890000Y-54700000D02*
X80890000Y-54700000D01*
X63890000Y-97700000D02*
X63890000Y-54700000D01*
X49515000Y-61805000D02*
X63515000Y-61805000D01*
X63515000Y-92805000D02*
X63515000Y-61805000D01*
X49515000Y-92805000D02*
X63515000Y-92805000D01*
X49515000Y-92805000D02*
X49515000Y-61805000D01*
D11*
X101570000Y-97250000D02*
X129570000Y-97250000D01*
X101570000Y-97250000D02*
X101570000Y-57250000D01*
X101570000Y-57250000D02*
X129570000Y-57250000D01*
X129570000Y-97250000D02*
X129570000Y-57250000D01*
D12*
X86995000Y-87630000D02*
X94615000Y-87630000D01*
X94615000Y-87630000D02*
X94615000Y-97790000D01*
X94615000Y-97790000D02*
X86995000Y-97790000D01*
X86995000Y-97790000D02*
X86995000Y-87630000D01*
D11*
X99825000Y-51940000D02*
X81785000Y-51940000D01*
X99825000Y-95380000D02*
X99825000Y-51940000D01*
X81785000Y-95380000D02*
X99825000Y-95380000D01*
X84455000Y-92710000D02*
X81785000Y-92710000D01*
X84455000Y-57150000D02*
X84455000Y-92710000D01*
X84455000Y-57150000D02*
X81785000Y-57150000D01*
X97155000Y-92710000D02*
X99825000Y-92710000D01*
X97155000Y-54610000D02*
X97155000Y-92710000D01*
X97155000Y-54610000D02*
X99825000Y-54610000D01*
X81785000Y-51940000D02*
X81785000Y-54610000D01*
X81785000Y-57150000D02*
X81785000Y-95380000D01*
X84455000Y-54610000D02*
X81785000Y-54610000D01*
X84455000Y-57150000D02*
X84455000Y-54610000D01*
X69765000Y-50800000D02*
X68970000Y-50800000D01*
X75335000Y-50800000D02*
G75*
G03X75335000Y-50800000I-2785000J0D01*
G01*
X55282000Y-40887000D02*
X55329000Y-40841000D01*
X52985000Y-43185000D02*
X53020000Y-43149000D01*
X55089000Y-40671000D02*
X55124000Y-40636000D01*
X52780000Y-42979000D02*
X52827000Y-42933000D01*
X51495000Y-46410000D02*
X51495000Y-38810000D01*
X61615000Y-46410000D02*
X61615000Y-38810000D01*
X61615000Y-46410000D02*
X51495000Y-46410000D01*
X61615000Y-44211000D02*
X51495000Y-44211000D01*
X61615000Y-38810000D02*
X51495000Y-38810000D01*
X55735000Y-41910000D02*
G75*
G03X55735000Y-41910000I-1680000J0D01*
G01*
X59026195Y-40229747D02*
G75*
G02X59739000Y-40375000I28805J-1680253D01*
G01*
X60590426Y-41226958D02*
G75*
G02X60590000Y-42594000I-1535426J-683042D01*
G01*
X59738042Y-43445426D02*
G75*
G02X58371000Y-43445000I-683042J1535426D01*
G01*
X57519574Y-42593042D02*
G75*
G02X57520000Y-41226000I1535426J683042D01*
G01*
X58371682Y-40375244D02*
G75*
G02X59055000Y-40230000I683318J-1534756D01*
G01*
X68697000Y-40887000D02*
X68744000Y-40841000D01*
X66400000Y-43185000D02*
X66435000Y-43149000D01*
X68504000Y-40671000D02*
X68539000Y-40636000D01*
X66195000Y-42979000D02*
X66242000Y-42933000D01*
X64910000Y-46410000D02*
X64910000Y-38810000D01*
X75030000Y-46410000D02*
X75030000Y-38810000D01*
X75030000Y-46410000D02*
X64910000Y-46410000D01*
X75030000Y-44211000D02*
X64910000Y-44211000D01*
X75030000Y-38810000D02*
X64910000Y-38810000D01*
X69150000Y-41910000D02*
G75*
G03X69150000Y-41910000I-1680000J0D01*
G01*
X72441195Y-40229747D02*
G75*
G02X73154000Y-40375000I28805J-1680253D01*
G01*
X74005426Y-41226958D02*
G75*
G02X74005000Y-42594000I-1535426J-683042D01*
G01*
X73153042Y-43445426D02*
G75*
G02X71786000Y-43445000I-683042J1535426D01*
G01*
X70934574Y-42593042D02*
G75*
G02X70935000Y-41226000I1535426J683042D01*
G01*
X71786682Y-40375244D02*
G75*
G02X72470000Y-40230000I683318J-1534756D01*
G01*
X78697000Y-40887000D02*
X78744000Y-40841000D01*
X76400000Y-43185000D02*
X76435000Y-43149000D01*
X78504000Y-40671000D02*
X78539000Y-40636000D01*
X76195000Y-42979000D02*
X76242000Y-42933000D01*
X74910000Y-46410000D02*
X74910000Y-38810000D01*
X85030000Y-46410000D02*
X85030000Y-38810000D01*
X85030000Y-46410000D02*
X74910000Y-46410000D01*
X85030000Y-44211000D02*
X74910000Y-44211000D01*
X85030000Y-38810000D02*
X74910000Y-38810000D01*
X79150000Y-41910000D02*
G75*
G03X79150000Y-41910000I-1680000J0D01*
G01*
X82441195Y-40229747D02*
G75*
G02X83154000Y-40375000I28805J-1680253D01*
G01*
X84005426Y-41226958D02*
G75*
G02X84005000Y-42594000I-1535426J-683042D01*
G01*
X83153042Y-43445426D02*
G75*
G02X81786000Y-43445000I-683042J1535426D01*
G01*
X80934574Y-42593042D02*
G75*
G02X80935000Y-41226000I1535426J683042D01*
G01*
X81786682Y-40375244D02*
G75*
G02X82470000Y-40230000I683318J-1534756D01*
G01*
X88697000Y-40887000D02*
X88744000Y-40841000D01*
X86400000Y-43185000D02*
X86435000Y-43149000D01*
X88504000Y-40671000D02*
X88539000Y-40636000D01*
X86195000Y-42979000D02*
X86242000Y-42933000D01*
X84910000Y-46410000D02*
X84910000Y-38810000D01*
X95030000Y-46410000D02*
X95030000Y-38810000D01*
X95030000Y-46410000D02*
X84910000Y-46410000D01*
X95030000Y-44211000D02*
X84910000Y-44211000D01*
X95030000Y-38810000D02*
X84910000Y-38810000D01*
X89150000Y-41910000D02*
G75*
G03X89150000Y-41910000I-1680000J0D01*
G01*
X92441195Y-40229747D02*
G75*
G02X93154000Y-40375000I28805J-1680253D01*
G01*
X94005426Y-41226958D02*
G75*
G02X94005000Y-42594000I-1535426J-683042D01*
G01*
X93153042Y-43445426D02*
G75*
G02X91786000Y-43445000I-683042J1535426D01*
G01*
X90934574Y-42593042D02*
G75*
G02X90935000Y-41226000I1535426J683042D01*
G01*
X91786682Y-40375244D02*
G75*
G02X92470000Y-40230000I683318J-1534756D01*
G01*
X114555000Y-55840000D02*
X101355000Y-55840000D01*
X101355000Y-55840000D02*
X101355000Y-46820000D01*
D12*
X101355000Y-37960000D02*
X101355000Y-37840000D01*
D11*
X101355000Y-37840000D02*
X101355000Y-44620000D01*
D12*
X101355000Y-37850000D02*
X101355000Y-37840000D01*
D11*
X101355000Y-37840000D02*
X114555000Y-37840000D01*
X114555000Y-37840000D02*
X114555000Y-44620000D01*
D12*
X114555000Y-46890000D02*
X114555000Y-46820000D01*
D11*
X114555000Y-46820000D02*
X114555000Y-55840000D01*
X115025000Y-53840000D02*
X115025000Y-55370000D01*
X129795000Y-55840000D02*
X116595000Y-55840000D01*
X116595000Y-55840000D02*
X116595000Y-46820000D01*
D12*
X116595000Y-37960000D02*
X116595000Y-37840000D01*
D11*
X116595000Y-37840000D02*
X116595000Y-44620000D01*
D12*
X116595000Y-37850000D02*
X116595000Y-37840000D01*
D11*
X116595000Y-37840000D02*
X129795000Y-37840000D01*
X129795000Y-37840000D02*
X129795000Y-44620000D01*
D12*
X129795000Y-46890000D02*
X129795000Y-46820000D01*
D11*
X129795000Y-46820000D02*
X129795000Y-55840000D01*
X130265000Y-53840000D02*
X130265000Y-55370000D01*
D10*
X61976095Y-96607380D02*
X61976095Y-97416904D01*
X62023714Y-97512142D01*
X62071333Y-97559761D01*
X62166571Y-97607380D01*
X62357047Y-97607380D01*
X62452285Y-97559761D01*
X62499904Y-97512142D01*
X62547523Y-97416904D01*
X62547523Y-96607380D01*
X62928476Y-96607380D02*
X63547523Y-96607380D01*
X63214190Y-96988333D01*
X63357047Y-96988333D01*
X63452285Y-97035952D01*
X63499904Y-97083571D01*
X63547523Y-97178809D01*
X63547523Y-97416904D01*
X63499904Y-97512142D01*
X63452285Y-97559761D01*
X63357047Y-97607380D01*
X63071333Y-97607380D01*
X62976095Y-97559761D01*
X62928476Y-97512142D01*
X55753095Y-93178380D02*
X55753095Y-93987904D01*
X55800714Y-94083142D01*
X55848333Y-94130761D01*
X55943571Y-94178380D01*
X56134047Y-94178380D01*
X56229285Y-94130761D01*
X56276904Y-94083142D01*
X56324523Y-93987904D01*
X56324523Y-93178380D01*
X56753095Y-93273619D02*
X56800714Y-93226000D01*
X56895952Y-93178380D01*
X57134047Y-93178380D01*
X57229285Y-93226000D01*
X57276904Y-93273619D01*
X57324523Y-93368857D01*
X57324523Y-93464095D01*
X57276904Y-93606952D01*
X56705476Y-94178380D01*
X57324523Y-94178380D01*
X99822095Y-96734380D02*
X99822095Y-97543904D01*
X99869714Y-97639142D01*
X99917333Y-97686761D01*
X100012571Y-97734380D01*
X100203047Y-97734380D01*
X100298285Y-97686761D01*
X100345904Y-97639142D01*
X100393523Y-97543904D01*
X100393523Y-96734380D01*
X101393523Y-97734380D02*
X100822095Y-97734380D01*
X101107809Y-97734380D02*
X101107809Y-96734380D01*
X101012571Y-96877238D01*
X100917333Y-96972476D01*
X100822095Y-97020095D01*
X85264714Y-97448666D02*
X85740904Y-97448666D01*
X85169476Y-97734380D02*
X85502809Y-96734380D01*
X85836142Y-97734380D01*
X86693285Y-97734380D02*
X86121857Y-97734380D01*
X86407571Y-97734380D02*
X86407571Y-96734380D01*
X86312333Y-96877238D01*
X86217095Y-96972476D01*
X86121857Y-97020095D01*
X63556904Y-51252380D02*
X63556904Y-50252380D01*
X63795000Y-50252380D01*
X63937857Y-50300000D01*
X64033095Y-50395238D01*
X64080714Y-50490476D01*
X64128333Y-50680952D01*
X64128333Y-50823809D01*
X64080714Y-51014285D01*
X64033095Y-51109523D01*
X63937857Y-51204761D01*
X63795000Y-51252380D01*
X63556904Y-51252380D01*
X65080714Y-51252380D02*
X64509285Y-51252380D01*
X64795000Y-51252380D02*
X64795000Y-50252380D01*
X64699761Y-50395238D01*
X64604523Y-50490476D01*
X64509285Y-50538095D01*
X56221666Y-47077380D02*
X56221666Y-47791666D01*
X56174047Y-47934523D01*
X56078809Y-48029761D01*
X55935952Y-48077380D01*
X55840714Y-48077380D01*
X57126428Y-47077380D02*
X56935952Y-47077380D01*
X56840714Y-47125000D01*
X56793095Y-47172619D01*
X56697857Y-47315476D01*
X56650238Y-47505952D01*
X56650238Y-47886904D01*
X56697857Y-47982142D01*
X56745476Y-48029761D01*
X56840714Y-48077380D01*
X57031190Y-48077380D01*
X57126428Y-48029761D01*
X57174047Y-47982142D01*
X57221666Y-47886904D01*
X57221666Y-47648809D01*
X57174047Y-47553571D01*
X57126428Y-47505952D01*
X57031190Y-47458333D01*
X56840714Y-47458333D01*
X56745476Y-47505952D01*
X56697857Y-47553571D01*
X56650238Y-47648809D01*
X69516666Y-47077380D02*
X69516666Y-47791666D01*
X69469047Y-47934523D01*
X69373809Y-48029761D01*
X69230952Y-48077380D01*
X69135714Y-48077380D01*
X69897619Y-47077380D02*
X70516666Y-47077380D01*
X70183333Y-47458333D01*
X70326190Y-47458333D01*
X70421428Y-47505952D01*
X70469047Y-47553571D01*
X70516666Y-47648809D01*
X70516666Y-47886904D01*
X70469047Y-47982142D01*
X70421428Y-48029761D01*
X70326190Y-48077380D01*
X70040476Y-48077380D01*
X69945238Y-48029761D01*
X69897619Y-47982142D01*
X79636666Y-47077380D02*
X79636666Y-47791666D01*
X79589047Y-47934523D01*
X79493809Y-48029761D01*
X79350952Y-48077380D01*
X79255714Y-48077380D01*
X80065238Y-47172619D02*
X80112857Y-47125000D01*
X80208095Y-47077380D01*
X80446190Y-47077380D01*
X80541428Y-47125000D01*
X80589047Y-47172619D01*
X80636666Y-47267857D01*
X80636666Y-47363095D01*
X80589047Y-47505952D01*
X80017619Y-48077380D01*
X80636666Y-48077380D01*
X89636666Y-47077380D02*
X89636666Y-47791666D01*
X89589047Y-47934523D01*
X89493809Y-48029761D01*
X89350952Y-48077380D01*
X89255714Y-48077380D01*
X90636666Y-48077380D02*
X90065238Y-48077380D01*
X90350952Y-48077380D02*
X90350952Y-47077380D01*
X90255714Y-47220238D01*
X90160476Y-47315476D01*
X90065238Y-47363095D01*
X112461666Y-55967380D02*
X112461666Y-56681666D01*
X112414047Y-56824523D01*
X112318809Y-56919761D01*
X112175952Y-56967380D01*
X112080714Y-56967380D01*
X113414047Y-55967380D02*
X112937857Y-55967380D01*
X112890238Y-56443571D01*
X112937857Y-56395952D01*
X113033095Y-56348333D01*
X113271190Y-56348333D01*
X113366428Y-56395952D01*
X113414047Y-56443571D01*
X113461666Y-56538809D01*
X113461666Y-56776904D01*
X113414047Y-56872142D01*
X113366428Y-56919761D01*
X113271190Y-56967380D01*
X113033095Y-56967380D01*
X112937857Y-56919761D01*
X112890238Y-56872142D01*
X127701666Y-55967380D02*
X127701666Y-56681666D01*
X127654047Y-56824523D01*
X127558809Y-56919761D01*
X127415952Y-56967380D01*
X127320714Y-56967380D01*
X128606428Y-56300714D02*
X128606428Y-56967380D01*
X128368333Y-55919761D02*
X128130238Y-56634047D01*
X128749285Y-56634047D01*
M02*
