M48
; DRILL file {KiCad 5.1.0-060a0da~80~ubuntu18.04.1} date вт, 09-кві-2019 01:38:19 +0300
; FORMAT={-:-/ absolute / metric / decimal}
; #@! TF.CreationDate,2019-04-09T01:38:19+03:00
; #@! TF.GenerationSoftware,Kicad,Pcbnew,5.1.0-060a0da~80~ubuntu18.04.1
; #@! TF.FileFunction,Plated,1,2,PTH
FMAT,2
METRIC
T1C0.760
T2C0.762
T3C0.800
T4C1.200
T5C1.300
%
G90
G05
T1
X121.285Y-54.61
X122.555Y-52.07
X123.825Y-54.61
X125.095Y-52.07
X106.045Y-54.61
X107.315Y-52.07
X108.585Y-54.61
X109.855Y-52.07
T2
X52.705Y-90.805
X55.245Y-64.135
X55.245Y-90.805
X57.785Y-64.135
X57.785Y-90.805
X60.325Y-90.805
X107.95Y-95.25
X110.49Y-95.25
X113.03Y-95.25
X114.3Y-66.75
X115.57Y-95.25
X116.84Y-66.75
X118.11Y-95.25
X120.65Y-95.25
X123.19Y-95.25
X69.85Y-94.6
X72.39Y-94.6
X74.93Y-94.6
T3
X83.185Y-55.88
X83.185Y-58.42
X83.185Y-60.96
X83.185Y-63.5
X83.185Y-66.04
X83.185Y-68.58
X83.185Y-71.12
X83.185Y-73.66
X83.185Y-76.2
X83.185Y-78.74
X83.185Y-81.28
X83.185Y-83.82
X83.185Y-86.36
X83.185Y-88.9
X83.185Y-91.44
X98.425Y-55.88
X98.425Y-58.42
X98.425Y-60.96
X98.425Y-63.5
X98.425Y-66.04
X98.425Y-68.58
X98.425Y-71.12
X98.425Y-73.66
X98.425Y-76.2
X98.425Y-78.74
X98.425Y-81.28
X98.425Y-83.82
X98.425Y-86.36
X98.425Y-88.9
X98.425Y-91.44
T4
X67.47Y-50.8
X72.55Y-50.8
X67.31Y-61.4
X72.39Y-61.4
X77.47Y-61.4
T5
X67.47Y-41.91
X72.47Y-41.91
X77.47Y-41.91
X82.47Y-41.91
X87.47Y-41.91
X92.47Y-41.91
X54.055Y-41.91
X59.055Y-41.91
T0
M30
