G04 #@! TF.GenerationSoftware,KiCad,Pcbnew,5.1.2-f72e74a~84~ubuntu18.04.1*
G04 #@! TF.CreationDate,2019-08-04T21:20:18+03:00*
G04 #@! TF.ProjectId,Borjomi-Main,426f726a-6f6d-4692-9d4d-61696e2e6b69,rev?*
G04 #@! TF.SameCoordinates,Original*
G04 #@! TF.FileFunction,Soldermask,Bot*
G04 #@! TF.FilePolarity,Negative*
%FSLAX46Y46*%
G04 Gerber Fmt 4.6, Leading zero omitted, Abs format (unit mm)*
G04 Created by KiCad (PCBNEW 5.1.2-f72e74a~84~ubuntu18.04.1) date 2019-08-04 21:20:18*
%MOMM*%
%LPD*%
G04 APERTURE LIST*
%ADD10C,2.000000*%
%ADD11C,0.150000*%
%ADD12C,3.500000*%
%ADD13C,3.000000*%
%ADD14R,3.500000X3.500000*%
%ADD15R,1.800000X1.800000*%
%ADD16O,1.800000X1.800000*%
%ADD17O,1.700000X1.700000*%
%ADD18O,1.600000X1.600000*%
%ADD19R,2.400000X2.400000*%
%ADD20O,2.400000X2.400000*%
%ADD21R,2.600000X2.600000*%
%ADD22C,2.600000*%
%ADD23C,3.200000*%
%ADD24C,1.520000*%
%ADD25C,1.600000*%
%ADD26C,1.800000*%
%ADD27C,1.700000*%
%ADD28C,2.200000*%
%ADD29C,2.000000*%
G04 APERTURE END LIST*
D10*
X144432020Y-80253840D02*
X144432020Y-82785700D01*
X142283180Y-78105000D02*
X144432020Y-80253840D01*
X133731000Y-78105000D02*
X142283180Y-78105000D01*
X144432020Y-88785700D02*
X144432020Y-94394020D01*
X144432020Y-94394020D02*
X160147000Y-110109000D01*
X160147000Y-110109000D02*
X160147000Y-113287000D01*
X165227000Y-113287000D02*
X165227000Y-114842634D01*
X165227000Y-114842634D02*
X162975634Y-117094000D01*
X162975634Y-117094000D02*
X154813000Y-117094000D01*
X154813000Y-117094000D02*
X147320000Y-109601000D01*
X147320000Y-109601000D02*
X147320000Y-104072000D01*
X128731000Y-97997000D02*
X128731000Y-78105000D01*
X131953000Y-101219000D02*
X128731000Y-97997000D01*
X139387000Y-101219000D02*
X131953000Y-101219000D01*
X142240000Y-104072000D02*
X139387000Y-101219000D01*
D11*
G36*
X140692785Y-84039913D02*
G01*
X140777724Y-84052513D01*
X140861019Y-84073377D01*
X140941868Y-84102305D01*
X141019492Y-84139019D01*
X141093144Y-84183164D01*
X141162114Y-84234316D01*
X141225738Y-84291982D01*
X141283404Y-84355606D01*
X141334556Y-84424576D01*
X141378701Y-84498228D01*
X141415415Y-84575852D01*
X141444343Y-84656701D01*
X141465207Y-84739996D01*
X141477807Y-84824935D01*
X141482020Y-84910700D01*
X141482020Y-86660700D01*
X141477807Y-86746465D01*
X141465207Y-86831404D01*
X141444343Y-86914699D01*
X141415415Y-86995548D01*
X141378701Y-87073172D01*
X141334556Y-87146824D01*
X141283404Y-87215794D01*
X141225738Y-87279418D01*
X141162114Y-87337084D01*
X141093144Y-87388236D01*
X141019492Y-87432381D01*
X140941868Y-87469095D01*
X140861019Y-87498023D01*
X140777724Y-87518887D01*
X140692785Y-87531487D01*
X140607020Y-87535700D01*
X138857020Y-87535700D01*
X138771255Y-87531487D01*
X138686316Y-87518887D01*
X138603021Y-87498023D01*
X138522172Y-87469095D01*
X138444548Y-87432381D01*
X138370896Y-87388236D01*
X138301926Y-87337084D01*
X138238302Y-87279418D01*
X138180636Y-87215794D01*
X138129484Y-87146824D01*
X138085339Y-87073172D01*
X138048625Y-86995548D01*
X138019697Y-86914699D01*
X137998833Y-86831404D01*
X137986233Y-86746465D01*
X137982020Y-86660700D01*
X137982020Y-84910700D01*
X137986233Y-84824935D01*
X137998833Y-84739996D01*
X138019697Y-84656701D01*
X138048625Y-84575852D01*
X138085339Y-84498228D01*
X138129484Y-84424576D01*
X138180636Y-84355606D01*
X138238302Y-84291982D01*
X138301926Y-84234316D01*
X138370896Y-84183164D01*
X138444548Y-84139019D01*
X138522172Y-84102305D01*
X138603021Y-84073377D01*
X138686316Y-84052513D01*
X138771255Y-84039913D01*
X138857020Y-84035700D01*
X140607020Y-84035700D01*
X140692785Y-84039913D01*
X140692785Y-84039913D01*
G37*
D12*
X139732020Y-85785700D03*
D11*
G36*
X145505533Y-81289311D02*
G01*
X145578338Y-81300111D01*
X145649734Y-81317995D01*
X145719033Y-81342790D01*
X145785568Y-81374259D01*
X145848698Y-81412098D01*
X145907815Y-81455942D01*
X145962350Y-81505370D01*
X146011778Y-81559905D01*
X146055622Y-81619022D01*
X146093461Y-81682152D01*
X146124930Y-81748687D01*
X146149725Y-81817986D01*
X146167609Y-81889382D01*
X146178409Y-81962187D01*
X146182020Y-82035700D01*
X146182020Y-83535700D01*
X146178409Y-83609213D01*
X146167609Y-83682018D01*
X146149725Y-83753414D01*
X146124930Y-83822713D01*
X146093461Y-83889248D01*
X146055622Y-83952378D01*
X146011778Y-84011495D01*
X145962350Y-84066030D01*
X145907815Y-84115458D01*
X145848698Y-84159302D01*
X145785568Y-84197141D01*
X145719033Y-84228610D01*
X145649734Y-84253405D01*
X145578338Y-84271289D01*
X145505533Y-84282089D01*
X145432020Y-84285700D01*
X143432020Y-84285700D01*
X143358507Y-84282089D01*
X143285702Y-84271289D01*
X143214306Y-84253405D01*
X143145007Y-84228610D01*
X143078472Y-84197141D01*
X143015342Y-84159302D01*
X142956225Y-84115458D01*
X142901690Y-84066030D01*
X142852262Y-84011495D01*
X142808418Y-83952378D01*
X142770579Y-83889248D01*
X142739110Y-83822713D01*
X142714315Y-83753414D01*
X142696431Y-83682018D01*
X142685631Y-83609213D01*
X142682020Y-83535700D01*
X142682020Y-82035700D01*
X142685631Y-81962187D01*
X142696431Y-81889382D01*
X142714315Y-81817986D01*
X142739110Y-81748687D01*
X142770579Y-81682152D01*
X142808418Y-81619022D01*
X142852262Y-81559905D01*
X142901690Y-81505370D01*
X142956225Y-81455942D01*
X143015342Y-81412098D01*
X143078472Y-81374259D01*
X143145007Y-81342790D01*
X143214306Y-81317995D01*
X143285702Y-81300111D01*
X143358507Y-81289311D01*
X143432020Y-81285700D01*
X145432020Y-81285700D01*
X145505533Y-81289311D01*
X145505533Y-81289311D01*
G37*
D13*
X144432020Y-82785700D03*
D14*
X144432020Y-88785700D03*
D15*
X173736000Y-98044000D03*
D16*
X188976000Y-131064000D03*
X173736000Y-100584000D03*
X188976000Y-128524000D03*
X173736000Y-103124000D03*
D17*
X188976000Y-125984000D03*
D16*
X173736000Y-105664000D03*
D18*
X188976000Y-123444000D03*
D16*
X173736000Y-108204000D03*
D17*
X188976000Y-120904000D03*
D16*
X173736000Y-110744000D03*
X188976000Y-118364000D03*
X173736000Y-113284000D03*
D17*
X188976000Y-115824000D03*
D16*
X173736000Y-115824000D03*
D18*
X188976000Y-113284000D03*
D16*
X173736000Y-118364000D03*
D18*
X188976000Y-110744000D03*
D16*
X173736000Y-120904000D03*
D18*
X188976000Y-108204000D03*
D16*
X173736000Y-123444000D03*
X188976000Y-105664000D03*
X173736000Y-125984000D03*
X188976000Y-103124000D03*
X173736000Y-128524000D03*
X188976000Y-100584000D03*
X173736000Y-131064000D03*
X188976000Y-98044000D03*
X173736000Y-133604000D03*
X188976000Y-133604000D03*
X173736000Y-105664000D03*
X173736000Y-105664000D03*
D19*
X116459000Y-89662000D03*
D20*
X121539000Y-89662000D03*
D21*
X121412000Y-78105000D03*
D22*
X116412000Y-78105000D03*
X128731000Y-78105000D03*
D21*
X133731000Y-78105000D03*
D23*
X211079000Y-83185000D03*
D24*
X214249000Y-92075000D03*
X215519000Y-89535000D03*
X216789000Y-92075000D03*
X218059000Y-89535000D03*
D23*
X221239000Y-83185000D03*
X204856000Y-83185000D03*
D24*
X201676000Y-89535000D03*
X200406000Y-92075000D03*
X199136000Y-89535000D03*
X197866000Y-92075000D03*
D23*
X194696000Y-83185000D03*
D25*
X144492980Y-94371160D03*
X149572980Y-94371160D03*
X160764220Y-94795340D03*
X155684220Y-94795340D03*
D26*
X208280000Y-109676000D03*
X201930000Y-138176000D03*
X204470000Y-138176000D03*
X207010000Y-138176000D03*
X209550000Y-138176000D03*
X212090000Y-138176000D03*
X214630000Y-138176000D03*
X217170000Y-138176000D03*
X210820000Y-109676000D03*
D27*
X160147000Y-137287000D03*
X162687000Y-137287000D03*
X165227000Y-137287000D03*
D28*
X160147000Y-113287000D03*
X165227000Y-113287000D03*
D29*
X144780000Y-137272000D03*
X142240000Y-137272000D03*
X139700000Y-137272000D03*
D28*
X142240000Y-104072000D03*
X137160000Y-104072000D03*
X147320000Y-104072000D03*
X126746000Y-104072000D03*
X116586000Y-104072000D03*
X121666000Y-104072000D03*
D27*
X119126000Y-137272000D03*
X121666000Y-137272000D03*
X124206000Y-137272000D03*
D26*
X188468000Y-90043000D03*
X188468000Y-87503000D03*
X188468000Y-84963000D03*
X188468000Y-82423000D03*
X188468000Y-79883000D03*
X188468000Y-77343000D03*
M02*
