G04 #@! TF.GenerationSoftware,KiCad,Pcbnew,5.1.6-c6e7f7d~87~ubuntu18.04.1*
G04 #@! TF.CreationDate,2020-08-29T16:42:25+03:00*
G04 #@! TF.ProjectId,Borjomi-Main,426f726a-6f6d-4692-9d4d-61696e2e6b69,rev?*
G04 #@! TF.SameCoordinates,Original*
G04 #@! TF.FileFunction,Legend,Top*
G04 #@! TF.FilePolarity,Positive*
%FSLAX46Y46*%
G04 Gerber Fmt 4.6, Leading zero omitted, Abs format (unit mm)*
G04 Created by KiCad (PCBNEW 5.1.6-c6e7f7d~87~ubuntu18.04.1) date 2020-08-29 16:42:25*
%MOMM*%
%LPD*%
G01*
G04 APERTURE LIST*
%ADD10C,0.150000*%
%ADD11C,0.300000*%
%ADD12C,0.120000*%
%ADD13C,0.100000*%
G04 APERTURE END LIST*
D10*
X102222205Y-95346400D02*
X101746015Y-95346400D01*
X101746015Y-94346400D01*
X102984110Y-95346400D02*
X102984110Y-94822591D01*
X102936491Y-94727353D01*
X102841253Y-94679734D01*
X102650777Y-94679734D01*
X102555539Y-94727353D01*
X102984110Y-95298781D02*
X102888872Y-95346400D01*
X102650777Y-95346400D01*
X102555539Y-95298781D01*
X102507920Y-95203543D01*
X102507920Y-95108305D01*
X102555539Y-95013067D01*
X102650777Y-94965448D01*
X102888872Y-94965448D01*
X102984110Y-94917829D01*
X103460300Y-94679734D02*
X103460300Y-95679734D01*
X103460300Y-94727353D02*
X103555539Y-94679734D01*
X103746015Y-94679734D01*
X103841253Y-94727353D01*
X103888872Y-94774972D01*
X103936491Y-94870210D01*
X103936491Y-95155924D01*
X103888872Y-95251162D01*
X103841253Y-95298781D01*
X103746015Y-95346400D01*
X103555539Y-95346400D01*
X103460300Y-95298781D01*
X104222205Y-94679734D02*
X104603158Y-94679734D01*
X104365062Y-94346400D02*
X104365062Y-95203543D01*
X104412681Y-95298781D01*
X104507920Y-95346400D01*
X104603158Y-95346400D01*
X105079348Y-95346400D02*
X104984110Y-95298781D01*
X104936491Y-95251162D01*
X104888872Y-95155924D01*
X104888872Y-94870210D01*
X104936491Y-94774972D01*
X104984110Y-94727353D01*
X105079348Y-94679734D01*
X105222205Y-94679734D01*
X105317443Y-94727353D01*
X105365062Y-94774972D01*
X105412681Y-94870210D01*
X105412681Y-95155924D01*
X105365062Y-95251162D01*
X105317443Y-95298781D01*
X105222205Y-95346400D01*
X105079348Y-95346400D01*
X105841253Y-94679734D02*
X105841253Y-95679734D01*
X105841253Y-94727353D02*
X105936491Y-94679734D01*
X106126967Y-94679734D01*
X106222205Y-94727353D01*
X106269824Y-94774972D01*
X106317443Y-94870210D01*
X106317443Y-95155924D01*
X106269824Y-95251162D01*
X106222205Y-95298781D01*
X106126967Y-95346400D01*
X105936491Y-95346400D01*
X105841253Y-95298781D01*
D11*
X158311151Y-98903902D02*
X158596865Y-98999140D01*
X158692103Y-99094379D01*
X158787341Y-99284855D01*
X158787341Y-99570569D01*
X158692103Y-99761045D01*
X158596865Y-99856283D01*
X158406389Y-99951521D01*
X157644484Y-99951521D01*
X157644484Y-97951521D01*
X158311151Y-97951521D01*
X158501627Y-98046760D01*
X158596865Y-98141998D01*
X158692103Y-98332474D01*
X158692103Y-98522950D01*
X158596865Y-98713426D01*
X158501627Y-98808664D01*
X158311151Y-98903902D01*
X157644484Y-98903902D01*
X159930199Y-99951521D02*
X159739722Y-99856283D01*
X159644484Y-99761045D01*
X159549246Y-99570569D01*
X159549246Y-98999140D01*
X159644484Y-98808664D01*
X159739722Y-98713426D01*
X159930199Y-98618188D01*
X160215913Y-98618188D01*
X160406389Y-98713426D01*
X160501627Y-98808664D01*
X160596865Y-98999140D01*
X160596865Y-99570569D01*
X160501627Y-99761045D01*
X160406389Y-99856283D01*
X160215913Y-99951521D01*
X159930199Y-99951521D01*
X161454008Y-99951521D02*
X161454008Y-98618188D01*
X161454008Y-98999140D02*
X161549246Y-98808664D01*
X161644484Y-98713426D01*
X161834960Y-98618188D01*
X162025437Y-98618188D01*
X162692103Y-98618188D02*
X162692103Y-100332474D01*
X162596865Y-100522950D01*
X162406389Y-100618188D01*
X162311151Y-100618188D01*
X162692103Y-97951521D02*
X162596865Y-98046760D01*
X162692103Y-98141998D01*
X162787341Y-98046760D01*
X162692103Y-97951521D01*
X162692103Y-98141998D01*
X163930199Y-99951521D02*
X163739722Y-99856283D01*
X163644484Y-99761045D01*
X163549246Y-99570569D01*
X163549246Y-98999140D01*
X163644484Y-98808664D01*
X163739722Y-98713426D01*
X163930199Y-98618188D01*
X164215913Y-98618188D01*
X164406389Y-98713426D01*
X164501627Y-98808664D01*
X164596865Y-98999140D01*
X164596865Y-99570569D01*
X164501627Y-99761045D01*
X164406389Y-99856283D01*
X164215913Y-99951521D01*
X163930199Y-99951521D01*
X165454008Y-99951521D02*
X165454008Y-98618188D01*
X165454008Y-98808664D02*
X165549246Y-98713426D01*
X165739722Y-98618188D01*
X166025437Y-98618188D01*
X166215913Y-98713426D01*
X166311151Y-98903902D01*
X166311151Y-99951521D01*
X166311151Y-98903902D02*
X166406389Y-98713426D01*
X166596865Y-98618188D01*
X166882580Y-98618188D01*
X167073056Y-98713426D01*
X167168294Y-98903902D01*
X167168294Y-99951521D01*
X168120675Y-99951521D02*
X168120675Y-98618188D01*
X168120675Y-97951521D02*
X168025437Y-98046760D01*
X168120675Y-98141998D01*
X168215913Y-98046760D01*
X168120675Y-97951521D01*
X168120675Y-98141998D01*
X159930199Y-103251521D02*
X159930199Y-101251521D01*
X160596865Y-102680093D01*
X161263532Y-101251521D01*
X161263532Y-103251521D01*
X163073056Y-103251521D02*
X163073056Y-102203902D01*
X162977818Y-102013426D01*
X162787341Y-101918188D01*
X162406389Y-101918188D01*
X162215913Y-102013426D01*
X163073056Y-103156283D02*
X162882580Y-103251521D01*
X162406389Y-103251521D01*
X162215913Y-103156283D01*
X162120675Y-102965807D01*
X162120675Y-102775331D01*
X162215913Y-102584855D01*
X162406389Y-102489617D01*
X162882580Y-102489617D01*
X163073056Y-102394379D01*
X164025437Y-103251521D02*
X164025437Y-101918188D01*
X164025437Y-101251521D02*
X163930199Y-101346760D01*
X164025437Y-101441998D01*
X164120675Y-101346760D01*
X164025437Y-101251521D01*
X164025437Y-101441998D01*
X164977818Y-101918188D02*
X164977818Y-103251521D01*
X164977818Y-102108664D02*
X165073056Y-102013426D01*
X165263532Y-101918188D01*
X165549246Y-101918188D01*
X165739722Y-102013426D01*
X165834960Y-102203902D01*
X165834960Y-103251521D01*
X160025437Y-105218188D02*
X160501627Y-106551521D01*
X160977818Y-105218188D01*
X162787341Y-106551521D02*
X161644484Y-106551521D01*
X162215913Y-106551521D02*
X162215913Y-104551521D01*
X162025437Y-104837236D01*
X161834960Y-105027712D01*
X161644484Y-105122950D01*
X163644484Y-106361045D02*
X163739722Y-106456283D01*
X163644484Y-106551521D01*
X163549246Y-106456283D01*
X163644484Y-106361045D01*
X163644484Y-106551521D01*
X165644484Y-106551521D02*
X164501627Y-106551521D01*
X165073056Y-106551521D02*
X165073056Y-104551521D01*
X164882580Y-104837236D01*
X164692103Y-105027712D01*
X164501627Y-105122950D01*
D10*
X219700339Y-95346400D02*
X219700339Y-94346400D01*
X219938434Y-94346400D01*
X220081291Y-94394020D01*
X220176529Y-94489258D01*
X220224148Y-94584496D01*
X220271767Y-94774972D01*
X220271767Y-94917829D01*
X220224148Y-95108305D01*
X220176529Y-95203543D01*
X220081291Y-95298781D01*
X219938434Y-95346400D01*
X219700339Y-95346400D01*
X221128910Y-95346400D02*
X221128910Y-94822591D01*
X221081291Y-94727353D01*
X220986053Y-94679734D01*
X220795577Y-94679734D01*
X220700339Y-94727353D01*
X221128910Y-95298781D02*
X221033672Y-95346400D01*
X220795577Y-95346400D01*
X220700339Y-95298781D01*
X220652720Y-95203543D01*
X220652720Y-95108305D01*
X220700339Y-95013067D01*
X220795577Y-94965448D01*
X221033672Y-94965448D01*
X221128910Y-94917829D01*
X221462243Y-94679734D02*
X221843196Y-94679734D01*
X221605100Y-94346400D02*
X221605100Y-95203543D01*
X221652720Y-95298781D01*
X221747958Y-95346400D01*
X221843196Y-95346400D01*
X222605100Y-95346400D02*
X222605100Y-94822591D01*
X222557481Y-94727353D01*
X222462243Y-94679734D01*
X222271767Y-94679734D01*
X222176529Y-94727353D01*
X222605100Y-95298781D02*
X222509862Y-95346400D01*
X222271767Y-95346400D01*
X222176529Y-95298781D01*
X222128910Y-95203543D01*
X222128910Y-95108305D01*
X222176529Y-95013067D01*
X222271767Y-94965448D01*
X222509862Y-94965448D01*
X222605100Y-94917829D01*
X200200000Y-95346400D02*
X200200000Y-94346400D01*
X200580952Y-94346400D01*
X200676190Y-94394020D01*
X200723809Y-94441639D01*
X200771428Y-94536877D01*
X200771428Y-94679734D01*
X200723809Y-94774972D01*
X200676190Y-94822591D01*
X200580952Y-94870210D01*
X200200000Y-94870210D01*
X201200000Y-95346400D02*
X201200000Y-94679734D01*
X201200000Y-94870210D02*
X201247619Y-94774972D01*
X201295238Y-94727353D01*
X201390476Y-94679734D01*
X201485714Y-94679734D01*
X202200000Y-95298781D02*
X202104761Y-95346400D01*
X201914285Y-95346400D01*
X201819047Y-95298781D01*
X201771428Y-95203543D01*
X201771428Y-94822591D01*
X201819047Y-94727353D01*
X201914285Y-94679734D01*
X202104761Y-94679734D01*
X202200000Y-94727353D01*
X202247619Y-94822591D01*
X202247619Y-94917829D01*
X201771428Y-95013067D01*
X202628571Y-95298781D02*
X202723809Y-95346400D01*
X202914285Y-95346400D01*
X203009523Y-95298781D01*
X203057142Y-95203543D01*
X203057142Y-95155924D01*
X203009523Y-95060686D01*
X202914285Y-95013067D01*
X202771428Y-95013067D01*
X202676190Y-94965448D01*
X202628571Y-94870210D01*
X202628571Y-94822591D01*
X202676190Y-94727353D01*
X202771428Y-94679734D01*
X202914285Y-94679734D01*
X203009523Y-94727353D01*
X203438095Y-95298781D02*
X203533333Y-95346400D01*
X203723809Y-95346400D01*
X203819047Y-95298781D01*
X203866666Y-95203543D01*
X203866666Y-95155924D01*
X203819047Y-95060686D01*
X203723809Y-95013067D01*
X203580952Y-95013067D01*
X203485714Y-94965448D01*
X203438095Y-94870210D01*
X203438095Y-94822591D01*
X203485714Y-94727353D01*
X203580952Y-94679734D01*
X203723809Y-94679734D01*
X203819047Y-94727353D01*
X204723809Y-94679734D02*
X204723809Y-95346400D01*
X204295238Y-94679734D02*
X204295238Y-95203543D01*
X204342857Y-95298781D01*
X204438095Y-95346400D01*
X204580952Y-95346400D01*
X204676190Y-95298781D01*
X204723809Y-95251162D01*
X205200000Y-95346400D02*
X205200000Y-94679734D01*
X205200000Y-94870210D02*
X205247619Y-94774972D01*
X205295238Y-94727353D01*
X205390476Y-94679734D01*
X205485714Y-94679734D01*
X206200000Y-95298781D02*
X206104761Y-95346400D01*
X205914285Y-95346400D01*
X205819047Y-95298781D01*
X205771428Y-95203543D01*
X205771428Y-94822591D01*
X205819047Y-94727353D01*
X205914285Y-94679734D01*
X206104761Y-94679734D01*
X206200000Y-94727353D01*
X206247619Y-94822591D01*
X206247619Y-94917829D01*
X205771428Y-95013067D01*
X144905315Y-91122760D02*
X144333886Y-91122760D01*
X144619600Y-91122760D02*
X144619600Y-90122760D01*
X144524362Y-90265618D01*
X144429124Y-90360856D01*
X144333886Y-90408475D01*
X145286267Y-90217999D02*
X145333886Y-90170380D01*
X145429124Y-90122760D01*
X145667220Y-90122760D01*
X145762458Y-90170380D01*
X145810077Y-90217999D01*
X145857696Y-90313237D01*
X145857696Y-90408475D01*
X145810077Y-90551332D01*
X145238648Y-91122760D01*
X145857696Y-91122760D01*
X146143410Y-90122760D02*
X146476743Y-91122760D01*
X146810077Y-90122760D01*
X147905315Y-91122760D02*
X147905315Y-90122760D01*
X148381505Y-91122760D02*
X148381505Y-90122760D01*
X148952934Y-91122760D01*
X148952934Y-90122760D01*
X128254619Y-83474868D02*
X129016523Y-83474868D01*
X128635571Y-83855820D02*
X128635571Y-83093916D01*
X130778428Y-83855820D02*
X130207000Y-83855820D01*
X130492714Y-83855820D02*
X130492714Y-82855820D01*
X130397476Y-82998678D01*
X130302238Y-83093916D01*
X130207000Y-83141535D01*
X131159380Y-82951059D02*
X131207000Y-82903440D01*
X131302238Y-82855820D01*
X131540333Y-82855820D01*
X131635571Y-82903440D01*
X131683190Y-82951059D01*
X131730809Y-83046297D01*
X131730809Y-83141535D01*
X131683190Y-83284392D01*
X131111761Y-83855820D01*
X131730809Y-83855820D01*
X132016523Y-82855820D02*
X132349857Y-83855820D01*
X132683190Y-82855820D01*
X133968904Y-82855820D02*
X134159380Y-82855820D01*
X134254619Y-82903440D01*
X134349857Y-82998678D01*
X134397476Y-83189154D01*
X134397476Y-83522487D01*
X134349857Y-83712963D01*
X134254619Y-83808201D01*
X134159380Y-83855820D01*
X133968904Y-83855820D01*
X133873666Y-83808201D01*
X133778428Y-83712963D01*
X133730809Y-83522487D01*
X133730809Y-83189154D01*
X133778428Y-82998678D01*
X133873666Y-82903440D01*
X133968904Y-82855820D01*
X134826047Y-82855820D02*
X134826047Y-83665344D01*
X134873666Y-83760582D01*
X134921285Y-83808201D01*
X135016523Y-83855820D01*
X135207000Y-83855820D01*
X135302238Y-83808201D01*
X135349857Y-83760582D01*
X135397476Y-83665344D01*
X135397476Y-82855820D01*
X135730809Y-82855820D02*
X136302238Y-82855820D01*
X136016523Y-83855820D02*
X136016523Y-82855820D01*
X120051106Y-83853280D02*
X120051106Y-82853280D01*
X120432059Y-82853280D01*
X120527297Y-82900900D01*
X120574916Y-82948519D01*
X120622535Y-83043757D01*
X120622535Y-83186614D01*
X120574916Y-83281852D01*
X120527297Y-83329471D01*
X120432059Y-83377090D01*
X120051106Y-83377090D01*
X121479678Y-83186614D02*
X121479678Y-83853280D01*
X121051106Y-83186614D02*
X121051106Y-83710423D01*
X121098725Y-83805661D01*
X121193963Y-83853280D01*
X121336820Y-83853280D01*
X121432059Y-83805661D01*
X121479678Y-83758042D01*
X121955868Y-83853280D02*
X121955868Y-83186614D01*
X121955868Y-83281852D02*
X122003487Y-83234233D01*
X122098725Y-83186614D01*
X122241582Y-83186614D01*
X122336820Y-83234233D01*
X122384440Y-83329471D01*
X122384440Y-83853280D01*
X122384440Y-83329471D02*
X122432059Y-83234233D01*
X122527297Y-83186614D01*
X122670154Y-83186614D01*
X122765392Y-83234233D01*
X122813011Y-83329471D01*
X122813011Y-83853280D01*
X123289201Y-83186614D02*
X123289201Y-84186614D01*
X123289201Y-83234233D02*
X123384440Y-83186614D01*
X123574916Y-83186614D01*
X123670154Y-83234233D01*
X123717773Y-83281852D01*
X123765392Y-83377090D01*
X123765392Y-83662804D01*
X123717773Y-83758042D01*
X123670154Y-83805661D01*
X123574916Y-83853280D01*
X123384440Y-83853280D01*
X123289201Y-83805661D01*
D12*
X180444682Y-113045782D02*
X176852580Y-109453680D01*
D13*
X177546000Y-129794000D02*
X185166000Y-129794000D01*
X185166000Y-129794000D02*
X185166000Y-139954000D01*
X185166000Y-139954000D02*
X177546000Y-139954000D01*
X177546000Y-139954000D02*
X177546000Y-129794000D01*
D12*
X190376000Y-94104000D02*
X172336000Y-94104000D01*
X190376000Y-137544000D02*
X190376000Y-94104000D01*
X172336000Y-137544000D02*
X190376000Y-137544000D01*
X175006000Y-134874000D02*
X172336000Y-134874000D01*
X175006000Y-99314000D02*
X175006000Y-134874000D01*
X175006000Y-99314000D02*
X172336000Y-99314000D01*
X187706000Y-134874000D02*
X190376000Y-134874000D01*
X187706000Y-96774000D02*
X187706000Y-134874000D01*
X187706000Y-96774000D02*
X190376000Y-96774000D01*
X172336000Y-94104000D02*
X172336000Y-96774000D01*
X172336000Y-99314000D02*
X172336000Y-137544000D01*
X175006000Y-96774000D02*
X172336000Y-96774000D01*
X175006000Y-99314000D02*
X175006000Y-96774000D01*
X106908940Y-90805000D02*
X106908940Y-92335000D01*
X106438940Y-83785000D02*
X106438940Y-92805000D01*
D13*
X106438940Y-83855000D02*
X106438940Y-83785000D01*
D12*
X106438940Y-74805000D02*
X106438940Y-81585000D01*
X93238940Y-74805000D02*
X106438940Y-74805000D01*
D13*
X93238940Y-74815000D02*
X93238940Y-74805000D01*
D12*
X93238940Y-74805000D02*
X93238940Y-81585000D01*
D13*
X93238940Y-74925000D02*
X93238940Y-74805000D01*
D12*
X93238940Y-92805000D02*
X93238940Y-83785000D01*
X106438940Y-92805000D02*
X93238940Y-92805000D01*
D13*
X92111940Y-140361840D02*
X92111940Y-97361840D01*
X92111940Y-97361840D02*
X109111940Y-97361840D01*
X109111940Y-140361840D02*
X109111940Y-97361840D01*
X92111940Y-140361840D02*
X109111940Y-140361840D01*
D12*
X148182020Y-89885700D02*
X149232020Y-89885700D01*
X149232020Y-88835700D02*
X149232020Y-89885700D01*
X139832020Y-83785700D02*
X139832020Y-74985700D01*
X139832020Y-74985700D02*
X149032020Y-74985700D01*
X142532020Y-89685700D02*
X139832020Y-89685700D01*
X139832020Y-89685700D02*
X139832020Y-87785700D01*
X149032020Y-74985700D02*
X149032020Y-89685700D01*
X149032020Y-89685700D02*
X146432020Y-89685700D01*
X118754000Y-89662000D02*
X117959000Y-89662000D01*
X124324000Y-89662000D02*
G75*
G03*
X124324000Y-89662000I-2785000J0D01*
G01*
X117639000Y-77082000D02*
X117686000Y-77036000D01*
X115342000Y-79380000D02*
X115377000Y-79344000D01*
X117446000Y-76866000D02*
X117481000Y-76831000D01*
X115137000Y-79174000D02*
X115184000Y-79128000D01*
X113852000Y-82605000D02*
X113852000Y-75005000D01*
X123972000Y-82605000D02*
X123972000Y-75005000D01*
X123972000Y-82605000D02*
X113852000Y-82605000D01*
X123972000Y-80406000D02*
X113852000Y-80406000D01*
X123972000Y-75005000D02*
X113852000Y-75005000D01*
X118092000Y-78105000D02*
G75*
G03*
X118092000Y-78105000I-1680000J0D01*
G01*
X120728682Y-76570244D02*
G75*
G02*
X121412000Y-76425000I683318J-1534756D01*
G01*
X119876574Y-78788042D02*
G75*
G02*
X119877000Y-77421000I1535426J683042D01*
G01*
X122095042Y-79640426D02*
G75*
G02*
X120728000Y-79640000I-683042J1535426D01*
G01*
X122947426Y-77421958D02*
G75*
G02*
X122947000Y-78789000I-1535426J-683042D01*
G01*
X121383195Y-76424747D02*
G75*
G02*
X122096000Y-76570000I28805J-1680253D01*
G01*
X130411000Y-78105000D02*
G75*
G03*
X130411000Y-78105000I-1680000J0D01*
G01*
X136291000Y-75005000D02*
X126171000Y-75005000D01*
X136291000Y-80406000D02*
X126171000Y-80406000D01*
X136291000Y-82605000D02*
X126171000Y-82605000D01*
X136291000Y-82605000D02*
X136291000Y-75005000D01*
X126171000Y-82605000D02*
X126171000Y-75005000D01*
X127456000Y-79174000D02*
X127503000Y-79128000D01*
X129765000Y-76866000D02*
X129800000Y-76831000D01*
X127661000Y-79380000D02*
X127696000Y-79344000D01*
X129958000Y-77082000D02*
X130005000Y-77036000D01*
X133702195Y-76424747D02*
G75*
G02*
X134415000Y-76570000I28805J-1680253D01*
G01*
X135266426Y-77421958D02*
G75*
G02*
X135266000Y-78789000I-1535426J-683042D01*
G01*
X134414042Y-79640426D02*
G75*
G02*
X133047000Y-79640000I-683042J1535426D01*
G01*
X132195574Y-78788042D02*
G75*
G02*
X132196000Y-77421000I1535426J683042D01*
G01*
X133047682Y-76570244D02*
G75*
G02*
X133731000Y-76425000I683318J-1534756D01*
G01*
X222759000Y-92805000D02*
X209559000Y-92805000D01*
X209559000Y-92805000D02*
X209559000Y-83785000D01*
D13*
X209559000Y-74925000D02*
X209559000Y-74805000D01*
D12*
X209559000Y-74805000D02*
X209559000Y-81585000D01*
D13*
X209559000Y-74815000D02*
X209559000Y-74805000D01*
D12*
X209559000Y-74805000D02*
X222759000Y-74805000D01*
X222759000Y-74805000D02*
X222759000Y-81585000D01*
D13*
X222759000Y-83855000D02*
X222759000Y-83785000D01*
D12*
X222759000Y-83785000D02*
X222759000Y-92805000D01*
X223229000Y-90805000D02*
X223229000Y-92335000D01*
X206846000Y-90805000D02*
X206846000Y-92335000D01*
X206376000Y-83785000D02*
X206376000Y-92805000D01*
D13*
X206376000Y-83855000D02*
X206376000Y-83785000D01*
D12*
X206376000Y-74805000D02*
X206376000Y-81585000D01*
X193176000Y-74805000D02*
X206376000Y-74805000D01*
D13*
X193176000Y-74815000D02*
X193176000Y-74805000D01*
D12*
X193176000Y-74805000D02*
X193176000Y-81585000D01*
D13*
X193176000Y-74925000D02*
X193176000Y-74805000D01*
D12*
X193176000Y-92805000D02*
X193176000Y-83785000D01*
X206376000Y-92805000D02*
X193176000Y-92805000D01*
X151342980Y-95761160D02*
X142722980Y-95761160D01*
X151342980Y-92981160D02*
X142722980Y-92981160D01*
X151342980Y-95761160D02*
X151342980Y-92981160D01*
X142722980Y-95761160D02*
X142722980Y-92981160D01*
X153914220Y-96185340D02*
X153914220Y-93405340D01*
X162534220Y-96185340D02*
X162534220Y-93405340D01*
X162534220Y-93405340D02*
X153914220Y-93405340D01*
X162534220Y-96185340D02*
X153914220Y-96185340D01*
X195550000Y-140176000D02*
X223550000Y-140176000D01*
X195550000Y-140176000D02*
X195550000Y-100176000D01*
X195550000Y-100176000D02*
X223550000Y-100176000D01*
X223550000Y-140176000D02*
X223550000Y-100176000D01*
X155687000Y-108287000D02*
X169687000Y-108287000D01*
X169687000Y-140287000D02*
X155687000Y-140287000D01*
X169687000Y-140287000D02*
X169687000Y-108287000D01*
X155687000Y-140287000D02*
X155687000Y-108287000D01*
D13*
X133740000Y-140372000D02*
X150740000Y-140372000D01*
X150740000Y-140372000D02*
X150740000Y-97372000D01*
X133740000Y-97372000D02*
X150740000Y-97372000D01*
X133740000Y-140372000D02*
X133740000Y-97372000D01*
X113166000Y-140372000D02*
X113166000Y-97372000D01*
X113166000Y-97372000D02*
X130166000Y-97372000D01*
X130166000Y-140372000D02*
X130166000Y-97372000D01*
X113166000Y-140372000D02*
X130166000Y-140372000D01*
D12*
X152468000Y-92583000D02*
X152468000Y-74913000D01*
X190468000Y-92583000D02*
X190468000Y-74913000D01*
X190468000Y-74913000D02*
X152468000Y-74913000D01*
X190468000Y-92583000D02*
X152468000Y-92583000D01*
D10*
X177286945Y-111800601D02*
X176781869Y-112305677D01*
X176647182Y-112373020D01*
X176512495Y-112373020D01*
X176377808Y-112305677D01*
X176310464Y-112238333D01*
X176916556Y-112844425D02*
X177623663Y-112137318D01*
X177893037Y-112406692D01*
X177926708Y-112507707D01*
X177926708Y-112575051D01*
X177893037Y-112676066D01*
X177792021Y-112777081D01*
X177691006Y-112810753D01*
X177623663Y-112810753D01*
X177522647Y-112777082D01*
X177253273Y-112507707D01*
X177994052Y-113921921D02*
X177589991Y-113517860D01*
X177792021Y-113719891D02*
X178499128Y-113012784D01*
X178330769Y-113046456D01*
X178196082Y-113046456D01*
X178095067Y-113012784D01*
X187997554Y-139264686D02*
X188473744Y-139264686D01*
X187902316Y-139550400D02*
X188235649Y-138550400D01*
X188568982Y-139550400D01*
X189426125Y-139550400D02*
X188854697Y-139550400D01*
X189140411Y-139550400D02*
X189140411Y-138550400D01*
X189045173Y-138693258D01*
X188949935Y-138788496D01*
X188854697Y-138836115D01*
X93345606Y-93187380D02*
X93345606Y-93901666D01*
X93297987Y-94044523D01*
X93202749Y-94139761D01*
X93059892Y-94187380D01*
X92964654Y-94187380D01*
X94250368Y-93187380D02*
X94059892Y-93187380D01*
X93964654Y-93235000D01*
X93917035Y-93282619D01*
X93821797Y-93425476D01*
X93774178Y-93615952D01*
X93774178Y-93996904D01*
X93821797Y-94092142D01*
X93869416Y-94139761D01*
X93964654Y-94187380D01*
X94155130Y-94187380D01*
X94250368Y-94139761D01*
X94297987Y-94092142D01*
X94345606Y-93996904D01*
X94345606Y-93758809D01*
X94297987Y-93663571D01*
X94250368Y-93615952D01*
X94155130Y-93568333D01*
X93964654Y-93568333D01*
X93869416Y-93615952D01*
X93821797Y-93663571D01*
X93774178Y-93758809D01*
X99928775Y-140729720D02*
X99928775Y-141539244D01*
X99976394Y-141634482D01*
X100024013Y-141682101D01*
X100119251Y-141729720D01*
X100309727Y-141729720D01*
X100404965Y-141682101D01*
X100452584Y-141634482D01*
X100500203Y-141539244D01*
X100500203Y-140729720D01*
X101404965Y-140729720D02*
X101214489Y-140729720D01*
X101119251Y-140777340D01*
X101071632Y-140824959D01*
X100976394Y-140967816D01*
X100928775Y-141158292D01*
X100928775Y-141539244D01*
X100976394Y-141634482D01*
X101024013Y-141682101D01*
X101119251Y-141729720D01*
X101309727Y-141729720D01*
X101404965Y-141682101D01*
X101452584Y-141634482D01*
X101500203Y-141539244D01*
X101500203Y-141301149D01*
X101452584Y-141205911D01*
X101404965Y-141158292D01*
X101309727Y-141110673D01*
X101119251Y-141110673D01*
X101024013Y-141158292D01*
X100976394Y-141205911D01*
X100928775Y-141301149D01*
X140187086Y-90214200D02*
X140187086Y-90928486D01*
X140139467Y-91071343D01*
X140044229Y-91166581D01*
X139901372Y-91214200D01*
X139806134Y-91214200D01*
X141187086Y-91214200D02*
X140615658Y-91214200D01*
X140901372Y-91214200D02*
X140901372Y-90214200D01*
X140806134Y-90357058D01*
X140710896Y-90452296D01*
X140615658Y-90499915D01*
X124166404Y-92987120D02*
X124166404Y-91987120D01*
X124404500Y-91987120D01*
X124547357Y-92034740D01*
X124642595Y-92129978D01*
X124690214Y-92225216D01*
X124737833Y-92415692D01*
X124737833Y-92558549D01*
X124690214Y-92749025D01*
X124642595Y-92844263D01*
X124547357Y-92939501D01*
X124404500Y-92987120D01*
X124166404Y-92987120D01*
X125690214Y-92987120D02*
X125118785Y-92987120D01*
X125404500Y-92987120D02*
X125404500Y-91987120D01*
X125309261Y-92129978D01*
X125214023Y-92225216D01*
X125118785Y-92272835D01*
X116197095Y-92314380D02*
X116197095Y-91314380D01*
X116768523Y-92314380D02*
X116339952Y-91742952D01*
X116768523Y-91314380D02*
X116197095Y-91885809D01*
X113920946Y-82886300D02*
X113920946Y-83600586D01*
X113873327Y-83743443D01*
X113778089Y-83838681D01*
X113635232Y-83886300D01*
X113539994Y-83886300D01*
X114349518Y-82981539D02*
X114397137Y-82933920D01*
X114492375Y-82886300D01*
X114730470Y-82886300D01*
X114825708Y-82933920D01*
X114873327Y-82981539D01*
X114920946Y-83076777D01*
X114920946Y-83172015D01*
X114873327Y-83314872D01*
X114301899Y-83886300D01*
X114920946Y-83886300D01*
X126148506Y-82901540D02*
X126148506Y-83615826D01*
X126100887Y-83758683D01*
X126005649Y-83853921D01*
X125862792Y-83901540D01*
X125767554Y-83901540D01*
X126529459Y-82901540D02*
X127148506Y-82901540D01*
X126815173Y-83282493D01*
X126958030Y-83282493D01*
X127053268Y-83330112D01*
X127100887Y-83377731D01*
X127148506Y-83472969D01*
X127148506Y-83711064D01*
X127100887Y-83806302D01*
X127053268Y-83853921D01*
X126958030Y-83901540D01*
X126672316Y-83901540D01*
X126577078Y-83853921D01*
X126529459Y-83806302D01*
X209648466Y-93346400D02*
X209648466Y-94060686D01*
X209600847Y-94203543D01*
X209505609Y-94298781D01*
X209362752Y-94346400D01*
X209267514Y-94346400D01*
X210553228Y-93679734D02*
X210553228Y-94346400D01*
X210315133Y-93298781D02*
X210077038Y-94013067D01*
X210696085Y-94013067D01*
X193143546Y-93181300D02*
X193143546Y-93895586D01*
X193095927Y-94038443D01*
X193000689Y-94133681D01*
X192857832Y-94181300D01*
X192762594Y-94181300D01*
X194095927Y-93181300D02*
X193619737Y-93181300D01*
X193572118Y-93657491D01*
X193619737Y-93609872D01*
X193714975Y-93562253D01*
X193953070Y-93562253D01*
X194048308Y-93609872D01*
X194095927Y-93657491D01*
X194143546Y-93752729D01*
X194143546Y-93990824D01*
X194095927Y-94086062D01*
X194048308Y-94133681D01*
X193953070Y-94181300D01*
X193714975Y-94181300D01*
X193619737Y-94133681D01*
X193572118Y-94086062D01*
X141390073Y-95699840D02*
X141056740Y-95223650D01*
X140818644Y-95699840D02*
X140818644Y-94699840D01*
X141199597Y-94699840D01*
X141294835Y-94747460D01*
X141342454Y-94795079D01*
X141390073Y-94890317D01*
X141390073Y-95033174D01*
X141342454Y-95128412D01*
X141294835Y-95176031D01*
X141199597Y-95223650D01*
X140818644Y-95223650D01*
X142342454Y-95699840D02*
X141771025Y-95699840D01*
X142056740Y-95699840D02*
X142056740Y-94699840D01*
X141961501Y-94842698D01*
X141866263Y-94937936D01*
X141771025Y-94985555D01*
X163637933Y-96098620D02*
X163304600Y-95622430D01*
X163066504Y-96098620D02*
X163066504Y-95098620D01*
X163447457Y-95098620D01*
X163542695Y-95146240D01*
X163590314Y-95193859D01*
X163637933Y-95289097D01*
X163637933Y-95431954D01*
X163590314Y-95527192D01*
X163542695Y-95574811D01*
X163447457Y-95622430D01*
X163066504Y-95622430D01*
X164018885Y-95193859D02*
X164066504Y-95146240D01*
X164161742Y-95098620D01*
X164399838Y-95098620D01*
X164495076Y-95146240D01*
X164542695Y-95193859D01*
X164590314Y-95289097D01*
X164590314Y-95384335D01*
X164542695Y-95527192D01*
X163971266Y-96098620D01*
X164590314Y-96098620D01*
X210682935Y-140734800D02*
X210682935Y-141544324D01*
X210730554Y-141639562D01*
X210778173Y-141687181D01*
X210873411Y-141734800D01*
X211063887Y-141734800D01*
X211159125Y-141687181D01*
X211206744Y-141639562D01*
X211254363Y-141544324D01*
X211254363Y-140734800D01*
X212254363Y-141734800D02*
X211682935Y-141734800D01*
X211968649Y-141734800D02*
X211968649Y-140734800D01*
X211873411Y-140877658D01*
X211778173Y-140972896D01*
X211682935Y-141020515D01*
X161937795Y-140742420D02*
X161937795Y-141551944D01*
X161985414Y-141647182D01*
X162033033Y-141694801D01*
X162128271Y-141742420D01*
X162318747Y-141742420D01*
X162413985Y-141694801D01*
X162461604Y-141647182D01*
X162509223Y-141551944D01*
X162509223Y-140742420D01*
X162937795Y-140837659D02*
X162985414Y-140790040D01*
X163080652Y-140742420D01*
X163318747Y-140742420D01*
X163413985Y-140790040D01*
X163461604Y-140837659D01*
X163509223Y-140932897D01*
X163509223Y-141028135D01*
X163461604Y-141170992D01*
X162890176Y-141742420D01*
X163509223Y-141742420D01*
X141462855Y-140742420D02*
X141462855Y-141551944D01*
X141510474Y-141647182D01*
X141558093Y-141694801D01*
X141653331Y-141742420D01*
X141843807Y-141742420D01*
X141939045Y-141694801D01*
X141986664Y-141647182D01*
X142034283Y-141551944D01*
X142034283Y-140742420D01*
X142415236Y-140742420D02*
X143034283Y-140742420D01*
X142700950Y-141123373D01*
X142843807Y-141123373D01*
X142939045Y-141170992D01*
X142986664Y-141218611D01*
X143034283Y-141313849D01*
X143034283Y-141551944D01*
X142986664Y-141647182D01*
X142939045Y-141694801D01*
X142843807Y-141742420D01*
X142558093Y-141742420D01*
X142462855Y-141694801D01*
X142415236Y-141647182D01*
X120713595Y-140729720D02*
X120713595Y-141539244D01*
X120761214Y-141634482D01*
X120808833Y-141682101D01*
X120904071Y-141729720D01*
X121094547Y-141729720D01*
X121189785Y-141682101D01*
X121237404Y-141634482D01*
X121285023Y-141539244D01*
X121285023Y-140729720D01*
X122189785Y-141063054D02*
X122189785Y-141729720D01*
X121951690Y-140682101D02*
X121713595Y-141396387D01*
X122332642Y-141396387D01*
X168656095Y-93305380D02*
X168656095Y-94114904D01*
X168703714Y-94210142D01*
X168751333Y-94257761D01*
X168846571Y-94305380D01*
X169037047Y-94305380D01*
X169132285Y-94257761D01*
X169179904Y-94210142D01*
X169227523Y-94114904D01*
X169227523Y-93305380D01*
X170179904Y-93305380D02*
X169703714Y-93305380D01*
X169656095Y-93781571D01*
X169703714Y-93733952D01*
X169798952Y-93686333D01*
X170037047Y-93686333D01*
X170132285Y-93733952D01*
X170179904Y-93781571D01*
X170227523Y-93876809D01*
X170227523Y-94114904D01*
X170179904Y-94210142D01*
X170132285Y-94257761D01*
X170037047Y-94305380D01*
X169798952Y-94305380D01*
X169703714Y-94257761D01*
X169656095Y-94210142D01*
M02*
