M48
; DRILL file {KiCad 5.1.6-c6e7f7d~87~ubuntu18.04.1} date Sat Aug 29 16:42:17 2020
; FORMAT={2:4/ absolute / inch / suppress trailing zeros}
; #@! TF.CreationDate,2020-08-29T16:42:17+03:00
; #@! TF.GenerationSoftware,Kicad,Pcbnew,5.1.6-c6e7f7d~87~ubuntu18.04.1
; #@! TF.FileFunction,Plated,1,2,PTH
FMAT,2
INCH,LZ
T1C0.0276
T2C0.0299
T3C0.0315
T4C0.0354
T5C0.0394
T6C0.0433
T7C0.0472
T8C0.0512
%
G90
G05
T1
X069627Y-043092
X071041Y-044506
T2
X0779Y-036053
X0784Y-035053
X0789Y-036053
X0794Y-035053
X08435Y-036053
X08485Y-035053
X08535Y-036053
X08585Y-035053
X038555Y-036053
X039055Y-035053
X039555Y-036053
X040055Y-035053
T3
X061293Y-037321
X063293Y-037321
X056887Y-037154
X058887Y-037154
T4
X0795Y-0544
X0805Y-0544
X0815Y-0544
X082Y-04318
X0825Y-0544
X083Y-04318
X0835Y-0544
X0845Y-0544
X0855Y-0544
X06305Y-044601
X06305Y-05405
X06405Y-05405
X06505Y-044601
X06505Y-05405
X0684Y-0386
X0684Y-0396
X0684Y-0406
X0684Y-0416
X0684Y-0416
X0684Y-0416
X0684Y-0426
X0684Y-0436
X0684Y-0446
X0684Y-0456
X0684Y-0466
X0684Y-0476
X0684Y-0486
X0684Y-0496
X0684Y-0506
X0684Y-0516
X0684Y-0526
X0744Y-0386
X0744Y-0396
X0744Y-0406
X0744Y-0416
X0744Y-0426
X0744Y-0436
X0744Y-0446
X0744Y-0456
X0744Y-0466
X0744Y-0476
X0744Y-0486
X0744Y-0496
X0744Y-0506
X0744Y-0516
X0744Y-0526
X0742Y-03045
X0742Y-03145
X0742Y-03245
X0742Y-03345
X0742Y-03445
X0742Y-03545
X0469Y-054044
X0479Y-054044
X0489Y-054044
T5
X055Y-054044
X056Y-054044
X057Y-054044
X038611Y-05404
X039611Y-05404
X040611Y-05404
T6
X054Y-040973
X056Y-040973
X058Y-040973
X037611Y-040969
X039611Y-040969
X041611Y-040969
X0459Y-040973
X0479Y-040973
X0499Y-040973
T7
X04585Y-0353
X04785Y-0353
T8
X050681Y-03075
X05265Y-03075
X045831Y-03075
X0478Y-03075
T5
G00X055013Y-03338
M15
G01X055013Y-034168
M16
G05
G00X057257Y-032593
M15
G01X056469Y-032593
M16
G05
G00X057257Y-034955
M15
G01X056469Y-034955
M16
G05
T0
M30
