G04 #@! TF.GenerationSoftware,KiCad,Pcbnew,5.1.6-c6e7f7d~87~ubuntu18.04.1*
G04 #@! TF.CreationDate,2020-08-29T16:42:25+03:00*
G04 #@! TF.ProjectId,Borjomi-Main,426f726a-6f6d-4692-9d4d-61696e2e6b69,rev?*
G04 #@! TF.SameCoordinates,Original*
G04 #@! TF.FileFunction,Copper,L2,Bot*
G04 #@! TF.FilePolarity,Positive*
%FSLAX46Y46*%
G04 Gerber Fmt 4.6, Leading zero omitted, Abs format (unit mm)*
G04 Created by KiCad (PCBNEW 5.1.6-c6e7f7d~87~ubuntu18.04.1) date 2020-08-29 16:42:25*
%MOMM*%
%LPD*%
G01*
G04 APERTURE LIST*
G04 #@! TA.AperFunction,ComponentPad*
%ADD10C,1.400000*%
G04 #@! TD*
G04 #@! TA.AperFunction,ComponentPad*
%ADD11R,1.800000X1.800000*%
G04 #@! TD*
G04 #@! TA.AperFunction,ComponentPad*
%ADD12O,1.800000X1.800000*%
G04 #@! TD*
G04 #@! TA.AperFunction,ComponentPad*
%ADD13O,1.700000X1.700000*%
G04 #@! TD*
G04 #@! TA.AperFunction,ComponentPad*
%ADD14O,1.600000X1.600000*%
G04 #@! TD*
G04 #@! TA.AperFunction,ComponentPad*
%ADD15C,1.520000*%
G04 #@! TD*
G04 #@! TA.AperFunction,ComponentPad*
%ADD16C,2.200000*%
G04 #@! TD*
G04 #@! TA.AperFunction,ComponentPad*
%ADD17C,2.000000*%
G04 #@! TD*
G04 #@! TA.AperFunction,ComponentPad*
%ADD18R,3.500000X3.500000*%
G04 #@! TD*
G04 #@! TA.AperFunction,ComponentPad*
%ADD19R,2.400000X2.400000*%
G04 #@! TD*
G04 #@! TA.AperFunction,ComponentPad*
%ADD20O,2.400000X2.400000*%
G04 #@! TD*
G04 #@! TA.AperFunction,ComponentPad*
%ADD21R,2.600000X2.600000*%
G04 #@! TD*
G04 #@! TA.AperFunction,ComponentPad*
%ADD22C,2.600000*%
G04 #@! TD*
G04 #@! TA.AperFunction,ComponentPad*
%ADD23C,1.600000*%
G04 #@! TD*
G04 #@! TA.AperFunction,ComponentPad*
%ADD24C,1.800000*%
G04 #@! TD*
G04 #@! TA.AperFunction,ComponentPad*
%ADD25C,1.700000*%
G04 #@! TD*
G04 #@! TA.AperFunction,Conductor*
%ADD26C,0.300000*%
G04 #@! TD*
G04 #@! TA.AperFunction,Conductor*
%ADD27C,0.250000*%
G04 #@! TD*
G04 #@! TA.AperFunction,Conductor*
%ADD28C,0.600000*%
G04 #@! TD*
G04 #@! TA.AperFunction,Conductor*
%ADD29C,1.000000*%
G04 #@! TD*
G04 #@! TA.AperFunction,Conductor*
%ADD30C,2.000000*%
G04 #@! TD*
G04 APERTURE END LIST*
D10*
X180444682Y-113045782D03*
X176852580Y-109453680D03*
D11*
X173736000Y-98044000D03*
D12*
X188976000Y-131064000D03*
X173736000Y-100584000D03*
X188976000Y-128524000D03*
X173736000Y-103124000D03*
D13*
X188976000Y-125984000D03*
D12*
X173736000Y-105664000D03*
D14*
X188976000Y-123444000D03*
D12*
X173736000Y-108204000D03*
D13*
X188976000Y-120904000D03*
D12*
X173736000Y-110744000D03*
X188976000Y-118364000D03*
X173736000Y-113284000D03*
D13*
X188976000Y-115824000D03*
D12*
X173736000Y-115824000D03*
D14*
X188976000Y-113284000D03*
D12*
X173736000Y-118364000D03*
D14*
X188976000Y-110744000D03*
D12*
X173736000Y-120904000D03*
D14*
X188976000Y-108204000D03*
D12*
X173736000Y-123444000D03*
X188976000Y-105664000D03*
X173736000Y-125984000D03*
X188976000Y-103124000D03*
X173736000Y-128524000D03*
X188976000Y-100584000D03*
X173736000Y-131064000D03*
X188976000Y-98044000D03*
X173736000Y-133604000D03*
X188976000Y-133604000D03*
X173736000Y-105664000D03*
X173736000Y-105664000D03*
D15*
X101738940Y-89035000D03*
X100468940Y-91575000D03*
X99198940Y-89035000D03*
X97928940Y-91575000D03*
D16*
X105691940Y-104061840D03*
X95531940Y-104061840D03*
X100611940Y-104061840D03*
D17*
X98071940Y-137261840D03*
X100611940Y-137261840D03*
X103151940Y-137261840D03*
G04 #@! TA.AperFunction,ComponentPad*
G36*
G01*
X138857020Y-84035700D02*
X140607020Y-84035700D01*
G75*
G02*
X141482020Y-84910700I0J-875000D01*
G01*
X141482020Y-86660700D01*
G75*
G02*
X140607020Y-87535700I-875000J0D01*
G01*
X138857020Y-87535700D01*
G75*
G02*
X137982020Y-86660700I0J875000D01*
G01*
X137982020Y-84910700D01*
G75*
G02*
X138857020Y-84035700I875000J0D01*
G01*
G37*
G04 #@! TD.AperFunction*
G04 #@! TA.AperFunction,ComponentPad*
G36*
G01*
X143432020Y-81285700D02*
X145432020Y-81285700D01*
G75*
G02*
X146182020Y-82035700I0J-750000D01*
G01*
X146182020Y-83535700D01*
G75*
G02*
X145432020Y-84285700I-750000J0D01*
G01*
X143432020Y-84285700D01*
G75*
G02*
X142682020Y-83535700I0J750000D01*
G01*
X142682020Y-82035700D01*
G75*
G02*
X143432020Y-81285700I750000J0D01*
G01*
G37*
G04 #@! TD.AperFunction*
D18*
X144432020Y-88785700D03*
D19*
X116459000Y-89662000D03*
D20*
X121539000Y-89662000D03*
D21*
X121412000Y-78105000D03*
D22*
X116412000Y-78105000D03*
X128731000Y-78105000D03*
D21*
X133731000Y-78105000D03*
D15*
X214249000Y-91575000D03*
X215519000Y-89035000D03*
X216789000Y-91575000D03*
X218059000Y-89035000D03*
X201676000Y-89035000D03*
X200406000Y-91575000D03*
X199136000Y-89035000D03*
X197866000Y-91575000D03*
D23*
X144492980Y-94371160D03*
X149572980Y-94371160D03*
X160764220Y-94795340D03*
X155684220Y-94795340D03*
D24*
X208280000Y-109676000D03*
X201930000Y-138176000D03*
X204470000Y-138176000D03*
X207010000Y-138176000D03*
X209550000Y-138176000D03*
X212090000Y-138176000D03*
X214630000Y-138176000D03*
X217170000Y-138176000D03*
X210820000Y-109676000D03*
D25*
X160147000Y-137287000D03*
X162687000Y-137287000D03*
X165227000Y-137287000D03*
D16*
X160147000Y-113287000D03*
X165227000Y-113287000D03*
D17*
X144780000Y-137272000D03*
X142240000Y-137272000D03*
X139700000Y-137272000D03*
D16*
X142240000Y-104072000D03*
X137160000Y-104072000D03*
X147320000Y-104072000D03*
X126746000Y-104072000D03*
X116586000Y-104072000D03*
X121666000Y-104072000D03*
D25*
X119126000Y-137272000D03*
X121666000Y-137272000D03*
X124206000Y-137272000D03*
D24*
X188468000Y-90043000D03*
X188468000Y-87503000D03*
X188468000Y-84963000D03*
X188468000Y-82423000D03*
X188468000Y-79883000D03*
X188468000Y-77343000D03*
D26*
X187198000Y-125984000D02*
X188976000Y-125984000D01*
X183388000Y-97028000D02*
X183388000Y-122174000D01*
X183388000Y-122174000D02*
X187198000Y-125984000D01*
X190119000Y-90297000D02*
X183388000Y-97028000D01*
X125095000Y-139192000D02*
X123698000Y-139192000D01*
X132207000Y-132080000D02*
X125095000Y-139192000D01*
X187178001Y-83712999D02*
X189718001Y-83712999D01*
X159385000Y-132080000D02*
X132207000Y-132080000D01*
X123698000Y-139192000D02*
X122930920Y-138424920D01*
X162687000Y-135382000D02*
X159385000Y-132080000D01*
X122930920Y-138424920D02*
X122930920Y-134371080D01*
X177292000Y-112014000D02*
X179324000Y-109982000D01*
X190119000Y-84113998D02*
X190119000Y-90297000D01*
X128778000Y-128524000D02*
X156464000Y-128524000D01*
X172974000Y-112014000D02*
X177292000Y-112014000D01*
X179324000Y-109982000D02*
X179324000Y-91567000D01*
X179324000Y-91567000D02*
X187178001Y-83712999D01*
X162687000Y-137287000D02*
X162687000Y-135382000D01*
X122930920Y-134371080D02*
X128778000Y-128524000D01*
X156464000Y-128524000D02*
X172974000Y-112014000D01*
X189718001Y-83712999D02*
X190119000Y-84113998D01*
D27*
X161417000Y-136525000D02*
X161417000Y-138049000D01*
D28*
X188341000Y-82550000D02*
X188468000Y-82423000D01*
X185293000Y-82423000D02*
X190119000Y-82423000D01*
X121666000Y-137272000D02*
X121666000Y-138938000D01*
X143390500Y-138422500D02*
X142240000Y-137272000D01*
X142240000Y-137272000D02*
X141041000Y-136073000D01*
D29*
X133731000Y-78105000D02*
X131732020Y-78105000D01*
X133731000Y-78105000D02*
X133731000Y-79872840D01*
X145415000Y-78105000D02*
X145415000Y-80152240D01*
X145415000Y-78105000D02*
X147474940Y-78105000D01*
D30*
X133731000Y-78105000D02*
X142283180Y-78105000D01*
X144432020Y-80253840D02*
X144432020Y-82785700D01*
X142283180Y-78105000D02*
X144432020Y-80253840D01*
D29*
X133731000Y-78105000D02*
X133731000Y-76207620D01*
X144432020Y-82785700D02*
X147071080Y-82785700D01*
X144432020Y-82785700D02*
X144432020Y-85074760D01*
X144432020Y-82785700D02*
X141841220Y-82785700D01*
D26*
X149997160Y-94795340D02*
X149572980Y-94371160D01*
X185547000Y-118999000D02*
X187452000Y-120904000D01*
X191770000Y-90805000D02*
X185547000Y-97028000D01*
X185547000Y-97028000D02*
X185547000Y-118999000D01*
X191770000Y-82423000D02*
X191770000Y-90805000D01*
X155684220Y-94795340D02*
X159674560Y-90805000D01*
X159674560Y-90805000D02*
X175006000Y-90805000D01*
X187452000Y-120904000D02*
X188976000Y-120904000D01*
X175006000Y-90805000D02*
X184638001Y-81172999D01*
X190519999Y-81172999D02*
X191770000Y-82423000D01*
X184638001Y-81172999D02*
X190519999Y-81172999D01*
X155684220Y-94795340D02*
X149997160Y-94795340D01*
X128143000Y-125857000D02*
X158423880Y-125857000D01*
X173536880Y-110744000D02*
X173736000Y-110744000D01*
X120398540Y-133601460D02*
X128143000Y-125857000D01*
X144780000Y-137272000D02*
X141112000Y-133604000D01*
X141112000Y-133604000D02*
X133477000Y-133604000D01*
X133477000Y-133604000D02*
X126238000Y-140843000D01*
X158423880Y-125857000D02*
X173536880Y-110744000D01*
X120398540Y-139448540D02*
X120398540Y-133601460D01*
X126238000Y-140843000D02*
X121793000Y-140843000D01*
X121793000Y-140843000D02*
X120398540Y-139448540D01*
X180721000Y-92710000D02*
X188468000Y-84963000D01*
X180721000Y-109982000D02*
X180721000Y-92710000D01*
X173736000Y-113284000D02*
X177419000Y-113284000D01*
X177419000Y-113284000D02*
X180721000Y-109982000D01*
X194628122Y-89035000D02*
X199136000Y-89035000D01*
X186563000Y-97100122D02*
X194628122Y-89035000D01*
X188976000Y-115824000D02*
X186563000Y-113411000D01*
X186563000Y-113411000D02*
X186563000Y-97100122D01*
X170688000Y-118872000D02*
X173736000Y-115824000D01*
X171577000Y-132334000D02*
X170688000Y-131445000D01*
X175641000Y-132334000D02*
X171577000Y-132334000D01*
X201930000Y-138176000D02*
X181483000Y-138176000D01*
X170688000Y-131445000D02*
X170688000Y-118872000D01*
X181483000Y-138176000D02*
X175641000Y-132334000D01*
X175133000Y-120904000D02*
X176149000Y-119888000D01*
X175152999Y-114573999D02*
X172446001Y-114573999D01*
X131303000Y-130175000D02*
X124206000Y-137272000D01*
X172446001Y-114573999D02*
X156845000Y-130175000D01*
X156845000Y-130175000D02*
X131303000Y-130175000D01*
X173736000Y-120904000D02*
X175133000Y-120904000D01*
X176149000Y-115570000D02*
X175152999Y-114573999D01*
X176149000Y-119888000D02*
X176149000Y-115570000D01*
D28*
X217170000Y-133858000D02*
X217170000Y-138176000D01*
X188976000Y-105664000D02*
X217170000Y-133858000D01*
X217170000Y-138176000D02*
X217170000Y-140208000D01*
X217170000Y-140208000D02*
X215265000Y-142113000D01*
X139700000Y-137272000D02*
X139700000Y-142113000D01*
X160147000Y-142006320D02*
X160253680Y-142113000D01*
X160147000Y-137287000D02*
X160147000Y-142006320D01*
X215265000Y-142113000D02*
X160253680Y-142113000D01*
X119126000Y-137272000D02*
X119126000Y-142113000D01*
X102923100Y-142113000D02*
X98071940Y-137261840D01*
X160253680Y-142113000D02*
X102923100Y-142113000D01*
X192864740Y-105664000D02*
X188976000Y-105664000D01*
X188468000Y-79883000D02*
X197535800Y-79883000D01*
X197535800Y-79883000D02*
X204561440Y-86908640D01*
X204561440Y-93967300D02*
X192864740Y-105664000D01*
X204544040Y-91575000D02*
X204561440Y-91592400D01*
X200406000Y-91575000D02*
X204544040Y-91575000D01*
X204561440Y-86908640D02*
X204561440Y-91592400D01*
X204561440Y-91592400D02*
X204561440Y-93967300D01*
D26*
X211190001Y-137276001D02*
X212090000Y-138176000D01*
X173736000Y-125984000D02*
X177546000Y-129794000D01*
X177546000Y-129794000D02*
X203708000Y-129794000D01*
X203708000Y-129794000D02*
X211190001Y-137276001D01*
X181991000Y-118530998D02*
X181991000Y-93980000D01*
X172339000Y-128524000D02*
X171831000Y-128016000D01*
X171831000Y-128016000D02*
X171831000Y-125476000D01*
X173736000Y-128524000D02*
X172339000Y-128524000D01*
X171831000Y-125476000D02*
X172573001Y-124733999D01*
X181991000Y-93980000D02*
X188468000Y-87503000D01*
X172573001Y-124733999D02*
X175787999Y-124733999D01*
X175787999Y-124733999D02*
X181991000Y-118530998D01*
X173736000Y-131064000D02*
X180467000Y-131064000D01*
X180467000Y-131064000D02*
X181673500Y-132270500D01*
X181610000Y-132207000D02*
X181673500Y-132270500D01*
X206110001Y-137276001D02*
X207010000Y-138176000D01*
X181673500Y-132270500D02*
X181737000Y-132334000D01*
X181737000Y-132334000D02*
X201168000Y-132334000D01*
X201168000Y-132334000D02*
X206110001Y-137276001D01*
X209550000Y-138176000D02*
X208026000Y-139700000D01*
X179832000Y-139700000D02*
X173736000Y-133604000D01*
X208026000Y-139700000D02*
X179832000Y-139700000D01*
X199898000Y-133604000D02*
X204470000Y-138176000D01*
X188976000Y-133604000D02*
X199898000Y-133604000D01*
D28*
X116412000Y-89615000D02*
X116459000Y-89662000D01*
X116412000Y-78105000D02*
X116412000Y-89615000D01*
X116459000Y-98865000D02*
X121666000Y-104072000D01*
X116459000Y-89662000D02*
X116459000Y-98865000D01*
D30*
X128731000Y-97997000D02*
X128731000Y-78105000D01*
X142240000Y-104072000D02*
X139387000Y-101219000D01*
X131953000Y-101219000D02*
X128731000Y-97997000D01*
X139387000Y-101219000D02*
X131953000Y-101219000D01*
D28*
X129100000Y-104072000D02*
X131953000Y-101219000D01*
X126746000Y-104072000D02*
X129100000Y-104072000D01*
D26*
X216789000Y-101167000D02*
X208280000Y-109676000D01*
X214249000Y-91575000D02*
X216789000Y-91575000D01*
X216789000Y-91575000D02*
X216789000Y-101167000D01*
X219837000Y-100659000D02*
X210820000Y-109676000D01*
X215519000Y-89035000D02*
X218059000Y-89035000D01*
X219837000Y-90813000D02*
X218059000Y-89035000D01*
X219837000Y-100659000D02*
X219837000Y-90813000D01*
D30*
X147320000Y-109601000D02*
X147320000Y-104072000D01*
X154813000Y-117094000D02*
X147320000Y-109601000D01*
X162975634Y-117094000D02*
X154813000Y-117094000D01*
X165227000Y-113287000D02*
X165227000Y-114842634D01*
X165227000Y-114842634D02*
X162975634Y-117094000D01*
X160147000Y-110109000D02*
X160147000Y-113287000D01*
X144432020Y-88785700D02*
X144432020Y-94394020D01*
X144432020Y-94394020D02*
X160147000Y-110109000D01*
D26*
X180444682Y-116735318D02*
X173736000Y-123444000D01*
X180444682Y-113045782D02*
X180444682Y-116735318D01*
X103151940Y-137261840D02*
X115010960Y-137261840D01*
X115010960Y-137261840D02*
X127373380Y-124899420D01*
X127373380Y-124899420D02*
X157706060Y-124899420D01*
X157706060Y-124899420D02*
X173151479Y-109454001D01*
X100611940Y-91718000D02*
X100468940Y-91575000D01*
X100611940Y-104061840D02*
X100611940Y-91718000D01*
X99571742Y-89035000D02*
X99198940Y-89035000D01*
X105691940Y-95155198D02*
X99571742Y-89035000D01*
X105691940Y-104061840D02*
X105691940Y-95155198D01*
X176852259Y-109454001D02*
X176852580Y-109453680D01*
X173151479Y-109454001D02*
X176852259Y-109454001D01*
D27*
G36*
X223426001Y-143162000D02*
G01*
X92124000Y-143162000D01*
X92124000Y-137121490D01*
X96646940Y-137121490D01*
X96646940Y-137402190D01*
X96701702Y-137677497D01*
X96809121Y-137936831D01*
X96965070Y-138170225D01*
X97163555Y-138368710D01*
X97396949Y-138524659D01*
X97656283Y-138632078D01*
X97931590Y-138686840D01*
X98212290Y-138686840D01*
X98428608Y-138643812D01*
X102385272Y-142600477D01*
X102407968Y-142628132D01*
X102435623Y-142650828D01*
X102435625Y-142650830D01*
X102470405Y-142679373D01*
X102518363Y-142718731D01*
X102644312Y-142786053D01*
X102780975Y-142827509D01*
X102887493Y-142838000D01*
X102887502Y-142838000D01*
X102923099Y-142841506D01*
X102958696Y-142838000D01*
X119090393Y-142838000D01*
X119126000Y-142841507D01*
X119161607Y-142838000D01*
X139664393Y-142838000D01*
X139700000Y-142841507D01*
X139735607Y-142838000D01*
X160218082Y-142838000D01*
X160253679Y-142841506D01*
X160289276Y-142838000D01*
X215229403Y-142838000D01*
X215265000Y-142841506D01*
X215300597Y-142838000D01*
X215300607Y-142838000D01*
X215407125Y-142827509D01*
X215543788Y-142786053D01*
X215669737Y-142718731D01*
X215780132Y-142628132D01*
X215802832Y-142600472D01*
X217657477Y-140745828D01*
X217685132Y-140723132D01*
X217775731Y-140612737D01*
X217843053Y-140486788D01*
X217884509Y-140350125D01*
X217895000Y-140243607D01*
X217895000Y-140243597D01*
X217898506Y-140208000D01*
X217895000Y-140172403D01*
X217895000Y-139285135D01*
X218014638Y-139205195D01*
X218199195Y-139020638D01*
X218344200Y-138803623D01*
X218444081Y-138562488D01*
X218495000Y-138306501D01*
X218495000Y-138045499D01*
X218444081Y-137789512D01*
X218344200Y-137548377D01*
X218199195Y-137331362D01*
X218014638Y-137146805D01*
X217895000Y-137066865D01*
X217895000Y-133893596D01*
X217898506Y-133857999D01*
X217895000Y-133822402D01*
X217895000Y-133822393D01*
X217884509Y-133715875D01*
X217843053Y-133579212D01*
X217775731Y-133453263D01*
X217707830Y-133370525D01*
X217707823Y-133370518D01*
X217685131Y-133342868D01*
X217657482Y-133320177D01*
X193882804Y-109545499D01*
X206955000Y-109545499D01*
X206955000Y-109806501D01*
X207005919Y-110062488D01*
X207105800Y-110303623D01*
X207250805Y-110520638D01*
X207435362Y-110705195D01*
X207652377Y-110850200D01*
X207893512Y-110950081D01*
X208149499Y-111001000D01*
X208410501Y-111001000D01*
X208666488Y-110950081D01*
X208907623Y-110850200D01*
X209124638Y-110705195D01*
X209309195Y-110520638D01*
X209454200Y-110303623D01*
X209550000Y-110072340D01*
X209645800Y-110303623D01*
X209790805Y-110520638D01*
X209975362Y-110705195D01*
X210192377Y-110850200D01*
X210433512Y-110950081D01*
X210689499Y-111001000D01*
X210950501Y-111001000D01*
X211206488Y-110950081D01*
X211447623Y-110850200D01*
X211664638Y-110705195D01*
X211849195Y-110520638D01*
X211994200Y-110303623D01*
X212094081Y-110062488D01*
X212145000Y-109806501D01*
X212145000Y-109545499D01*
X212094081Y-109289512D01*
X212072284Y-109236888D01*
X220223613Y-101085560D01*
X220245554Y-101067554D01*
X220317408Y-100979998D01*
X220370801Y-100880108D01*
X220403680Y-100771720D01*
X220412000Y-100687246D01*
X220412000Y-100687243D01*
X220414782Y-100659000D01*
X220412000Y-100630757D01*
X220412000Y-90841243D01*
X220414782Y-90813000D01*
X220410838Y-90772960D01*
X220403680Y-90700280D01*
X220370801Y-90591892D01*
X220317408Y-90492002D01*
X220245554Y-90404446D01*
X220223612Y-90386439D01*
X219201674Y-89364501D01*
X219244000Y-89151712D01*
X219244000Y-88918288D01*
X219198461Y-88689348D01*
X219109134Y-88473692D01*
X218979450Y-88279606D01*
X218814394Y-88114550D01*
X218620308Y-87984866D01*
X218404652Y-87895539D01*
X218175712Y-87850000D01*
X217942288Y-87850000D01*
X217713348Y-87895539D01*
X217497692Y-87984866D01*
X217303606Y-88114550D01*
X217138550Y-88279606D01*
X217018015Y-88460000D01*
X216559985Y-88460000D01*
X216439450Y-88279606D01*
X216274394Y-88114550D01*
X216080308Y-87984866D01*
X215864652Y-87895539D01*
X215635712Y-87850000D01*
X215402288Y-87850000D01*
X215173348Y-87895539D01*
X214957692Y-87984866D01*
X214763606Y-88114550D01*
X214598550Y-88279606D01*
X214468866Y-88473692D01*
X214379539Y-88689348D01*
X214334000Y-88918288D01*
X214334000Y-89151712D01*
X214379539Y-89380652D01*
X214468866Y-89596308D01*
X214598550Y-89790394D01*
X214763606Y-89955450D01*
X214957692Y-90085134D01*
X215173348Y-90174461D01*
X215402288Y-90220000D01*
X215635712Y-90220000D01*
X215864652Y-90174461D01*
X216080308Y-90085134D01*
X216274394Y-89955450D01*
X216439450Y-89790394D01*
X216559985Y-89610000D01*
X217018015Y-89610000D01*
X217138550Y-89790394D01*
X217303606Y-89955450D01*
X217497692Y-90085134D01*
X217713348Y-90174461D01*
X217942288Y-90220000D01*
X218175712Y-90220000D01*
X218388501Y-90177674D01*
X219262001Y-91051174D01*
X219262000Y-100420827D01*
X211259112Y-108423716D01*
X211206488Y-108401919D01*
X210950501Y-108351000D01*
X210689499Y-108351000D01*
X210433512Y-108401919D01*
X210320401Y-108448771D01*
X217175612Y-101593561D01*
X217197554Y-101575554D01*
X217231782Y-101533847D01*
X217269408Y-101487999D01*
X217322801Y-101388108D01*
X217330986Y-101361125D01*
X217355680Y-101279720D01*
X217364000Y-101195246D01*
X217364000Y-101195244D01*
X217366782Y-101167001D01*
X217364000Y-101138758D01*
X217364000Y-92615985D01*
X217544394Y-92495450D01*
X217709450Y-92330394D01*
X217839134Y-92136308D01*
X217928461Y-91920652D01*
X217974000Y-91691712D01*
X217974000Y-91458288D01*
X217928461Y-91229348D01*
X217839134Y-91013692D01*
X217709450Y-90819606D01*
X217544394Y-90654550D01*
X217350308Y-90524866D01*
X217134652Y-90435539D01*
X216905712Y-90390000D01*
X216672288Y-90390000D01*
X216443348Y-90435539D01*
X216227692Y-90524866D01*
X216033606Y-90654550D01*
X215868550Y-90819606D01*
X215748015Y-91000000D01*
X215289985Y-91000000D01*
X215169450Y-90819606D01*
X215004394Y-90654550D01*
X214810308Y-90524866D01*
X214594652Y-90435539D01*
X214365712Y-90390000D01*
X214132288Y-90390000D01*
X213903348Y-90435539D01*
X213687692Y-90524866D01*
X213493606Y-90654550D01*
X213328550Y-90819606D01*
X213198866Y-91013692D01*
X213109539Y-91229348D01*
X213064000Y-91458288D01*
X213064000Y-91691712D01*
X213109539Y-91920652D01*
X213198866Y-92136308D01*
X213328550Y-92330394D01*
X213493606Y-92495450D01*
X213687692Y-92625134D01*
X213903348Y-92714461D01*
X214132288Y-92760000D01*
X214365712Y-92760000D01*
X214594652Y-92714461D01*
X214810308Y-92625134D01*
X215004394Y-92495450D01*
X215169450Y-92330394D01*
X215289985Y-92150000D01*
X215748015Y-92150000D01*
X215868550Y-92330394D01*
X216033606Y-92495450D01*
X216214000Y-92615985D01*
X216214001Y-100928826D01*
X208719112Y-108423716D01*
X208666488Y-108401919D01*
X208410501Y-108351000D01*
X208149499Y-108351000D01*
X207893512Y-108401919D01*
X207652377Y-108501800D01*
X207435362Y-108646805D01*
X207250805Y-108831362D01*
X207105800Y-109048377D01*
X207005919Y-109289512D01*
X206955000Y-109545499D01*
X193882804Y-109545499D01*
X190726304Y-106389000D01*
X192829143Y-106389000D01*
X192864740Y-106392506D01*
X192900337Y-106389000D01*
X192900347Y-106389000D01*
X193006865Y-106378509D01*
X193143528Y-106337053D01*
X193269477Y-106269731D01*
X193379872Y-106179132D01*
X193402572Y-106151472D01*
X205048917Y-94505128D01*
X205076572Y-94482432D01*
X205113020Y-94438021D01*
X205167171Y-94372037D01*
X205234493Y-94246088D01*
X205239780Y-94228660D01*
X205275949Y-94109425D01*
X205286440Y-94002907D01*
X205286440Y-94002897D01*
X205289946Y-93967300D01*
X205286440Y-93931703D01*
X205286440Y-91627996D01*
X205289946Y-91592399D01*
X205286440Y-91556802D01*
X205286440Y-86944236D01*
X205289946Y-86908639D01*
X205286440Y-86873042D01*
X205286440Y-86873033D01*
X205275949Y-86766515D01*
X205234493Y-86629852D01*
X205167171Y-86503903D01*
X205142470Y-86473805D01*
X205099270Y-86421165D01*
X205099263Y-86421158D01*
X205076571Y-86393508D01*
X205048922Y-86370817D01*
X201163660Y-82485555D01*
X202831000Y-82485555D01*
X202831000Y-82884445D01*
X202908820Y-83275671D01*
X203061468Y-83644197D01*
X203283080Y-83975862D01*
X203565138Y-84257920D01*
X203896803Y-84479532D01*
X204265329Y-84632180D01*
X204656555Y-84710000D01*
X205055445Y-84710000D01*
X205446671Y-84632180D01*
X205815197Y-84479532D01*
X206146862Y-84257920D01*
X206428920Y-83975862D01*
X206650532Y-83644197D01*
X206803180Y-83275671D01*
X206881000Y-82884445D01*
X206881000Y-82485555D01*
X209054000Y-82485555D01*
X209054000Y-82884445D01*
X209131820Y-83275671D01*
X209284468Y-83644197D01*
X209506080Y-83975862D01*
X209788138Y-84257920D01*
X210119803Y-84479532D01*
X210488329Y-84632180D01*
X210879555Y-84710000D01*
X211278445Y-84710000D01*
X211669671Y-84632180D01*
X212038197Y-84479532D01*
X212369862Y-84257920D01*
X212651920Y-83975862D01*
X212873532Y-83644197D01*
X213026180Y-83275671D01*
X213104000Y-82884445D01*
X213104000Y-82485555D01*
X219214000Y-82485555D01*
X219214000Y-82884445D01*
X219291820Y-83275671D01*
X219444468Y-83644197D01*
X219666080Y-83975862D01*
X219948138Y-84257920D01*
X220279803Y-84479532D01*
X220648329Y-84632180D01*
X221039555Y-84710000D01*
X221438445Y-84710000D01*
X221829671Y-84632180D01*
X222198197Y-84479532D01*
X222529862Y-84257920D01*
X222811920Y-83975862D01*
X223033532Y-83644197D01*
X223186180Y-83275671D01*
X223264000Y-82884445D01*
X223264000Y-82485555D01*
X223186180Y-82094329D01*
X223033532Y-81725803D01*
X222811920Y-81394138D01*
X222529862Y-81112080D01*
X222198197Y-80890468D01*
X221829671Y-80737820D01*
X221438445Y-80660000D01*
X221039555Y-80660000D01*
X220648329Y-80737820D01*
X220279803Y-80890468D01*
X219948138Y-81112080D01*
X219666080Y-81394138D01*
X219444468Y-81725803D01*
X219291820Y-82094329D01*
X219214000Y-82485555D01*
X213104000Y-82485555D01*
X213026180Y-82094329D01*
X212873532Y-81725803D01*
X212651920Y-81394138D01*
X212369862Y-81112080D01*
X212038197Y-80890468D01*
X211669671Y-80737820D01*
X211278445Y-80660000D01*
X210879555Y-80660000D01*
X210488329Y-80737820D01*
X210119803Y-80890468D01*
X209788138Y-81112080D01*
X209506080Y-81394138D01*
X209284468Y-81725803D01*
X209131820Y-82094329D01*
X209054000Y-82485555D01*
X206881000Y-82485555D01*
X206803180Y-82094329D01*
X206650532Y-81725803D01*
X206428920Y-81394138D01*
X206146862Y-81112080D01*
X205815197Y-80890468D01*
X205446671Y-80737820D01*
X205055445Y-80660000D01*
X204656555Y-80660000D01*
X204265329Y-80737820D01*
X203896803Y-80890468D01*
X203565138Y-81112080D01*
X203283080Y-81394138D01*
X203061468Y-81725803D01*
X202908820Y-82094329D01*
X202831000Y-82485555D01*
X201163660Y-82485555D01*
X198073632Y-79395528D01*
X198050932Y-79367868D01*
X197940537Y-79277269D01*
X197814588Y-79209947D01*
X197677925Y-79168491D01*
X197571407Y-79158000D01*
X197571397Y-79158000D01*
X197535800Y-79154494D01*
X197500203Y-79158000D01*
X189577135Y-79158000D01*
X189497195Y-79038362D01*
X189312638Y-78853805D01*
X189095623Y-78708800D01*
X188864340Y-78613000D01*
X189095623Y-78517200D01*
X189312638Y-78372195D01*
X189497195Y-78187638D01*
X189642200Y-77970623D01*
X189742081Y-77729488D01*
X189793000Y-77473501D01*
X189793000Y-77212499D01*
X189742081Y-76956512D01*
X189642200Y-76715377D01*
X189497195Y-76498362D01*
X189312638Y-76313805D01*
X189095623Y-76168800D01*
X188854488Y-76068919D01*
X188598501Y-76018000D01*
X188337499Y-76018000D01*
X188081512Y-76068919D01*
X187840377Y-76168800D01*
X187623362Y-76313805D01*
X187438805Y-76498362D01*
X187293800Y-76715377D01*
X187193919Y-76956512D01*
X187143000Y-77212499D01*
X187143000Y-77473501D01*
X187193919Y-77729488D01*
X187293800Y-77970623D01*
X187438805Y-78187638D01*
X187623362Y-78372195D01*
X187840377Y-78517200D01*
X188071660Y-78613000D01*
X187840377Y-78708800D01*
X187623362Y-78853805D01*
X187438805Y-79038362D01*
X187293800Y-79255377D01*
X187193919Y-79496512D01*
X187143000Y-79752499D01*
X187143000Y-80013501D01*
X187193919Y-80269488D01*
X187293800Y-80510623D01*
X187352183Y-80597999D01*
X184666243Y-80597999D01*
X184638000Y-80595217D01*
X184609757Y-80597999D01*
X184609755Y-80597999D01*
X184525281Y-80606319D01*
X184416893Y-80639198D01*
X184377976Y-80660000D01*
X184317002Y-80692591D01*
X184274297Y-80727638D01*
X184229447Y-80764445D01*
X184211440Y-80786387D01*
X174767828Y-90230000D01*
X159702803Y-90230000D01*
X159674560Y-90227218D01*
X159646317Y-90230000D01*
X159646314Y-90230000D01*
X159561840Y-90238320D01*
X159464885Y-90267731D01*
X159453452Y-90271199D01*
X159353561Y-90324592D01*
X159307713Y-90362218D01*
X159266006Y-90396446D01*
X159248000Y-90418387D01*
X156046795Y-93619593D01*
X156041539Y-93617416D01*
X155804872Y-93570340D01*
X155563568Y-93570340D01*
X155326901Y-93617416D01*
X155103965Y-93709759D01*
X154903328Y-93843821D01*
X154732701Y-94014448D01*
X154598639Y-94215085D01*
X154596462Y-94220340D01*
X150791979Y-94220340D01*
X150750904Y-94013841D01*
X150658561Y-93790905D01*
X150524499Y-93590268D01*
X150353872Y-93419641D01*
X150153235Y-93285579D01*
X149930299Y-93193236D01*
X149693632Y-93146160D01*
X149452328Y-93146160D01*
X149215661Y-93193236D01*
X148992725Y-93285579D01*
X148792088Y-93419641D01*
X148621461Y-93590268D01*
X148487399Y-93790905D01*
X148395056Y-94013841D01*
X148347980Y-94250508D01*
X148347980Y-94491812D01*
X148395056Y-94728479D01*
X148487399Y-94951415D01*
X148621461Y-95152052D01*
X148792088Y-95322679D01*
X148992725Y-95456741D01*
X149215661Y-95549084D01*
X149452328Y-95596160D01*
X149693632Y-95596160D01*
X149930299Y-95549084D01*
X150153235Y-95456741D01*
X150282543Y-95370340D01*
X154596462Y-95370340D01*
X154598639Y-95375595D01*
X154732701Y-95576232D01*
X154903328Y-95746859D01*
X155103965Y-95880921D01*
X155326901Y-95973264D01*
X155563568Y-96020340D01*
X155804872Y-96020340D01*
X156041539Y-95973264D01*
X156264475Y-95880921D01*
X156465112Y-95746859D01*
X156603883Y-95608088D01*
X159986828Y-95608088D01*
X160061074Y-95805670D01*
X160271690Y-95923434D01*
X160501234Y-95997846D01*
X160740885Y-96026046D01*
X160981432Y-96006950D01*
X161213632Y-95941294D01*
X161428561Y-95831599D01*
X161467366Y-95805670D01*
X161541612Y-95608088D01*
X160764220Y-94830695D01*
X159986828Y-95608088D01*
X156603883Y-95608088D01*
X156635739Y-95576232D01*
X156769801Y-95375595D01*
X156862144Y-95152659D01*
X156909220Y-94915992D01*
X156909220Y-94772005D01*
X159533514Y-94772005D01*
X159552610Y-95012552D01*
X159618266Y-95244752D01*
X159727961Y-95459681D01*
X159753890Y-95498486D01*
X159951472Y-95572732D01*
X160728865Y-94795340D01*
X160799575Y-94795340D01*
X161576968Y-95572732D01*
X161774550Y-95498486D01*
X161892314Y-95287870D01*
X161966726Y-95058326D01*
X161994926Y-94818675D01*
X161975830Y-94578128D01*
X161910174Y-94345928D01*
X161800479Y-94130999D01*
X161774550Y-94092194D01*
X161576968Y-94017948D01*
X160799575Y-94795340D01*
X160728865Y-94795340D01*
X159951472Y-94017948D01*
X159753890Y-94092194D01*
X159636126Y-94302810D01*
X159561714Y-94532354D01*
X159533514Y-94772005D01*
X156909220Y-94772005D01*
X156909220Y-94674688D01*
X156862144Y-94438021D01*
X156859967Y-94432765D01*
X157310140Y-93982592D01*
X159986828Y-93982592D01*
X160764220Y-94759985D01*
X161541612Y-93982592D01*
X161467366Y-93785010D01*
X161256750Y-93667246D01*
X161027206Y-93592834D01*
X160787555Y-93564634D01*
X160547008Y-93583730D01*
X160314808Y-93649386D01*
X160099879Y-93759081D01*
X160061074Y-93785010D01*
X159986828Y-93982592D01*
X157310140Y-93982592D01*
X159912733Y-91380000D01*
X174977757Y-91380000D01*
X175006000Y-91382782D01*
X175034243Y-91380000D01*
X175034246Y-91380000D01*
X175118720Y-91371680D01*
X175227108Y-91338801D01*
X175326998Y-91285408D01*
X175414554Y-91213554D01*
X175432566Y-91191606D01*
X184876174Y-81747999D01*
X187327418Y-81747999D01*
X187248635Y-81888393D01*
X187167769Y-82136552D01*
X187136869Y-82395718D01*
X187157124Y-82655933D01*
X187227755Y-82907196D01*
X187345106Y-83137999D01*
X187206244Y-83137999D01*
X187178001Y-83135217D01*
X187149758Y-83137999D01*
X187149755Y-83137999D01*
X187065281Y-83146319D01*
X186956893Y-83179198D01*
X186857002Y-83232591D01*
X186811154Y-83270217D01*
X186769447Y-83304445D01*
X186751440Y-83326387D01*
X178937389Y-91140439D01*
X178915447Y-91158446D01*
X178891470Y-91187663D01*
X178843592Y-91246002D01*
X178790199Y-91345893D01*
X178757321Y-91454281D01*
X178746218Y-91567000D01*
X178749001Y-91595253D01*
X178749000Y-109743827D01*
X177053828Y-111439000D01*
X174865180Y-111439000D01*
X174910200Y-111371623D01*
X175010081Y-111130488D01*
X175061000Y-110874501D01*
X175061000Y-110613499D01*
X175010081Y-110357512D01*
X174910200Y-110116377D01*
X174851817Y-110029001D01*
X175883972Y-110029001D01*
X175978736Y-110170825D01*
X176135435Y-110327524D01*
X176319693Y-110450642D01*
X176524430Y-110535447D01*
X176741777Y-110578680D01*
X176963383Y-110578680D01*
X177180730Y-110535447D01*
X177385467Y-110450642D01*
X177569725Y-110327524D01*
X177726424Y-110170825D01*
X177849542Y-109986567D01*
X177934347Y-109781830D01*
X177977580Y-109564483D01*
X177977580Y-109342877D01*
X177934347Y-109125530D01*
X177849542Y-108920793D01*
X177726424Y-108736535D01*
X177569725Y-108579836D01*
X177385467Y-108456718D01*
X177180730Y-108371913D01*
X176963383Y-108328680D01*
X176741777Y-108328680D01*
X176524430Y-108371913D01*
X176319693Y-108456718D01*
X176135435Y-108579836D01*
X175978736Y-108736535D01*
X175883543Y-108879001D01*
X174878543Y-108879001D01*
X174910200Y-108831623D01*
X175010081Y-108590488D01*
X175061000Y-108334501D01*
X175061000Y-108073499D01*
X175010081Y-107817512D01*
X174910200Y-107576377D01*
X174765195Y-107359362D01*
X174580638Y-107174805D01*
X174363623Y-107029800D01*
X174122488Y-106929919D01*
X174112414Y-106927915D01*
X174217978Y-106898230D01*
X174449503Y-106780485D01*
X174653609Y-106619835D01*
X174822452Y-106422452D01*
X174949543Y-106195922D01*
X175029998Y-105948951D01*
X175040543Y-105895931D01*
X174954494Y-105689000D01*
X173761000Y-105689000D01*
X173761000Y-105709000D01*
X173711000Y-105709000D01*
X173711000Y-105689000D01*
X172517506Y-105689000D01*
X172431457Y-105895931D01*
X172442002Y-105948951D01*
X172522457Y-106195922D01*
X172649548Y-106422452D01*
X172818391Y-106619835D01*
X173022497Y-106780485D01*
X173254022Y-106898230D01*
X173359586Y-106927915D01*
X173349512Y-106929919D01*
X173108377Y-107029800D01*
X172891362Y-107174805D01*
X172706805Y-107359362D01*
X172561800Y-107576377D01*
X172461919Y-107817512D01*
X172411000Y-108073499D01*
X172411000Y-108334501D01*
X172461919Y-108590488D01*
X172561800Y-108831623D01*
X172706805Y-109048638D01*
X172725206Y-109067039D01*
X172724919Y-109067388D01*
X166614424Y-115177884D01*
X166631381Y-115121983D01*
X166652000Y-114912631D01*
X166652000Y-114912622D01*
X166658893Y-114842635D01*
X166652000Y-114772648D01*
X166652000Y-113831763D01*
X166693395Y-113731826D01*
X166752000Y-113437199D01*
X166752000Y-113136801D01*
X166693395Y-112842174D01*
X166578438Y-112564642D01*
X166411545Y-112314869D01*
X166199131Y-112102455D01*
X165949358Y-111935562D01*
X165671826Y-111820605D01*
X165377199Y-111762000D01*
X165076801Y-111762000D01*
X164782174Y-111820605D01*
X164504642Y-111935562D01*
X164254869Y-112102455D01*
X164042455Y-112314869D01*
X163875562Y-112564642D01*
X163760605Y-112842174D01*
X163702000Y-113136801D01*
X163702000Y-113437199D01*
X163760605Y-113731826D01*
X163802000Y-113831763D01*
X163802000Y-114252379D01*
X162385381Y-115669000D01*
X155403254Y-115669000D01*
X148745000Y-109010747D01*
X148745000Y-104616763D01*
X148786395Y-104516826D01*
X148845000Y-104222199D01*
X148845000Y-103921801D01*
X148786395Y-103627174D01*
X148671438Y-103349642D01*
X148504545Y-103099869D01*
X148292131Y-102887455D01*
X148042358Y-102720562D01*
X147764826Y-102605605D01*
X147470199Y-102547000D01*
X147169801Y-102547000D01*
X146875174Y-102605605D01*
X146597642Y-102720562D01*
X146347869Y-102887455D01*
X146135455Y-103099869D01*
X145968562Y-103349642D01*
X145853605Y-103627174D01*
X145795000Y-103921801D01*
X145795000Y-104222199D01*
X145853605Y-104516826D01*
X145895001Y-104616765D01*
X145895000Y-109531005D01*
X145888106Y-109601000D01*
X145895000Y-109670994D01*
X145895000Y-109670996D01*
X145915619Y-109880348D01*
X145997102Y-110148961D01*
X146129424Y-110396517D01*
X146307498Y-110613501D01*
X146361871Y-110658124D01*
X153755876Y-118052130D01*
X153800498Y-118106502D01*
X154017482Y-118284576D01*
X154265038Y-118416898D01*
X154533651Y-118498381D01*
X154743003Y-118519000D01*
X154743012Y-118519000D01*
X154812999Y-118525893D01*
X154882986Y-118519000D01*
X162905640Y-118519000D01*
X162975634Y-118525894D01*
X163045628Y-118519000D01*
X163045631Y-118519000D01*
X163254983Y-118498381D01*
X163310884Y-118481424D01*
X157467888Y-124324420D01*
X127401622Y-124324420D01*
X127373379Y-124321638D01*
X127345136Y-124324420D01*
X127345134Y-124324420D01*
X127260660Y-124332740D01*
X127152272Y-124365619D01*
X127052381Y-124419012D01*
X127006533Y-124456638D01*
X126964826Y-124490866D01*
X126946820Y-124512807D01*
X114772788Y-136686840D01*
X104456176Y-136686840D01*
X104414759Y-136586849D01*
X104258810Y-136353455D01*
X104060325Y-136154970D01*
X103826931Y-135999021D01*
X103567597Y-135891602D01*
X103292290Y-135836840D01*
X103011590Y-135836840D01*
X102736283Y-135891602D01*
X102476949Y-135999021D01*
X102243555Y-136154970D01*
X102045070Y-136353455D01*
X101889121Y-136586849D01*
X101879357Y-136610422D01*
X101819583Y-136492475D01*
X101784886Y-136440547D01*
X101566823Y-136342312D01*
X100647295Y-137261840D01*
X101566823Y-138181368D01*
X101784886Y-138083133D01*
X101879844Y-137914434D01*
X101889121Y-137936831D01*
X102045070Y-138170225D01*
X102243555Y-138368710D01*
X102476949Y-138524659D01*
X102736283Y-138632078D01*
X103011590Y-138686840D01*
X103292290Y-138686840D01*
X103567597Y-138632078D01*
X103826931Y-138524659D01*
X104060325Y-138368710D01*
X104258810Y-138170225D01*
X104414759Y-137936831D01*
X104456176Y-137836840D01*
X114982717Y-137836840D01*
X115010960Y-137839622D01*
X115039203Y-137836840D01*
X115039206Y-137836840D01*
X115123680Y-137828520D01*
X115232068Y-137795641D01*
X115331958Y-137742248D01*
X115419514Y-137670394D01*
X115437526Y-137648446D01*
X127611553Y-125474420D01*
X127712407Y-125474420D01*
X120011929Y-133174899D01*
X119989987Y-133192906D01*
X119971981Y-133214847D01*
X119918132Y-133280462D01*
X119864739Y-133380353D01*
X119831861Y-133488741D01*
X119820758Y-133601460D01*
X119823541Y-133629713D01*
X119823541Y-136204653D01*
X119729939Y-136142110D01*
X119497904Y-136045998D01*
X119251577Y-135997000D01*
X119000423Y-135997000D01*
X118754096Y-136045998D01*
X118522061Y-136142110D01*
X118313235Y-136281643D01*
X118135643Y-136459235D01*
X117996110Y-136668061D01*
X117899998Y-136900096D01*
X117851000Y-137146423D01*
X117851000Y-137397577D01*
X117899998Y-137643904D01*
X117996110Y-137875939D01*
X118135643Y-138084765D01*
X118313235Y-138262357D01*
X118401000Y-138321000D01*
X118401001Y-141388000D01*
X103223405Y-141388000D01*
X100521682Y-138686278D01*
X100580713Y-138693395D01*
X100860596Y-138671980D01*
X101130922Y-138596374D01*
X101381305Y-138469483D01*
X101433233Y-138434786D01*
X101531468Y-138216723D01*
X100611940Y-137297195D01*
X100597798Y-137311338D01*
X100562443Y-137275983D01*
X100576585Y-137261840D01*
X99657057Y-136342312D01*
X99438994Y-136440547D01*
X99344036Y-136609246D01*
X99334759Y-136586849D01*
X99178810Y-136353455D01*
X99132312Y-136306957D01*
X99692412Y-136306957D01*
X100611940Y-137226485D01*
X101531468Y-136306957D01*
X101433233Y-136088894D01*
X101188622Y-135951206D01*
X100921849Y-135863884D01*
X100643167Y-135830285D01*
X100363284Y-135851700D01*
X100092958Y-135927306D01*
X99842575Y-136054197D01*
X99790647Y-136088894D01*
X99692412Y-136306957D01*
X99132312Y-136306957D01*
X98980325Y-136154970D01*
X98746931Y-135999021D01*
X98487597Y-135891602D01*
X98212290Y-135836840D01*
X97931590Y-135836840D01*
X97656283Y-135891602D01*
X97396949Y-135999021D01*
X97163555Y-136154970D01*
X96965070Y-136353455D01*
X96809121Y-136586849D01*
X96701702Y-136846183D01*
X96646940Y-137121490D01*
X92124000Y-137121490D01*
X92124000Y-103911641D01*
X94006940Y-103911641D01*
X94006940Y-104212039D01*
X94065545Y-104506666D01*
X94180502Y-104784198D01*
X94347395Y-105033971D01*
X94559809Y-105246385D01*
X94809582Y-105413278D01*
X95087114Y-105528235D01*
X95381741Y-105586840D01*
X95682139Y-105586840D01*
X95976766Y-105528235D01*
X96254298Y-105413278D01*
X96504071Y-105246385D01*
X96716485Y-105033971D01*
X96883378Y-104784198D01*
X96998335Y-104506666D01*
X97056940Y-104212039D01*
X97056940Y-103911641D01*
X96998335Y-103617014D01*
X96883378Y-103339482D01*
X96716485Y-103089709D01*
X96504071Y-102877295D01*
X96254298Y-102710402D01*
X95976766Y-102595445D01*
X95682139Y-102536840D01*
X95381741Y-102536840D01*
X95087114Y-102595445D01*
X94809582Y-102710402D01*
X94559809Y-102877295D01*
X94347395Y-103089709D01*
X94180502Y-103339482D01*
X94065545Y-103617014D01*
X94006940Y-103911641D01*
X92124000Y-103911641D01*
X92124000Y-91458288D01*
X96743940Y-91458288D01*
X96743940Y-91691712D01*
X96789479Y-91920652D01*
X96878806Y-92136308D01*
X97008490Y-92330394D01*
X97173546Y-92495450D01*
X97367632Y-92625134D01*
X97583288Y-92714461D01*
X97812228Y-92760000D01*
X98045652Y-92760000D01*
X98274592Y-92714461D01*
X98490248Y-92625134D01*
X98684334Y-92495450D01*
X98849390Y-92330394D01*
X98979074Y-92136308D01*
X99068401Y-91920652D01*
X99113940Y-91691712D01*
X99113940Y-91458288D01*
X99068401Y-91229348D01*
X98979074Y-91013692D01*
X98849390Y-90819606D01*
X98684334Y-90654550D01*
X98490248Y-90524866D01*
X98274592Y-90435539D01*
X98045652Y-90390000D01*
X97812228Y-90390000D01*
X97583288Y-90435539D01*
X97367632Y-90524866D01*
X97173546Y-90654550D01*
X97008490Y-90819606D01*
X96878806Y-91013692D01*
X96789479Y-91229348D01*
X96743940Y-91458288D01*
X92124000Y-91458288D01*
X92124000Y-88918288D01*
X98013940Y-88918288D01*
X98013940Y-89151712D01*
X98059479Y-89380652D01*
X98148806Y-89596308D01*
X98278490Y-89790394D01*
X98443546Y-89955450D01*
X98637632Y-90085134D01*
X98853288Y-90174461D01*
X99082228Y-90220000D01*
X99315652Y-90220000D01*
X99544592Y-90174461D01*
X99760248Y-90085134D01*
X99789295Y-90065725D01*
X100153166Y-90429596D01*
X100123288Y-90435539D01*
X99907632Y-90524866D01*
X99713546Y-90654550D01*
X99548490Y-90819606D01*
X99418806Y-91013692D01*
X99329479Y-91229348D01*
X99283940Y-91458288D01*
X99283940Y-91691712D01*
X99329479Y-91920652D01*
X99418806Y-92136308D01*
X99548490Y-92330394D01*
X99713546Y-92495450D01*
X99907632Y-92625134D01*
X100036941Y-92678695D01*
X100036940Y-102649365D01*
X99889582Y-102710402D01*
X99639809Y-102877295D01*
X99427395Y-103089709D01*
X99260502Y-103339482D01*
X99145545Y-103617014D01*
X99086940Y-103911641D01*
X99086940Y-104212039D01*
X99145545Y-104506666D01*
X99260502Y-104784198D01*
X99427395Y-105033971D01*
X99639809Y-105246385D01*
X99889582Y-105413278D01*
X100167114Y-105528235D01*
X100461741Y-105586840D01*
X100762139Y-105586840D01*
X101056766Y-105528235D01*
X101334298Y-105413278D01*
X101584071Y-105246385D01*
X101796485Y-105033971D01*
X101963378Y-104784198D01*
X102078335Y-104506666D01*
X102136940Y-104212039D01*
X102136940Y-103911641D01*
X102078335Y-103617014D01*
X101963378Y-103339482D01*
X101796485Y-103089709D01*
X101584071Y-102877295D01*
X101334298Y-102710402D01*
X101186940Y-102649365D01*
X101186940Y-92520436D01*
X101224334Y-92495450D01*
X101389390Y-92330394D01*
X101519074Y-92136308D01*
X101608401Y-91920652D01*
X101614344Y-91890774D01*
X105116941Y-95393372D01*
X105116940Y-102649365D01*
X104969582Y-102710402D01*
X104719809Y-102877295D01*
X104507395Y-103089709D01*
X104340502Y-103339482D01*
X104225545Y-103617014D01*
X104166940Y-103911641D01*
X104166940Y-104212039D01*
X104225545Y-104506666D01*
X104340502Y-104784198D01*
X104507395Y-105033971D01*
X104719809Y-105246385D01*
X104969582Y-105413278D01*
X105247114Y-105528235D01*
X105541741Y-105586840D01*
X105842139Y-105586840D01*
X106136766Y-105528235D01*
X106414298Y-105413278D01*
X106664071Y-105246385D01*
X106876485Y-105033971D01*
X107043378Y-104784198D01*
X107158335Y-104506666D01*
X107216940Y-104212039D01*
X107216940Y-103921801D01*
X115061000Y-103921801D01*
X115061000Y-104222199D01*
X115119605Y-104516826D01*
X115234562Y-104794358D01*
X115401455Y-105044131D01*
X115613869Y-105256545D01*
X115863642Y-105423438D01*
X116141174Y-105538395D01*
X116435801Y-105597000D01*
X116736199Y-105597000D01*
X117030826Y-105538395D01*
X117308358Y-105423438D01*
X117558131Y-105256545D01*
X117770545Y-105044131D01*
X117937438Y-104794358D01*
X118052395Y-104516826D01*
X118111000Y-104222199D01*
X118111000Y-103921801D01*
X118052395Y-103627174D01*
X117937438Y-103349642D01*
X117770545Y-103099869D01*
X117558131Y-102887455D01*
X117308358Y-102720562D01*
X117030826Y-102605605D01*
X116736199Y-102547000D01*
X116435801Y-102547000D01*
X116141174Y-102605605D01*
X115863642Y-102720562D01*
X115613869Y-102887455D01*
X115401455Y-103099869D01*
X115234562Y-103349642D01*
X115119605Y-103627174D01*
X115061000Y-103921801D01*
X107216940Y-103921801D01*
X107216940Y-103911641D01*
X107158335Y-103617014D01*
X107043378Y-103339482D01*
X106876485Y-103089709D01*
X106664071Y-102877295D01*
X106414298Y-102710402D01*
X106266940Y-102649365D01*
X106266940Y-95183440D01*
X106269722Y-95155197D01*
X106266940Y-95126952D01*
X106258620Y-95042478D01*
X106225741Y-94934090D01*
X106216067Y-94915992D01*
X106172348Y-94834199D01*
X106118499Y-94768584D01*
X106100494Y-94746644D01*
X106078552Y-94728637D01*
X101556925Y-90207010D01*
X101622228Y-90220000D01*
X101855652Y-90220000D01*
X102084592Y-90174461D01*
X102300248Y-90085134D01*
X102494334Y-89955450D01*
X102659390Y-89790394D01*
X102789074Y-89596308D01*
X102878401Y-89380652D01*
X102923940Y-89151712D01*
X102923940Y-88918288D01*
X102878401Y-88689348D01*
X102789074Y-88473692D01*
X102659390Y-88279606D01*
X102494334Y-88114550D01*
X102300248Y-87984866D01*
X102084592Y-87895539D01*
X101855652Y-87850000D01*
X101622228Y-87850000D01*
X101393288Y-87895539D01*
X101177632Y-87984866D01*
X100983546Y-88114550D01*
X100818490Y-88279606D01*
X100688806Y-88473692D01*
X100599479Y-88689348D01*
X100553940Y-88918288D01*
X100553940Y-89151712D01*
X100566930Y-89217016D01*
X100383940Y-89034026D01*
X100383940Y-88918288D01*
X100338401Y-88689348D01*
X100249074Y-88473692D01*
X100119390Y-88279606D01*
X99954334Y-88114550D01*
X99760248Y-87984866D01*
X99544592Y-87895539D01*
X99315652Y-87850000D01*
X99082228Y-87850000D01*
X98853288Y-87895539D01*
X98637632Y-87984866D01*
X98443546Y-88114550D01*
X98278490Y-88279606D01*
X98148806Y-88473692D01*
X98059479Y-88689348D01*
X98013940Y-88918288D01*
X92124000Y-88918288D01*
X92124000Y-82485555D01*
X92733940Y-82485555D01*
X92733940Y-82884445D01*
X92811760Y-83275671D01*
X92964408Y-83644197D01*
X93186020Y-83975862D01*
X93468078Y-84257920D01*
X93799743Y-84479532D01*
X94168269Y-84632180D01*
X94559495Y-84710000D01*
X94958385Y-84710000D01*
X95349611Y-84632180D01*
X95718137Y-84479532D01*
X96049802Y-84257920D01*
X96331860Y-83975862D01*
X96553472Y-83644197D01*
X96706120Y-83275671D01*
X96783940Y-82884445D01*
X96783940Y-82485555D01*
X102893940Y-82485555D01*
X102893940Y-82884445D01*
X102971760Y-83275671D01*
X103124408Y-83644197D01*
X103346020Y-83975862D01*
X103628078Y-84257920D01*
X103959743Y-84479532D01*
X104328269Y-84632180D01*
X104719495Y-84710000D01*
X105118385Y-84710000D01*
X105509611Y-84632180D01*
X105878137Y-84479532D01*
X106209802Y-84257920D01*
X106491860Y-83975862D01*
X106713472Y-83644197D01*
X106866120Y-83275671D01*
X106943940Y-82884445D01*
X106943940Y-82485555D01*
X106866120Y-82094329D01*
X106713472Y-81725803D01*
X106491860Y-81394138D01*
X106209802Y-81112080D01*
X105878137Y-80890468D01*
X105509611Y-80737820D01*
X105118385Y-80660000D01*
X104719495Y-80660000D01*
X104328269Y-80737820D01*
X103959743Y-80890468D01*
X103628078Y-81112080D01*
X103346020Y-81394138D01*
X103124408Y-81725803D01*
X102971760Y-82094329D01*
X102893940Y-82485555D01*
X96783940Y-82485555D01*
X96706120Y-82094329D01*
X96553472Y-81725803D01*
X96331860Y-81394138D01*
X96049802Y-81112080D01*
X95718137Y-80890468D01*
X95349611Y-80737820D01*
X94958385Y-80660000D01*
X94559495Y-80660000D01*
X94168269Y-80737820D01*
X93799743Y-80890468D01*
X93468078Y-81112080D01*
X93186020Y-81394138D01*
X92964408Y-81725803D01*
X92811760Y-82094329D01*
X92733940Y-82485555D01*
X92124000Y-82485555D01*
X92124000Y-77935102D01*
X114687000Y-77935102D01*
X114687000Y-78274898D01*
X114753290Y-78608164D01*
X114883324Y-78922094D01*
X115072105Y-79204624D01*
X115312376Y-79444895D01*
X115594906Y-79633676D01*
X115687000Y-79671823D01*
X115687001Y-88034944D01*
X115259000Y-88034944D01*
X115175686Y-88043150D01*
X115095573Y-88067452D01*
X115021740Y-88106916D01*
X114957026Y-88160026D01*
X114903916Y-88224740D01*
X114864452Y-88298573D01*
X114840150Y-88378686D01*
X114831944Y-88462000D01*
X114831944Y-90862000D01*
X114840150Y-90945314D01*
X114864452Y-91025427D01*
X114903916Y-91099260D01*
X114957026Y-91163974D01*
X115021740Y-91217084D01*
X115095573Y-91256548D01*
X115175686Y-91280850D01*
X115259000Y-91289056D01*
X115734000Y-91289056D01*
X115734001Y-98829393D01*
X115730494Y-98865000D01*
X115744492Y-99007124D01*
X115785947Y-99143787D01*
X115853269Y-99269736D01*
X115921170Y-99352474D01*
X115921173Y-99352477D01*
X115943869Y-99380132D01*
X115971523Y-99402827D01*
X120198985Y-103630290D01*
X120141000Y-103921801D01*
X120141000Y-104222199D01*
X120199605Y-104516826D01*
X120314562Y-104794358D01*
X120481455Y-105044131D01*
X120693869Y-105256545D01*
X120943642Y-105423438D01*
X121221174Y-105538395D01*
X121515801Y-105597000D01*
X121816199Y-105597000D01*
X122110826Y-105538395D01*
X122388358Y-105423438D01*
X122638131Y-105256545D01*
X122850545Y-105044131D01*
X123017438Y-104794358D01*
X123132395Y-104516826D01*
X123191000Y-104222199D01*
X123191000Y-103921801D01*
X125221000Y-103921801D01*
X125221000Y-104222199D01*
X125279605Y-104516826D01*
X125394562Y-104794358D01*
X125561455Y-105044131D01*
X125773869Y-105256545D01*
X126023642Y-105423438D01*
X126301174Y-105538395D01*
X126595801Y-105597000D01*
X126896199Y-105597000D01*
X127190826Y-105538395D01*
X127468358Y-105423438D01*
X127718131Y-105256545D01*
X127930545Y-105044131D01*
X128095673Y-104797000D01*
X129064403Y-104797000D01*
X129100000Y-104800506D01*
X129135597Y-104797000D01*
X129135607Y-104797000D01*
X129242125Y-104786509D01*
X129378788Y-104745053D01*
X129504737Y-104677731D01*
X129615132Y-104587132D01*
X129637832Y-104559472D01*
X131597135Y-102600170D01*
X131673651Y-102623381D01*
X131883003Y-102644000D01*
X131883012Y-102644000D01*
X131952999Y-102650893D01*
X132022986Y-102644000D01*
X136622480Y-102644000D01*
X136437642Y-102720562D01*
X136187869Y-102887455D01*
X135975455Y-103099869D01*
X135808562Y-103349642D01*
X135693605Y-103627174D01*
X135635000Y-103921801D01*
X135635000Y-104222199D01*
X135693605Y-104516826D01*
X135808562Y-104794358D01*
X135975455Y-105044131D01*
X136187869Y-105256545D01*
X136437642Y-105423438D01*
X136715174Y-105538395D01*
X137009801Y-105597000D01*
X137310199Y-105597000D01*
X137604826Y-105538395D01*
X137882358Y-105423438D01*
X138132131Y-105256545D01*
X138344545Y-105044131D01*
X138511438Y-104794358D01*
X138626395Y-104516826D01*
X138685000Y-104222199D01*
X138685000Y-103921801D01*
X138626395Y-103627174D01*
X138511438Y-103349642D01*
X138344545Y-103099869D01*
X138132131Y-102887455D01*
X137882358Y-102720562D01*
X137697520Y-102644000D01*
X138796747Y-102644000D01*
X140847167Y-104694422D01*
X140888562Y-104794358D01*
X141055455Y-105044131D01*
X141267869Y-105256545D01*
X141517642Y-105423438D01*
X141795174Y-105538395D01*
X142089801Y-105597000D01*
X142390199Y-105597000D01*
X142684826Y-105538395D01*
X142962358Y-105423438D01*
X143212131Y-105256545D01*
X143424545Y-105044131D01*
X143591438Y-104794358D01*
X143706395Y-104516826D01*
X143765000Y-104222199D01*
X143765000Y-103921801D01*
X143706395Y-103627174D01*
X143591438Y-103349642D01*
X143424545Y-103099869D01*
X143212131Y-102887455D01*
X142962358Y-102720562D01*
X142862422Y-102679167D01*
X140444128Y-100260875D01*
X140399502Y-100206498D01*
X140182518Y-100028424D01*
X139934962Y-99896102D01*
X139666349Y-99814619D01*
X139456997Y-99794000D01*
X139456994Y-99794000D01*
X139387000Y-99787106D01*
X139317006Y-99794000D01*
X132543254Y-99794000D01*
X130156000Y-97406747D01*
X130156000Y-84910700D01*
X137554964Y-84910700D01*
X137554964Y-86660700D01*
X137579983Y-86914719D01*
X137654077Y-87158975D01*
X137774400Y-87384084D01*
X137936327Y-87581393D01*
X138133636Y-87743320D01*
X138358745Y-87863643D01*
X138603001Y-87937737D01*
X138857020Y-87962756D01*
X140607020Y-87962756D01*
X140861039Y-87937737D01*
X141105295Y-87863643D01*
X141330404Y-87743320D01*
X141527713Y-87581393D01*
X141689640Y-87384084D01*
X141809963Y-87158975D01*
X141847357Y-87035700D01*
X142254964Y-87035700D01*
X142254964Y-90535700D01*
X142263170Y-90619014D01*
X142287472Y-90699127D01*
X142326936Y-90772960D01*
X142380046Y-90837674D01*
X142444760Y-90890784D01*
X142518593Y-90930248D01*
X142598706Y-90954550D01*
X142682020Y-90962756D01*
X143007020Y-90962756D01*
X143007021Y-94324016D01*
X143000126Y-94394020D01*
X143019283Y-94588518D01*
X143027640Y-94673369D01*
X143076427Y-94834199D01*
X143109123Y-94941982D01*
X143241444Y-95189537D01*
X143268003Y-95221899D01*
X143419519Y-95406522D01*
X143473890Y-95451143D01*
X158722000Y-110699254D01*
X158722001Y-112742235D01*
X158680605Y-112842174D01*
X158622000Y-113136801D01*
X158622000Y-113437199D01*
X158680605Y-113731826D01*
X158795562Y-114009358D01*
X158962455Y-114259131D01*
X159174869Y-114471545D01*
X159424642Y-114638438D01*
X159702174Y-114753395D01*
X159996801Y-114812000D01*
X160297199Y-114812000D01*
X160591826Y-114753395D01*
X160869358Y-114638438D01*
X161119131Y-114471545D01*
X161331545Y-114259131D01*
X161498438Y-114009358D01*
X161613395Y-113731826D01*
X161672000Y-113437199D01*
X161672000Y-113136801D01*
X161613395Y-112842174D01*
X161572000Y-112742237D01*
X161572000Y-110178994D01*
X161578894Y-110109000D01*
X161570195Y-110020680D01*
X161551381Y-109829651D01*
X161469898Y-109561038D01*
X161393977Y-109419000D01*
X161337577Y-109313482D01*
X161204122Y-109150868D01*
X161204119Y-109150865D01*
X161159501Y-109096498D01*
X161105135Y-109051881D01*
X149197254Y-97144000D01*
X172408944Y-97144000D01*
X172408944Y-98944000D01*
X172417150Y-99027314D01*
X172441452Y-99107427D01*
X172480916Y-99181260D01*
X172534026Y-99245974D01*
X172598740Y-99299084D01*
X172672573Y-99338548D01*
X172752686Y-99362850D01*
X172836000Y-99371056D01*
X173201914Y-99371056D01*
X173108377Y-99409800D01*
X172891362Y-99554805D01*
X172706805Y-99739362D01*
X172561800Y-99956377D01*
X172461919Y-100197512D01*
X172411000Y-100453499D01*
X172411000Y-100714501D01*
X172461919Y-100970488D01*
X172561800Y-101211623D01*
X172706805Y-101428638D01*
X172891362Y-101613195D01*
X173108377Y-101758200D01*
X173339660Y-101854000D01*
X173108377Y-101949800D01*
X172891362Y-102094805D01*
X172706805Y-102279362D01*
X172561800Y-102496377D01*
X172461919Y-102737512D01*
X172411000Y-102993499D01*
X172411000Y-103254501D01*
X172461919Y-103510488D01*
X172561800Y-103751623D01*
X172706805Y-103968638D01*
X172891362Y-104153195D01*
X173108377Y-104298200D01*
X173349512Y-104398081D01*
X173359586Y-104400085D01*
X173254022Y-104429770D01*
X173022497Y-104547515D01*
X172818391Y-104708165D01*
X172649548Y-104905548D01*
X172522457Y-105132078D01*
X172442002Y-105379049D01*
X172431457Y-105432069D01*
X172517506Y-105639000D01*
X173711000Y-105639000D01*
X173711000Y-105619000D01*
X173761000Y-105619000D01*
X173761000Y-105639000D01*
X174954494Y-105639000D01*
X175040543Y-105432069D01*
X175029998Y-105379049D01*
X174949543Y-105132078D01*
X174822452Y-104905548D01*
X174653609Y-104708165D01*
X174449503Y-104547515D01*
X174217978Y-104429770D01*
X174112414Y-104400085D01*
X174122488Y-104398081D01*
X174363623Y-104298200D01*
X174580638Y-104153195D01*
X174765195Y-103968638D01*
X174910200Y-103751623D01*
X175010081Y-103510488D01*
X175061000Y-103254501D01*
X175061000Y-102993499D01*
X175010081Y-102737512D01*
X174910200Y-102496377D01*
X174765195Y-102279362D01*
X174580638Y-102094805D01*
X174363623Y-101949800D01*
X174132340Y-101854000D01*
X174363623Y-101758200D01*
X174580638Y-101613195D01*
X174765195Y-101428638D01*
X174910200Y-101211623D01*
X175010081Y-100970488D01*
X175061000Y-100714501D01*
X175061000Y-100453499D01*
X175010081Y-100197512D01*
X174910200Y-99956377D01*
X174765195Y-99739362D01*
X174580638Y-99554805D01*
X174363623Y-99409800D01*
X174270086Y-99371056D01*
X174636000Y-99371056D01*
X174719314Y-99362850D01*
X174799427Y-99338548D01*
X174873260Y-99299084D01*
X174937974Y-99245974D01*
X174991084Y-99181260D01*
X175030548Y-99107427D01*
X175054850Y-99027314D01*
X175063056Y-98944000D01*
X175063056Y-97144000D01*
X175054850Y-97060686D01*
X175030548Y-96980573D01*
X174991084Y-96906740D01*
X174937974Y-96842026D01*
X174873260Y-96788916D01*
X174799427Y-96749452D01*
X174719314Y-96725150D01*
X174636000Y-96716944D01*
X172836000Y-96716944D01*
X172752686Y-96725150D01*
X172672573Y-96749452D01*
X172598740Y-96788916D01*
X172534026Y-96842026D01*
X172480916Y-96906740D01*
X172441452Y-96980573D01*
X172417150Y-97060686D01*
X172408944Y-97144000D01*
X149197254Y-97144000D01*
X145857020Y-93803767D01*
X145857020Y-90962756D01*
X146182020Y-90962756D01*
X146265334Y-90954550D01*
X146345447Y-90930248D01*
X146419280Y-90890784D01*
X146483994Y-90837674D01*
X146537104Y-90772960D01*
X146576568Y-90699127D01*
X146600870Y-90619014D01*
X146609076Y-90535700D01*
X146609076Y-87035700D01*
X146600870Y-86952386D01*
X146576568Y-86872273D01*
X146537104Y-86798440D01*
X146483994Y-86733726D01*
X146419280Y-86680616D01*
X146345447Y-86641152D01*
X146265334Y-86616850D01*
X146182020Y-86608644D01*
X142682020Y-86608644D01*
X142598706Y-86616850D01*
X142518593Y-86641152D01*
X142444760Y-86680616D01*
X142380046Y-86733726D01*
X142326936Y-86798440D01*
X142287472Y-86872273D01*
X142263170Y-86952386D01*
X142254964Y-87035700D01*
X141847357Y-87035700D01*
X141884057Y-86914719D01*
X141909076Y-86660700D01*
X141909076Y-84910700D01*
X141884057Y-84656681D01*
X141809963Y-84412425D01*
X141742228Y-84285700D01*
X142254964Y-84285700D01*
X142263170Y-84369014D01*
X142287472Y-84449127D01*
X142326936Y-84522960D01*
X142380046Y-84587674D01*
X142444760Y-84640784D01*
X142518593Y-84680248D01*
X142598706Y-84704550D01*
X142682020Y-84712756D01*
X144300770Y-84710700D01*
X144407020Y-84604450D01*
X144407020Y-82810700D01*
X144457020Y-82810700D01*
X144457020Y-84604450D01*
X144563270Y-84710700D01*
X146182020Y-84712756D01*
X146265334Y-84704550D01*
X146345447Y-84680248D01*
X146419280Y-84640784D01*
X146483994Y-84587674D01*
X146537104Y-84522960D01*
X146576568Y-84449127D01*
X146600870Y-84369014D01*
X146609076Y-84285700D01*
X146607020Y-82916950D01*
X146500770Y-82810700D01*
X144457020Y-82810700D01*
X144407020Y-82810700D01*
X142363270Y-82810700D01*
X142257020Y-82916950D01*
X142254964Y-84285700D01*
X141742228Y-84285700D01*
X141689640Y-84187316D01*
X141527713Y-83990007D01*
X141330404Y-83828080D01*
X141105295Y-83707757D01*
X140861039Y-83633663D01*
X140607020Y-83608644D01*
X138857020Y-83608644D01*
X138603001Y-83633663D01*
X138358745Y-83707757D01*
X138133636Y-83828080D01*
X137936327Y-83990007D01*
X137774400Y-84187316D01*
X137654077Y-84412425D01*
X137579983Y-84656681D01*
X137554964Y-84910700D01*
X130156000Y-84910700D01*
X130156000Y-81285700D01*
X142254964Y-81285700D01*
X142257020Y-82654450D01*
X142363270Y-82760700D01*
X144407020Y-82760700D01*
X144407020Y-80966950D01*
X144457020Y-80966950D01*
X144457020Y-82760700D01*
X146500770Y-82760700D01*
X146607020Y-82654450D01*
X146609076Y-81285700D01*
X146600870Y-81202386D01*
X146576568Y-81122273D01*
X146537104Y-81048440D01*
X146483994Y-80983726D01*
X146419280Y-80930616D01*
X146345447Y-80891152D01*
X146265334Y-80866850D01*
X146182020Y-80858644D01*
X144563270Y-80860700D01*
X144457020Y-80966950D01*
X144407020Y-80966950D01*
X144300770Y-80860700D01*
X142682020Y-80858644D01*
X142598706Y-80866850D01*
X142518593Y-80891152D01*
X142444760Y-80930616D01*
X142380046Y-80983726D01*
X142326936Y-81048440D01*
X142287472Y-81122273D01*
X142263170Y-81202386D01*
X142254964Y-81285700D01*
X130156000Y-81285700D01*
X130156000Y-79405000D01*
X132003944Y-79405000D01*
X132012150Y-79488314D01*
X132036452Y-79568427D01*
X132075916Y-79642260D01*
X132129026Y-79706974D01*
X132193740Y-79760084D01*
X132267573Y-79799548D01*
X132347686Y-79823850D01*
X132431000Y-79832056D01*
X133599750Y-79830000D01*
X133706000Y-79723750D01*
X133706000Y-78130000D01*
X133756000Y-78130000D01*
X133756000Y-79723750D01*
X133862250Y-79830000D01*
X135031000Y-79832056D01*
X135114314Y-79823850D01*
X135194427Y-79799548D01*
X135268260Y-79760084D01*
X135332974Y-79706974D01*
X135386084Y-79642260D01*
X135425548Y-79568427D01*
X135449850Y-79488314D01*
X135458056Y-79405000D01*
X135456000Y-78236250D01*
X135349750Y-78130000D01*
X133756000Y-78130000D01*
X133706000Y-78130000D01*
X132112250Y-78130000D01*
X132006000Y-78236250D01*
X132003944Y-79405000D01*
X130156000Y-79405000D01*
X130156000Y-79077256D01*
X130259676Y-78922094D01*
X130389710Y-78608164D01*
X130456000Y-78274898D01*
X130456000Y-77935102D01*
X130389710Y-77601836D01*
X130259676Y-77287906D01*
X130070895Y-77005376D01*
X129870519Y-76805000D01*
X132003944Y-76805000D01*
X132006000Y-77973750D01*
X132112250Y-78080000D01*
X133706000Y-78080000D01*
X133706000Y-76486250D01*
X133756000Y-76486250D01*
X133756000Y-78080000D01*
X135349750Y-78080000D01*
X135456000Y-77973750D01*
X135458056Y-76805000D01*
X135449850Y-76721686D01*
X135425548Y-76641573D01*
X135386084Y-76567740D01*
X135332974Y-76503026D01*
X135268260Y-76449916D01*
X135194427Y-76410452D01*
X135114314Y-76386150D01*
X135031000Y-76377944D01*
X133862250Y-76380000D01*
X133756000Y-76486250D01*
X133706000Y-76486250D01*
X133599750Y-76380000D01*
X132431000Y-76377944D01*
X132347686Y-76386150D01*
X132267573Y-76410452D01*
X132193740Y-76449916D01*
X132129026Y-76503026D01*
X132075916Y-76567740D01*
X132036452Y-76641573D01*
X132012150Y-76721686D01*
X132003944Y-76805000D01*
X129870519Y-76805000D01*
X129830624Y-76765105D01*
X129548094Y-76576324D01*
X129234164Y-76446290D01*
X128900898Y-76380000D01*
X128561102Y-76380000D01*
X128227836Y-76446290D01*
X127913906Y-76576324D01*
X127631376Y-76765105D01*
X127391105Y-77005376D01*
X127202324Y-77287906D01*
X127072290Y-77601836D01*
X127006000Y-77935102D01*
X127006000Y-78274898D01*
X127072290Y-78608164D01*
X127202324Y-78922094D01*
X127306001Y-79077257D01*
X127306000Y-97927006D01*
X127299106Y-97997000D01*
X127306000Y-98066994D01*
X127306000Y-98066996D01*
X127326619Y-98276348D01*
X127408102Y-98544961D01*
X127540424Y-98792517D01*
X127718498Y-99009501D01*
X127772871Y-99054124D01*
X130432721Y-101713975D01*
X128799696Y-103347000D01*
X128095673Y-103347000D01*
X127930545Y-103099869D01*
X127718131Y-102887455D01*
X127468358Y-102720562D01*
X127190826Y-102605605D01*
X126896199Y-102547000D01*
X126595801Y-102547000D01*
X126301174Y-102605605D01*
X126023642Y-102720562D01*
X125773869Y-102887455D01*
X125561455Y-103099869D01*
X125394562Y-103349642D01*
X125279605Y-103627174D01*
X125221000Y-103921801D01*
X123191000Y-103921801D01*
X123132395Y-103627174D01*
X123017438Y-103349642D01*
X122850545Y-103099869D01*
X122638131Y-102887455D01*
X122388358Y-102720562D01*
X122110826Y-102605605D01*
X121816199Y-102547000D01*
X121515801Y-102547000D01*
X121224290Y-102604985D01*
X117184000Y-98564696D01*
X117184000Y-91289056D01*
X117659000Y-91289056D01*
X117742314Y-91280850D01*
X117822427Y-91256548D01*
X117896260Y-91217084D01*
X117960974Y-91163974D01*
X118014084Y-91099260D01*
X118053548Y-91025427D01*
X118077850Y-90945314D01*
X118086056Y-90862000D01*
X118086056Y-89940868D01*
X119938107Y-89940868D01*
X119953248Y-90016994D01*
X120052974Y-90319538D01*
X120209807Y-90596813D01*
X120417720Y-90838164D01*
X120668723Y-91034315D01*
X120953171Y-91177729D01*
X121260132Y-91262894D01*
X121514000Y-91180559D01*
X121514000Y-89687000D01*
X121564000Y-89687000D01*
X121564000Y-91180559D01*
X121817868Y-91262894D01*
X122124829Y-91177729D01*
X122409277Y-91034315D01*
X122660280Y-90838164D01*
X122868193Y-90596813D01*
X123025026Y-90319538D01*
X123124752Y-90016994D01*
X123139893Y-89940868D01*
X123057544Y-89687000D01*
X121564000Y-89687000D01*
X121514000Y-89687000D01*
X120020456Y-89687000D01*
X119938107Y-89940868D01*
X118086056Y-89940868D01*
X118086056Y-89383132D01*
X119938107Y-89383132D01*
X120020456Y-89637000D01*
X121514000Y-89637000D01*
X121514000Y-88143441D01*
X121564000Y-88143441D01*
X121564000Y-89637000D01*
X123057544Y-89637000D01*
X123139893Y-89383132D01*
X123124752Y-89307006D01*
X123025026Y-89004462D01*
X122868193Y-88727187D01*
X122660280Y-88485836D01*
X122409277Y-88289685D01*
X122124829Y-88146271D01*
X121817868Y-88061106D01*
X121564000Y-88143441D01*
X121514000Y-88143441D01*
X121260132Y-88061106D01*
X120953171Y-88146271D01*
X120668723Y-88289685D01*
X120417720Y-88485836D01*
X120209807Y-88727187D01*
X120052974Y-89004462D01*
X119953248Y-89307006D01*
X119938107Y-89383132D01*
X118086056Y-89383132D01*
X118086056Y-88462000D01*
X118077850Y-88378686D01*
X118053548Y-88298573D01*
X118014084Y-88224740D01*
X117960974Y-88160026D01*
X117896260Y-88106916D01*
X117822427Y-88067452D01*
X117742314Y-88043150D01*
X117659000Y-88034944D01*
X117137000Y-88034944D01*
X117137000Y-79671823D01*
X117229094Y-79633676D01*
X117511624Y-79444895D01*
X117551519Y-79405000D01*
X119684944Y-79405000D01*
X119693150Y-79488314D01*
X119717452Y-79568427D01*
X119756916Y-79642260D01*
X119810026Y-79706974D01*
X119874740Y-79760084D01*
X119948573Y-79799548D01*
X120028686Y-79823850D01*
X120112000Y-79832056D01*
X121280750Y-79830000D01*
X121387000Y-79723750D01*
X121387000Y-78130000D01*
X121437000Y-78130000D01*
X121437000Y-79723750D01*
X121543250Y-79830000D01*
X122712000Y-79832056D01*
X122795314Y-79823850D01*
X122875427Y-79799548D01*
X122949260Y-79760084D01*
X123013974Y-79706974D01*
X123067084Y-79642260D01*
X123106548Y-79568427D01*
X123130850Y-79488314D01*
X123139056Y-79405000D01*
X123137000Y-78236250D01*
X123030750Y-78130000D01*
X121437000Y-78130000D01*
X121387000Y-78130000D01*
X119793250Y-78130000D01*
X119687000Y-78236250D01*
X119684944Y-79405000D01*
X117551519Y-79405000D01*
X117751895Y-79204624D01*
X117940676Y-78922094D01*
X118070710Y-78608164D01*
X118137000Y-78274898D01*
X118137000Y-77935102D01*
X118070710Y-77601836D01*
X117940676Y-77287906D01*
X117751895Y-77005376D01*
X117551519Y-76805000D01*
X119684944Y-76805000D01*
X119687000Y-77973750D01*
X119793250Y-78080000D01*
X121387000Y-78080000D01*
X121387000Y-76486250D01*
X121437000Y-76486250D01*
X121437000Y-78080000D01*
X123030750Y-78080000D01*
X123137000Y-77973750D01*
X123139056Y-76805000D01*
X123130850Y-76721686D01*
X123106548Y-76641573D01*
X123067084Y-76567740D01*
X123013974Y-76503026D01*
X122949260Y-76449916D01*
X122875427Y-76410452D01*
X122795314Y-76386150D01*
X122712000Y-76377944D01*
X121543250Y-76380000D01*
X121437000Y-76486250D01*
X121387000Y-76486250D01*
X121280750Y-76380000D01*
X120112000Y-76377944D01*
X120028686Y-76386150D01*
X119948573Y-76410452D01*
X119874740Y-76449916D01*
X119810026Y-76503026D01*
X119756916Y-76567740D01*
X119717452Y-76641573D01*
X119693150Y-76721686D01*
X119684944Y-76805000D01*
X117551519Y-76805000D01*
X117511624Y-76765105D01*
X117229094Y-76576324D01*
X116915164Y-76446290D01*
X116581898Y-76380000D01*
X116242102Y-76380000D01*
X115908836Y-76446290D01*
X115594906Y-76576324D01*
X115312376Y-76765105D01*
X115072105Y-77005376D01*
X114883324Y-77287906D01*
X114753290Y-77601836D01*
X114687000Y-77935102D01*
X92124000Y-77935102D01*
X92124000Y-75278000D01*
X223426000Y-75278000D01*
X223426001Y-143162000D01*
G37*
X223426001Y-143162000D02*
X92124000Y-143162000D01*
X92124000Y-137121490D01*
X96646940Y-137121490D01*
X96646940Y-137402190D01*
X96701702Y-137677497D01*
X96809121Y-137936831D01*
X96965070Y-138170225D01*
X97163555Y-138368710D01*
X97396949Y-138524659D01*
X97656283Y-138632078D01*
X97931590Y-138686840D01*
X98212290Y-138686840D01*
X98428608Y-138643812D01*
X102385272Y-142600477D01*
X102407968Y-142628132D01*
X102435623Y-142650828D01*
X102435625Y-142650830D01*
X102470405Y-142679373D01*
X102518363Y-142718731D01*
X102644312Y-142786053D01*
X102780975Y-142827509D01*
X102887493Y-142838000D01*
X102887502Y-142838000D01*
X102923099Y-142841506D01*
X102958696Y-142838000D01*
X119090393Y-142838000D01*
X119126000Y-142841507D01*
X119161607Y-142838000D01*
X139664393Y-142838000D01*
X139700000Y-142841507D01*
X139735607Y-142838000D01*
X160218082Y-142838000D01*
X160253679Y-142841506D01*
X160289276Y-142838000D01*
X215229403Y-142838000D01*
X215265000Y-142841506D01*
X215300597Y-142838000D01*
X215300607Y-142838000D01*
X215407125Y-142827509D01*
X215543788Y-142786053D01*
X215669737Y-142718731D01*
X215780132Y-142628132D01*
X215802832Y-142600472D01*
X217657477Y-140745828D01*
X217685132Y-140723132D01*
X217775731Y-140612737D01*
X217843053Y-140486788D01*
X217884509Y-140350125D01*
X217895000Y-140243607D01*
X217895000Y-140243597D01*
X217898506Y-140208000D01*
X217895000Y-140172403D01*
X217895000Y-139285135D01*
X218014638Y-139205195D01*
X218199195Y-139020638D01*
X218344200Y-138803623D01*
X218444081Y-138562488D01*
X218495000Y-138306501D01*
X218495000Y-138045499D01*
X218444081Y-137789512D01*
X218344200Y-137548377D01*
X218199195Y-137331362D01*
X218014638Y-137146805D01*
X217895000Y-137066865D01*
X217895000Y-133893596D01*
X217898506Y-133857999D01*
X217895000Y-133822402D01*
X217895000Y-133822393D01*
X217884509Y-133715875D01*
X217843053Y-133579212D01*
X217775731Y-133453263D01*
X217707830Y-133370525D01*
X217707823Y-133370518D01*
X217685131Y-133342868D01*
X217657482Y-133320177D01*
X193882804Y-109545499D01*
X206955000Y-109545499D01*
X206955000Y-109806501D01*
X207005919Y-110062488D01*
X207105800Y-110303623D01*
X207250805Y-110520638D01*
X207435362Y-110705195D01*
X207652377Y-110850200D01*
X207893512Y-110950081D01*
X208149499Y-111001000D01*
X208410501Y-111001000D01*
X208666488Y-110950081D01*
X208907623Y-110850200D01*
X209124638Y-110705195D01*
X209309195Y-110520638D01*
X209454200Y-110303623D01*
X209550000Y-110072340D01*
X209645800Y-110303623D01*
X209790805Y-110520638D01*
X209975362Y-110705195D01*
X210192377Y-110850200D01*
X210433512Y-110950081D01*
X210689499Y-111001000D01*
X210950501Y-111001000D01*
X211206488Y-110950081D01*
X211447623Y-110850200D01*
X211664638Y-110705195D01*
X211849195Y-110520638D01*
X211994200Y-110303623D01*
X212094081Y-110062488D01*
X212145000Y-109806501D01*
X212145000Y-109545499D01*
X212094081Y-109289512D01*
X212072284Y-109236888D01*
X220223613Y-101085560D01*
X220245554Y-101067554D01*
X220317408Y-100979998D01*
X220370801Y-100880108D01*
X220403680Y-100771720D01*
X220412000Y-100687246D01*
X220412000Y-100687243D01*
X220414782Y-100659000D01*
X220412000Y-100630757D01*
X220412000Y-90841243D01*
X220414782Y-90813000D01*
X220410838Y-90772960D01*
X220403680Y-90700280D01*
X220370801Y-90591892D01*
X220317408Y-90492002D01*
X220245554Y-90404446D01*
X220223612Y-90386439D01*
X219201674Y-89364501D01*
X219244000Y-89151712D01*
X219244000Y-88918288D01*
X219198461Y-88689348D01*
X219109134Y-88473692D01*
X218979450Y-88279606D01*
X218814394Y-88114550D01*
X218620308Y-87984866D01*
X218404652Y-87895539D01*
X218175712Y-87850000D01*
X217942288Y-87850000D01*
X217713348Y-87895539D01*
X217497692Y-87984866D01*
X217303606Y-88114550D01*
X217138550Y-88279606D01*
X217018015Y-88460000D01*
X216559985Y-88460000D01*
X216439450Y-88279606D01*
X216274394Y-88114550D01*
X216080308Y-87984866D01*
X215864652Y-87895539D01*
X215635712Y-87850000D01*
X215402288Y-87850000D01*
X215173348Y-87895539D01*
X214957692Y-87984866D01*
X214763606Y-88114550D01*
X214598550Y-88279606D01*
X214468866Y-88473692D01*
X214379539Y-88689348D01*
X214334000Y-88918288D01*
X214334000Y-89151712D01*
X214379539Y-89380652D01*
X214468866Y-89596308D01*
X214598550Y-89790394D01*
X214763606Y-89955450D01*
X214957692Y-90085134D01*
X215173348Y-90174461D01*
X215402288Y-90220000D01*
X215635712Y-90220000D01*
X215864652Y-90174461D01*
X216080308Y-90085134D01*
X216274394Y-89955450D01*
X216439450Y-89790394D01*
X216559985Y-89610000D01*
X217018015Y-89610000D01*
X217138550Y-89790394D01*
X217303606Y-89955450D01*
X217497692Y-90085134D01*
X217713348Y-90174461D01*
X217942288Y-90220000D01*
X218175712Y-90220000D01*
X218388501Y-90177674D01*
X219262001Y-91051174D01*
X219262000Y-100420827D01*
X211259112Y-108423716D01*
X211206488Y-108401919D01*
X210950501Y-108351000D01*
X210689499Y-108351000D01*
X210433512Y-108401919D01*
X210320401Y-108448771D01*
X217175612Y-101593561D01*
X217197554Y-101575554D01*
X217231782Y-101533847D01*
X217269408Y-101487999D01*
X217322801Y-101388108D01*
X217330986Y-101361125D01*
X217355680Y-101279720D01*
X217364000Y-101195246D01*
X217364000Y-101195244D01*
X217366782Y-101167001D01*
X217364000Y-101138758D01*
X217364000Y-92615985D01*
X217544394Y-92495450D01*
X217709450Y-92330394D01*
X217839134Y-92136308D01*
X217928461Y-91920652D01*
X217974000Y-91691712D01*
X217974000Y-91458288D01*
X217928461Y-91229348D01*
X217839134Y-91013692D01*
X217709450Y-90819606D01*
X217544394Y-90654550D01*
X217350308Y-90524866D01*
X217134652Y-90435539D01*
X216905712Y-90390000D01*
X216672288Y-90390000D01*
X216443348Y-90435539D01*
X216227692Y-90524866D01*
X216033606Y-90654550D01*
X215868550Y-90819606D01*
X215748015Y-91000000D01*
X215289985Y-91000000D01*
X215169450Y-90819606D01*
X215004394Y-90654550D01*
X214810308Y-90524866D01*
X214594652Y-90435539D01*
X214365712Y-90390000D01*
X214132288Y-90390000D01*
X213903348Y-90435539D01*
X213687692Y-90524866D01*
X213493606Y-90654550D01*
X213328550Y-90819606D01*
X213198866Y-91013692D01*
X213109539Y-91229348D01*
X213064000Y-91458288D01*
X213064000Y-91691712D01*
X213109539Y-91920652D01*
X213198866Y-92136308D01*
X213328550Y-92330394D01*
X213493606Y-92495450D01*
X213687692Y-92625134D01*
X213903348Y-92714461D01*
X214132288Y-92760000D01*
X214365712Y-92760000D01*
X214594652Y-92714461D01*
X214810308Y-92625134D01*
X215004394Y-92495450D01*
X215169450Y-92330394D01*
X215289985Y-92150000D01*
X215748015Y-92150000D01*
X215868550Y-92330394D01*
X216033606Y-92495450D01*
X216214000Y-92615985D01*
X216214001Y-100928826D01*
X208719112Y-108423716D01*
X208666488Y-108401919D01*
X208410501Y-108351000D01*
X208149499Y-108351000D01*
X207893512Y-108401919D01*
X207652377Y-108501800D01*
X207435362Y-108646805D01*
X207250805Y-108831362D01*
X207105800Y-109048377D01*
X207005919Y-109289512D01*
X206955000Y-109545499D01*
X193882804Y-109545499D01*
X190726304Y-106389000D01*
X192829143Y-106389000D01*
X192864740Y-106392506D01*
X192900337Y-106389000D01*
X192900347Y-106389000D01*
X193006865Y-106378509D01*
X193143528Y-106337053D01*
X193269477Y-106269731D01*
X193379872Y-106179132D01*
X193402572Y-106151472D01*
X205048917Y-94505128D01*
X205076572Y-94482432D01*
X205113020Y-94438021D01*
X205167171Y-94372037D01*
X205234493Y-94246088D01*
X205239780Y-94228660D01*
X205275949Y-94109425D01*
X205286440Y-94002907D01*
X205286440Y-94002897D01*
X205289946Y-93967300D01*
X205286440Y-93931703D01*
X205286440Y-91627996D01*
X205289946Y-91592399D01*
X205286440Y-91556802D01*
X205286440Y-86944236D01*
X205289946Y-86908639D01*
X205286440Y-86873042D01*
X205286440Y-86873033D01*
X205275949Y-86766515D01*
X205234493Y-86629852D01*
X205167171Y-86503903D01*
X205142470Y-86473805D01*
X205099270Y-86421165D01*
X205099263Y-86421158D01*
X205076571Y-86393508D01*
X205048922Y-86370817D01*
X201163660Y-82485555D01*
X202831000Y-82485555D01*
X202831000Y-82884445D01*
X202908820Y-83275671D01*
X203061468Y-83644197D01*
X203283080Y-83975862D01*
X203565138Y-84257920D01*
X203896803Y-84479532D01*
X204265329Y-84632180D01*
X204656555Y-84710000D01*
X205055445Y-84710000D01*
X205446671Y-84632180D01*
X205815197Y-84479532D01*
X206146862Y-84257920D01*
X206428920Y-83975862D01*
X206650532Y-83644197D01*
X206803180Y-83275671D01*
X206881000Y-82884445D01*
X206881000Y-82485555D01*
X209054000Y-82485555D01*
X209054000Y-82884445D01*
X209131820Y-83275671D01*
X209284468Y-83644197D01*
X209506080Y-83975862D01*
X209788138Y-84257920D01*
X210119803Y-84479532D01*
X210488329Y-84632180D01*
X210879555Y-84710000D01*
X211278445Y-84710000D01*
X211669671Y-84632180D01*
X212038197Y-84479532D01*
X212369862Y-84257920D01*
X212651920Y-83975862D01*
X212873532Y-83644197D01*
X213026180Y-83275671D01*
X213104000Y-82884445D01*
X213104000Y-82485555D01*
X219214000Y-82485555D01*
X219214000Y-82884445D01*
X219291820Y-83275671D01*
X219444468Y-83644197D01*
X219666080Y-83975862D01*
X219948138Y-84257920D01*
X220279803Y-84479532D01*
X220648329Y-84632180D01*
X221039555Y-84710000D01*
X221438445Y-84710000D01*
X221829671Y-84632180D01*
X222198197Y-84479532D01*
X222529862Y-84257920D01*
X222811920Y-83975862D01*
X223033532Y-83644197D01*
X223186180Y-83275671D01*
X223264000Y-82884445D01*
X223264000Y-82485555D01*
X223186180Y-82094329D01*
X223033532Y-81725803D01*
X222811920Y-81394138D01*
X222529862Y-81112080D01*
X222198197Y-80890468D01*
X221829671Y-80737820D01*
X221438445Y-80660000D01*
X221039555Y-80660000D01*
X220648329Y-80737820D01*
X220279803Y-80890468D01*
X219948138Y-81112080D01*
X219666080Y-81394138D01*
X219444468Y-81725803D01*
X219291820Y-82094329D01*
X219214000Y-82485555D01*
X213104000Y-82485555D01*
X213026180Y-82094329D01*
X212873532Y-81725803D01*
X212651920Y-81394138D01*
X212369862Y-81112080D01*
X212038197Y-80890468D01*
X211669671Y-80737820D01*
X211278445Y-80660000D01*
X210879555Y-80660000D01*
X210488329Y-80737820D01*
X210119803Y-80890468D01*
X209788138Y-81112080D01*
X209506080Y-81394138D01*
X209284468Y-81725803D01*
X209131820Y-82094329D01*
X209054000Y-82485555D01*
X206881000Y-82485555D01*
X206803180Y-82094329D01*
X206650532Y-81725803D01*
X206428920Y-81394138D01*
X206146862Y-81112080D01*
X205815197Y-80890468D01*
X205446671Y-80737820D01*
X205055445Y-80660000D01*
X204656555Y-80660000D01*
X204265329Y-80737820D01*
X203896803Y-80890468D01*
X203565138Y-81112080D01*
X203283080Y-81394138D01*
X203061468Y-81725803D01*
X202908820Y-82094329D01*
X202831000Y-82485555D01*
X201163660Y-82485555D01*
X198073632Y-79395528D01*
X198050932Y-79367868D01*
X197940537Y-79277269D01*
X197814588Y-79209947D01*
X197677925Y-79168491D01*
X197571407Y-79158000D01*
X197571397Y-79158000D01*
X197535800Y-79154494D01*
X197500203Y-79158000D01*
X189577135Y-79158000D01*
X189497195Y-79038362D01*
X189312638Y-78853805D01*
X189095623Y-78708800D01*
X188864340Y-78613000D01*
X189095623Y-78517200D01*
X189312638Y-78372195D01*
X189497195Y-78187638D01*
X189642200Y-77970623D01*
X189742081Y-77729488D01*
X189793000Y-77473501D01*
X189793000Y-77212499D01*
X189742081Y-76956512D01*
X189642200Y-76715377D01*
X189497195Y-76498362D01*
X189312638Y-76313805D01*
X189095623Y-76168800D01*
X188854488Y-76068919D01*
X188598501Y-76018000D01*
X188337499Y-76018000D01*
X188081512Y-76068919D01*
X187840377Y-76168800D01*
X187623362Y-76313805D01*
X187438805Y-76498362D01*
X187293800Y-76715377D01*
X187193919Y-76956512D01*
X187143000Y-77212499D01*
X187143000Y-77473501D01*
X187193919Y-77729488D01*
X187293800Y-77970623D01*
X187438805Y-78187638D01*
X187623362Y-78372195D01*
X187840377Y-78517200D01*
X188071660Y-78613000D01*
X187840377Y-78708800D01*
X187623362Y-78853805D01*
X187438805Y-79038362D01*
X187293800Y-79255377D01*
X187193919Y-79496512D01*
X187143000Y-79752499D01*
X187143000Y-80013501D01*
X187193919Y-80269488D01*
X187293800Y-80510623D01*
X187352183Y-80597999D01*
X184666243Y-80597999D01*
X184638000Y-80595217D01*
X184609757Y-80597999D01*
X184609755Y-80597999D01*
X184525281Y-80606319D01*
X184416893Y-80639198D01*
X184377976Y-80660000D01*
X184317002Y-80692591D01*
X184274297Y-80727638D01*
X184229447Y-80764445D01*
X184211440Y-80786387D01*
X174767828Y-90230000D01*
X159702803Y-90230000D01*
X159674560Y-90227218D01*
X159646317Y-90230000D01*
X159646314Y-90230000D01*
X159561840Y-90238320D01*
X159464885Y-90267731D01*
X159453452Y-90271199D01*
X159353561Y-90324592D01*
X159307713Y-90362218D01*
X159266006Y-90396446D01*
X159248000Y-90418387D01*
X156046795Y-93619593D01*
X156041539Y-93617416D01*
X155804872Y-93570340D01*
X155563568Y-93570340D01*
X155326901Y-93617416D01*
X155103965Y-93709759D01*
X154903328Y-93843821D01*
X154732701Y-94014448D01*
X154598639Y-94215085D01*
X154596462Y-94220340D01*
X150791979Y-94220340D01*
X150750904Y-94013841D01*
X150658561Y-93790905D01*
X150524499Y-93590268D01*
X150353872Y-93419641D01*
X150153235Y-93285579D01*
X149930299Y-93193236D01*
X149693632Y-93146160D01*
X149452328Y-93146160D01*
X149215661Y-93193236D01*
X148992725Y-93285579D01*
X148792088Y-93419641D01*
X148621461Y-93590268D01*
X148487399Y-93790905D01*
X148395056Y-94013841D01*
X148347980Y-94250508D01*
X148347980Y-94491812D01*
X148395056Y-94728479D01*
X148487399Y-94951415D01*
X148621461Y-95152052D01*
X148792088Y-95322679D01*
X148992725Y-95456741D01*
X149215661Y-95549084D01*
X149452328Y-95596160D01*
X149693632Y-95596160D01*
X149930299Y-95549084D01*
X150153235Y-95456741D01*
X150282543Y-95370340D01*
X154596462Y-95370340D01*
X154598639Y-95375595D01*
X154732701Y-95576232D01*
X154903328Y-95746859D01*
X155103965Y-95880921D01*
X155326901Y-95973264D01*
X155563568Y-96020340D01*
X155804872Y-96020340D01*
X156041539Y-95973264D01*
X156264475Y-95880921D01*
X156465112Y-95746859D01*
X156603883Y-95608088D01*
X159986828Y-95608088D01*
X160061074Y-95805670D01*
X160271690Y-95923434D01*
X160501234Y-95997846D01*
X160740885Y-96026046D01*
X160981432Y-96006950D01*
X161213632Y-95941294D01*
X161428561Y-95831599D01*
X161467366Y-95805670D01*
X161541612Y-95608088D01*
X160764220Y-94830695D01*
X159986828Y-95608088D01*
X156603883Y-95608088D01*
X156635739Y-95576232D01*
X156769801Y-95375595D01*
X156862144Y-95152659D01*
X156909220Y-94915992D01*
X156909220Y-94772005D01*
X159533514Y-94772005D01*
X159552610Y-95012552D01*
X159618266Y-95244752D01*
X159727961Y-95459681D01*
X159753890Y-95498486D01*
X159951472Y-95572732D01*
X160728865Y-94795340D01*
X160799575Y-94795340D01*
X161576968Y-95572732D01*
X161774550Y-95498486D01*
X161892314Y-95287870D01*
X161966726Y-95058326D01*
X161994926Y-94818675D01*
X161975830Y-94578128D01*
X161910174Y-94345928D01*
X161800479Y-94130999D01*
X161774550Y-94092194D01*
X161576968Y-94017948D01*
X160799575Y-94795340D01*
X160728865Y-94795340D01*
X159951472Y-94017948D01*
X159753890Y-94092194D01*
X159636126Y-94302810D01*
X159561714Y-94532354D01*
X159533514Y-94772005D01*
X156909220Y-94772005D01*
X156909220Y-94674688D01*
X156862144Y-94438021D01*
X156859967Y-94432765D01*
X157310140Y-93982592D01*
X159986828Y-93982592D01*
X160764220Y-94759985D01*
X161541612Y-93982592D01*
X161467366Y-93785010D01*
X161256750Y-93667246D01*
X161027206Y-93592834D01*
X160787555Y-93564634D01*
X160547008Y-93583730D01*
X160314808Y-93649386D01*
X160099879Y-93759081D01*
X160061074Y-93785010D01*
X159986828Y-93982592D01*
X157310140Y-93982592D01*
X159912733Y-91380000D01*
X174977757Y-91380000D01*
X175006000Y-91382782D01*
X175034243Y-91380000D01*
X175034246Y-91380000D01*
X175118720Y-91371680D01*
X175227108Y-91338801D01*
X175326998Y-91285408D01*
X175414554Y-91213554D01*
X175432566Y-91191606D01*
X184876174Y-81747999D01*
X187327418Y-81747999D01*
X187248635Y-81888393D01*
X187167769Y-82136552D01*
X187136869Y-82395718D01*
X187157124Y-82655933D01*
X187227755Y-82907196D01*
X187345106Y-83137999D01*
X187206244Y-83137999D01*
X187178001Y-83135217D01*
X187149758Y-83137999D01*
X187149755Y-83137999D01*
X187065281Y-83146319D01*
X186956893Y-83179198D01*
X186857002Y-83232591D01*
X186811154Y-83270217D01*
X186769447Y-83304445D01*
X186751440Y-83326387D01*
X178937389Y-91140439D01*
X178915447Y-91158446D01*
X178891470Y-91187663D01*
X178843592Y-91246002D01*
X178790199Y-91345893D01*
X178757321Y-91454281D01*
X178746218Y-91567000D01*
X178749001Y-91595253D01*
X178749000Y-109743827D01*
X177053828Y-111439000D01*
X174865180Y-111439000D01*
X174910200Y-111371623D01*
X175010081Y-111130488D01*
X175061000Y-110874501D01*
X175061000Y-110613499D01*
X175010081Y-110357512D01*
X174910200Y-110116377D01*
X174851817Y-110029001D01*
X175883972Y-110029001D01*
X175978736Y-110170825D01*
X176135435Y-110327524D01*
X176319693Y-110450642D01*
X176524430Y-110535447D01*
X176741777Y-110578680D01*
X176963383Y-110578680D01*
X177180730Y-110535447D01*
X177385467Y-110450642D01*
X177569725Y-110327524D01*
X177726424Y-110170825D01*
X177849542Y-109986567D01*
X177934347Y-109781830D01*
X177977580Y-109564483D01*
X177977580Y-109342877D01*
X177934347Y-109125530D01*
X177849542Y-108920793D01*
X177726424Y-108736535D01*
X177569725Y-108579836D01*
X177385467Y-108456718D01*
X177180730Y-108371913D01*
X176963383Y-108328680D01*
X176741777Y-108328680D01*
X176524430Y-108371913D01*
X176319693Y-108456718D01*
X176135435Y-108579836D01*
X175978736Y-108736535D01*
X175883543Y-108879001D01*
X174878543Y-108879001D01*
X174910200Y-108831623D01*
X175010081Y-108590488D01*
X175061000Y-108334501D01*
X175061000Y-108073499D01*
X175010081Y-107817512D01*
X174910200Y-107576377D01*
X174765195Y-107359362D01*
X174580638Y-107174805D01*
X174363623Y-107029800D01*
X174122488Y-106929919D01*
X174112414Y-106927915D01*
X174217978Y-106898230D01*
X174449503Y-106780485D01*
X174653609Y-106619835D01*
X174822452Y-106422452D01*
X174949543Y-106195922D01*
X175029998Y-105948951D01*
X175040543Y-105895931D01*
X174954494Y-105689000D01*
X173761000Y-105689000D01*
X173761000Y-105709000D01*
X173711000Y-105709000D01*
X173711000Y-105689000D01*
X172517506Y-105689000D01*
X172431457Y-105895931D01*
X172442002Y-105948951D01*
X172522457Y-106195922D01*
X172649548Y-106422452D01*
X172818391Y-106619835D01*
X173022497Y-106780485D01*
X173254022Y-106898230D01*
X173359586Y-106927915D01*
X173349512Y-106929919D01*
X173108377Y-107029800D01*
X172891362Y-107174805D01*
X172706805Y-107359362D01*
X172561800Y-107576377D01*
X172461919Y-107817512D01*
X172411000Y-108073499D01*
X172411000Y-108334501D01*
X172461919Y-108590488D01*
X172561800Y-108831623D01*
X172706805Y-109048638D01*
X172725206Y-109067039D01*
X172724919Y-109067388D01*
X166614424Y-115177884D01*
X166631381Y-115121983D01*
X166652000Y-114912631D01*
X166652000Y-114912622D01*
X166658893Y-114842635D01*
X166652000Y-114772648D01*
X166652000Y-113831763D01*
X166693395Y-113731826D01*
X166752000Y-113437199D01*
X166752000Y-113136801D01*
X166693395Y-112842174D01*
X166578438Y-112564642D01*
X166411545Y-112314869D01*
X166199131Y-112102455D01*
X165949358Y-111935562D01*
X165671826Y-111820605D01*
X165377199Y-111762000D01*
X165076801Y-111762000D01*
X164782174Y-111820605D01*
X164504642Y-111935562D01*
X164254869Y-112102455D01*
X164042455Y-112314869D01*
X163875562Y-112564642D01*
X163760605Y-112842174D01*
X163702000Y-113136801D01*
X163702000Y-113437199D01*
X163760605Y-113731826D01*
X163802000Y-113831763D01*
X163802000Y-114252379D01*
X162385381Y-115669000D01*
X155403254Y-115669000D01*
X148745000Y-109010747D01*
X148745000Y-104616763D01*
X148786395Y-104516826D01*
X148845000Y-104222199D01*
X148845000Y-103921801D01*
X148786395Y-103627174D01*
X148671438Y-103349642D01*
X148504545Y-103099869D01*
X148292131Y-102887455D01*
X148042358Y-102720562D01*
X147764826Y-102605605D01*
X147470199Y-102547000D01*
X147169801Y-102547000D01*
X146875174Y-102605605D01*
X146597642Y-102720562D01*
X146347869Y-102887455D01*
X146135455Y-103099869D01*
X145968562Y-103349642D01*
X145853605Y-103627174D01*
X145795000Y-103921801D01*
X145795000Y-104222199D01*
X145853605Y-104516826D01*
X145895001Y-104616765D01*
X145895000Y-109531005D01*
X145888106Y-109601000D01*
X145895000Y-109670994D01*
X145895000Y-109670996D01*
X145915619Y-109880348D01*
X145997102Y-110148961D01*
X146129424Y-110396517D01*
X146307498Y-110613501D01*
X146361871Y-110658124D01*
X153755876Y-118052130D01*
X153800498Y-118106502D01*
X154017482Y-118284576D01*
X154265038Y-118416898D01*
X154533651Y-118498381D01*
X154743003Y-118519000D01*
X154743012Y-118519000D01*
X154812999Y-118525893D01*
X154882986Y-118519000D01*
X162905640Y-118519000D01*
X162975634Y-118525894D01*
X163045628Y-118519000D01*
X163045631Y-118519000D01*
X163254983Y-118498381D01*
X163310884Y-118481424D01*
X157467888Y-124324420D01*
X127401622Y-124324420D01*
X127373379Y-124321638D01*
X127345136Y-124324420D01*
X127345134Y-124324420D01*
X127260660Y-124332740D01*
X127152272Y-124365619D01*
X127052381Y-124419012D01*
X127006533Y-124456638D01*
X126964826Y-124490866D01*
X126946820Y-124512807D01*
X114772788Y-136686840D01*
X104456176Y-136686840D01*
X104414759Y-136586849D01*
X104258810Y-136353455D01*
X104060325Y-136154970D01*
X103826931Y-135999021D01*
X103567597Y-135891602D01*
X103292290Y-135836840D01*
X103011590Y-135836840D01*
X102736283Y-135891602D01*
X102476949Y-135999021D01*
X102243555Y-136154970D01*
X102045070Y-136353455D01*
X101889121Y-136586849D01*
X101879357Y-136610422D01*
X101819583Y-136492475D01*
X101784886Y-136440547D01*
X101566823Y-136342312D01*
X100647295Y-137261840D01*
X101566823Y-138181368D01*
X101784886Y-138083133D01*
X101879844Y-137914434D01*
X101889121Y-137936831D01*
X102045070Y-138170225D01*
X102243555Y-138368710D01*
X102476949Y-138524659D01*
X102736283Y-138632078D01*
X103011590Y-138686840D01*
X103292290Y-138686840D01*
X103567597Y-138632078D01*
X103826931Y-138524659D01*
X104060325Y-138368710D01*
X104258810Y-138170225D01*
X104414759Y-137936831D01*
X104456176Y-137836840D01*
X114982717Y-137836840D01*
X115010960Y-137839622D01*
X115039203Y-137836840D01*
X115039206Y-137836840D01*
X115123680Y-137828520D01*
X115232068Y-137795641D01*
X115331958Y-137742248D01*
X115419514Y-137670394D01*
X115437526Y-137648446D01*
X127611553Y-125474420D01*
X127712407Y-125474420D01*
X120011929Y-133174899D01*
X119989987Y-133192906D01*
X119971981Y-133214847D01*
X119918132Y-133280462D01*
X119864739Y-133380353D01*
X119831861Y-133488741D01*
X119820758Y-133601460D01*
X119823541Y-133629713D01*
X119823541Y-136204653D01*
X119729939Y-136142110D01*
X119497904Y-136045998D01*
X119251577Y-135997000D01*
X119000423Y-135997000D01*
X118754096Y-136045998D01*
X118522061Y-136142110D01*
X118313235Y-136281643D01*
X118135643Y-136459235D01*
X117996110Y-136668061D01*
X117899998Y-136900096D01*
X117851000Y-137146423D01*
X117851000Y-137397577D01*
X117899998Y-137643904D01*
X117996110Y-137875939D01*
X118135643Y-138084765D01*
X118313235Y-138262357D01*
X118401000Y-138321000D01*
X118401001Y-141388000D01*
X103223405Y-141388000D01*
X100521682Y-138686278D01*
X100580713Y-138693395D01*
X100860596Y-138671980D01*
X101130922Y-138596374D01*
X101381305Y-138469483D01*
X101433233Y-138434786D01*
X101531468Y-138216723D01*
X100611940Y-137297195D01*
X100597798Y-137311338D01*
X100562443Y-137275983D01*
X100576585Y-137261840D01*
X99657057Y-136342312D01*
X99438994Y-136440547D01*
X99344036Y-136609246D01*
X99334759Y-136586849D01*
X99178810Y-136353455D01*
X99132312Y-136306957D01*
X99692412Y-136306957D01*
X100611940Y-137226485D01*
X101531468Y-136306957D01*
X101433233Y-136088894D01*
X101188622Y-135951206D01*
X100921849Y-135863884D01*
X100643167Y-135830285D01*
X100363284Y-135851700D01*
X100092958Y-135927306D01*
X99842575Y-136054197D01*
X99790647Y-136088894D01*
X99692412Y-136306957D01*
X99132312Y-136306957D01*
X98980325Y-136154970D01*
X98746931Y-135999021D01*
X98487597Y-135891602D01*
X98212290Y-135836840D01*
X97931590Y-135836840D01*
X97656283Y-135891602D01*
X97396949Y-135999021D01*
X97163555Y-136154970D01*
X96965070Y-136353455D01*
X96809121Y-136586849D01*
X96701702Y-136846183D01*
X96646940Y-137121490D01*
X92124000Y-137121490D01*
X92124000Y-103911641D01*
X94006940Y-103911641D01*
X94006940Y-104212039D01*
X94065545Y-104506666D01*
X94180502Y-104784198D01*
X94347395Y-105033971D01*
X94559809Y-105246385D01*
X94809582Y-105413278D01*
X95087114Y-105528235D01*
X95381741Y-105586840D01*
X95682139Y-105586840D01*
X95976766Y-105528235D01*
X96254298Y-105413278D01*
X96504071Y-105246385D01*
X96716485Y-105033971D01*
X96883378Y-104784198D01*
X96998335Y-104506666D01*
X97056940Y-104212039D01*
X97056940Y-103911641D01*
X96998335Y-103617014D01*
X96883378Y-103339482D01*
X96716485Y-103089709D01*
X96504071Y-102877295D01*
X96254298Y-102710402D01*
X95976766Y-102595445D01*
X95682139Y-102536840D01*
X95381741Y-102536840D01*
X95087114Y-102595445D01*
X94809582Y-102710402D01*
X94559809Y-102877295D01*
X94347395Y-103089709D01*
X94180502Y-103339482D01*
X94065545Y-103617014D01*
X94006940Y-103911641D01*
X92124000Y-103911641D01*
X92124000Y-91458288D01*
X96743940Y-91458288D01*
X96743940Y-91691712D01*
X96789479Y-91920652D01*
X96878806Y-92136308D01*
X97008490Y-92330394D01*
X97173546Y-92495450D01*
X97367632Y-92625134D01*
X97583288Y-92714461D01*
X97812228Y-92760000D01*
X98045652Y-92760000D01*
X98274592Y-92714461D01*
X98490248Y-92625134D01*
X98684334Y-92495450D01*
X98849390Y-92330394D01*
X98979074Y-92136308D01*
X99068401Y-91920652D01*
X99113940Y-91691712D01*
X99113940Y-91458288D01*
X99068401Y-91229348D01*
X98979074Y-91013692D01*
X98849390Y-90819606D01*
X98684334Y-90654550D01*
X98490248Y-90524866D01*
X98274592Y-90435539D01*
X98045652Y-90390000D01*
X97812228Y-90390000D01*
X97583288Y-90435539D01*
X97367632Y-90524866D01*
X97173546Y-90654550D01*
X97008490Y-90819606D01*
X96878806Y-91013692D01*
X96789479Y-91229348D01*
X96743940Y-91458288D01*
X92124000Y-91458288D01*
X92124000Y-88918288D01*
X98013940Y-88918288D01*
X98013940Y-89151712D01*
X98059479Y-89380652D01*
X98148806Y-89596308D01*
X98278490Y-89790394D01*
X98443546Y-89955450D01*
X98637632Y-90085134D01*
X98853288Y-90174461D01*
X99082228Y-90220000D01*
X99315652Y-90220000D01*
X99544592Y-90174461D01*
X99760248Y-90085134D01*
X99789295Y-90065725D01*
X100153166Y-90429596D01*
X100123288Y-90435539D01*
X99907632Y-90524866D01*
X99713546Y-90654550D01*
X99548490Y-90819606D01*
X99418806Y-91013692D01*
X99329479Y-91229348D01*
X99283940Y-91458288D01*
X99283940Y-91691712D01*
X99329479Y-91920652D01*
X99418806Y-92136308D01*
X99548490Y-92330394D01*
X99713546Y-92495450D01*
X99907632Y-92625134D01*
X100036941Y-92678695D01*
X100036940Y-102649365D01*
X99889582Y-102710402D01*
X99639809Y-102877295D01*
X99427395Y-103089709D01*
X99260502Y-103339482D01*
X99145545Y-103617014D01*
X99086940Y-103911641D01*
X99086940Y-104212039D01*
X99145545Y-104506666D01*
X99260502Y-104784198D01*
X99427395Y-105033971D01*
X99639809Y-105246385D01*
X99889582Y-105413278D01*
X100167114Y-105528235D01*
X100461741Y-105586840D01*
X100762139Y-105586840D01*
X101056766Y-105528235D01*
X101334298Y-105413278D01*
X101584071Y-105246385D01*
X101796485Y-105033971D01*
X101963378Y-104784198D01*
X102078335Y-104506666D01*
X102136940Y-104212039D01*
X102136940Y-103911641D01*
X102078335Y-103617014D01*
X101963378Y-103339482D01*
X101796485Y-103089709D01*
X101584071Y-102877295D01*
X101334298Y-102710402D01*
X101186940Y-102649365D01*
X101186940Y-92520436D01*
X101224334Y-92495450D01*
X101389390Y-92330394D01*
X101519074Y-92136308D01*
X101608401Y-91920652D01*
X101614344Y-91890774D01*
X105116941Y-95393372D01*
X105116940Y-102649365D01*
X104969582Y-102710402D01*
X104719809Y-102877295D01*
X104507395Y-103089709D01*
X104340502Y-103339482D01*
X104225545Y-103617014D01*
X104166940Y-103911641D01*
X104166940Y-104212039D01*
X104225545Y-104506666D01*
X104340502Y-104784198D01*
X104507395Y-105033971D01*
X104719809Y-105246385D01*
X104969582Y-105413278D01*
X105247114Y-105528235D01*
X105541741Y-105586840D01*
X105842139Y-105586840D01*
X106136766Y-105528235D01*
X106414298Y-105413278D01*
X106664071Y-105246385D01*
X106876485Y-105033971D01*
X107043378Y-104784198D01*
X107158335Y-104506666D01*
X107216940Y-104212039D01*
X107216940Y-103921801D01*
X115061000Y-103921801D01*
X115061000Y-104222199D01*
X115119605Y-104516826D01*
X115234562Y-104794358D01*
X115401455Y-105044131D01*
X115613869Y-105256545D01*
X115863642Y-105423438D01*
X116141174Y-105538395D01*
X116435801Y-105597000D01*
X116736199Y-105597000D01*
X117030826Y-105538395D01*
X117308358Y-105423438D01*
X117558131Y-105256545D01*
X117770545Y-105044131D01*
X117937438Y-104794358D01*
X118052395Y-104516826D01*
X118111000Y-104222199D01*
X118111000Y-103921801D01*
X118052395Y-103627174D01*
X117937438Y-103349642D01*
X117770545Y-103099869D01*
X117558131Y-102887455D01*
X117308358Y-102720562D01*
X117030826Y-102605605D01*
X116736199Y-102547000D01*
X116435801Y-102547000D01*
X116141174Y-102605605D01*
X115863642Y-102720562D01*
X115613869Y-102887455D01*
X115401455Y-103099869D01*
X115234562Y-103349642D01*
X115119605Y-103627174D01*
X115061000Y-103921801D01*
X107216940Y-103921801D01*
X107216940Y-103911641D01*
X107158335Y-103617014D01*
X107043378Y-103339482D01*
X106876485Y-103089709D01*
X106664071Y-102877295D01*
X106414298Y-102710402D01*
X106266940Y-102649365D01*
X106266940Y-95183440D01*
X106269722Y-95155197D01*
X106266940Y-95126952D01*
X106258620Y-95042478D01*
X106225741Y-94934090D01*
X106216067Y-94915992D01*
X106172348Y-94834199D01*
X106118499Y-94768584D01*
X106100494Y-94746644D01*
X106078552Y-94728637D01*
X101556925Y-90207010D01*
X101622228Y-90220000D01*
X101855652Y-90220000D01*
X102084592Y-90174461D01*
X102300248Y-90085134D01*
X102494334Y-89955450D01*
X102659390Y-89790394D01*
X102789074Y-89596308D01*
X102878401Y-89380652D01*
X102923940Y-89151712D01*
X102923940Y-88918288D01*
X102878401Y-88689348D01*
X102789074Y-88473692D01*
X102659390Y-88279606D01*
X102494334Y-88114550D01*
X102300248Y-87984866D01*
X102084592Y-87895539D01*
X101855652Y-87850000D01*
X101622228Y-87850000D01*
X101393288Y-87895539D01*
X101177632Y-87984866D01*
X100983546Y-88114550D01*
X100818490Y-88279606D01*
X100688806Y-88473692D01*
X100599479Y-88689348D01*
X100553940Y-88918288D01*
X100553940Y-89151712D01*
X100566930Y-89217016D01*
X100383940Y-89034026D01*
X100383940Y-88918288D01*
X100338401Y-88689348D01*
X100249074Y-88473692D01*
X100119390Y-88279606D01*
X99954334Y-88114550D01*
X99760248Y-87984866D01*
X99544592Y-87895539D01*
X99315652Y-87850000D01*
X99082228Y-87850000D01*
X98853288Y-87895539D01*
X98637632Y-87984866D01*
X98443546Y-88114550D01*
X98278490Y-88279606D01*
X98148806Y-88473692D01*
X98059479Y-88689348D01*
X98013940Y-88918288D01*
X92124000Y-88918288D01*
X92124000Y-82485555D01*
X92733940Y-82485555D01*
X92733940Y-82884445D01*
X92811760Y-83275671D01*
X92964408Y-83644197D01*
X93186020Y-83975862D01*
X93468078Y-84257920D01*
X93799743Y-84479532D01*
X94168269Y-84632180D01*
X94559495Y-84710000D01*
X94958385Y-84710000D01*
X95349611Y-84632180D01*
X95718137Y-84479532D01*
X96049802Y-84257920D01*
X96331860Y-83975862D01*
X96553472Y-83644197D01*
X96706120Y-83275671D01*
X96783940Y-82884445D01*
X96783940Y-82485555D01*
X102893940Y-82485555D01*
X102893940Y-82884445D01*
X102971760Y-83275671D01*
X103124408Y-83644197D01*
X103346020Y-83975862D01*
X103628078Y-84257920D01*
X103959743Y-84479532D01*
X104328269Y-84632180D01*
X104719495Y-84710000D01*
X105118385Y-84710000D01*
X105509611Y-84632180D01*
X105878137Y-84479532D01*
X106209802Y-84257920D01*
X106491860Y-83975862D01*
X106713472Y-83644197D01*
X106866120Y-83275671D01*
X106943940Y-82884445D01*
X106943940Y-82485555D01*
X106866120Y-82094329D01*
X106713472Y-81725803D01*
X106491860Y-81394138D01*
X106209802Y-81112080D01*
X105878137Y-80890468D01*
X105509611Y-80737820D01*
X105118385Y-80660000D01*
X104719495Y-80660000D01*
X104328269Y-80737820D01*
X103959743Y-80890468D01*
X103628078Y-81112080D01*
X103346020Y-81394138D01*
X103124408Y-81725803D01*
X102971760Y-82094329D01*
X102893940Y-82485555D01*
X96783940Y-82485555D01*
X96706120Y-82094329D01*
X96553472Y-81725803D01*
X96331860Y-81394138D01*
X96049802Y-81112080D01*
X95718137Y-80890468D01*
X95349611Y-80737820D01*
X94958385Y-80660000D01*
X94559495Y-80660000D01*
X94168269Y-80737820D01*
X93799743Y-80890468D01*
X93468078Y-81112080D01*
X93186020Y-81394138D01*
X92964408Y-81725803D01*
X92811760Y-82094329D01*
X92733940Y-82485555D01*
X92124000Y-82485555D01*
X92124000Y-77935102D01*
X114687000Y-77935102D01*
X114687000Y-78274898D01*
X114753290Y-78608164D01*
X114883324Y-78922094D01*
X115072105Y-79204624D01*
X115312376Y-79444895D01*
X115594906Y-79633676D01*
X115687000Y-79671823D01*
X115687001Y-88034944D01*
X115259000Y-88034944D01*
X115175686Y-88043150D01*
X115095573Y-88067452D01*
X115021740Y-88106916D01*
X114957026Y-88160026D01*
X114903916Y-88224740D01*
X114864452Y-88298573D01*
X114840150Y-88378686D01*
X114831944Y-88462000D01*
X114831944Y-90862000D01*
X114840150Y-90945314D01*
X114864452Y-91025427D01*
X114903916Y-91099260D01*
X114957026Y-91163974D01*
X115021740Y-91217084D01*
X115095573Y-91256548D01*
X115175686Y-91280850D01*
X115259000Y-91289056D01*
X115734000Y-91289056D01*
X115734001Y-98829393D01*
X115730494Y-98865000D01*
X115744492Y-99007124D01*
X115785947Y-99143787D01*
X115853269Y-99269736D01*
X115921170Y-99352474D01*
X115921173Y-99352477D01*
X115943869Y-99380132D01*
X115971523Y-99402827D01*
X120198985Y-103630290D01*
X120141000Y-103921801D01*
X120141000Y-104222199D01*
X120199605Y-104516826D01*
X120314562Y-104794358D01*
X120481455Y-105044131D01*
X120693869Y-105256545D01*
X120943642Y-105423438D01*
X121221174Y-105538395D01*
X121515801Y-105597000D01*
X121816199Y-105597000D01*
X122110826Y-105538395D01*
X122388358Y-105423438D01*
X122638131Y-105256545D01*
X122850545Y-105044131D01*
X123017438Y-104794358D01*
X123132395Y-104516826D01*
X123191000Y-104222199D01*
X123191000Y-103921801D01*
X125221000Y-103921801D01*
X125221000Y-104222199D01*
X125279605Y-104516826D01*
X125394562Y-104794358D01*
X125561455Y-105044131D01*
X125773869Y-105256545D01*
X126023642Y-105423438D01*
X126301174Y-105538395D01*
X126595801Y-105597000D01*
X126896199Y-105597000D01*
X127190826Y-105538395D01*
X127468358Y-105423438D01*
X127718131Y-105256545D01*
X127930545Y-105044131D01*
X128095673Y-104797000D01*
X129064403Y-104797000D01*
X129100000Y-104800506D01*
X129135597Y-104797000D01*
X129135607Y-104797000D01*
X129242125Y-104786509D01*
X129378788Y-104745053D01*
X129504737Y-104677731D01*
X129615132Y-104587132D01*
X129637832Y-104559472D01*
X131597135Y-102600170D01*
X131673651Y-102623381D01*
X131883003Y-102644000D01*
X131883012Y-102644000D01*
X131952999Y-102650893D01*
X132022986Y-102644000D01*
X136622480Y-102644000D01*
X136437642Y-102720562D01*
X136187869Y-102887455D01*
X135975455Y-103099869D01*
X135808562Y-103349642D01*
X135693605Y-103627174D01*
X135635000Y-103921801D01*
X135635000Y-104222199D01*
X135693605Y-104516826D01*
X135808562Y-104794358D01*
X135975455Y-105044131D01*
X136187869Y-105256545D01*
X136437642Y-105423438D01*
X136715174Y-105538395D01*
X137009801Y-105597000D01*
X137310199Y-105597000D01*
X137604826Y-105538395D01*
X137882358Y-105423438D01*
X138132131Y-105256545D01*
X138344545Y-105044131D01*
X138511438Y-104794358D01*
X138626395Y-104516826D01*
X138685000Y-104222199D01*
X138685000Y-103921801D01*
X138626395Y-103627174D01*
X138511438Y-103349642D01*
X138344545Y-103099869D01*
X138132131Y-102887455D01*
X137882358Y-102720562D01*
X137697520Y-102644000D01*
X138796747Y-102644000D01*
X140847167Y-104694422D01*
X140888562Y-104794358D01*
X141055455Y-105044131D01*
X141267869Y-105256545D01*
X141517642Y-105423438D01*
X141795174Y-105538395D01*
X142089801Y-105597000D01*
X142390199Y-105597000D01*
X142684826Y-105538395D01*
X142962358Y-105423438D01*
X143212131Y-105256545D01*
X143424545Y-105044131D01*
X143591438Y-104794358D01*
X143706395Y-104516826D01*
X143765000Y-104222199D01*
X143765000Y-103921801D01*
X143706395Y-103627174D01*
X143591438Y-103349642D01*
X143424545Y-103099869D01*
X143212131Y-102887455D01*
X142962358Y-102720562D01*
X142862422Y-102679167D01*
X140444128Y-100260875D01*
X140399502Y-100206498D01*
X140182518Y-100028424D01*
X139934962Y-99896102D01*
X139666349Y-99814619D01*
X139456997Y-99794000D01*
X139456994Y-99794000D01*
X139387000Y-99787106D01*
X139317006Y-99794000D01*
X132543254Y-99794000D01*
X130156000Y-97406747D01*
X130156000Y-84910700D01*
X137554964Y-84910700D01*
X137554964Y-86660700D01*
X137579983Y-86914719D01*
X137654077Y-87158975D01*
X137774400Y-87384084D01*
X137936327Y-87581393D01*
X138133636Y-87743320D01*
X138358745Y-87863643D01*
X138603001Y-87937737D01*
X138857020Y-87962756D01*
X140607020Y-87962756D01*
X140861039Y-87937737D01*
X141105295Y-87863643D01*
X141330404Y-87743320D01*
X141527713Y-87581393D01*
X141689640Y-87384084D01*
X141809963Y-87158975D01*
X141847357Y-87035700D01*
X142254964Y-87035700D01*
X142254964Y-90535700D01*
X142263170Y-90619014D01*
X142287472Y-90699127D01*
X142326936Y-90772960D01*
X142380046Y-90837674D01*
X142444760Y-90890784D01*
X142518593Y-90930248D01*
X142598706Y-90954550D01*
X142682020Y-90962756D01*
X143007020Y-90962756D01*
X143007021Y-94324016D01*
X143000126Y-94394020D01*
X143019283Y-94588518D01*
X143027640Y-94673369D01*
X143076427Y-94834199D01*
X143109123Y-94941982D01*
X143241444Y-95189537D01*
X143268003Y-95221899D01*
X143419519Y-95406522D01*
X143473890Y-95451143D01*
X158722000Y-110699254D01*
X158722001Y-112742235D01*
X158680605Y-112842174D01*
X158622000Y-113136801D01*
X158622000Y-113437199D01*
X158680605Y-113731826D01*
X158795562Y-114009358D01*
X158962455Y-114259131D01*
X159174869Y-114471545D01*
X159424642Y-114638438D01*
X159702174Y-114753395D01*
X159996801Y-114812000D01*
X160297199Y-114812000D01*
X160591826Y-114753395D01*
X160869358Y-114638438D01*
X161119131Y-114471545D01*
X161331545Y-114259131D01*
X161498438Y-114009358D01*
X161613395Y-113731826D01*
X161672000Y-113437199D01*
X161672000Y-113136801D01*
X161613395Y-112842174D01*
X161572000Y-112742237D01*
X161572000Y-110178994D01*
X161578894Y-110109000D01*
X161570195Y-110020680D01*
X161551381Y-109829651D01*
X161469898Y-109561038D01*
X161393977Y-109419000D01*
X161337577Y-109313482D01*
X161204122Y-109150868D01*
X161204119Y-109150865D01*
X161159501Y-109096498D01*
X161105135Y-109051881D01*
X149197254Y-97144000D01*
X172408944Y-97144000D01*
X172408944Y-98944000D01*
X172417150Y-99027314D01*
X172441452Y-99107427D01*
X172480916Y-99181260D01*
X172534026Y-99245974D01*
X172598740Y-99299084D01*
X172672573Y-99338548D01*
X172752686Y-99362850D01*
X172836000Y-99371056D01*
X173201914Y-99371056D01*
X173108377Y-99409800D01*
X172891362Y-99554805D01*
X172706805Y-99739362D01*
X172561800Y-99956377D01*
X172461919Y-100197512D01*
X172411000Y-100453499D01*
X172411000Y-100714501D01*
X172461919Y-100970488D01*
X172561800Y-101211623D01*
X172706805Y-101428638D01*
X172891362Y-101613195D01*
X173108377Y-101758200D01*
X173339660Y-101854000D01*
X173108377Y-101949800D01*
X172891362Y-102094805D01*
X172706805Y-102279362D01*
X172561800Y-102496377D01*
X172461919Y-102737512D01*
X172411000Y-102993499D01*
X172411000Y-103254501D01*
X172461919Y-103510488D01*
X172561800Y-103751623D01*
X172706805Y-103968638D01*
X172891362Y-104153195D01*
X173108377Y-104298200D01*
X173349512Y-104398081D01*
X173359586Y-104400085D01*
X173254022Y-104429770D01*
X173022497Y-104547515D01*
X172818391Y-104708165D01*
X172649548Y-104905548D01*
X172522457Y-105132078D01*
X172442002Y-105379049D01*
X172431457Y-105432069D01*
X172517506Y-105639000D01*
X173711000Y-105639000D01*
X173711000Y-105619000D01*
X173761000Y-105619000D01*
X173761000Y-105639000D01*
X174954494Y-105639000D01*
X175040543Y-105432069D01*
X175029998Y-105379049D01*
X174949543Y-105132078D01*
X174822452Y-104905548D01*
X174653609Y-104708165D01*
X174449503Y-104547515D01*
X174217978Y-104429770D01*
X174112414Y-104400085D01*
X174122488Y-104398081D01*
X174363623Y-104298200D01*
X174580638Y-104153195D01*
X174765195Y-103968638D01*
X174910200Y-103751623D01*
X175010081Y-103510488D01*
X175061000Y-103254501D01*
X175061000Y-102993499D01*
X175010081Y-102737512D01*
X174910200Y-102496377D01*
X174765195Y-102279362D01*
X174580638Y-102094805D01*
X174363623Y-101949800D01*
X174132340Y-101854000D01*
X174363623Y-101758200D01*
X174580638Y-101613195D01*
X174765195Y-101428638D01*
X174910200Y-101211623D01*
X175010081Y-100970488D01*
X175061000Y-100714501D01*
X175061000Y-100453499D01*
X175010081Y-100197512D01*
X174910200Y-99956377D01*
X174765195Y-99739362D01*
X174580638Y-99554805D01*
X174363623Y-99409800D01*
X174270086Y-99371056D01*
X174636000Y-99371056D01*
X174719314Y-99362850D01*
X174799427Y-99338548D01*
X174873260Y-99299084D01*
X174937974Y-99245974D01*
X174991084Y-99181260D01*
X175030548Y-99107427D01*
X175054850Y-99027314D01*
X175063056Y-98944000D01*
X175063056Y-97144000D01*
X175054850Y-97060686D01*
X175030548Y-96980573D01*
X174991084Y-96906740D01*
X174937974Y-96842026D01*
X174873260Y-96788916D01*
X174799427Y-96749452D01*
X174719314Y-96725150D01*
X174636000Y-96716944D01*
X172836000Y-96716944D01*
X172752686Y-96725150D01*
X172672573Y-96749452D01*
X172598740Y-96788916D01*
X172534026Y-96842026D01*
X172480916Y-96906740D01*
X172441452Y-96980573D01*
X172417150Y-97060686D01*
X172408944Y-97144000D01*
X149197254Y-97144000D01*
X145857020Y-93803767D01*
X145857020Y-90962756D01*
X146182020Y-90962756D01*
X146265334Y-90954550D01*
X146345447Y-90930248D01*
X146419280Y-90890784D01*
X146483994Y-90837674D01*
X146537104Y-90772960D01*
X146576568Y-90699127D01*
X146600870Y-90619014D01*
X146609076Y-90535700D01*
X146609076Y-87035700D01*
X146600870Y-86952386D01*
X146576568Y-86872273D01*
X146537104Y-86798440D01*
X146483994Y-86733726D01*
X146419280Y-86680616D01*
X146345447Y-86641152D01*
X146265334Y-86616850D01*
X146182020Y-86608644D01*
X142682020Y-86608644D01*
X142598706Y-86616850D01*
X142518593Y-86641152D01*
X142444760Y-86680616D01*
X142380046Y-86733726D01*
X142326936Y-86798440D01*
X142287472Y-86872273D01*
X142263170Y-86952386D01*
X142254964Y-87035700D01*
X141847357Y-87035700D01*
X141884057Y-86914719D01*
X141909076Y-86660700D01*
X141909076Y-84910700D01*
X141884057Y-84656681D01*
X141809963Y-84412425D01*
X141742228Y-84285700D01*
X142254964Y-84285700D01*
X142263170Y-84369014D01*
X142287472Y-84449127D01*
X142326936Y-84522960D01*
X142380046Y-84587674D01*
X142444760Y-84640784D01*
X142518593Y-84680248D01*
X142598706Y-84704550D01*
X142682020Y-84712756D01*
X144300770Y-84710700D01*
X144407020Y-84604450D01*
X144407020Y-82810700D01*
X144457020Y-82810700D01*
X144457020Y-84604450D01*
X144563270Y-84710700D01*
X146182020Y-84712756D01*
X146265334Y-84704550D01*
X146345447Y-84680248D01*
X146419280Y-84640784D01*
X146483994Y-84587674D01*
X146537104Y-84522960D01*
X146576568Y-84449127D01*
X146600870Y-84369014D01*
X146609076Y-84285700D01*
X146607020Y-82916950D01*
X146500770Y-82810700D01*
X144457020Y-82810700D01*
X144407020Y-82810700D01*
X142363270Y-82810700D01*
X142257020Y-82916950D01*
X142254964Y-84285700D01*
X141742228Y-84285700D01*
X141689640Y-84187316D01*
X141527713Y-83990007D01*
X141330404Y-83828080D01*
X141105295Y-83707757D01*
X140861039Y-83633663D01*
X140607020Y-83608644D01*
X138857020Y-83608644D01*
X138603001Y-83633663D01*
X138358745Y-83707757D01*
X138133636Y-83828080D01*
X137936327Y-83990007D01*
X137774400Y-84187316D01*
X137654077Y-84412425D01*
X137579983Y-84656681D01*
X137554964Y-84910700D01*
X130156000Y-84910700D01*
X130156000Y-81285700D01*
X142254964Y-81285700D01*
X142257020Y-82654450D01*
X142363270Y-82760700D01*
X144407020Y-82760700D01*
X144407020Y-80966950D01*
X144457020Y-80966950D01*
X144457020Y-82760700D01*
X146500770Y-82760700D01*
X146607020Y-82654450D01*
X146609076Y-81285700D01*
X146600870Y-81202386D01*
X146576568Y-81122273D01*
X146537104Y-81048440D01*
X146483994Y-80983726D01*
X146419280Y-80930616D01*
X146345447Y-80891152D01*
X146265334Y-80866850D01*
X146182020Y-80858644D01*
X144563270Y-80860700D01*
X144457020Y-80966950D01*
X144407020Y-80966950D01*
X144300770Y-80860700D01*
X142682020Y-80858644D01*
X142598706Y-80866850D01*
X142518593Y-80891152D01*
X142444760Y-80930616D01*
X142380046Y-80983726D01*
X142326936Y-81048440D01*
X142287472Y-81122273D01*
X142263170Y-81202386D01*
X142254964Y-81285700D01*
X130156000Y-81285700D01*
X130156000Y-79405000D01*
X132003944Y-79405000D01*
X132012150Y-79488314D01*
X132036452Y-79568427D01*
X132075916Y-79642260D01*
X132129026Y-79706974D01*
X132193740Y-79760084D01*
X132267573Y-79799548D01*
X132347686Y-79823850D01*
X132431000Y-79832056D01*
X133599750Y-79830000D01*
X133706000Y-79723750D01*
X133706000Y-78130000D01*
X133756000Y-78130000D01*
X133756000Y-79723750D01*
X133862250Y-79830000D01*
X135031000Y-79832056D01*
X135114314Y-79823850D01*
X135194427Y-79799548D01*
X135268260Y-79760084D01*
X135332974Y-79706974D01*
X135386084Y-79642260D01*
X135425548Y-79568427D01*
X135449850Y-79488314D01*
X135458056Y-79405000D01*
X135456000Y-78236250D01*
X135349750Y-78130000D01*
X133756000Y-78130000D01*
X133706000Y-78130000D01*
X132112250Y-78130000D01*
X132006000Y-78236250D01*
X132003944Y-79405000D01*
X130156000Y-79405000D01*
X130156000Y-79077256D01*
X130259676Y-78922094D01*
X130389710Y-78608164D01*
X130456000Y-78274898D01*
X130456000Y-77935102D01*
X130389710Y-77601836D01*
X130259676Y-77287906D01*
X130070895Y-77005376D01*
X129870519Y-76805000D01*
X132003944Y-76805000D01*
X132006000Y-77973750D01*
X132112250Y-78080000D01*
X133706000Y-78080000D01*
X133706000Y-76486250D01*
X133756000Y-76486250D01*
X133756000Y-78080000D01*
X135349750Y-78080000D01*
X135456000Y-77973750D01*
X135458056Y-76805000D01*
X135449850Y-76721686D01*
X135425548Y-76641573D01*
X135386084Y-76567740D01*
X135332974Y-76503026D01*
X135268260Y-76449916D01*
X135194427Y-76410452D01*
X135114314Y-76386150D01*
X135031000Y-76377944D01*
X133862250Y-76380000D01*
X133756000Y-76486250D01*
X133706000Y-76486250D01*
X133599750Y-76380000D01*
X132431000Y-76377944D01*
X132347686Y-76386150D01*
X132267573Y-76410452D01*
X132193740Y-76449916D01*
X132129026Y-76503026D01*
X132075916Y-76567740D01*
X132036452Y-76641573D01*
X132012150Y-76721686D01*
X132003944Y-76805000D01*
X129870519Y-76805000D01*
X129830624Y-76765105D01*
X129548094Y-76576324D01*
X129234164Y-76446290D01*
X128900898Y-76380000D01*
X128561102Y-76380000D01*
X128227836Y-76446290D01*
X127913906Y-76576324D01*
X127631376Y-76765105D01*
X127391105Y-77005376D01*
X127202324Y-77287906D01*
X127072290Y-77601836D01*
X127006000Y-77935102D01*
X127006000Y-78274898D01*
X127072290Y-78608164D01*
X127202324Y-78922094D01*
X127306001Y-79077257D01*
X127306000Y-97927006D01*
X127299106Y-97997000D01*
X127306000Y-98066994D01*
X127306000Y-98066996D01*
X127326619Y-98276348D01*
X127408102Y-98544961D01*
X127540424Y-98792517D01*
X127718498Y-99009501D01*
X127772871Y-99054124D01*
X130432721Y-101713975D01*
X128799696Y-103347000D01*
X128095673Y-103347000D01*
X127930545Y-103099869D01*
X127718131Y-102887455D01*
X127468358Y-102720562D01*
X127190826Y-102605605D01*
X126896199Y-102547000D01*
X126595801Y-102547000D01*
X126301174Y-102605605D01*
X126023642Y-102720562D01*
X125773869Y-102887455D01*
X125561455Y-103099869D01*
X125394562Y-103349642D01*
X125279605Y-103627174D01*
X125221000Y-103921801D01*
X123191000Y-103921801D01*
X123132395Y-103627174D01*
X123017438Y-103349642D01*
X122850545Y-103099869D01*
X122638131Y-102887455D01*
X122388358Y-102720562D01*
X122110826Y-102605605D01*
X121816199Y-102547000D01*
X121515801Y-102547000D01*
X121224290Y-102604985D01*
X117184000Y-98564696D01*
X117184000Y-91289056D01*
X117659000Y-91289056D01*
X117742314Y-91280850D01*
X117822427Y-91256548D01*
X117896260Y-91217084D01*
X117960974Y-91163974D01*
X118014084Y-91099260D01*
X118053548Y-91025427D01*
X118077850Y-90945314D01*
X118086056Y-90862000D01*
X118086056Y-89940868D01*
X119938107Y-89940868D01*
X119953248Y-90016994D01*
X120052974Y-90319538D01*
X120209807Y-90596813D01*
X120417720Y-90838164D01*
X120668723Y-91034315D01*
X120953171Y-91177729D01*
X121260132Y-91262894D01*
X121514000Y-91180559D01*
X121514000Y-89687000D01*
X121564000Y-89687000D01*
X121564000Y-91180559D01*
X121817868Y-91262894D01*
X122124829Y-91177729D01*
X122409277Y-91034315D01*
X122660280Y-90838164D01*
X122868193Y-90596813D01*
X123025026Y-90319538D01*
X123124752Y-90016994D01*
X123139893Y-89940868D01*
X123057544Y-89687000D01*
X121564000Y-89687000D01*
X121514000Y-89687000D01*
X120020456Y-89687000D01*
X119938107Y-89940868D01*
X118086056Y-89940868D01*
X118086056Y-89383132D01*
X119938107Y-89383132D01*
X120020456Y-89637000D01*
X121514000Y-89637000D01*
X121514000Y-88143441D01*
X121564000Y-88143441D01*
X121564000Y-89637000D01*
X123057544Y-89637000D01*
X123139893Y-89383132D01*
X123124752Y-89307006D01*
X123025026Y-89004462D01*
X122868193Y-88727187D01*
X122660280Y-88485836D01*
X122409277Y-88289685D01*
X122124829Y-88146271D01*
X121817868Y-88061106D01*
X121564000Y-88143441D01*
X121514000Y-88143441D01*
X121260132Y-88061106D01*
X120953171Y-88146271D01*
X120668723Y-88289685D01*
X120417720Y-88485836D01*
X120209807Y-88727187D01*
X120052974Y-89004462D01*
X119953248Y-89307006D01*
X119938107Y-89383132D01*
X118086056Y-89383132D01*
X118086056Y-88462000D01*
X118077850Y-88378686D01*
X118053548Y-88298573D01*
X118014084Y-88224740D01*
X117960974Y-88160026D01*
X117896260Y-88106916D01*
X117822427Y-88067452D01*
X117742314Y-88043150D01*
X117659000Y-88034944D01*
X117137000Y-88034944D01*
X117137000Y-79671823D01*
X117229094Y-79633676D01*
X117511624Y-79444895D01*
X117551519Y-79405000D01*
X119684944Y-79405000D01*
X119693150Y-79488314D01*
X119717452Y-79568427D01*
X119756916Y-79642260D01*
X119810026Y-79706974D01*
X119874740Y-79760084D01*
X119948573Y-79799548D01*
X120028686Y-79823850D01*
X120112000Y-79832056D01*
X121280750Y-79830000D01*
X121387000Y-79723750D01*
X121387000Y-78130000D01*
X121437000Y-78130000D01*
X121437000Y-79723750D01*
X121543250Y-79830000D01*
X122712000Y-79832056D01*
X122795314Y-79823850D01*
X122875427Y-79799548D01*
X122949260Y-79760084D01*
X123013974Y-79706974D01*
X123067084Y-79642260D01*
X123106548Y-79568427D01*
X123130850Y-79488314D01*
X123139056Y-79405000D01*
X123137000Y-78236250D01*
X123030750Y-78130000D01*
X121437000Y-78130000D01*
X121387000Y-78130000D01*
X119793250Y-78130000D01*
X119687000Y-78236250D01*
X119684944Y-79405000D01*
X117551519Y-79405000D01*
X117751895Y-79204624D01*
X117940676Y-78922094D01*
X118070710Y-78608164D01*
X118137000Y-78274898D01*
X118137000Y-77935102D01*
X118070710Y-77601836D01*
X117940676Y-77287906D01*
X117751895Y-77005376D01*
X117551519Y-76805000D01*
X119684944Y-76805000D01*
X119687000Y-77973750D01*
X119793250Y-78080000D01*
X121387000Y-78080000D01*
X121387000Y-76486250D01*
X121437000Y-76486250D01*
X121437000Y-78080000D01*
X123030750Y-78080000D01*
X123137000Y-77973750D01*
X123139056Y-76805000D01*
X123130850Y-76721686D01*
X123106548Y-76641573D01*
X123067084Y-76567740D01*
X123013974Y-76503026D01*
X122949260Y-76449916D01*
X122875427Y-76410452D01*
X122795314Y-76386150D01*
X122712000Y-76377944D01*
X121543250Y-76380000D01*
X121437000Y-76486250D01*
X121387000Y-76486250D01*
X121280750Y-76380000D01*
X120112000Y-76377944D01*
X120028686Y-76386150D01*
X119948573Y-76410452D01*
X119874740Y-76449916D01*
X119810026Y-76503026D01*
X119756916Y-76567740D01*
X119717452Y-76641573D01*
X119693150Y-76721686D01*
X119684944Y-76805000D01*
X117551519Y-76805000D01*
X117511624Y-76765105D01*
X117229094Y-76576324D01*
X116915164Y-76446290D01*
X116581898Y-76380000D01*
X116242102Y-76380000D01*
X115908836Y-76446290D01*
X115594906Y-76576324D01*
X115312376Y-76765105D01*
X115072105Y-77005376D01*
X114883324Y-77287906D01*
X114753290Y-77601836D01*
X114687000Y-77935102D01*
X92124000Y-77935102D01*
X92124000Y-75278000D01*
X223426000Y-75278000D01*
X223426001Y-143162000D01*
G36*
X203836440Y-87208945D02*
G01*
X203836441Y-90850000D01*
X201346759Y-90850000D01*
X201326450Y-90819606D01*
X201161394Y-90654550D01*
X200967308Y-90524866D01*
X200751652Y-90435539D01*
X200522712Y-90390000D01*
X200289288Y-90390000D01*
X200060348Y-90435539D01*
X199844692Y-90524866D01*
X199650606Y-90654550D01*
X199485550Y-90819606D01*
X199355866Y-91013692D01*
X199266539Y-91229348D01*
X199221000Y-91458288D01*
X199221000Y-91691712D01*
X199266539Y-91920652D01*
X199355866Y-92136308D01*
X199485550Y-92330394D01*
X199650606Y-92495450D01*
X199844692Y-92625134D01*
X200060348Y-92714461D01*
X200289288Y-92760000D01*
X200522712Y-92760000D01*
X200751652Y-92714461D01*
X200967308Y-92625134D01*
X201161394Y-92495450D01*
X201326450Y-92330394D01*
X201346759Y-92300000D01*
X203836440Y-92300000D01*
X203836441Y-93666994D01*
X192564436Y-104939000D01*
X190085135Y-104939000D01*
X190005195Y-104819362D01*
X189820638Y-104634805D01*
X189603623Y-104489800D01*
X189372340Y-104394000D01*
X189603623Y-104298200D01*
X189820638Y-104153195D01*
X190005195Y-103968638D01*
X190150200Y-103751623D01*
X190250081Y-103510488D01*
X190301000Y-103254501D01*
X190301000Y-102993499D01*
X190250081Y-102737512D01*
X190150200Y-102496377D01*
X190005195Y-102279362D01*
X189820638Y-102094805D01*
X189603623Y-101949800D01*
X189362488Y-101849919D01*
X189352414Y-101847915D01*
X189457978Y-101818230D01*
X189689503Y-101700485D01*
X189893609Y-101539835D01*
X190062452Y-101342452D01*
X190189543Y-101115922D01*
X190269998Y-100868951D01*
X190280543Y-100815931D01*
X190194494Y-100609000D01*
X189001000Y-100609000D01*
X189001000Y-100629000D01*
X188951000Y-100629000D01*
X188951000Y-100609000D01*
X187757506Y-100609000D01*
X187671457Y-100815931D01*
X187682002Y-100868951D01*
X187762457Y-101115922D01*
X187889548Y-101342452D01*
X188058391Y-101539835D01*
X188262497Y-101700485D01*
X188494022Y-101818230D01*
X188599586Y-101847915D01*
X188589512Y-101849919D01*
X188348377Y-101949800D01*
X188131362Y-102094805D01*
X187946805Y-102279362D01*
X187801800Y-102496377D01*
X187701919Y-102737512D01*
X187651000Y-102993499D01*
X187651000Y-103254501D01*
X187701919Y-103510488D01*
X187801800Y-103751623D01*
X187946805Y-103968638D01*
X188131362Y-104153195D01*
X188348377Y-104298200D01*
X188579660Y-104394000D01*
X188348377Y-104489800D01*
X188131362Y-104634805D01*
X187946805Y-104819362D01*
X187801800Y-105036377D01*
X187701919Y-105277512D01*
X187651000Y-105533499D01*
X187651000Y-105794501D01*
X187701919Y-106050488D01*
X187801800Y-106291623D01*
X187946805Y-106508638D01*
X188131362Y-106693195D01*
X188348377Y-106838200D01*
X188589512Y-106938081D01*
X188825287Y-106984980D01*
X188618681Y-107026076D01*
X188395745Y-107118419D01*
X188195108Y-107252481D01*
X188024481Y-107423108D01*
X187890419Y-107623745D01*
X187798076Y-107846681D01*
X187751000Y-108083348D01*
X187751000Y-108324652D01*
X187798076Y-108561319D01*
X187890419Y-108784255D01*
X188024481Y-108984892D01*
X188195108Y-109155519D01*
X188395745Y-109289581D01*
X188618681Y-109381924D01*
X188855348Y-109429000D01*
X189096652Y-109429000D01*
X189333319Y-109381924D01*
X189556255Y-109289581D01*
X189756892Y-109155519D01*
X189927519Y-108984892D01*
X190061581Y-108784255D01*
X190153924Y-108561319D01*
X190201000Y-108324652D01*
X190201000Y-108083348D01*
X190159026Y-107872330D01*
X216445000Y-134158305D01*
X216445001Y-137066865D01*
X216325362Y-137146805D01*
X216140805Y-137331362D01*
X215995800Y-137548377D01*
X215896987Y-137786935D01*
X215870245Y-137691804D01*
X215751952Y-137459148D01*
X215721639Y-137413780D01*
X215513817Y-137327538D01*
X214665355Y-138176000D01*
X215513817Y-139024462D01*
X215721639Y-138938220D01*
X215849365Y-138710607D01*
X215896878Y-138564802D01*
X215995800Y-138803623D01*
X216140805Y-139020638D01*
X216325362Y-139205195D01*
X216445001Y-139285135D01*
X216445001Y-139907694D01*
X214964696Y-141388000D01*
X160872000Y-141388000D01*
X160872000Y-138336000D01*
X160959765Y-138277357D01*
X161137357Y-138099765D01*
X161276890Y-137890939D01*
X161373002Y-137658904D01*
X161417000Y-137437713D01*
X161460998Y-137658904D01*
X161557110Y-137890939D01*
X161696643Y-138099765D01*
X161874235Y-138277357D01*
X162083061Y-138416890D01*
X162315096Y-138513002D01*
X162561423Y-138562000D01*
X162812577Y-138562000D01*
X163058904Y-138513002D01*
X163290939Y-138416890D01*
X163499765Y-138277357D01*
X163641839Y-138135283D01*
X164414073Y-138135283D01*
X164494316Y-138337985D01*
X164713432Y-138460730D01*
X164952283Y-138538370D01*
X165201692Y-138567919D01*
X165452074Y-138548244D01*
X165693805Y-138480100D01*
X165917597Y-138366106D01*
X165959684Y-138337985D01*
X166039927Y-138135283D01*
X165227000Y-137322355D01*
X164414073Y-138135283D01*
X163641839Y-138135283D01*
X163677357Y-138099765D01*
X163816890Y-137890939D01*
X163913002Y-137658904D01*
X163959088Y-137427217D01*
X163965756Y-137512074D01*
X164033900Y-137753805D01*
X164147894Y-137977597D01*
X164176015Y-138019684D01*
X164378717Y-138099927D01*
X165191645Y-137287000D01*
X165262355Y-137287000D01*
X166075283Y-138099927D01*
X166277985Y-138019684D01*
X166400730Y-137800568D01*
X166478370Y-137561717D01*
X166507919Y-137312308D01*
X166488244Y-137061926D01*
X166420100Y-136820195D01*
X166306106Y-136596403D01*
X166277985Y-136554316D01*
X166075283Y-136474073D01*
X165262355Y-137287000D01*
X165191645Y-137287000D01*
X164378717Y-136474073D01*
X164176015Y-136554316D01*
X164053270Y-136773432D01*
X163975630Y-137012283D01*
X163959468Y-137148696D01*
X163913002Y-136915096D01*
X163816890Y-136683061D01*
X163677357Y-136474235D01*
X163641839Y-136438717D01*
X164414073Y-136438717D01*
X165227000Y-137251645D01*
X166039927Y-136438717D01*
X165959684Y-136236015D01*
X165740568Y-136113270D01*
X165501717Y-136035630D01*
X165252308Y-136006081D01*
X165001926Y-136025756D01*
X164760195Y-136093900D01*
X164536403Y-136207894D01*
X164494316Y-136236015D01*
X164414073Y-136438717D01*
X163641839Y-136438717D01*
X163499765Y-136296643D01*
X163290939Y-136157110D01*
X163262000Y-136145123D01*
X163262000Y-135410242D01*
X163264782Y-135381999D01*
X163262000Y-135353754D01*
X163253680Y-135269280D01*
X163220801Y-135160892D01*
X163167408Y-135061001D01*
X163113559Y-134995386D01*
X163095554Y-134973446D01*
X163073612Y-134955439D01*
X159811565Y-131693393D01*
X159793554Y-131671446D01*
X159705998Y-131599592D01*
X159606108Y-131546199D01*
X159497720Y-131513320D01*
X159413246Y-131505000D01*
X159413243Y-131505000D01*
X159385000Y-131502218D01*
X159356757Y-131505000D01*
X132235243Y-131505000D01*
X132207000Y-131502218D01*
X132178757Y-131505000D01*
X132178754Y-131505000D01*
X132094280Y-131513320D01*
X131991796Y-131544408D01*
X131985892Y-131546199D01*
X131886001Y-131599592D01*
X131849902Y-131629218D01*
X131798446Y-131671446D01*
X131780439Y-131693388D01*
X124856828Y-138617000D01*
X123936173Y-138617000D01*
X123805209Y-138486037D01*
X123834096Y-138498002D01*
X124080423Y-138547000D01*
X124331577Y-138547000D01*
X124577904Y-138498002D01*
X124809939Y-138401890D01*
X125018765Y-138262357D01*
X125196357Y-138084765D01*
X125335890Y-137875939D01*
X125432002Y-137643904D01*
X125481000Y-137397577D01*
X125481000Y-137146423D01*
X125432002Y-136900096D01*
X125420015Y-136871157D01*
X131541173Y-130750000D01*
X156816757Y-130750000D01*
X156845000Y-130752782D01*
X156873243Y-130750000D01*
X156873246Y-130750000D01*
X156957720Y-130741680D01*
X157066108Y-130708801D01*
X157165998Y-130655408D01*
X157253554Y-130583554D01*
X157271566Y-130561606D01*
X172508770Y-115324403D01*
X172461919Y-115437512D01*
X172411000Y-115693499D01*
X172411000Y-115954501D01*
X172461919Y-116210488D01*
X172483716Y-116263111D01*
X170301389Y-118445439D01*
X170279447Y-118463446D01*
X170261441Y-118485387D01*
X170207592Y-118551002D01*
X170154199Y-118650893D01*
X170121321Y-118759281D01*
X170110218Y-118872000D01*
X170113001Y-118900253D01*
X170113000Y-131416757D01*
X170110218Y-131445000D01*
X170113000Y-131473243D01*
X170113000Y-131473245D01*
X170121320Y-131557719D01*
X170145976Y-131639000D01*
X170154199Y-131666107D01*
X170207592Y-131765998D01*
X170232287Y-131796089D01*
X170279446Y-131853554D01*
X170301393Y-131871565D01*
X171150439Y-132720612D01*
X171168446Y-132742554D01*
X171190386Y-132760559D01*
X171256001Y-132814408D01*
X171319375Y-132848282D01*
X171355892Y-132867801D01*
X171464280Y-132900680D01*
X171548754Y-132909000D01*
X171548757Y-132909000D01*
X171577000Y-132911782D01*
X171605243Y-132909000D01*
X172606820Y-132909000D01*
X172561800Y-132976377D01*
X172461919Y-133217512D01*
X172411000Y-133473499D01*
X172411000Y-133734501D01*
X172461919Y-133990488D01*
X172561800Y-134231623D01*
X172706805Y-134448638D01*
X172891362Y-134633195D01*
X173108377Y-134778200D01*
X173349512Y-134878081D01*
X173605499Y-134929000D01*
X173866501Y-134929000D01*
X174122488Y-134878081D01*
X174175112Y-134856284D01*
X179405439Y-140086612D01*
X179423446Y-140108554D01*
X179445386Y-140126559D01*
X179511001Y-140180408D01*
X179562622Y-140208000D01*
X179610892Y-140233801D01*
X179719280Y-140266680D01*
X179803754Y-140275000D01*
X179803757Y-140275000D01*
X179832000Y-140277782D01*
X179860243Y-140275000D01*
X207997757Y-140275000D01*
X208026000Y-140277782D01*
X208054243Y-140275000D01*
X208054246Y-140275000D01*
X208138720Y-140266680D01*
X208247108Y-140233801D01*
X208346998Y-140180408D01*
X208434554Y-140108554D01*
X208452565Y-140086607D01*
X209110889Y-139428284D01*
X209163512Y-139450081D01*
X209419499Y-139501000D01*
X209680501Y-139501000D01*
X209936488Y-139450081D01*
X210177623Y-139350200D01*
X210394638Y-139205195D01*
X210579195Y-139020638D01*
X210724200Y-138803623D01*
X210820000Y-138572340D01*
X210915800Y-138803623D01*
X211060805Y-139020638D01*
X211245362Y-139205195D01*
X211462377Y-139350200D01*
X211703512Y-139450081D01*
X211959499Y-139501000D01*
X212220501Y-139501000D01*
X212476488Y-139450081D01*
X212717623Y-139350200D01*
X212934638Y-139205195D01*
X213080016Y-139059817D01*
X213781538Y-139059817D01*
X213867780Y-139267639D01*
X214095393Y-139395365D01*
X214343552Y-139476231D01*
X214602718Y-139507131D01*
X214862933Y-139486876D01*
X215114196Y-139416245D01*
X215346852Y-139297952D01*
X215392220Y-139267639D01*
X215478462Y-139059817D01*
X214630000Y-138211355D01*
X213781538Y-139059817D01*
X213080016Y-139059817D01*
X213119195Y-139020638D01*
X213264200Y-138803623D01*
X213363013Y-138565065D01*
X213389755Y-138660196D01*
X213508048Y-138892852D01*
X213538361Y-138938220D01*
X213746183Y-139024462D01*
X214594645Y-138176000D01*
X213746183Y-137327538D01*
X213538361Y-137413780D01*
X213410635Y-137641393D01*
X213363122Y-137787198D01*
X213264200Y-137548377D01*
X213119195Y-137331362D01*
X213080016Y-137292183D01*
X213781538Y-137292183D01*
X214630000Y-138140645D01*
X215478462Y-137292183D01*
X215392220Y-137084361D01*
X215164607Y-136956635D01*
X214916448Y-136875769D01*
X214657282Y-136844869D01*
X214397067Y-136865124D01*
X214145804Y-136935755D01*
X213913148Y-137054048D01*
X213867780Y-137084361D01*
X213781538Y-137292183D01*
X213080016Y-137292183D01*
X212934638Y-137146805D01*
X212717623Y-137001800D01*
X212476488Y-136901919D01*
X212220501Y-136851000D01*
X211959499Y-136851000D01*
X211703512Y-136901919D01*
X211650888Y-136923716D01*
X211616564Y-136889392D01*
X211616560Y-136889387D01*
X204134566Y-129407394D01*
X204116554Y-129385446D01*
X204028998Y-129313592D01*
X203929108Y-129260199D01*
X203820720Y-129227320D01*
X203736246Y-129219000D01*
X203736243Y-129219000D01*
X203708000Y-129216218D01*
X203679757Y-129219000D01*
X190105180Y-129219000D01*
X190150200Y-129151623D01*
X190250081Y-128910488D01*
X190301000Y-128654501D01*
X190301000Y-128393499D01*
X190250081Y-128137512D01*
X190150200Y-127896377D01*
X190005195Y-127679362D01*
X189820638Y-127494805D01*
X189603623Y-127349800D01*
X189362488Y-127249919D01*
X189254858Y-127228510D01*
X189347904Y-127210002D01*
X189579939Y-127113890D01*
X189788765Y-126974357D01*
X189966357Y-126796765D01*
X190105890Y-126587939D01*
X190202002Y-126355904D01*
X190251000Y-126109577D01*
X190251000Y-125858423D01*
X190202002Y-125612096D01*
X190105890Y-125380061D01*
X189966357Y-125171235D01*
X189788765Y-124993643D01*
X189579939Y-124854110D01*
X189347904Y-124757998D01*
X189101577Y-124709000D01*
X188850423Y-124709000D01*
X188604096Y-124757998D01*
X188372061Y-124854110D01*
X188163235Y-124993643D01*
X187985643Y-125171235D01*
X187846110Y-125380061D01*
X187834123Y-125409000D01*
X187436173Y-125409000D01*
X185350521Y-123323348D01*
X187751000Y-123323348D01*
X187751000Y-123564652D01*
X187798076Y-123801319D01*
X187890419Y-124024255D01*
X188024481Y-124224892D01*
X188195108Y-124395519D01*
X188395745Y-124529581D01*
X188618681Y-124621924D01*
X188855348Y-124669000D01*
X189096652Y-124669000D01*
X189333319Y-124621924D01*
X189556255Y-124529581D01*
X189756892Y-124395519D01*
X189927519Y-124224892D01*
X190061581Y-124024255D01*
X190153924Y-123801319D01*
X190201000Y-123564652D01*
X190201000Y-123323348D01*
X190153924Y-123086681D01*
X190061581Y-122863745D01*
X189927519Y-122663108D01*
X189756892Y-122492481D01*
X189556255Y-122358419D01*
X189333319Y-122266076D01*
X189096652Y-122219000D01*
X188855348Y-122219000D01*
X188618681Y-122266076D01*
X188395745Y-122358419D01*
X188195108Y-122492481D01*
X188024481Y-122663108D01*
X187890419Y-122863745D01*
X187798076Y-123086681D01*
X187751000Y-123323348D01*
X185350521Y-123323348D01*
X183963000Y-121935828D01*
X183963000Y-97266172D01*
X190505606Y-90723566D01*
X190527554Y-90705554D01*
X190579085Y-90642762D01*
X190599408Y-90617999D01*
X190618006Y-90583204D01*
X190652801Y-90518108D01*
X190685680Y-90409720D01*
X190694000Y-90325246D01*
X190694000Y-90325244D01*
X190696782Y-90297001D01*
X190694000Y-90268758D01*
X190694000Y-84142240D01*
X190696782Y-84113997D01*
X190694000Y-84085752D01*
X190685680Y-84001278D01*
X190652801Y-83892890D01*
X190616897Y-83825719D01*
X190599408Y-83792999D01*
X190545559Y-83727384D01*
X190527554Y-83705444D01*
X190505613Y-83687438D01*
X190144566Y-83326392D01*
X190126555Y-83304445D01*
X190038999Y-83232591D01*
X189939109Y-83179198D01*
X189830721Y-83146319D01*
X189746247Y-83137999D01*
X189746244Y-83137999D01*
X189718001Y-83135217D01*
X189689758Y-83137999D01*
X189586137Y-83137999D01*
X189687365Y-82957607D01*
X189768231Y-82709448D01*
X189799131Y-82450282D01*
X189778876Y-82190067D01*
X189708245Y-81938804D01*
X189611231Y-81747999D01*
X190281827Y-81747999D01*
X191195000Y-82661173D01*
X191195001Y-90566826D01*
X185160394Y-96601434D01*
X185138446Y-96619446D01*
X185093592Y-96674103D01*
X185066592Y-96707002D01*
X185063114Y-96713509D01*
X185013199Y-96806893D01*
X184980320Y-96915281D01*
X184973503Y-96984499D01*
X184969218Y-97028000D01*
X184972000Y-97056243D01*
X184972001Y-118970747D01*
X184969218Y-118999000D01*
X184978488Y-119093107D01*
X184980032Y-119108780D01*
X184980321Y-119111719D01*
X185013199Y-119220107D01*
X185066592Y-119319998D01*
X185112441Y-119375865D01*
X185138447Y-119407554D01*
X185160389Y-119425561D01*
X187025439Y-121290612D01*
X187043446Y-121312554D01*
X187065386Y-121330559D01*
X187131001Y-121384408D01*
X187230892Y-121437801D01*
X187339280Y-121470680D01*
X187423754Y-121479000D01*
X187423757Y-121479000D01*
X187452000Y-121481782D01*
X187480243Y-121479000D01*
X187834123Y-121479000D01*
X187846110Y-121507939D01*
X187985643Y-121716765D01*
X188163235Y-121894357D01*
X188372061Y-122033890D01*
X188604096Y-122130002D01*
X188850423Y-122179000D01*
X189101577Y-122179000D01*
X189347904Y-122130002D01*
X189579939Y-122033890D01*
X189788765Y-121894357D01*
X189966357Y-121716765D01*
X190105890Y-121507939D01*
X190202002Y-121275904D01*
X190251000Y-121029577D01*
X190251000Y-120778423D01*
X190202002Y-120532096D01*
X190105890Y-120300061D01*
X189966357Y-120091235D01*
X189788765Y-119913643D01*
X189579939Y-119774110D01*
X189347904Y-119677998D01*
X189254858Y-119659490D01*
X189362488Y-119638081D01*
X189603623Y-119538200D01*
X189820638Y-119393195D01*
X190005195Y-119208638D01*
X190150200Y-118991623D01*
X190250081Y-118750488D01*
X190301000Y-118494501D01*
X190301000Y-118233499D01*
X190250081Y-117977512D01*
X190150200Y-117736377D01*
X190005195Y-117519362D01*
X189820638Y-117334805D01*
X189603623Y-117189800D01*
X189362488Y-117089919D01*
X189254858Y-117068510D01*
X189347904Y-117050002D01*
X189579939Y-116953890D01*
X189788765Y-116814357D01*
X189966357Y-116636765D01*
X190105890Y-116427939D01*
X190202002Y-116195904D01*
X190251000Y-115949577D01*
X190251000Y-115698423D01*
X190202002Y-115452096D01*
X190105890Y-115220061D01*
X189966357Y-115011235D01*
X189788765Y-114833643D01*
X189579939Y-114694110D01*
X189347904Y-114597998D01*
X189101577Y-114549000D01*
X188850423Y-114549000D01*
X188604096Y-114597998D01*
X188575157Y-114609985D01*
X188211935Y-114246763D01*
X188395745Y-114369581D01*
X188618681Y-114461924D01*
X188855348Y-114509000D01*
X189096652Y-114509000D01*
X189333319Y-114461924D01*
X189556255Y-114369581D01*
X189756892Y-114235519D01*
X189927519Y-114064892D01*
X190061581Y-113864255D01*
X190153924Y-113641319D01*
X190201000Y-113404652D01*
X190201000Y-113163348D01*
X190153924Y-112926681D01*
X190061581Y-112703745D01*
X189927519Y-112503108D01*
X189756892Y-112332481D01*
X189556255Y-112198419D01*
X189333319Y-112106076D01*
X189096652Y-112059000D01*
X188855348Y-112059000D01*
X188618681Y-112106076D01*
X188395745Y-112198419D01*
X188195108Y-112332481D01*
X188024481Y-112503108D01*
X187890419Y-112703745D01*
X187798076Y-112926681D01*
X187751000Y-113163348D01*
X187751000Y-113404652D01*
X187798076Y-113641319D01*
X187890419Y-113864255D01*
X188013238Y-114048065D01*
X187138000Y-113172828D01*
X187138000Y-110623348D01*
X187751000Y-110623348D01*
X187751000Y-110864652D01*
X187798076Y-111101319D01*
X187890419Y-111324255D01*
X188024481Y-111524892D01*
X188195108Y-111695519D01*
X188395745Y-111829581D01*
X188618681Y-111921924D01*
X188855348Y-111969000D01*
X189096652Y-111969000D01*
X189333319Y-111921924D01*
X189556255Y-111829581D01*
X189756892Y-111695519D01*
X189927519Y-111524892D01*
X190061581Y-111324255D01*
X190153924Y-111101319D01*
X190201000Y-110864652D01*
X190201000Y-110623348D01*
X190153924Y-110386681D01*
X190061581Y-110163745D01*
X189927519Y-109963108D01*
X189756892Y-109792481D01*
X189556255Y-109658419D01*
X189333319Y-109566076D01*
X189096652Y-109519000D01*
X188855348Y-109519000D01*
X188618681Y-109566076D01*
X188395745Y-109658419D01*
X188195108Y-109792481D01*
X188024481Y-109963108D01*
X187890419Y-110163745D01*
X187798076Y-110386681D01*
X187751000Y-110623348D01*
X187138000Y-110623348D01*
X187138000Y-97913499D01*
X187651000Y-97913499D01*
X187651000Y-98174501D01*
X187701919Y-98430488D01*
X187801800Y-98671623D01*
X187946805Y-98888638D01*
X188131362Y-99073195D01*
X188348377Y-99218200D01*
X188589512Y-99318081D01*
X188599586Y-99320085D01*
X188494022Y-99349770D01*
X188262497Y-99467515D01*
X188058391Y-99628165D01*
X187889548Y-99825548D01*
X187762457Y-100052078D01*
X187682002Y-100299049D01*
X187671457Y-100352069D01*
X187757506Y-100559000D01*
X188951000Y-100559000D01*
X188951000Y-100539000D01*
X189001000Y-100539000D01*
X189001000Y-100559000D01*
X190194494Y-100559000D01*
X190280543Y-100352069D01*
X190269998Y-100299049D01*
X190189543Y-100052078D01*
X190062452Y-99825548D01*
X189893609Y-99628165D01*
X189689503Y-99467515D01*
X189457978Y-99349770D01*
X189352414Y-99320085D01*
X189362488Y-99318081D01*
X189603623Y-99218200D01*
X189820638Y-99073195D01*
X190005195Y-98888638D01*
X190150200Y-98671623D01*
X190250081Y-98430488D01*
X190301000Y-98174501D01*
X190301000Y-97913499D01*
X190250081Y-97657512D01*
X190150200Y-97416377D01*
X190005195Y-97199362D01*
X189820638Y-97014805D01*
X189603623Y-96869800D01*
X189362488Y-96769919D01*
X189106501Y-96719000D01*
X188845499Y-96719000D01*
X188589512Y-96769919D01*
X188348377Y-96869800D01*
X188131362Y-97014805D01*
X187946805Y-97199362D01*
X187801800Y-97416377D01*
X187701919Y-97657512D01*
X187651000Y-97913499D01*
X187138000Y-97913499D01*
X187138000Y-97338294D01*
X193018006Y-91458288D01*
X196681000Y-91458288D01*
X196681000Y-91691712D01*
X196726539Y-91920652D01*
X196815866Y-92136308D01*
X196945550Y-92330394D01*
X197110606Y-92495450D01*
X197304692Y-92625134D01*
X197520348Y-92714461D01*
X197749288Y-92760000D01*
X197982712Y-92760000D01*
X198211652Y-92714461D01*
X198427308Y-92625134D01*
X198621394Y-92495450D01*
X198786450Y-92330394D01*
X198916134Y-92136308D01*
X199005461Y-91920652D01*
X199051000Y-91691712D01*
X199051000Y-91458288D01*
X199005461Y-91229348D01*
X198916134Y-91013692D01*
X198786450Y-90819606D01*
X198621394Y-90654550D01*
X198427308Y-90524866D01*
X198211652Y-90435539D01*
X197982712Y-90390000D01*
X197749288Y-90390000D01*
X197520348Y-90435539D01*
X197304692Y-90524866D01*
X197110606Y-90654550D01*
X196945550Y-90819606D01*
X196815866Y-91013692D01*
X196726539Y-91229348D01*
X196681000Y-91458288D01*
X193018006Y-91458288D01*
X194866295Y-89610000D01*
X198095015Y-89610000D01*
X198215550Y-89790394D01*
X198380606Y-89955450D01*
X198574692Y-90085134D01*
X198790348Y-90174461D01*
X199019288Y-90220000D01*
X199252712Y-90220000D01*
X199481652Y-90174461D01*
X199697308Y-90085134D01*
X199891394Y-89955450D01*
X200027524Y-89819320D01*
X200927035Y-89819320D01*
X200996484Y-90012806D01*
X201200301Y-90126585D01*
X201422399Y-90198414D01*
X201654242Y-90225534D01*
X201886922Y-90206903D01*
X202111496Y-90143236D01*
X202319335Y-90036981D01*
X202355516Y-90012806D01*
X202424965Y-89819320D01*
X201676000Y-89070355D01*
X200927035Y-89819320D01*
X200027524Y-89819320D01*
X200056450Y-89790394D01*
X200186134Y-89596308D01*
X200275461Y-89380652D01*
X200321000Y-89151712D01*
X200321000Y-89013242D01*
X200485466Y-89013242D01*
X200504097Y-89245922D01*
X200567764Y-89470496D01*
X200674019Y-89678335D01*
X200698194Y-89714516D01*
X200891680Y-89783965D01*
X201640645Y-89035000D01*
X201711355Y-89035000D01*
X202460320Y-89783965D01*
X202653806Y-89714516D01*
X202767585Y-89510699D01*
X202839414Y-89288601D01*
X202866534Y-89056758D01*
X202847903Y-88824078D01*
X202784236Y-88599504D01*
X202677981Y-88391665D01*
X202653806Y-88355484D01*
X202460320Y-88286035D01*
X201711355Y-89035000D01*
X201640645Y-89035000D01*
X200891680Y-88286035D01*
X200698194Y-88355484D01*
X200584415Y-88559301D01*
X200512586Y-88781399D01*
X200485466Y-89013242D01*
X200321000Y-89013242D01*
X200321000Y-88918288D01*
X200275461Y-88689348D01*
X200186134Y-88473692D01*
X200056450Y-88279606D01*
X200027524Y-88250680D01*
X200927035Y-88250680D01*
X201676000Y-88999645D01*
X202424965Y-88250680D01*
X202355516Y-88057194D01*
X202151699Y-87943415D01*
X201929601Y-87871586D01*
X201697758Y-87844466D01*
X201465078Y-87863097D01*
X201240504Y-87926764D01*
X201032665Y-88033019D01*
X200996484Y-88057194D01*
X200927035Y-88250680D01*
X200027524Y-88250680D01*
X199891394Y-88114550D01*
X199697308Y-87984866D01*
X199481652Y-87895539D01*
X199252712Y-87850000D01*
X199019288Y-87850000D01*
X198790348Y-87895539D01*
X198574692Y-87984866D01*
X198380606Y-88114550D01*
X198215550Y-88279606D01*
X198095015Y-88460000D01*
X194656365Y-88460000D01*
X194628122Y-88457218D01*
X194599879Y-88460000D01*
X194599876Y-88460000D01*
X194515402Y-88468320D01*
X194407014Y-88501199D01*
X194307123Y-88554592D01*
X194261275Y-88592218D01*
X194219568Y-88626446D01*
X194201561Y-88648388D01*
X192345000Y-90504949D01*
X192345000Y-82485555D01*
X192671000Y-82485555D01*
X192671000Y-82884445D01*
X192748820Y-83275671D01*
X192901468Y-83644197D01*
X193123080Y-83975862D01*
X193405138Y-84257920D01*
X193736803Y-84479532D01*
X194105329Y-84632180D01*
X194496555Y-84710000D01*
X194895445Y-84710000D01*
X195286671Y-84632180D01*
X195655197Y-84479532D01*
X195986862Y-84257920D01*
X196268920Y-83975862D01*
X196490532Y-83644197D01*
X196643180Y-83275671D01*
X196721000Y-82884445D01*
X196721000Y-82485555D01*
X196643180Y-82094329D01*
X196490532Y-81725803D01*
X196268920Y-81394138D01*
X195986862Y-81112080D01*
X195655197Y-80890468D01*
X195286671Y-80737820D01*
X194895445Y-80660000D01*
X194496555Y-80660000D01*
X194105329Y-80737820D01*
X193736803Y-80890468D01*
X193405138Y-81112080D01*
X193123080Y-81394138D01*
X192901468Y-81725803D01*
X192748820Y-82094329D01*
X192671000Y-82485555D01*
X192345000Y-82485555D01*
X192345000Y-82451242D01*
X192347782Y-82422999D01*
X192344300Y-82387645D01*
X192336680Y-82310280D01*
X192303801Y-82201892D01*
X192250409Y-82102003D01*
X192250408Y-82102001D01*
X192196559Y-82036386D01*
X192178554Y-82014446D01*
X192156613Y-81996440D01*
X190946564Y-80786392D01*
X190928553Y-80764445D01*
X190840997Y-80692591D01*
X190741107Y-80639198D01*
X190638261Y-80608000D01*
X197235496Y-80608000D01*
X203836440Y-87208945D01*
G37*
X203836440Y-87208945D02*
X203836441Y-90850000D01*
X201346759Y-90850000D01*
X201326450Y-90819606D01*
X201161394Y-90654550D01*
X200967308Y-90524866D01*
X200751652Y-90435539D01*
X200522712Y-90390000D01*
X200289288Y-90390000D01*
X200060348Y-90435539D01*
X199844692Y-90524866D01*
X199650606Y-90654550D01*
X199485550Y-90819606D01*
X199355866Y-91013692D01*
X199266539Y-91229348D01*
X199221000Y-91458288D01*
X199221000Y-91691712D01*
X199266539Y-91920652D01*
X199355866Y-92136308D01*
X199485550Y-92330394D01*
X199650606Y-92495450D01*
X199844692Y-92625134D01*
X200060348Y-92714461D01*
X200289288Y-92760000D01*
X200522712Y-92760000D01*
X200751652Y-92714461D01*
X200967308Y-92625134D01*
X201161394Y-92495450D01*
X201326450Y-92330394D01*
X201346759Y-92300000D01*
X203836440Y-92300000D01*
X203836441Y-93666994D01*
X192564436Y-104939000D01*
X190085135Y-104939000D01*
X190005195Y-104819362D01*
X189820638Y-104634805D01*
X189603623Y-104489800D01*
X189372340Y-104394000D01*
X189603623Y-104298200D01*
X189820638Y-104153195D01*
X190005195Y-103968638D01*
X190150200Y-103751623D01*
X190250081Y-103510488D01*
X190301000Y-103254501D01*
X190301000Y-102993499D01*
X190250081Y-102737512D01*
X190150200Y-102496377D01*
X190005195Y-102279362D01*
X189820638Y-102094805D01*
X189603623Y-101949800D01*
X189362488Y-101849919D01*
X189352414Y-101847915D01*
X189457978Y-101818230D01*
X189689503Y-101700485D01*
X189893609Y-101539835D01*
X190062452Y-101342452D01*
X190189543Y-101115922D01*
X190269998Y-100868951D01*
X190280543Y-100815931D01*
X190194494Y-100609000D01*
X189001000Y-100609000D01*
X189001000Y-100629000D01*
X188951000Y-100629000D01*
X188951000Y-100609000D01*
X187757506Y-100609000D01*
X187671457Y-100815931D01*
X187682002Y-100868951D01*
X187762457Y-101115922D01*
X187889548Y-101342452D01*
X188058391Y-101539835D01*
X188262497Y-101700485D01*
X188494022Y-101818230D01*
X188599586Y-101847915D01*
X188589512Y-101849919D01*
X188348377Y-101949800D01*
X188131362Y-102094805D01*
X187946805Y-102279362D01*
X187801800Y-102496377D01*
X187701919Y-102737512D01*
X187651000Y-102993499D01*
X187651000Y-103254501D01*
X187701919Y-103510488D01*
X187801800Y-103751623D01*
X187946805Y-103968638D01*
X188131362Y-104153195D01*
X188348377Y-104298200D01*
X188579660Y-104394000D01*
X188348377Y-104489800D01*
X188131362Y-104634805D01*
X187946805Y-104819362D01*
X187801800Y-105036377D01*
X187701919Y-105277512D01*
X187651000Y-105533499D01*
X187651000Y-105794501D01*
X187701919Y-106050488D01*
X187801800Y-106291623D01*
X187946805Y-106508638D01*
X188131362Y-106693195D01*
X188348377Y-106838200D01*
X188589512Y-106938081D01*
X188825287Y-106984980D01*
X188618681Y-107026076D01*
X188395745Y-107118419D01*
X188195108Y-107252481D01*
X188024481Y-107423108D01*
X187890419Y-107623745D01*
X187798076Y-107846681D01*
X187751000Y-108083348D01*
X187751000Y-108324652D01*
X187798076Y-108561319D01*
X187890419Y-108784255D01*
X188024481Y-108984892D01*
X188195108Y-109155519D01*
X188395745Y-109289581D01*
X188618681Y-109381924D01*
X188855348Y-109429000D01*
X189096652Y-109429000D01*
X189333319Y-109381924D01*
X189556255Y-109289581D01*
X189756892Y-109155519D01*
X189927519Y-108984892D01*
X190061581Y-108784255D01*
X190153924Y-108561319D01*
X190201000Y-108324652D01*
X190201000Y-108083348D01*
X190159026Y-107872330D01*
X216445000Y-134158305D01*
X216445001Y-137066865D01*
X216325362Y-137146805D01*
X216140805Y-137331362D01*
X215995800Y-137548377D01*
X215896987Y-137786935D01*
X215870245Y-137691804D01*
X215751952Y-137459148D01*
X215721639Y-137413780D01*
X215513817Y-137327538D01*
X214665355Y-138176000D01*
X215513817Y-139024462D01*
X215721639Y-138938220D01*
X215849365Y-138710607D01*
X215896878Y-138564802D01*
X215995800Y-138803623D01*
X216140805Y-139020638D01*
X216325362Y-139205195D01*
X216445001Y-139285135D01*
X216445001Y-139907694D01*
X214964696Y-141388000D01*
X160872000Y-141388000D01*
X160872000Y-138336000D01*
X160959765Y-138277357D01*
X161137357Y-138099765D01*
X161276890Y-137890939D01*
X161373002Y-137658904D01*
X161417000Y-137437713D01*
X161460998Y-137658904D01*
X161557110Y-137890939D01*
X161696643Y-138099765D01*
X161874235Y-138277357D01*
X162083061Y-138416890D01*
X162315096Y-138513002D01*
X162561423Y-138562000D01*
X162812577Y-138562000D01*
X163058904Y-138513002D01*
X163290939Y-138416890D01*
X163499765Y-138277357D01*
X163641839Y-138135283D01*
X164414073Y-138135283D01*
X164494316Y-138337985D01*
X164713432Y-138460730D01*
X164952283Y-138538370D01*
X165201692Y-138567919D01*
X165452074Y-138548244D01*
X165693805Y-138480100D01*
X165917597Y-138366106D01*
X165959684Y-138337985D01*
X166039927Y-138135283D01*
X165227000Y-137322355D01*
X164414073Y-138135283D01*
X163641839Y-138135283D01*
X163677357Y-138099765D01*
X163816890Y-137890939D01*
X163913002Y-137658904D01*
X163959088Y-137427217D01*
X163965756Y-137512074D01*
X164033900Y-137753805D01*
X164147894Y-137977597D01*
X164176015Y-138019684D01*
X164378717Y-138099927D01*
X165191645Y-137287000D01*
X165262355Y-137287000D01*
X166075283Y-138099927D01*
X166277985Y-138019684D01*
X166400730Y-137800568D01*
X166478370Y-137561717D01*
X166507919Y-137312308D01*
X166488244Y-137061926D01*
X166420100Y-136820195D01*
X166306106Y-136596403D01*
X166277985Y-136554316D01*
X166075283Y-136474073D01*
X165262355Y-137287000D01*
X165191645Y-137287000D01*
X164378717Y-136474073D01*
X164176015Y-136554316D01*
X164053270Y-136773432D01*
X163975630Y-137012283D01*
X163959468Y-137148696D01*
X163913002Y-136915096D01*
X163816890Y-136683061D01*
X163677357Y-136474235D01*
X163641839Y-136438717D01*
X164414073Y-136438717D01*
X165227000Y-137251645D01*
X166039927Y-136438717D01*
X165959684Y-136236015D01*
X165740568Y-136113270D01*
X165501717Y-136035630D01*
X165252308Y-136006081D01*
X165001926Y-136025756D01*
X164760195Y-136093900D01*
X164536403Y-136207894D01*
X164494316Y-136236015D01*
X164414073Y-136438717D01*
X163641839Y-136438717D01*
X163499765Y-136296643D01*
X163290939Y-136157110D01*
X163262000Y-136145123D01*
X163262000Y-135410242D01*
X163264782Y-135381999D01*
X163262000Y-135353754D01*
X163253680Y-135269280D01*
X163220801Y-135160892D01*
X163167408Y-135061001D01*
X163113559Y-134995386D01*
X163095554Y-134973446D01*
X163073612Y-134955439D01*
X159811565Y-131693393D01*
X159793554Y-131671446D01*
X159705998Y-131599592D01*
X159606108Y-131546199D01*
X159497720Y-131513320D01*
X159413246Y-131505000D01*
X159413243Y-131505000D01*
X159385000Y-131502218D01*
X159356757Y-131505000D01*
X132235243Y-131505000D01*
X132207000Y-131502218D01*
X132178757Y-131505000D01*
X132178754Y-131505000D01*
X132094280Y-131513320D01*
X131991796Y-131544408D01*
X131985892Y-131546199D01*
X131886001Y-131599592D01*
X131849902Y-131629218D01*
X131798446Y-131671446D01*
X131780439Y-131693388D01*
X124856828Y-138617000D01*
X123936173Y-138617000D01*
X123805209Y-138486037D01*
X123834096Y-138498002D01*
X124080423Y-138547000D01*
X124331577Y-138547000D01*
X124577904Y-138498002D01*
X124809939Y-138401890D01*
X125018765Y-138262357D01*
X125196357Y-138084765D01*
X125335890Y-137875939D01*
X125432002Y-137643904D01*
X125481000Y-137397577D01*
X125481000Y-137146423D01*
X125432002Y-136900096D01*
X125420015Y-136871157D01*
X131541173Y-130750000D01*
X156816757Y-130750000D01*
X156845000Y-130752782D01*
X156873243Y-130750000D01*
X156873246Y-130750000D01*
X156957720Y-130741680D01*
X157066108Y-130708801D01*
X157165998Y-130655408D01*
X157253554Y-130583554D01*
X157271566Y-130561606D01*
X172508770Y-115324403D01*
X172461919Y-115437512D01*
X172411000Y-115693499D01*
X172411000Y-115954501D01*
X172461919Y-116210488D01*
X172483716Y-116263111D01*
X170301389Y-118445439D01*
X170279447Y-118463446D01*
X170261441Y-118485387D01*
X170207592Y-118551002D01*
X170154199Y-118650893D01*
X170121321Y-118759281D01*
X170110218Y-118872000D01*
X170113001Y-118900253D01*
X170113000Y-131416757D01*
X170110218Y-131445000D01*
X170113000Y-131473243D01*
X170113000Y-131473245D01*
X170121320Y-131557719D01*
X170145976Y-131639000D01*
X170154199Y-131666107D01*
X170207592Y-131765998D01*
X170232287Y-131796089D01*
X170279446Y-131853554D01*
X170301393Y-131871565D01*
X171150439Y-132720612D01*
X171168446Y-132742554D01*
X171190386Y-132760559D01*
X171256001Y-132814408D01*
X171319375Y-132848282D01*
X171355892Y-132867801D01*
X171464280Y-132900680D01*
X171548754Y-132909000D01*
X171548757Y-132909000D01*
X171577000Y-132911782D01*
X171605243Y-132909000D01*
X172606820Y-132909000D01*
X172561800Y-132976377D01*
X172461919Y-133217512D01*
X172411000Y-133473499D01*
X172411000Y-133734501D01*
X172461919Y-133990488D01*
X172561800Y-134231623D01*
X172706805Y-134448638D01*
X172891362Y-134633195D01*
X173108377Y-134778200D01*
X173349512Y-134878081D01*
X173605499Y-134929000D01*
X173866501Y-134929000D01*
X174122488Y-134878081D01*
X174175112Y-134856284D01*
X179405439Y-140086612D01*
X179423446Y-140108554D01*
X179445386Y-140126559D01*
X179511001Y-140180408D01*
X179562622Y-140208000D01*
X179610892Y-140233801D01*
X179719280Y-140266680D01*
X179803754Y-140275000D01*
X179803757Y-140275000D01*
X179832000Y-140277782D01*
X179860243Y-140275000D01*
X207997757Y-140275000D01*
X208026000Y-140277782D01*
X208054243Y-140275000D01*
X208054246Y-140275000D01*
X208138720Y-140266680D01*
X208247108Y-140233801D01*
X208346998Y-140180408D01*
X208434554Y-140108554D01*
X208452565Y-140086607D01*
X209110889Y-139428284D01*
X209163512Y-139450081D01*
X209419499Y-139501000D01*
X209680501Y-139501000D01*
X209936488Y-139450081D01*
X210177623Y-139350200D01*
X210394638Y-139205195D01*
X210579195Y-139020638D01*
X210724200Y-138803623D01*
X210820000Y-138572340D01*
X210915800Y-138803623D01*
X211060805Y-139020638D01*
X211245362Y-139205195D01*
X211462377Y-139350200D01*
X211703512Y-139450081D01*
X211959499Y-139501000D01*
X212220501Y-139501000D01*
X212476488Y-139450081D01*
X212717623Y-139350200D01*
X212934638Y-139205195D01*
X213080016Y-139059817D01*
X213781538Y-139059817D01*
X213867780Y-139267639D01*
X214095393Y-139395365D01*
X214343552Y-139476231D01*
X214602718Y-139507131D01*
X214862933Y-139486876D01*
X215114196Y-139416245D01*
X215346852Y-139297952D01*
X215392220Y-139267639D01*
X215478462Y-139059817D01*
X214630000Y-138211355D01*
X213781538Y-139059817D01*
X213080016Y-139059817D01*
X213119195Y-139020638D01*
X213264200Y-138803623D01*
X213363013Y-138565065D01*
X213389755Y-138660196D01*
X213508048Y-138892852D01*
X213538361Y-138938220D01*
X213746183Y-139024462D01*
X214594645Y-138176000D01*
X213746183Y-137327538D01*
X213538361Y-137413780D01*
X213410635Y-137641393D01*
X213363122Y-137787198D01*
X213264200Y-137548377D01*
X213119195Y-137331362D01*
X213080016Y-137292183D01*
X213781538Y-137292183D01*
X214630000Y-138140645D01*
X215478462Y-137292183D01*
X215392220Y-137084361D01*
X215164607Y-136956635D01*
X214916448Y-136875769D01*
X214657282Y-136844869D01*
X214397067Y-136865124D01*
X214145804Y-136935755D01*
X213913148Y-137054048D01*
X213867780Y-137084361D01*
X213781538Y-137292183D01*
X213080016Y-137292183D01*
X212934638Y-137146805D01*
X212717623Y-137001800D01*
X212476488Y-136901919D01*
X212220501Y-136851000D01*
X211959499Y-136851000D01*
X211703512Y-136901919D01*
X211650888Y-136923716D01*
X211616564Y-136889392D01*
X211616560Y-136889387D01*
X204134566Y-129407394D01*
X204116554Y-129385446D01*
X204028998Y-129313592D01*
X203929108Y-129260199D01*
X203820720Y-129227320D01*
X203736246Y-129219000D01*
X203736243Y-129219000D01*
X203708000Y-129216218D01*
X203679757Y-129219000D01*
X190105180Y-129219000D01*
X190150200Y-129151623D01*
X190250081Y-128910488D01*
X190301000Y-128654501D01*
X190301000Y-128393499D01*
X190250081Y-128137512D01*
X190150200Y-127896377D01*
X190005195Y-127679362D01*
X189820638Y-127494805D01*
X189603623Y-127349800D01*
X189362488Y-127249919D01*
X189254858Y-127228510D01*
X189347904Y-127210002D01*
X189579939Y-127113890D01*
X189788765Y-126974357D01*
X189966357Y-126796765D01*
X190105890Y-126587939D01*
X190202002Y-126355904D01*
X190251000Y-126109577D01*
X190251000Y-125858423D01*
X190202002Y-125612096D01*
X190105890Y-125380061D01*
X189966357Y-125171235D01*
X189788765Y-124993643D01*
X189579939Y-124854110D01*
X189347904Y-124757998D01*
X189101577Y-124709000D01*
X188850423Y-124709000D01*
X188604096Y-124757998D01*
X188372061Y-124854110D01*
X188163235Y-124993643D01*
X187985643Y-125171235D01*
X187846110Y-125380061D01*
X187834123Y-125409000D01*
X187436173Y-125409000D01*
X185350521Y-123323348D01*
X187751000Y-123323348D01*
X187751000Y-123564652D01*
X187798076Y-123801319D01*
X187890419Y-124024255D01*
X188024481Y-124224892D01*
X188195108Y-124395519D01*
X188395745Y-124529581D01*
X188618681Y-124621924D01*
X188855348Y-124669000D01*
X189096652Y-124669000D01*
X189333319Y-124621924D01*
X189556255Y-124529581D01*
X189756892Y-124395519D01*
X189927519Y-124224892D01*
X190061581Y-124024255D01*
X190153924Y-123801319D01*
X190201000Y-123564652D01*
X190201000Y-123323348D01*
X190153924Y-123086681D01*
X190061581Y-122863745D01*
X189927519Y-122663108D01*
X189756892Y-122492481D01*
X189556255Y-122358419D01*
X189333319Y-122266076D01*
X189096652Y-122219000D01*
X188855348Y-122219000D01*
X188618681Y-122266076D01*
X188395745Y-122358419D01*
X188195108Y-122492481D01*
X188024481Y-122663108D01*
X187890419Y-122863745D01*
X187798076Y-123086681D01*
X187751000Y-123323348D01*
X185350521Y-123323348D01*
X183963000Y-121935828D01*
X183963000Y-97266172D01*
X190505606Y-90723566D01*
X190527554Y-90705554D01*
X190579085Y-90642762D01*
X190599408Y-90617999D01*
X190618006Y-90583204D01*
X190652801Y-90518108D01*
X190685680Y-90409720D01*
X190694000Y-90325246D01*
X190694000Y-90325244D01*
X190696782Y-90297001D01*
X190694000Y-90268758D01*
X190694000Y-84142240D01*
X190696782Y-84113997D01*
X190694000Y-84085752D01*
X190685680Y-84001278D01*
X190652801Y-83892890D01*
X190616897Y-83825719D01*
X190599408Y-83792999D01*
X190545559Y-83727384D01*
X190527554Y-83705444D01*
X190505613Y-83687438D01*
X190144566Y-83326392D01*
X190126555Y-83304445D01*
X190038999Y-83232591D01*
X189939109Y-83179198D01*
X189830721Y-83146319D01*
X189746247Y-83137999D01*
X189746244Y-83137999D01*
X189718001Y-83135217D01*
X189689758Y-83137999D01*
X189586137Y-83137999D01*
X189687365Y-82957607D01*
X189768231Y-82709448D01*
X189799131Y-82450282D01*
X189778876Y-82190067D01*
X189708245Y-81938804D01*
X189611231Y-81747999D01*
X190281827Y-81747999D01*
X191195000Y-82661173D01*
X191195001Y-90566826D01*
X185160394Y-96601434D01*
X185138446Y-96619446D01*
X185093592Y-96674103D01*
X185066592Y-96707002D01*
X185063114Y-96713509D01*
X185013199Y-96806893D01*
X184980320Y-96915281D01*
X184973503Y-96984499D01*
X184969218Y-97028000D01*
X184972000Y-97056243D01*
X184972001Y-118970747D01*
X184969218Y-118999000D01*
X184978488Y-119093107D01*
X184980032Y-119108780D01*
X184980321Y-119111719D01*
X185013199Y-119220107D01*
X185066592Y-119319998D01*
X185112441Y-119375865D01*
X185138447Y-119407554D01*
X185160389Y-119425561D01*
X187025439Y-121290612D01*
X187043446Y-121312554D01*
X187065386Y-121330559D01*
X187131001Y-121384408D01*
X187230892Y-121437801D01*
X187339280Y-121470680D01*
X187423754Y-121479000D01*
X187423757Y-121479000D01*
X187452000Y-121481782D01*
X187480243Y-121479000D01*
X187834123Y-121479000D01*
X187846110Y-121507939D01*
X187985643Y-121716765D01*
X188163235Y-121894357D01*
X188372061Y-122033890D01*
X188604096Y-122130002D01*
X188850423Y-122179000D01*
X189101577Y-122179000D01*
X189347904Y-122130002D01*
X189579939Y-122033890D01*
X189788765Y-121894357D01*
X189966357Y-121716765D01*
X190105890Y-121507939D01*
X190202002Y-121275904D01*
X190251000Y-121029577D01*
X190251000Y-120778423D01*
X190202002Y-120532096D01*
X190105890Y-120300061D01*
X189966357Y-120091235D01*
X189788765Y-119913643D01*
X189579939Y-119774110D01*
X189347904Y-119677998D01*
X189254858Y-119659490D01*
X189362488Y-119638081D01*
X189603623Y-119538200D01*
X189820638Y-119393195D01*
X190005195Y-119208638D01*
X190150200Y-118991623D01*
X190250081Y-118750488D01*
X190301000Y-118494501D01*
X190301000Y-118233499D01*
X190250081Y-117977512D01*
X190150200Y-117736377D01*
X190005195Y-117519362D01*
X189820638Y-117334805D01*
X189603623Y-117189800D01*
X189362488Y-117089919D01*
X189254858Y-117068510D01*
X189347904Y-117050002D01*
X189579939Y-116953890D01*
X189788765Y-116814357D01*
X189966357Y-116636765D01*
X190105890Y-116427939D01*
X190202002Y-116195904D01*
X190251000Y-115949577D01*
X190251000Y-115698423D01*
X190202002Y-115452096D01*
X190105890Y-115220061D01*
X189966357Y-115011235D01*
X189788765Y-114833643D01*
X189579939Y-114694110D01*
X189347904Y-114597998D01*
X189101577Y-114549000D01*
X188850423Y-114549000D01*
X188604096Y-114597998D01*
X188575157Y-114609985D01*
X188211935Y-114246763D01*
X188395745Y-114369581D01*
X188618681Y-114461924D01*
X188855348Y-114509000D01*
X189096652Y-114509000D01*
X189333319Y-114461924D01*
X189556255Y-114369581D01*
X189756892Y-114235519D01*
X189927519Y-114064892D01*
X190061581Y-113864255D01*
X190153924Y-113641319D01*
X190201000Y-113404652D01*
X190201000Y-113163348D01*
X190153924Y-112926681D01*
X190061581Y-112703745D01*
X189927519Y-112503108D01*
X189756892Y-112332481D01*
X189556255Y-112198419D01*
X189333319Y-112106076D01*
X189096652Y-112059000D01*
X188855348Y-112059000D01*
X188618681Y-112106076D01*
X188395745Y-112198419D01*
X188195108Y-112332481D01*
X188024481Y-112503108D01*
X187890419Y-112703745D01*
X187798076Y-112926681D01*
X187751000Y-113163348D01*
X187751000Y-113404652D01*
X187798076Y-113641319D01*
X187890419Y-113864255D01*
X188013238Y-114048065D01*
X187138000Y-113172828D01*
X187138000Y-110623348D01*
X187751000Y-110623348D01*
X187751000Y-110864652D01*
X187798076Y-111101319D01*
X187890419Y-111324255D01*
X188024481Y-111524892D01*
X188195108Y-111695519D01*
X188395745Y-111829581D01*
X188618681Y-111921924D01*
X188855348Y-111969000D01*
X189096652Y-111969000D01*
X189333319Y-111921924D01*
X189556255Y-111829581D01*
X189756892Y-111695519D01*
X189927519Y-111524892D01*
X190061581Y-111324255D01*
X190153924Y-111101319D01*
X190201000Y-110864652D01*
X190201000Y-110623348D01*
X190153924Y-110386681D01*
X190061581Y-110163745D01*
X189927519Y-109963108D01*
X189756892Y-109792481D01*
X189556255Y-109658419D01*
X189333319Y-109566076D01*
X189096652Y-109519000D01*
X188855348Y-109519000D01*
X188618681Y-109566076D01*
X188395745Y-109658419D01*
X188195108Y-109792481D01*
X188024481Y-109963108D01*
X187890419Y-110163745D01*
X187798076Y-110386681D01*
X187751000Y-110623348D01*
X187138000Y-110623348D01*
X187138000Y-97913499D01*
X187651000Y-97913499D01*
X187651000Y-98174501D01*
X187701919Y-98430488D01*
X187801800Y-98671623D01*
X187946805Y-98888638D01*
X188131362Y-99073195D01*
X188348377Y-99218200D01*
X188589512Y-99318081D01*
X188599586Y-99320085D01*
X188494022Y-99349770D01*
X188262497Y-99467515D01*
X188058391Y-99628165D01*
X187889548Y-99825548D01*
X187762457Y-100052078D01*
X187682002Y-100299049D01*
X187671457Y-100352069D01*
X187757506Y-100559000D01*
X188951000Y-100559000D01*
X188951000Y-100539000D01*
X189001000Y-100539000D01*
X189001000Y-100559000D01*
X190194494Y-100559000D01*
X190280543Y-100352069D01*
X190269998Y-100299049D01*
X190189543Y-100052078D01*
X190062452Y-99825548D01*
X189893609Y-99628165D01*
X189689503Y-99467515D01*
X189457978Y-99349770D01*
X189352414Y-99320085D01*
X189362488Y-99318081D01*
X189603623Y-99218200D01*
X189820638Y-99073195D01*
X190005195Y-98888638D01*
X190150200Y-98671623D01*
X190250081Y-98430488D01*
X190301000Y-98174501D01*
X190301000Y-97913499D01*
X190250081Y-97657512D01*
X190150200Y-97416377D01*
X190005195Y-97199362D01*
X189820638Y-97014805D01*
X189603623Y-96869800D01*
X189362488Y-96769919D01*
X189106501Y-96719000D01*
X188845499Y-96719000D01*
X188589512Y-96769919D01*
X188348377Y-96869800D01*
X188131362Y-97014805D01*
X187946805Y-97199362D01*
X187801800Y-97416377D01*
X187701919Y-97657512D01*
X187651000Y-97913499D01*
X187138000Y-97913499D01*
X187138000Y-97338294D01*
X193018006Y-91458288D01*
X196681000Y-91458288D01*
X196681000Y-91691712D01*
X196726539Y-91920652D01*
X196815866Y-92136308D01*
X196945550Y-92330394D01*
X197110606Y-92495450D01*
X197304692Y-92625134D01*
X197520348Y-92714461D01*
X197749288Y-92760000D01*
X197982712Y-92760000D01*
X198211652Y-92714461D01*
X198427308Y-92625134D01*
X198621394Y-92495450D01*
X198786450Y-92330394D01*
X198916134Y-92136308D01*
X199005461Y-91920652D01*
X199051000Y-91691712D01*
X199051000Y-91458288D01*
X199005461Y-91229348D01*
X198916134Y-91013692D01*
X198786450Y-90819606D01*
X198621394Y-90654550D01*
X198427308Y-90524866D01*
X198211652Y-90435539D01*
X197982712Y-90390000D01*
X197749288Y-90390000D01*
X197520348Y-90435539D01*
X197304692Y-90524866D01*
X197110606Y-90654550D01*
X196945550Y-90819606D01*
X196815866Y-91013692D01*
X196726539Y-91229348D01*
X196681000Y-91458288D01*
X193018006Y-91458288D01*
X194866295Y-89610000D01*
X198095015Y-89610000D01*
X198215550Y-89790394D01*
X198380606Y-89955450D01*
X198574692Y-90085134D01*
X198790348Y-90174461D01*
X199019288Y-90220000D01*
X199252712Y-90220000D01*
X199481652Y-90174461D01*
X199697308Y-90085134D01*
X199891394Y-89955450D01*
X200027524Y-89819320D01*
X200927035Y-89819320D01*
X200996484Y-90012806D01*
X201200301Y-90126585D01*
X201422399Y-90198414D01*
X201654242Y-90225534D01*
X201886922Y-90206903D01*
X202111496Y-90143236D01*
X202319335Y-90036981D01*
X202355516Y-90012806D01*
X202424965Y-89819320D01*
X201676000Y-89070355D01*
X200927035Y-89819320D01*
X200027524Y-89819320D01*
X200056450Y-89790394D01*
X200186134Y-89596308D01*
X200275461Y-89380652D01*
X200321000Y-89151712D01*
X200321000Y-89013242D01*
X200485466Y-89013242D01*
X200504097Y-89245922D01*
X200567764Y-89470496D01*
X200674019Y-89678335D01*
X200698194Y-89714516D01*
X200891680Y-89783965D01*
X201640645Y-89035000D01*
X201711355Y-89035000D01*
X202460320Y-89783965D01*
X202653806Y-89714516D01*
X202767585Y-89510699D01*
X202839414Y-89288601D01*
X202866534Y-89056758D01*
X202847903Y-88824078D01*
X202784236Y-88599504D01*
X202677981Y-88391665D01*
X202653806Y-88355484D01*
X202460320Y-88286035D01*
X201711355Y-89035000D01*
X201640645Y-89035000D01*
X200891680Y-88286035D01*
X200698194Y-88355484D01*
X200584415Y-88559301D01*
X200512586Y-88781399D01*
X200485466Y-89013242D01*
X200321000Y-89013242D01*
X200321000Y-88918288D01*
X200275461Y-88689348D01*
X200186134Y-88473692D01*
X200056450Y-88279606D01*
X200027524Y-88250680D01*
X200927035Y-88250680D01*
X201676000Y-88999645D01*
X202424965Y-88250680D01*
X202355516Y-88057194D01*
X202151699Y-87943415D01*
X201929601Y-87871586D01*
X201697758Y-87844466D01*
X201465078Y-87863097D01*
X201240504Y-87926764D01*
X201032665Y-88033019D01*
X200996484Y-88057194D01*
X200927035Y-88250680D01*
X200027524Y-88250680D01*
X199891394Y-88114550D01*
X199697308Y-87984866D01*
X199481652Y-87895539D01*
X199252712Y-87850000D01*
X199019288Y-87850000D01*
X198790348Y-87895539D01*
X198574692Y-87984866D01*
X198380606Y-88114550D01*
X198215550Y-88279606D01*
X198095015Y-88460000D01*
X194656365Y-88460000D01*
X194628122Y-88457218D01*
X194599879Y-88460000D01*
X194599876Y-88460000D01*
X194515402Y-88468320D01*
X194407014Y-88501199D01*
X194307123Y-88554592D01*
X194261275Y-88592218D01*
X194219568Y-88626446D01*
X194201561Y-88648388D01*
X192345000Y-90504949D01*
X192345000Y-82485555D01*
X192671000Y-82485555D01*
X192671000Y-82884445D01*
X192748820Y-83275671D01*
X192901468Y-83644197D01*
X193123080Y-83975862D01*
X193405138Y-84257920D01*
X193736803Y-84479532D01*
X194105329Y-84632180D01*
X194496555Y-84710000D01*
X194895445Y-84710000D01*
X195286671Y-84632180D01*
X195655197Y-84479532D01*
X195986862Y-84257920D01*
X196268920Y-83975862D01*
X196490532Y-83644197D01*
X196643180Y-83275671D01*
X196721000Y-82884445D01*
X196721000Y-82485555D01*
X196643180Y-82094329D01*
X196490532Y-81725803D01*
X196268920Y-81394138D01*
X195986862Y-81112080D01*
X195655197Y-80890468D01*
X195286671Y-80737820D01*
X194895445Y-80660000D01*
X194496555Y-80660000D01*
X194105329Y-80737820D01*
X193736803Y-80890468D01*
X193405138Y-81112080D01*
X193123080Y-81394138D01*
X192901468Y-81725803D01*
X192748820Y-82094329D01*
X192671000Y-82485555D01*
X192345000Y-82485555D01*
X192345000Y-82451242D01*
X192347782Y-82422999D01*
X192344300Y-82387645D01*
X192336680Y-82310280D01*
X192303801Y-82201892D01*
X192250409Y-82102003D01*
X192250408Y-82102001D01*
X192196559Y-82036386D01*
X192178554Y-82014446D01*
X192156613Y-81996440D01*
X190946564Y-80786392D01*
X190928553Y-80764445D01*
X190840997Y-80692591D01*
X190741107Y-80639198D01*
X190638261Y-80608000D01*
X197235496Y-80608000D01*
X203836440Y-87208945D01*
G36*
X162112001Y-135620174D02*
G01*
X162112001Y-136145123D01*
X162083061Y-136157110D01*
X161874235Y-136296643D01*
X161696643Y-136474235D01*
X161557110Y-136683061D01*
X161460998Y-136915096D01*
X161417000Y-137136287D01*
X161373002Y-136915096D01*
X161276890Y-136683061D01*
X161137357Y-136474235D01*
X160959765Y-136296643D01*
X160750939Y-136157110D01*
X160518904Y-136060998D01*
X160272577Y-136012000D01*
X160021423Y-136012000D01*
X159775096Y-136060998D01*
X159543061Y-136157110D01*
X159334235Y-136296643D01*
X159156643Y-136474235D01*
X159017110Y-136683061D01*
X158920998Y-136915096D01*
X158872000Y-137161423D01*
X158872000Y-137412577D01*
X158920998Y-137658904D01*
X159017110Y-137890939D01*
X159156643Y-138099765D01*
X159334235Y-138277357D01*
X159422000Y-138336000D01*
X159422001Y-141388000D01*
X140425000Y-141388000D01*
X140425000Y-138501404D01*
X140608385Y-138378870D01*
X140760372Y-138226883D01*
X141320472Y-138226883D01*
X141418707Y-138444946D01*
X141663318Y-138582634D01*
X141930091Y-138669956D01*
X142208773Y-138703555D01*
X142488656Y-138682140D01*
X142758982Y-138606534D01*
X143009365Y-138479643D01*
X143061293Y-138444946D01*
X143159528Y-138226883D01*
X142240000Y-137307355D01*
X141320472Y-138226883D01*
X140760372Y-138226883D01*
X140806870Y-138180385D01*
X140962819Y-137946991D01*
X140972583Y-137923418D01*
X141032357Y-138041365D01*
X141067054Y-138093293D01*
X141285117Y-138191528D01*
X142204645Y-137272000D01*
X141285117Y-136352472D01*
X141067054Y-136450707D01*
X140972096Y-136619406D01*
X140962819Y-136597009D01*
X140806870Y-136363615D01*
X140608385Y-136165130D01*
X140374991Y-136009181D01*
X140115657Y-135901762D01*
X139840350Y-135847000D01*
X139559650Y-135847000D01*
X139284343Y-135901762D01*
X139025009Y-136009181D01*
X138791615Y-136165130D01*
X138593130Y-136363615D01*
X138437181Y-136597009D01*
X138329762Y-136856343D01*
X138275000Y-137131650D01*
X138275000Y-137412350D01*
X138329762Y-137687657D01*
X138437181Y-137946991D01*
X138593130Y-138180385D01*
X138791615Y-138378870D01*
X138975000Y-138501404D01*
X138975001Y-141388000D01*
X126422190Y-141388000D01*
X126459108Y-141376801D01*
X126558998Y-141323408D01*
X126646554Y-141251554D01*
X126664566Y-141229606D01*
X133715173Y-134179000D01*
X140873828Y-134179000D01*
X142578099Y-135883271D01*
X142549909Y-135874044D01*
X142271227Y-135840445D01*
X141991344Y-135861860D01*
X141721018Y-135937466D01*
X141470635Y-136064357D01*
X141418707Y-136099054D01*
X141320472Y-136317117D01*
X142240000Y-137236645D01*
X142254143Y-137222503D01*
X142289498Y-137257858D01*
X142275355Y-137272000D01*
X143194883Y-138191528D01*
X143412946Y-138093293D01*
X143507904Y-137924594D01*
X143517181Y-137946991D01*
X143673130Y-138180385D01*
X143871615Y-138378870D01*
X144105009Y-138534819D01*
X144364343Y-138642238D01*
X144639650Y-138697000D01*
X144920350Y-138697000D01*
X145195657Y-138642238D01*
X145454991Y-138534819D01*
X145688385Y-138378870D01*
X145886870Y-138180385D01*
X146042819Y-137946991D01*
X146150238Y-137687657D01*
X146205000Y-137412350D01*
X146205000Y-137131650D01*
X146150238Y-136856343D01*
X146042819Y-136597009D01*
X145886870Y-136363615D01*
X145688385Y-136165130D01*
X145454991Y-136009181D01*
X145195657Y-135901762D01*
X144920350Y-135847000D01*
X144639650Y-135847000D01*
X144364343Y-135901762D01*
X144264352Y-135943179D01*
X141538565Y-133217393D01*
X141520554Y-133195446D01*
X141432998Y-133123592D01*
X141333108Y-133070199D01*
X141224720Y-133037320D01*
X141140246Y-133029000D01*
X141140243Y-133029000D01*
X141112000Y-133026218D01*
X141083757Y-133029000D01*
X133505243Y-133029000D01*
X133477000Y-133026218D01*
X133448757Y-133029000D01*
X133448754Y-133029000D01*
X133364280Y-133037320D01*
X133255892Y-133070199D01*
X133156001Y-133123592D01*
X133110153Y-133161218D01*
X133068446Y-133195446D01*
X133050439Y-133217388D01*
X125999828Y-140268000D01*
X122031173Y-140268000D01*
X120973540Y-139210368D01*
X120973540Y-138345518D01*
X121152432Y-138445730D01*
X121391283Y-138523370D01*
X121640692Y-138552919D01*
X121891074Y-138533244D01*
X122132805Y-138465100D01*
X122355920Y-138351451D01*
X122355920Y-138396677D01*
X122353138Y-138424920D01*
X122355920Y-138453163D01*
X122355920Y-138453165D01*
X122364240Y-138537639D01*
X122385139Y-138606534D01*
X122397119Y-138646027D01*
X122450512Y-138745918D01*
X122454683Y-138751000D01*
X122522366Y-138833474D01*
X122544313Y-138851485D01*
X123271439Y-139578612D01*
X123289446Y-139600554D01*
X123311386Y-139618559D01*
X123377001Y-139672408D01*
X123415279Y-139692868D01*
X123476892Y-139725801D01*
X123585280Y-139758680D01*
X123669754Y-139767000D01*
X123669757Y-139767000D01*
X123698000Y-139769782D01*
X123726243Y-139767000D01*
X125066757Y-139767000D01*
X125095000Y-139769782D01*
X125123243Y-139767000D01*
X125123246Y-139767000D01*
X125207720Y-139758680D01*
X125316108Y-139725801D01*
X125415998Y-139672408D01*
X125503554Y-139600554D01*
X125521566Y-139578606D01*
X132445173Y-132655000D01*
X159146828Y-132655000D01*
X162112001Y-135620174D01*
G37*
X162112001Y-135620174D02*
X162112001Y-136145123D01*
X162083061Y-136157110D01*
X161874235Y-136296643D01*
X161696643Y-136474235D01*
X161557110Y-136683061D01*
X161460998Y-136915096D01*
X161417000Y-137136287D01*
X161373002Y-136915096D01*
X161276890Y-136683061D01*
X161137357Y-136474235D01*
X160959765Y-136296643D01*
X160750939Y-136157110D01*
X160518904Y-136060998D01*
X160272577Y-136012000D01*
X160021423Y-136012000D01*
X159775096Y-136060998D01*
X159543061Y-136157110D01*
X159334235Y-136296643D01*
X159156643Y-136474235D01*
X159017110Y-136683061D01*
X158920998Y-136915096D01*
X158872000Y-137161423D01*
X158872000Y-137412577D01*
X158920998Y-137658904D01*
X159017110Y-137890939D01*
X159156643Y-138099765D01*
X159334235Y-138277357D01*
X159422000Y-138336000D01*
X159422001Y-141388000D01*
X140425000Y-141388000D01*
X140425000Y-138501404D01*
X140608385Y-138378870D01*
X140760372Y-138226883D01*
X141320472Y-138226883D01*
X141418707Y-138444946D01*
X141663318Y-138582634D01*
X141930091Y-138669956D01*
X142208773Y-138703555D01*
X142488656Y-138682140D01*
X142758982Y-138606534D01*
X143009365Y-138479643D01*
X143061293Y-138444946D01*
X143159528Y-138226883D01*
X142240000Y-137307355D01*
X141320472Y-138226883D01*
X140760372Y-138226883D01*
X140806870Y-138180385D01*
X140962819Y-137946991D01*
X140972583Y-137923418D01*
X141032357Y-138041365D01*
X141067054Y-138093293D01*
X141285117Y-138191528D01*
X142204645Y-137272000D01*
X141285117Y-136352472D01*
X141067054Y-136450707D01*
X140972096Y-136619406D01*
X140962819Y-136597009D01*
X140806870Y-136363615D01*
X140608385Y-136165130D01*
X140374991Y-136009181D01*
X140115657Y-135901762D01*
X139840350Y-135847000D01*
X139559650Y-135847000D01*
X139284343Y-135901762D01*
X139025009Y-136009181D01*
X138791615Y-136165130D01*
X138593130Y-136363615D01*
X138437181Y-136597009D01*
X138329762Y-136856343D01*
X138275000Y-137131650D01*
X138275000Y-137412350D01*
X138329762Y-137687657D01*
X138437181Y-137946991D01*
X138593130Y-138180385D01*
X138791615Y-138378870D01*
X138975000Y-138501404D01*
X138975001Y-141388000D01*
X126422190Y-141388000D01*
X126459108Y-141376801D01*
X126558998Y-141323408D01*
X126646554Y-141251554D01*
X126664566Y-141229606D01*
X133715173Y-134179000D01*
X140873828Y-134179000D01*
X142578099Y-135883271D01*
X142549909Y-135874044D01*
X142271227Y-135840445D01*
X141991344Y-135861860D01*
X141721018Y-135937466D01*
X141470635Y-136064357D01*
X141418707Y-136099054D01*
X141320472Y-136317117D01*
X142240000Y-137236645D01*
X142254143Y-137222503D01*
X142289498Y-137257858D01*
X142275355Y-137272000D01*
X143194883Y-138191528D01*
X143412946Y-138093293D01*
X143507904Y-137924594D01*
X143517181Y-137946991D01*
X143673130Y-138180385D01*
X143871615Y-138378870D01*
X144105009Y-138534819D01*
X144364343Y-138642238D01*
X144639650Y-138697000D01*
X144920350Y-138697000D01*
X145195657Y-138642238D01*
X145454991Y-138534819D01*
X145688385Y-138378870D01*
X145886870Y-138180385D01*
X146042819Y-137946991D01*
X146150238Y-137687657D01*
X146205000Y-137412350D01*
X146205000Y-137131650D01*
X146150238Y-136856343D01*
X146042819Y-136597009D01*
X145886870Y-136363615D01*
X145688385Y-136165130D01*
X145454991Y-136009181D01*
X145195657Y-135901762D01*
X144920350Y-135847000D01*
X144639650Y-135847000D01*
X144364343Y-135901762D01*
X144264352Y-135943179D01*
X141538565Y-133217393D01*
X141520554Y-133195446D01*
X141432998Y-133123592D01*
X141333108Y-133070199D01*
X141224720Y-133037320D01*
X141140246Y-133029000D01*
X141140243Y-133029000D01*
X141112000Y-133026218D01*
X141083757Y-133029000D01*
X133505243Y-133029000D01*
X133477000Y-133026218D01*
X133448757Y-133029000D01*
X133448754Y-133029000D01*
X133364280Y-133037320D01*
X133255892Y-133070199D01*
X133156001Y-133123592D01*
X133110153Y-133161218D01*
X133068446Y-133195446D01*
X133050439Y-133217388D01*
X125999828Y-140268000D01*
X122031173Y-140268000D01*
X120973540Y-139210368D01*
X120973540Y-138345518D01*
X121152432Y-138445730D01*
X121391283Y-138523370D01*
X121640692Y-138552919D01*
X121891074Y-138533244D01*
X122132805Y-138465100D01*
X122355920Y-138351451D01*
X122355920Y-138396677D01*
X122353138Y-138424920D01*
X122355920Y-138453163D01*
X122355920Y-138453165D01*
X122364240Y-138537639D01*
X122385139Y-138606534D01*
X122397119Y-138646027D01*
X122450512Y-138745918D01*
X122454683Y-138751000D01*
X122522366Y-138833474D01*
X122544313Y-138851485D01*
X123271439Y-139578612D01*
X123289446Y-139600554D01*
X123311386Y-139618559D01*
X123377001Y-139672408D01*
X123415279Y-139692868D01*
X123476892Y-139725801D01*
X123585280Y-139758680D01*
X123669754Y-139767000D01*
X123669757Y-139767000D01*
X123698000Y-139769782D01*
X123726243Y-139767000D01*
X125066757Y-139767000D01*
X125095000Y-139769782D01*
X125123243Y-139767000D01*
X125123246Y-139767000D01*
X125207720Y-139758680D01*
X125316108Y-139725801D01*
X125415998Y-139672408D01*
X125503554Y-139600554D01*
X125521566Y-139578606D01*
X132445173Y-132655000D01*
X159146828Y-132655000D01*
X162112001Y-135620174D01*
G36*
X121715498Y-137257858D02*
G01*
X121701355Y-137272000D01*
X121715498Y-137286142D01*
X121680142Y-137321498D01*
X121666000Y-137307355D01*
X121651858Y-137321498D01*
X121616502Y-137286142D01*
X121630645Y-137272000D01*
X121616502Y-137257858D01*
X121651858Y-137222502D01*
X121666000Y-137236645D01*
X121680142Y-137222502D01*
X121715498Y-137257858D01*
G37*
X121715498Y-137257858D02*
X121701355Y-137272000D01*
X121715498Y-137286142D01*
X121680142Y-137321498D01*
X121666000Y-137307355D01*
X121651858Y-137321498D01*
X121616502Y-137286142D01*
X121630645Y-137272000D01*
X121616502Y-137257858D01*
X121651858Y-137222502D01*
X121666000Y-137236645D01*
X121680142Y-137222502D01*
X121715498Y-137257858D01*
G36*
X188517498Y-82408858D02*
G01*
X188503355Y-82423000D01*
X188517498Y-82437143D01*
X188482143Y-82472498D01*
X188468000Y-82458355D01*
X188453858Y-82472498D01*
X188418503Y-82437143D01*
X188432645Y-82423000D01*
X188418503Y-82408858D01*
X188453858Y-82373503D01*
X188468000Y-82387645D01*
X188482143Y-82373503D01*
X188517498Y-82408858D01*
G37*
X188517498Y-82408858D02*
X188503355Y-82423000D01*
X188517498Y-82437143D01*
X188482143Y-82472498D01*
X188468000Y-82458355D01*
X188453858Y-82472498D01*
X188418503Y-82437143D01*
X188432645Y-82423000D01*
X188418503Y-82408858D01*
X188453858Y-82373503D01*
X188468000Y-82387645D01*
X188482143Y-82373503D01*
X188517498Y-82408858D01*
M02*
