G04 #@! TF.GenerationSoftware,KiCad,Pcbnew,5.1.2-f72e74a~84~ubuntu18.04.1*
G04 #@! TF.CreationDate,2019-06-19T00:04:43+03:00*
G04 #@! TF.ProjectId,Borjomi-Main,426f726a-6f6d-4692-9d4d-61696e2e6b69,rev?*
G04 #@! TF.SameCoordinates,Original*
G04 #@! TF.FileFunction,Copper,L2,Bot*
G04 #@! TF.FilePolarity,Positive*
%FSLAX46Y46*%
G04 Gerber Fmt 4.6, Leading zero omitted, Abs format (unit mm)*
G04 Created by KiCad (PCBNEW 5.1.2-f72e74a~84~ubuntu18.04.1) date 2019-06-19 00:04:43*
%MOMM*%
%LPD*%
G04 APERTURE LIST*
%ADD10C,0.150000*%
%ADD11C,3.500000*%
%ADD12C,3.000000*%
%ADD13R,3.500000X3.500000*%
%ADD14R,1.800000X1.800000*%
%ADD15O,1.800000X1.800000*%
%ADD16O,1.700000X1.700000*%
%ADD17O,1.600000X1.600000*%
%ADD18R,2.400000X2.400000*%
%ADD19O,2.400000X2.400000*%
%ADD20R,2.600000X2.600000*%
%ADD21C,2.600000*%
%ADD22C,1.520000*%
%ADD23C,1.600000*%
%ADD24C,1.800000*%
%ADD25C,1.700000*%
%ADD26C,2.200000*%
%ADD27C,2.000000*%
%ADD28C,0.300000*%
%ADD29C,0.250000*%
%ADD30C,0.600000*%
%ADD31C,1.000000*%
%ADD32C,2.000000*%
G04 APERTURE END LIST*
D10*
G36*
X140692785Y-84039913D02*
G01*
X140777724Y-84052513D01*
X140861019Y-84073377D01*
X140941868Y-84102305D01*
X141019492Y-84139019D01*
X141093144Y-84183164D01*
X141162114Y-84234316D01*
X141225738Y-84291982D01*
X141283404Y-84355606D01*
X141334556Y-84424576D01*
X141378701Y-84498228D01*
X141415415Y-84575852D01*
X141444343Y-84656701D01*
X141465207Y-84739996D01*
X141477807Y-84824935D01*
X141482020Y-84910700D01*
X141482020Y-86660700D01*
X141477807Y-86746465D01*
X141465207Y-86831404D01*
X141444343Y-86914699D01*
X141415415Y-86995548D01*
X141378701Y-87073172D01*
X141334556Y-87146824D01*
X141283404Y-87215794D01*
X141225738Y-87279418D01*
X141162114Y-87337084D01*
X141093144Y-87388236D01*
X141019492Y-87432381D01*
X140941868Y-87469095D01*
X140861019Y-87498023D01*
X140777724Y-87518887D01*
X140692785Y-87531487D01*
X140607020Y-87535700D01*
X138857020Y-87535700D01*
X138771255Y-87531487D01*
X138686316Y-87518887D01*
X138603021Y-87498023D01*
X138522172Y-87469095D01*
X138444548Y-87432381D01*
X138370896Y-87388236D01*
X138301926Y-87337084D01*
X138238302Y-87279418D01*
X138180636Y-87215794D01*
X138129484Y-87146824D01*
X138085339Y-87073172D01*
X138048625Y-86995548D01*
X138019697Y-86914699D01*
X137998833Y-86831404D01*
X137986233Y-86746465D01*
X137982020Y-86660700D01*
X137982020Y-84910700D01*
X137986233Y-84824935D01*
X137998833Y-84739996D01*
X138019697Y-84656701D01*
X138048625Y-84575852D01*
X138085339Y-84498228D01*
X138129484Y-84424576D01*
X138180636Y-84355606D01*
X138238302Y-84291982D01*
X138301926Y-84234316D01*
X138370896Y-84183164D01*
X138444548Y-84139019D01*
X138522172Y-84102305D01*
X138603021Y-84073377D01*
X138686316Y-84052513D01*
X138771255Y-84039913D01*
X138857020Y-84035700D01*
X140607020Y-84035700D01*
X140692785Y-84039913D01*
X140692785Y-84039913D01*
G37*
D11*
X139732020Y-85785700D03*
D10*
G36*
X145505533Y-81289311D02*
G01*
X145578338Y-81300111D01*
X145649734Y-81317995D01*
X145719033Y-81342790D01*
X145785568Y-81374259D01*
X145848698Y-81412098D01*
X145907815Y-81455942D01*
X145962350Y-81505370D01*
X146011778Y-81559905D01*
X146055622Y-81619022D01*
X146093461Y-81682152D01*
X146124930Y-81748687D01*
X146149725Y-81817986D01*
X146167609Y-81889382D01*
X146178409Y-81962187D01*
X146182020Y-82035700D01*
X146182020Y-83535700D01*
X146178409Y-83609213D01*
X146167609Y-83682018D01*
X146149725Y-83753414D01*
X146124930Y-83822713D01*
X146093461Y-83889248D01*
X146055622Y-83952378D01*
X146011778Y-84011495D01*
X145962350Y-84066030D01*
X145907815Y-84115458D01*
X145848698Y-84159302D01*
X145785568Y-84197141D01*
X145719033Y-84228610D01*
X145649734Y-84253405D01*
X145578338Y-84271289D01*
X145505533Y-84282089D01*
X145432020Y-84285700D01*
X143432020Y-84285700D01*
X143358507Y-84282089D01*
X143285702Y-84271289D01*
X143214306Y-84253405D01*
X143145007Y-84228610D01*
X143078472Y-84197141D01*
X143015342Y-84159302D01*
X142956225Y-84115458D01*
X142901690Y-84066030D01*
X142852262Y-84011495D01*
X142808418Y-83952378D01*
X142770579Y-83889248D01*
X142739110Y-83822713D01*
X142714315Y-83753414D01*
X142696431Y-83682018D01*
X142685631Y-83609213D01*
X142682020Y-83535700D01*
X142682020Y-82035700D01*
X142685631Y-81962187D01*
X142696431Y-81889382D01*
X142714315Y-81817986D01*
X142739110Y-81748687D01*
X142770579Y-81682152D01*
X142808418Y-81619022D01*
X142852262Y-81559905D01*
X142901690Y-81505370D01*
X142956225Y-81455942D01*
X143015342Y-81412098D01*
X143078472Y-81374259D01*
X143145007Y-81342790D01*
X143214306Y-81317995D01*
X143285702Y-81300111D01*
X143358507Y-81289311D01*
X143432020Y-81285700D01*
X145432020Y-81285700D01*
X145505533Y-81289311D01*
X145505533Y-81289311D01*
G37*
D12*
X144432020Y-82785700D03*
D13*
X144432020Y-88785700D03*
D14*
X173736000Y-98044000D03*
D15*
X188976000Y-131064000D03*
X173736000Y-100584000D03*
X188976000Y-128524000D03*
X173736000Y-103124000D03*
D16*
X188976000Y-125984000D03*
D15*
X173736000Y-105664000D03*
D17*
X188976000Y-123444000D03*
D15*
X173736000Y-108204000D03*
D16*
X188976000Y-120904000D03*
D15*
X173736000Y-110744000D03*
X188976000Y-118364000D03*
X173736000Y-113284000D03*
D16*
X188976000Y-115824000D03*
D15*
X173736000Y-115824000D03*
D17*
X188976000Y-113284000D03*
D15*
X173736000Y-118364000D03*
D17*
X188976000Y-110744000D03*
D15*
X173736000Y-120904000D03*
D17*
X188976000Y-108204000D03*
D15*
X173736000Y-123444000D03*
X188976000Y-105664000D03*
X173736000Y-125984000D03*
X188976000Y-103124000D03*
X173736000Y-128524000D03*
X188976000Y-100584000D03*
X173736000Y-131064000D03*
X188976000Y-98044000D03*
X173736000Y-133604000D03*
X188976000Y-133604000D03*
X173736000Y-105664000D03*
X173736000Y-105664000D03*
D18*
X116459000Y-89662000D03*
D19*
X121539000Y-89662000D03*
D20*
X121412000Y-78105000D03*
D21*
X116412000Y-78105000D03*
X128731000Y-78105000D03*
D20*
X133731000Y-78105000D03*
D22*
X214249000Y-92075000D03*
X215519000Y-89535000D03*
X216789000Y-92075000D03*
X218059000Y-89535000D03*
X201676000Y-89535000D03*
X200406000Y-92075000D03*
X199136000Y-89535000D03*
X197866000Y-92075000D03*
D23*
X144492980Y-94371160D03*
X149572980Y-94371160D03*
X160764220Y-94795340D03*
X155684220Y-94795340D03*
D24*
X208280000Y-109676000D03*
X201930000Y-138176000D03*
X204470000Y-138176000D03*
X207010000Y-138176000D03*
X209550000Y-138176000D03*
X212090000Y-138176000D03*
X214630000Y-138176000D03*
X217170000Y-138176000D03*
X210820000Y-109676000D03*
D25*
X160147000Y-137287000D03*
X162687000Y-137287000D03*
X165227000Y-137287000D03*
D26*
X160147000Y-113287000D03*
X165227000Y-113287000D03*
D27*
X144780000Y-137272000D03*
X142240000Y-137272000D03*
X139700000Y-137272000D03*
D26*
X142240000Y-104072000D03*
X137160000Y-104072000D03*
X147320000Y-104072000D03*
X126746000Y-104072000D03*
X116586000Y-104072000D03*
X121666000Y-104072000D03*
D25*
X119126000Y-137272000D03*
X121666000Y-137272000D03*
X124206000Y-137272000D03*
D24*
X188468000Y-90043000D03*
X188468000Y-87503000D03*
X188468000Y-84963000D03*
X188468000Y-82423000D03*
X188468000Y-79883000D03*
X188468000Y-77343000D03*
D28*
X187198000Y-125984000D02*
X188976000Y-125984000D01*
X183388000Y-97028000D02*
X183388000Y-122174000D01*
X183388000Y-122174000D02*
X187198000Y-125984000D01*
X190119000Y-90297000D02*
X183388000Y-97028000D01*
X125095000Y-139192000D02*
X123698000Y-139192000D01*
X132207000Y-132080000D02*
X125095000Y-139192000D01*
X187178001Y-83712999D02*
X189718001Y-83712999D01*
X159385000Y-132080000D02*
X132207000Y-132080000D01*
X123698000Y-139192000D02*
X122930920Y-138424920D01*
X162687000Y-135382000D02*
X159385000Y-132080000D01*
X122930920Y-138424920D02*
X122930920Y-134371080D01*
X177292000Y-112014000D02*
X179324000Y-109982000D01*
X190119000Y-84113998D02*
X190119000Y-90297000D01*
X128778000Y-128524000D02*
X156464000Y-128524000D01*
X172974000Y-112014000D02*
X177292000Y-112014000D01*
X179324000Y-109982000D02*
X179324000Y-91567000D01*
X179324000Y-91567000D02*
X187178001Y-83712999D01*
X162687000Y-137287000D02*
X162687000Y-135382000D01*
X122930920Y-134371080D02*
X128778000Y-128524000D01*
X156464000Y-128524000D02*
X172974000Y-112014000D01*
X189718001Y-83712999D02*
X190119000Y-84113998D01*
D29*
X161417000Y-136525000D02*
X161417000Y-138049000D01*
D30*
X188341000Y-82550000D02*
X188468000Y-82423000D01*
X185293000Y-82423000D02*
X190119000Y-82423000D01*
X121666000Y-137272000D02*
X121666000Y-138938000D01*
X143390500Y-138422500D02*
X142240000Y-137272000D01*
X142240000Y-137272000D02*
X141041000Y-136073000D01*
D31*
X133731000Y-78105000D02*
X131732020Y-78105000D01*
X133731000Y-78105000D02*
X133731000Y-79872840D01*
X145415000Y-78105000D02*
X145415000Y-80152240D01*
X145415000Y-78105000D02*
X147474940Y-78105000D01*
D32*
X133731000Y-78105000D02*
X142283180Y-78105000D01*
X144432020Y-80253840D02*
X144432020Y-82785700D01*
X142283180Y-78105000D02*
X144432020Y-80253840D01*
D31*
X133731000Y-78105000D02*
X133731000Y-76207620D01*
X144432020Y-82785700D02*
X147071080Y-82785700D01*
X144432020Y-82785700D02*
X144432020Y-85074760D01*
X144432020Y-82785700D02*
X141841220Y-82785700D01*
D28*
X187452000Y-120904000D02*
X188976000Y-120904000D01*
X185547000Y-118999000D02*
X187452000Y-120904000D01*
X191770000Y-90805000D02*
X185547000Y-97028000D01*
X159674560Y-90805000D02*
X175006000Y-90805000D01*
X190519999Y-81172999D02*
X191770000Y-82423000D01*
X185547000Y-97028000D02*
X185547000Y-118999000D01*
X155684220Y-94795340D02*
X159674560Y-90805000D01*
X184638001Y-81172999D02*
X190519999Y-81172999D01*
X175006000Y-90805000D02*
X184638001Y-81172999D01*
X191770000Y-82423000D02*
X191770000Y-90805000D01*
X171831000Y-110744000D02*
X173736000Y-110744000D01*
X156718000Y-125857000D02*
X171831000Y-110744000D01*
X128143000Y-125857000D02*
X156718000Y-125857000D01*
X120398540Y-133601460D02*
X128143000Y-125857000D01*
X144780000Y-137272000D02*
X141112000Y-133604000D01*
X141112000Y-133604000D02*
X133477000Y-133604000D01*
X126238000Y-140843000D02*
X121793000Y-140843000D01*
X133477000Y-133604000D02*
X126238000Y-140843000D01*
X121793000Y-140843000D02*
X120398540Y-139448540D01*
X120398540Y-139448540D02*
X120398540Y-133601460D01*
X180721000Y-92710000D02*
X188468000Y-84963000D01*
X180721000Y-109982000D02*
X180721000Y-92710000D01*
X173736000Y-113284000D02*
X177419000Y-113284000D01*
X177419000Y-113284000D02*
X180721000Y-109982000D01*
X194128122Y-89535000D02*
X186563000Y-97100122D01*
X199136000Y-89535000D02*
X194128122Y-89535000D01*
X188126001Y-114974001D02*
X188976000Y-115824000D01*
X186563000Y-97100122D02*
X186563000Y-113411000D01*
X186563000Y-113411000D02*
X188126001Y-114974001D01*
X170688000Y-118872000D02*
X173736000Y-115824000D01*
X171577000Y-132334000D02*
X170688000Y-131445000D01*
X175641000Y-132334000D02*
X171577000Y-132334000D01*
X201930000Y-138176000D02*
X181483000Y-138176000D01*
X170688000Y-131445000D02*
X170688000Y-118872000D01*
X181483000Y-138176000D02*
X175641000Y-132334000D01*
X175133000Y-120904000D02*
X176149000Y-119888000D01*
X175152999Y-114573999D02*
X172446001Y-114573999D01*
X131303000Y-130175000D02*
X124206000Y-137272000D01*
X172446001Y-114573999D02*
X156845000Y-130175000D01*
X156845000Y-130175000D02*
X131303000Y-130175000D01*
X173736000Y-120904000D02*
X175133000Y-120904000D01*
X176149000Y-115570000D02*
X175152999Y-114573999D01*
X176149000Y-119888000D02*
X176149000Y-115570000D01*
D30*
X217170000Y-133858000D02*
X217170000Y-138176000D01*
X188976000Y-105664000D02*
X217170000Y-133858000D01*
X188468000Y-79883000D02*
X198247000Y-79883000D01*
X198247000Y-79883000D02*
X200152000Y-81788000D01*
X200152000Y-81788000D02*
X200152000Y-83693000D01*
X200152000Y-83693000D02*
X204470000Y-88011000D01*
X201480802Y-92075000D02*
X200406000Y-92075000D01*
X204470000Y-89085802D02*
X201480802Y-92075000D01*
X204470000Y-88011000D02*
X204470000Y-89085802D01*
X200406000Y-93149802D02*
X200406000Y-92075000D01*
X200406000Y-95506792D02*
X200406000Y-93149802D01*
X190248792Y-105664000D02*
X200406000Y-95506792D01*
X188976000Y-105664000D02*
X190248792Y-105664000D01*
X119126000Y-137272000D02*
X119126000Y-139230100D01*
X119126000Y-139230100D02*
X122008900Y-142113000D01*
X217170000Y-138176000D02*
X217170000Y-140208000D01*
X217170000Y-140208000D02*
X215265000Y-142113000D01*
X139700000Y-137272000D02*
X139700000Y-142113000D01*
X160147000Y-142006320D02*
X160253680Y-142113000D01*
X160147000Y-137287000D02*
X160147000Y-142006320D01*
X215265000Y-142113000D02*
X160253680Y-142113000D01*
X160253680Y-142113000D02*
X122008900Y-142113000D01*
D28*
X211190001Y-137276001D02*
X212090000Y-138176000D01*
X203708000Y-129794000D02*
X211190001Y-137276001D01*
X173736000Y-125984000D02*
X177546000Y-129794000D01*
X177546000Y-129794000D02*
X203708000Y-129794000D01*
X181991000Y-118530998D02*
X181991000Y-93980000D01*
X172339000Y-128524000D02*
X171831000Y-128016000D01*
X171831000Y-128016000D02*
X171831000Y-125476000D01*
X173736000Y-128524000D02*
X172339000Y-128524000D01*
X171831000Y-125476000D02*
X172573001Y-124733999D01*
X181991000Y-93980000D02*
X188468000Y-87503000D01*
X172573001Y-124733999D02*
X175787999Y-124733999D01*
X175787999Y-124733999D02*
X181991000Y-118530998D01*
X173736000Y-131064000D02*
X180467000Y-131064000D01*
X180467000Y-131064000D02*
X181673500Y-132270500D01*
X181610000Y-132207000D02*
X181673500Y-132270500D01*
X206110001Y-137276001D02*
X207010000Y-138176000D01*
X201168000Y-132334000D02*
X206110001Y-137276001D01*
X181673500Y-132270500D02*
X181737000Y-132334000D01*
X181737000Y-132334000D02*
X201168000Y-132334000D01*
X209550000Y-138176000D02*
X208026000Y-139700000D01*
X179832000Y-139700000D02*
X173736000Y-133604000D01*
X208026000Y-139700000D02*
X179832000Y-139700000D01*
X199898000Y-133604000D02*
X204470000Y-138176000D01*
X188976000Y-133604000D02*
X199898000Y-133604000D01*
D30*
X116412000Y-89615000D02*
X116459000Y-89662000D01*
X116412000Y-78105000D02*
X116412000Y-89615000D01*
X116459000Y-98865000D02*
X121666000Y-104072000D01*
X116459000Y-89662000D02*
X116459000Y-98865000D01*
D32*
X128731000Y-97997000D02*
X128731000Y-78105000D01*
X142240000Y-104072000D02*
X139387000Y-101219000D01*
X131953000Y-101219000D02*
X128731000Y-97997000D01*
X139387000Y-101219000D02*
X131953000Y-101219000D01*
D30*
X129100000Y-104072000D02*
X131953000Y-101219000D01*
X126746000Y-104072000D02*
X129100000Y-104072000D01*
D28*
X214249000Y-92075000D02*
X216789000Y-92075000D01*
X216789000Y-101167000D02*
X208280000Y-109676000D01*
X216789000Y-92075000D02*
X216789000Y-101167000D01*
X216593802Y-89535000D02*
X218059000Y-89535000D01*
X215519000Y-89535000D02*
X216593802Y-89535000D01*
X219837000Y-100659000D02*
X210820000Y-109676000D01*
X218059000Y-89535000D02*
X219837000Y-91313000D01*
X219837000Y-91313000D02*
X219837000Y-100659000D01*
D32*
X147320000Y-109601000D02*
X147320000Y-104072000D01*
X154813000Y-117094000D02*
X147320000Y-109601000D01*
X162975634Y-117094000D02*
X154813000Y-117094000D01*
X165227000Y-113287000D02*
X165227000Y-114842634D01*
X165227000Y-114842634D02*
X162975634Y-117094000D01*
X160147000Y-110109000D02*
X160147000Y-113287000D01*
X144432020Y-88785700D02*
X144432020Y-94394020D01*
X144432020Y-94394020D02*
X160147000Y-110109000D01*
D29*
G36*
X223426001Y-143162000D02*
G01*
X113124000Y-143162000D01*
X113124000Y-137146423D01*
X117851000Y-137146423D01*
X117851000Y-137397577D01*
X117899998Y-137643904D01*
X117996110Y-137875939D01*
X118135643Y-138084765D01*
X118313235Y-138262357D01*
X118401001Y-138321000D01*
X118401001Y-139194493D01*
X118397494Y-139230100D01*
X118401001Y-139265707D01*
X118411492Y-139372225D01*
X118423893Y-139413107D01*
X118452947Y-139508887D01*
X118520269Y-139634836D01*
X118588170Y-139717574D01*
X118588173Y-139717577D01*
X118610869Y-139745232D01*
X118638523Y-139767927D01*
X121471072Y-142600477D01*
X121493768Y-142628132D01*
X121521423Y-142650828D01*
X121521425Y-142650830D01*
X121556205Y-142679373D01*
X121604163Y-142718731D01*
X121730112Y-142786053D01*
X121866775Y-142827509D01*
X121973293Y-142838000D01*
X121973302Y-142838000D01*
X122008899Y-142841506D01*
X122044496Y-142838000D01*
X139664393Y-142838000D01*
X139700000Y-142841507D01*
X139735607Y-142838000D01*
X160218082Y-142838000D01*
X160253679Y-142841506D01*
X160289276Y-142838000D01*
X215229403Y-142838000D01*
X215265000Y-142841506D01*
X215300597Y-142838000D01*
X215300607Y-142838000D01*
X215407125Y-142827509D01*
X215543788Y-142786053D01*
X215669737Y-142718731D01*
X215780132Y-142628132D01*
X215802832Y-142600472D01*
X217657477Y-140745828D01*
X217685132Y-140723132D01*
X217775731Y-140612737D01*
X217843053Y-140486788D01*
X217884509Y-140350125D01*
X217895000Y-140243607D01*
X217895000Y-140243597D01*
X217898506Y-140208000D01*
X217895000Y-140172403D01*
X217895000Y-139285135D01*
X218014638Y-139205195D01*
X218199195Y-139020638D01*
X218344200Y-138803623D01*
X218444081Y-138562488D01*
X218495000Y-138306501D01*
X218495000Y-138045499D01*
X218444081Y-137789512D01*
X218344200Y-137548377D01*
X218199195Y-137331362D01*
X218014638Y-137146805D01*
X217895000Y-137066865D01*
X217895000Y-133893596D01*
X217898506Y-133857999D01*
X217895000Y-133822402D01*
X217895000Y-133822393D01*
X217884509Y-133715875D01*
X217843053Y-133579212D01*
X217775731Y-133453263D01*
X217707830Y-133370525D01*
X217707823Y-133370518D01*
X217685131Y-133342868D01*
X217657482Y-133320177D01*
X193882804Y-109545499D01*
X206955000Y-109545499D01*
X206955000Y-109806501D01*
X207005919Y-110062488D01*
X207105800Y-110303623D01*
X207250805Y-110520638D01*
X207435362Y-110705195D01*
X207652377Y-110850200D01*
X207893512Y-110950081D01*
X208149499Y-111001000D01*
X208410501Y-111001000D01*
X208666488Y-110950081D01*
X208907623Y-110850200D01*
X209124638Y-110705195D01*
X209309195Y-110520638D01*
X209454200Y-110303623D01*
X209550000Y-110072340D01*
X209645800Y-110303623D01*
X209790805Y-110520638D01*
X209975362Y-110705195D01*
X210192377Y-110850200D01*
X210433512Y-110950081D01*
X210689499Y-111001000D01*
X210950501Y-111001000D01*
X211206488Y-110950081D01*
X211447623Y-110850200D01*
X211664638Y-110705195D01*
X211849195Y-110520638D01*
X211994200Y-110303623D01*
X212094081Y-110062488D01*
X212145000Y-109806501D01*
X212145000Y-109545499D01*
X212094081Y-109289512D01*
X212072284Y-109236888D01*
X220223612Y-101085561D01*
X220245554Y-101067554D01*
X220317408Y-100979998D01*
X220370801Y-100880108D01*
X220403680Y-100771720D01*
X220412000Y-100687246D01*
X220412000Y-100687243D01*
X220414782Y-100659000D01*
X220412000Y-100630757D01*
X220412000Y-91341243D01*
X220414782Y-91313000D01*
X220409847Y-91262894D01*
X220403680Y-91200280D01*
X220370801Y-91091892D01*
X220317408Y-90992002D01*
X220245554Y-90904446D01*
X220223613Y-90886440D01*
X219201674Y-89864501D01*
X219244000Y-89651712D01*
X219244000Y-89418288D01*
X219198461Y-89189348D01*
X219109134Y-88973692D01*
X218979450Y-88779606D01*
X218814394Y-88614550D01*
X218620308Y-88484866D01*
X218404652Y-88395539D01*
X218175712Y-88350000D01*
X217942288Y-88350000D01*
X217713348Y-88395539D01*
X217497692Y-88484866D01*
X217303606Y-88614550D01*
X217138550Y-88779606D01*
X217018015Y-88960000D01*
X216559985Y-88960000D01*
X216439450Y-88779606D01*
X216274394Y-88614550D01*
X216080308Y-88484866D01*
X215864652Y-88395539D01*
X215635712Y-88350000D01*
X215402288Y-88350000D01*
X215173348Y-88395539D01*
X214957692Y-88484866D01*
X214763606Y-88614550D01*
X214598550Y-88779606D01*
X214468866Y-88973692D01*
X214379539Y-89189348D01*
X214334000Y-89418288D01*
X214334000Y-89651712D01*
X214379539Y-89880652D01*
X214468866Y-90096308D01*
X214598550Y-90290394D01*
X214763606Y-90455450D01*
X214957692Y-90585134D01*
X215173348Y-90674461D01*
X215402288Y-90720000D01*
X215635712Y-90720000D01*
X215864652Y-90674461D01*
X216080308Y-90585134D01*
X216274394Y-90455450D01*
X216439450Y-90290394D01*
X216559985Y-90110000D01*
X217018015Y-90110000D01*
X217138550Y-90290394D01*
X217303606Y-90455450D01*
X217497692Y-90585134D01*
X217713348Y-90674461D01*
X217942288Y-90720000D01*
X218175712Y-90720000D01*
X218388501Y-90677674D01*
X219262000Y-91551173D01*
X219262001Y-100420826D01*
X211259112Y-108423716D01*
X211206488Y-108401919D01*
X210950501Y-108351000D01*
X210689499Y-108351000D01*
X210433512Y-108401919D01*
X210320401Y-108448771D01*
X217175612Y-101593561D01*
X217197554Y-101575554D01*
X217238673Y-101525450D01*
X217269408Y-101487999D01*
X217322801Y-101388108D01*
X217330986Y-101361125D01*
X217355680Y-101279720D01*
X217364000Y-101195246D01*
X217364000Y-101195244D01*
X217366782Y-101167001D01*
X217364000Y-101138758D01*
X217364000Y-93115985D01*
X217544394Y-92995450D01*
X217709450Y-92830394D01*
X217839134Y-92636308D01*
X217928461Y-92420652D01*
X217974000Y-92191712D01*
X217974000Y-91958288D01*
X217928461Y-91729348D01*
X217839134Y-91513692D01*
X217709450Y-91319606D01*
X217544394Y-91154550D01*
X217350308Y-91024866D01*
X217134652Y-90935539D01*
X216905712Y-90890000D01*
X216672288Y-90890000D01*
X216443348Y-90935539D01*
X216227692Y-91024866D01*
X216033606Y-91154550D01*
X215868550Y-91319606D01*
X215748015Y-91500000D01*
X215289985Y-91500000D01*
X215169450Y-91319606D01*
X215004394Y-91154550D01*
X214810308Y-91024866D01*
X214594652Y-90935539D01*
X214365712Y-90890000D01*
X214132288Y-90890000D01*
X213903348Y-90935539D01*
X213687692Y-91024866D01*
X213493606Y-91154550D01*
X213328550Y-91319606D01*
X213198866Y-91513692D01*
X213109539Y-91729348D01*
X213064000Y-91958288D01*
X213064000Y-92191712D01*
X213109539Y-92420652D01*
X213198866Y-92636308D01*
X213328550Y-92830394D01*
X213493606Y-92995450D01*
X213687692Y-93125134D01*
X213903348Y-93214461D01*
X214132288Y-93260000D01*
X214365712Y-93260000D01*
X214594652Y-93214461D01*
X214810308Y-93125134D01*
X215004394Y-92995450D01*
X215169450Y-92830394D01*
X215289985Y-92650000D01*
X215748015Y-92650000D01*
X215868550Y-92830394D01*
X216033606Y-92995450D01*
X216214000Y-93115985D01*
X216214001Y-100928826D01*
X208719112Y-108423716D01*
X208666488Y-108401919D01*
X208410501Y-108351000D01*
X208149499Y-108351000D01*
X207893512Y-108401919D01*
X207652377Y-108501800D01*
X207435362Y-108646805D01*
X207250805Y-108831362D01*
X207105800Y-109048377D01*
X207005919Y-109289512D01*
X206955000Y-109545499D01*
X193882804Y-109545499D01*
X190623230Y-106285926D01*
X190653529Y-106269731D01*
X190763924Y-106179132D01*
X190786624Y-106151472D01*
X200893482Y-96044615D01*
X200921131Y-96021924D01*
X200943823Y-95994274D01*
X200943830Y-95994267D01*
X201011731Y-95911529D01*
X201079053Y-95785580D01*
X201099881Y-95716918D01*
X201120509Y-95648917D01*
X201131000Y-95542399D01*
X201131000Y-95542390D01*
X201134506Y-95506793D01*
X201131000Y-95471196D01*
X201131000Y-93015759D01*
X201161394Y-92995450D01*
X201326450Y-92830394D01*
X201346759Y-92800000D01*
X201445205Y-92800000D01*
X201480802Y-92803506D01*
X201516399Y-92800000D01*
X201516409Y-92800000D01*
X201622927Y-92789509D01*
X201759590Y-92748053D01*
X201885539Y-92680731D01*
X201995934Y-92590132D01*
X202018634Y-92562472D01*
X204957477Y-89623630D01*
X204985132Y-89600934D01*
X205021387Y-89556758D01*
X205075731Y-89490539D01*
X205112216Y-89422281D01*
X205143053Y-89364590D01*
X205184509Y-89227927D01*
X205195000Y-89121409D01*
X205195000Y-89121400D01*
X205198506Y-89085803D01*
X205195000Y-89050206D01*
X205195000Y-88046596D01*
X205198506Y-88010999D01*
X205195000Y-87975402D01*
X205195000Y-87975393D01*
X205184509Y-87868875D01*
X205143053Y-87732212D01*
X205075731Y-87606263D01*
X205007830Y-87523525D01*
X205007823Y-87523518D01*
X204985131Y-87495868D01*
X204957482Y-87473177D01*
X200877000Y-83392696D01*
X200877000Y-82985555D01*
X202831000Y-82985555D01*
X202831000Y-83384445D01*
X202908820Y-83775671D01*
X203061468Y-84144197D01*
X203283080Y-84475862D01*
X203565138Y-84757920D01*
X203896803Y-84979532D01*
X204265329Y-85132180D01*
X204656555Y-85210000D01*
X205055445Y-85210000D01*
X205446671Y-85132180D01*
X205815197Y-84979532D01*
X206146862Y-84757920D01*
X206428920Y-84475862D01*
X206650532Y-84144197D01*
X206803180Y-83775671D01*
X206881000Y-83384445D01*
X206881000Y-82985555D01*
X209054000Y-82985555D01*
X209054000Y-83384445D01*
X209131820Y-83775671D01*
X209284468Y-84144197D01*
X209506080Y-84475862D01*
X209788138Y-84757920D01*
X210119803Y-84979532D01*
X210488329Y-85132180D01*
X210879555Y-85210000D01*
X211278445Y-85210000D01*
X211669671Y-85132180D01*
X212038197Y-84979532D01*
X212369862Y-84757920D01*
X212651920Y-84475862D01*
X212873532Y-84144197D01*
X213026180Y-83775671D01*
X213104000Y-83384445D01*
X213104000Y-82985555D01*
X219214000Y-82985555D01*
X219214000Y-83384445D01*
X219291820Y-83775671D01*
X219444468Y-84144197D01*
X219666080Y-84475862D01*
X219948138Y-84757920D01*
X220279803Y-84979532D01*
X220648329Y-85132180D01*
X221039555Y-85210000D01*
X221438445Y-85210000D01*
X221829671Y-85132180D01*
X222198197Y-84979532D01*
X222529862Y-84757920D01*
X222811920Y-84475862D01*
X223033532Y-84144197D01*
X223186180Y-83775671D01*
X223264000Y-83384445D01*
X223264000Y-82985555D01*
X223186180Y-82594329D01*
X223033532Y-82225803D01*
X222811920Y-81894138D01*
X222529862Y-81612080D01*
X222198197Y-81390468D01*
X221829671Y-81237820D01*
X221438445Y-81160000D01*
X221039555Y-81160000D01*
X220648329Y-81237820D01*
X220279803Y-81390468D01*
X219948138Y-81612080D01*
X219666080Y-81894138D01*
X219444468Y-82225803D01*
X219291820Y-82594329D01*
X219214000Y-82985555D01*
X213104000Y-82985555D01*
X213026180Y-82594329D01*
X212873532Y-82225803D01*
X212651920Y-81894138D01*
X212369862Y-81612080D01*
X212038197Y-81390468D01*
X211669671Y-81237820D01*
X211278445Y-81160000D01*
X210879555Y-81160000D01*
X210488329Y-81237820D01*
X210119803Y-81390468D01*
X209788138Y-81612080D01*
X209506080Y-81894138D01*
X209284468Y-82225803D01*
X209131820Y-82594329D01*
X209054000Y-82985555D01*
X206881000Y-82985555D01*
X206803180Y-82594329D01*
X206650532Y-82225803D01*
X206428920Y-81894138D01*
X206146862Y-81612080D01*
X205815197Y-81390468D01*
X205446671Y-81237820D01*
X205055445Y-81160000D01*
X204656555Y-81160000D01*
X204265329Y-81237820D01*
X203896803Y-81390468D01*
X203565138Y-81612080D01*
X203283080Y-81894138D01*
X203061468Y-82225803D01*
X202908820Y-82594329D01*
X202831000Y-82985555D01*
X200877000Y-82985555D01*
X200877000Y-81823597D01*
X200880506Y-81788000D01*
X200877000Y-81752403D01*
X200877000Y-81752393D01*
X200866509Y-81645875D01*
X200825053Y-81509212D01*
X200757731Y-81383263D01*
X200715136Y-81331361D01*
X200689830Y-81300525D01*
X200689823Y-81300518D01*
X200667131Y-81272868D01*
X200639482Y-81250177D01*
X198784832Y-79395528D01*
X198762132Y-79367868D01*
X198651737Y-79277269D01*
X198525788Y-79209947D01*
X198389125Y-79168491D01*
X198282607Y-79158000D01*
X198282597Y-79158000D01*
X198247000Y-79154494D01*
X198211403Y-79158000D01*
X189577135Y-79158000D01*
X189497195Y-79038362D01*
X189312638Y-78853805D01*
X189095623Y-78708800D01*
X188864340Y-78613000D01*
X189095623Y-78517200D01*
X189312638Y-78372195D01*
X189497195Y-78187638D01*
X189642200Y-77970623D01*
X189742081Y-77729488D01*
X189793000Y-77473501D01*
X189793000Y-77212499D01*
X189742081Y-76956512D01*
X189642200Y-76715377D01*
X189497195Y-76498362D01*
X189312638Y-76313805D01*
X189095623Y-76168800D01*
X188854488Y-76068919D01*
X188598501Y-76018000D01*
X188337499Y-76018000D01*
X188081512Y-76068919D01*
X187840377Y-76168800D01*
X187623362Y-76313805D01*
X187438805Y-76498362D01*
X187293800Y-76715377D01*
X187193919Y-76956512D01*
X187143000Y-77212499D01*
X187143000Y-77473501D01*
X187193919Y-77729488D01*
X187293800Y-77970623D01*
X187438805Y-78187638D01*
X187623362Y-78372195D01*
X187840377Y-78517200D01*
X188071660Y-78613000D01*
X187840377Y-78708800D01*
X187623362Y-78853805D01*
X187438805Y-79038362D01*
X187293800Y-79255377D01*
X187193919Y-79496512D01*
X187143000Y-79752499D01*
X187143000Y-80013501D01*
X187193919Y-80269488D01*
X187293800Y-80510623D01*
X187352183Y-80597999D01*
X184666243Y-80597999D01*
X184638000Y-80595217D01*
X184609757Y-80597999D01*
X184609755Y-80597999D01*
X184525281Y-80606319D01*
X184416893Y-80639198D01*
X184351797Y-80673993D01*
X184317002Y-80692591D01*
X184274297Y-80727638D01*
X184229447Y-80764445D01*
X184211440Y-80786387D01*
X174767828Y-90230000D01*
X159702803Y-90230000D01*
X159674560Y-90227218D01*
X159646317Y-90230000D01*
X159646314Y-90230000D01*
X159561840Y-90238320D01*
X159464885Y-90267731D01*
X159453452Y-90271199D01*
X159353561Y-90324592D01*
X159307713Y-90362218D01*
X159266006Y-90396446D01*
X159248000Y-90418387D01*
X156046795Y-93619593D01*
X156041539Y-93617416D01*
X155804872Y-93570340D01*
X155563568Y-93570340D01*
X155326901Y-93617416D01*
X155103965Y-93709759D01*
X154903328Y-93843821D01*
X154732701Y-94014448D01*
X154598639Y-94215085D01*
X154506296Y-94438021D01*
X154459220Y-94674688D01*
X154459220Y-94915992D01*
X154506296Y-95152659D01*
X154598639Y-95375595D01*
X154732701Y-95576232D01*
X154903328Y-95746859D01*
X155103965Y-95880921D01*
X155326901Y-95973264D01*
X155563568Y-96020340D01*
X155804872Y-96020340D01*
X156041539Y-95973264D01*
X156264475Y-95880921D01*
X156465112Y-95746859D01*
X156603883Y-95608088D01*
X159986828Y-95608088D01*
X160061074Y-95805670D01*
X160271690Y-95923434D01*
X160501234Y-95997846D01*
X160740885Y-96026046D01*
X160981432Y-96006950D01*
X161213632Y-95941294D01*
X161428561Y-95831599D01*
X161467366Y-95805670D01*
X161541612Y-95608088D01*
X160764220Y-94830695D01*
X159986828Y-95608088D01*
X156603883Y-95608088D01*
X156635739Y-95576232D01*
X156769801Y-95375595D01*
X156862144Y-95152659D01*
X156909220Y-94915992D01*
X156909220Y-94772005D01*
X159533514Y-94772005D01*
X159552610Y-95012552D01*
X159618266Y-95244752D01*
X159727961Y-95459681D01*
X159753890Y-95498486D01*
X159951472Y-95572732D01*
X160728865Y-94795340D01*
X160799575Y-94795340D01*
X161576968Y-95572732D01*
X161774550Y-95498486D01*
X161892314Y-95287870D01*
X161966726Y-95058326D01*
X161994926Y-94818675D01*
X161975830Y-94578128D01*
X161910174Y-94345928D01*
X161800479Y-94130999D01*
X161774550Y-94092194D01*
X161576968Y-94017948D01*
X160799575Y-94795340D01*
X160728865Y-94795340D01*
X159951472Y-94017948D01*
X159753890Y-94092194D01*
X159636126Y-94302810D01*
X159561714Y-94532354D01*
X159533514Y-94772005D01*
X156909220Y-94772005D01*
X156909220Y-94674688D01*
X156862144Y-94438021D01*
X156859967Y-94432765D01*
X157310140Y-93982592D01*
X159986828Y-93982592D01*
X160764220Y-94759985D01*
X161541612Y-93982592D01*
X161467366Y-93785010D01*
X161256750Y-93667246D01*
X161027206Y-93592834D01*
X160787555Y-93564634D01*
X160547008Y-93583730D01*
X160314808Y-93649386D01*
X160099879Y-93759081D01*
X160061074Y-93785010D01*
X159986828Y-93982592D01*
X157310140Y-93982592D01*
X159912733Y-91380000D01*
X174977757Y-91380000D01*
X175006000Y-91382782D01*
X175034243Y-91380000D01*
X175034246Y-91380000D01*
X175118720Y-91371680D01*
X175227108Y-91338801D01*
X175326998Y-91285408D01*
X175414554Y-91213554D01*
X175432566Y-91191606D01*
X184876174Y-81747999D01*
X187327418Y-81747999D01*
X187248635Y-81888393D01*
X187167769Y-82136552D01*
X187136869Y-82395718D01*
X187157124Y-82655933D01*
X187227755Y-82907196D01*
X187345106Y-83137999D01*
X187206244Y-83137999D01*
X187178001Y-83135217D01*
X187149758Y-83137999D01*
X187149755Y-83137999D01*
X187065281Y-83146319D01*
X186956893Y-83179198D01*
X186857002Y-83232591D01*
X186811154Y-83270217D01*
X186769447Y-83304445D01*
X186751440Y-83326387D01*
X178937389Y-91140439D01*
X178915447Y-91158446D01*
X178897441Y-91180387D01*
X178843592Y-91246002D01*
X178790199Y-91345893D01*
X178757321Y-91454281D01*
X178746218Y-91567000D01*
X178749001Y-91595253D01*
X178749000Y-109743827D01*
X177053828Y-111439000D01*
X174866916Y-111439000D01*
X174966063Y-111253509D01*
X175041828Y-111003745D01*
X175067411Y-110744000D01*
X175041828Y-110484255D01*
X174966063Y-110234491D01*
X174843028Y-110004308D01*
X174677450Y-109802550D01*
X174475692Y-109636972D01*
X174245509Y-109513937D01*
X174113854Y-109474000D01*
X174245509Y-109434063D01*
X174475692Y-109311028D01*
X174677450Y-109145450D01*
X174843028Y-108943692D01*
X174966063Y-108713509D01*
X175041828Y-108463745D01*
X175067411Y-108204000D01*
X175041828Y-107944255D01*
X174966063Y-107694491D01*
X174843028Y-107464308D01*
X174677450Y-107262550D01*
X174475692Y-107096972D01*
X174245509Y-106973937D01*
X174102752Y-106930632D01*
X174217978Y-106898230D01*
X174449503Y-106780485D01*
X174653609Y-106619835D01*
X174822452Y-106422452D01*
X174949543Y-106195922D01*
X175029998Y-105948951D01*
X175040543Y-105895931D01*
X174954494Y-105689000D01*
X173761000Y-105689000D01*
X173761000Y-105709000D01*
X173711000Y-105709000D01*
X173711000Y-105689000D01*
X172517506Y-105689000D01*
X172431457Y-105895931D01*
X172442002Y-105948951D01*
X172522457Y-106195922D01*
X172649548Y-106422452D01*
X172818391Y-106619835D01*
X173022497Y-106780485D01*
X173254022Y-106898230D01*
X173369248Y-106930632D01*
X173226491Y-106973937D01*
X172996308Y-107096972D01*
X172794550Y-107262550D01*
X172628972Y-107464308D01*
X172505937Y-107694491D01*
X172430172Y-107944255D01*
X172404589Y-108204000D01*
X172430172Y-108463745D01*
X172505937Y-108713509D01*
X172628972Y-108943692D01*
X172794550Y-109145450D01*
X172996308Y-109311028D01*
X173226491Y-109434063D01*
X173358146Y-109474000D01*
X173226491Y-109513937D01*
X172996308Y-109636972D01*
X172794550Y-109802550D01*
X172628972Y-110004308D01*
X172540943Y-110169000D01*
X171859243Y-110169000D01*
X171831000Y-110166218D01*
X171802757Y-110169000D01*
X171802754Y-110169000D01*
X171718280Y-110177320D01*
X171609892Y-110210199D01*
X171510002Y-110263592D01*
X171422446Y-110335446D01*
X171404439Y-110357388D01*
X166627696Y-115134132D01*
X166631381Y-115121983D01*
X166652000Y-114912631D01*
X166652000Y-114912622D01*
X166658893Y-114842635D01*
X166652000Y-114772648D01*
X166652000Y-113831763D01*
X166693395Y-113731826D01*
X166752000Y-113437199D01*
X166752000Y-113136801D01*
X166693395Y-112842174D01*
X166578438Y-112564642D01*
X166411545Y-112314869D01*
X166199131Y-112102455D01*
X165949358Y-111935562D01*
X165671826Y-111820605D01*
X165377199Y-111762000D01*
X165076801Y-111762000D01*
X164782174Y-111820605D01*
X164504642Y-111935562D01*
X164254869Y-112102455D01*
X164042455Y-112314869D01*
X163875562Y-112564642D01*
X163760605Y-112842174D01*
X163702000Y-113136801D01*
X163702000Y-113437199D01*
X163760605Y-113731826D01*
X163802000Y-113831763D01*
X163802000Y-114252379D01*
X162385381Y-115669000D01*
X155403254Y-115669000D01*
X148745000Y-109010747D01*
X148745000Y-104616763D01*
X148786395Y-104516826D01*
X148845000Y-104222199D01*
X148845000Y-103921801D01*
X148786395Y-103627174D01*
X148671438Y-103349642D01*
X148504545Y-103099869D01*
X148292131Y-102887455D01*
X148042358Y-102720562D01*
X147764826Y-102605605D01*
X147470199Y-102547000D01*
X147169801Y-102547000D01*
X146875174Y-102605605D01*
X146597642Y-102720562D01*
X146347869Y-102887455D01*
X146135455Y-103099869D01*
X145968562Y-103349642D01*
X145853605Y-103627174D01*
X145795000Y-103921801D01*
X145795000Y-104222199D01*
X145853605Y-104516826D01*
X145895001Y-104616765D01*
X145895000Y-109531005D01*
X145888106Y-109601000D01*
X145895000Y-109670994D01*
X145895000Y-109670996D01*
X145915619Y-109880348D01*
X145997102Y-110148961D01*
X146129424Y-110396517D01*
X146307498Y-110613501D01*
X146361871Y-110658124D01*
X153755876Y-118052130D01*
X153800498Y-118106502D01*
X154017482Y-118284576D01*
X154265038Y-118416898D01*
X154533651Y-118498381D01*
X154743003Y-118519000D01*
X154743012Y-118519000D01*
X154812999Y-118525893D01*
X154882986Y-118519000D01*
X162905640Y-118519000D01*
X162975634Y-118525894D01*
X163045628Y-118519000D01*
X163045631Y-118519000D01*
X163254983Y-118498381D01*
X163267132Y-118494696D01*
X156479828Y-125282000D01*
X128171242Y-125282000D01*
X128142999Y-125279218D01*
X128114756Y-125282000D01*
X128114754Y-125282000D01*
X128030280Y-125290320D01*
X127921892Y-125323199D01*
X127822001Y-125376592D01*
X127785902Y-125406218D01*
X127734446Y-125448446D01*
X127716440Y-125470387D01*
X120011929Y-133174899D01*
X119989987Y-133192906D01*
X119971981Y-133214847D01*
X119918132Y-133280462D01*
X119864739Y-133380353D01*
X119831861Y-133488741D01*
X119820758Y-133601460D01*
X119823541Y-133629713D01*
X119823541Y-136204653D01*
X119729939Y-136142110D01*
X119497904Y-136045998D01*
X119251577Y-135997000D01*
X119000423Y-135997000D01*
X118754096Y-136045998D01*
X118522061Y-136142110D01*
X118313235Y-136281643D01*
X118135643Y-136459235D01*
X117996110Y-136668061D01*
X117899998Y-136900096D01*
X117851000Y-137146423D01*
X113124000Y-137146423D01*
X113124000Y-103921801D01*
X115061000Y-103921801D01*
X115061000Y-104222199D01*
X115119605Y-104516826D01*
X115234562Y-104794358D01*
X115401455Y-105044131D01*
X115613869Y-105256545D01*
X115863642Y-105423438D01*
X116141174Y-105538395D01*
X116435801Y-105597000D01*
X116736199Y-105597000D01*
X117030826Y-105538395D01*
X117308358Y-105423438D01*
X117558131Y-105256545D01*
X117770545Y-105044131D01*
X117937438Y-104794358D01*
X118052395Y-104516826D01*
X118111000Y-104222199D01*
X118111000Y-103921801D01*
X118052395Y-103627174D01*
X117937438Y-103349642D01*
X117770545Y-103099869D01*
X117558131Y-102887455D01*
X117308358Y-102720562D01*
X117030826Y-102605605D01*
X116736199Y-102547000D01*
X116435801Y-102547000D01*
X116141174Y-102605605D01*
X115863642Y-102720562D01*
X115613869Y-102887455D01*
X115401455Y-103099869D01*
X115234562Y-103349642D01*
X115119605Y-103627174D01*
X115061000Y-103921801D01*
X113124000Y-103921801D01*
X113124000Y-77935102D01*
X114687000Y-77935102D01*
X114687000Y-78274898D01*
X114753290Y-78608164D01*
X114883324Y-78922094D01*
X115072105Y-79204624D01*
X115312376Y-79444895D01*
X115594906Y-79633676D01*
X115687000Y-79671823D01*
X115687001Y-88034944D01*
X115259000Y-88034944D01*
X115175686Y-88043150D01*
X115095573Y-88067452D01*
X115021740Y-88106916D01*
X114957026Y-88160026D01*
X114903916Y-88224740D01*
X114864452Y-88298573D01*
X114840150Y-88378686D01*
X114831944Y-88462000D01*
X114831944Y-90862000D01*
X114840150Y-90945314D01*
X114864452Y-91025427D01*
X114903916Y-91099260D01*
X114957026Y-91163974D01*
X115021740Y-91217084D01*
X115095573Y-91256548D01*
X115175686Y-91280850D01*
X115259000Y-91289056D01*
X115734000Y-91289056D01*
X115734001Y-98829393D01*
X115730494Y-98865000D01*
X115744492Y-99007124D01*
X115785947Y-99143787D01*
X115853269Y-99269736D01*
X115921170Y-99352474D01*
X115921173Y-99352477D01*
X115943869Y-99380132D01*
X115971523Y-99402827D01*
X120198985Y-103630290D01*
X120141000Y-103921801D01*
X120141000Y-104222199D01*
X120199605Y-104516826D01*
X120314562Y-104794358D01*
X120481455Y-105044131D01*
X120693869Y-105256545D01*
X120943642Y-105423438D01*
X121221174Y-105538395D01*
X121515801Y-105597000D01*
X121816199Y-105597000D01*
X122110826Y-105538395D01*
X122388358Y-105423438D01*
X122638131Y-105256545D01*
X122850545Y-105044131D01*
X123017438Y-104794358D01*
X123132395Y-104516826D01*
X123191000Y-104222199D01*
X123191000Y-103921801D01*
X125221000Y-103921801D01*
X125221000Y-104222199D01*
X125279605Y-104516826D01*
X125394562Y-104794358D01*
X125561455Y-105044131D01*
X125773869Y-105256545D01*
X126023642Y-105423438D01*
X126301174Y-105538395D01*
X126595801Y-105597000D01*
X126896199Y-105597000D01*
X127190826Y-105538395D01*
X127468358Y-105423438D01*
X127718131Y-105256545D01*
X127930545Y-105044131D01*
X128095673Y-104797000D01*
X129064403Y-104797000D01*
X129100000Y-104800506D01*
X129135597Y-104797000D01*
X129135607Y-104797000D01*
X129242125Y-104786509D01*
X129378788Y-104745053D01*
X129504737Y-104677731D01*
X129615132Y-104587132D01*
X129637832Y-104559472D01*
X131597135Y-102600170D01*
X131673651Y-102623381D01*
X131883003Y-102644000D01*
X131883012Y-102644000D01*
X131952999Y-102650893D01*
X132022986Y-102644000D01*
X136622480Y-102644000D01*
X136437642Y-102720562D01*
X136187869Y-102887455D01*
X135975455Y-103099869D01*
X135808562Y-103349642D01*
X135693605Y-103627174D01*
X135635000Y-103921801D01*
X135635000Y-104222199D01*
X135693605Y-104516826D01*
X135808562Y-104794358D01*
X135975455Y-105044131D01*
X136187869Y-105256545D01*
X136437642Y-105423438D01*
X136715174Y-105538395D01*
X137009801Y-105597000D01*
X137310199Y-105597000D01*
X137604826Y-105538395D01*
X137882358Y-105423438D01*
X138132131Y-105256545D01*
X138344545Y-105044131D01*
X138511438Y-104794358D01*
X138626395Y-104516826D01*
X138685000Y-104222199D01*
X138685000Y-103921801D01*
X138626395Y-103627174D01*
X138511438Y-103349642D01*
X138344545Y-103099869D01*
X138132131Y-102887455D01*
X137882358Y-102720562D01*
X137697520Y-102644000D01*
X138796747Y-102644000D01*
X140847167Y-104694422D01*
X140888562Y-104794358D01*
X141055455Y-105044131D01*
X141267869Y-105256545D01*
X141517642Y-105423438D01*
X141795174Y-105538395D01*
X142089801Y-105597000D01*
X142390199Y-105597000D01*
X142684826Y-105538395D01*
X142962358Y-105423438D01*
X143212131Y-105256545D01*
X143424545Y-105044131D01*
X143591438Y-104794358D01*
X143706395Y-104516826D01*
X143765000Y-104222199D01*
X143765000Y-103921801D01*
X143706395Y-103627174D01*
X143591438Y-103349642D01*
X143424545Y-103099869D01*
X143212131Y-102887455D01*
X142962358Y-102720562D01*
X142862422Y-102679167D01*
X140444128Y-100260875D01*
X140399502Y-100206498D01*
X140182518Y-100028424D01*
X139934962Y-99896102D01*
X139666349Y-99814619D01*
X139456997Y-99794000D01*
X139456994Y-99794000D01*
X139387000Y-99787106D01*
X139317006Y-99794000D01*
X132543254Y-99794000D01*
X130156000Y-97406747D01*
X130156000Y-84910700D01*
X137554964Y-84910700D01*
X137554964Y-86660700D01*
X137579983Y-86914719D01*
X137654077Y-87158975D01*
X137774400Y-87384084D01*
X137936327Y-87581393D01*
X138133636Y-87743320D01*
X138358745Y-87863643D01*
X138603001Y-87937737D01*
X138857020Y-87962756D01*
X140607020Y-87962756D01*
X140861039Y-87937737D01*
X141105295Y-87863643D01*
X141330404Y-87743320D01*
X141527713Y-87581393D01*
X141689640Y-87384084D01*
X141809963Y-87158975D01*
X141847357Y-87035700D01*
X142254964Y-87035700D01*
X142254964Y-90535700D01*
X142263170Y-90619014D01*
X142287472Y-90699127D01*
X142326936Y-90772960D01*
X142380046Y-90837674D01*
X142444760Y-90890784D01*
X142518593Y-90930248D01*
X142598706Y-90954550D01*
X142682020Y-90962756D01*
X143007020Y-90962756D01*
X143007021Y-94324016D01*
X143000126Y-94394020D01*
X143025221Y-94648807D01*
X143027640Y-94673369D01*
X143076288Y-94833739D01*
X143109123Y-94941982D01*
X143221733Y-95152659D01*
X143241445Y-95189538D01*
X143419519Y-95406522D01*
X143473890Y-95451143D01*
X158722000Y-110699254D01*
X158722001Y-112742235D01*
X158680605Y-112842174D01*
X158622000Y-113136801D01*
X158622000Y-113437199D01*
X158680605Y-113731826D01*
X158795562Y-114009358D01*
X158962455Y-114259131D01*
X159174869Y-114471545D01*
X159424642Y-114638438D01*
X159702174Y-114753395D01*
X159996801Y-114812000D01*
X160297199Y-114812000D01*
X160591826Y-114753395D01*
X160869358Y-114638438D01*
X161119131Y-114471545D01*
X161331545Y-114259131D01*
X161498438Y-114009358D01*
X161613395Y-113731826D01*
X161672000Y-113437199D01*
X161672000Y-113136801D01*
X161613395Y-112842174D01*
X161572000Y-112742237D01*
X161572000Y-110178994D01*
X161578894Y-110109000D01*
X161572000Y-110039003D01*
X161551381Y-109829651D01*
X161469898Y-109561038D01*
X161409584Y-109448199D01*
X161337577Y-109313482D01*
X161204122Y-109150868D01*
X161204119Y-109150865D01*
X161159501Y-109096498D01*
X161105135Y-109051881D01*
X152637254Y-100584000D01*
X172404589Y-100584000D01*
X172430172Y-100843745D01*
X172505937Y-101093509D01*
X172628972Y-101323692D01*
X172794550Y-101525450D01*
X172996308Y-101691028D01*
X173226491Y-101814063D01*
X173358146Y-101854000D01*
X173226491Y-101893937D01*
X172996308Y-102016972D01*
X172794550Y-102182550D01*
X172628972Y-102384308D01*
X172505937Y-102614491D01*
X172430172Y-102864255D01*
X172404589Y-103124000D01*
X172430172Y-103383745D01*
X172505937Y-103633509D01*
X172628972Y-103863692D01*
X172794550Y-104065450D01*
X172996308Y-104231028D01*
X173226491Y-104354063D01*
X173369248Y-104397368D01*
X173254022Y-104429770D01*
X173022497Y-104547515D01*
X172818391Y-104708165D01*
X172649548Y-104905548D01*
X172522457Y-105132078D01*
X172442002Y-105379049D01*
X172431457Y-105432069D01*
X172517506Y-105639000D01*
X173711000Y-105639000D01*
X173711000Y-105619000D01*
X173761000Y-105619000D01*
X173761000Y-105639000D01*
X174954494Y-105639000D01*
X175040543Y-105432069D01*
X175029998Y-105379049D01*
X174949543Y-105132078D01*
X174822452Y-104905548D01*
X174653609Y-104708165D01*
X174449503Y-104547515D01*
X174217978Y-104429770D01*
X174102752Y-104397368D01*
X174245509Y-104354063D01*
X174475692Y-104231028D01*
X174677450Y-104065450D01*
X174843028Y-103863692D01*
X174966063Y-103633509D01*
X175041828Y-103383745D01*
X175067411Y-103124000D01*
X175041828Y-102864255D01*
X174966063Y-102614491D01*
X174843028Y-102384308D01*
X174677450Y-102182550D01*
X174475692Y-102016972D01*
X174245509Y-101893937D01*
X174113854Y-101854000D01*
X174245509Y-101814063D01*
X174475692Y-101691028D01*
X174677450Y-101525450D01*
X174843028Y-101323692D01*
X174966063Y-101093509D01*
X175041828Y-100843745D01*
X175067411Y-100584000D01*
X175041828Y-100324255D01*
X174966063Y-100074491D01*
X174843028Y-99844308D01*
X174677450Y-99642550D01*
X174475692Y-99476972D01*
X174277536Y-99371056D01*
X174636000Y-99371056D01*
X174719314Y-99362850D01*
X174799427Y-99338548D01*
X174873260Y-99299084D01*
X174937974Y-99245974D01*
X174991084Y-99181260D01*
X175030548Y-99107427D01*
X175054850Y-99027314D01*
X175063056Y-98944000D01*
X175063056Y-97144000D01*
X175054850Y-97060686D01*
X175030548Y-96980573D01*
X174991084Y-96906740D01*
X174937974Y-96842026D01*
X174873260Y-96788916D01*
X174799427Y-96749452D01*
X174719314Y-96725150D01*
X174636000Y-96716944D01*
X172836000Y-96716944D01*
X172752686Y-96725150D01*
X172672573Y-96749452D01*
X172598740Y-96788916D01*
X172534026Y-96842026D01*
X172480916Y-96906740D01*
X172441452Y-96980573D01*
X172417150Y-97060686D01*
X172408944Y-97144000D01*
X172408944Y-98944000D01*
X172417150Y-99027314D01*
X172441452Y-99107427D01*
X172480916Y-99181260D01*
X172534026Y-99245974D01*
X172598740Y-99299084D01*
X172672573Y-99338548D01*
X172752686Y-99362850D01*
X172836000Y-99371056D01*
X173194464Y-99371056D01*
X172996308Y-99476972D01*
X172794550Y-99642550D01*
X172628972Y-99844308D01*
X172505937Y-100074491D01*
X172430172Y-100324255D01*
X172404589Y-100584000D01*
X152637254Y-100584000D01*
X146303762Y-94250508D01*
X148347980Y-94250508D01*
X148347980Y-94491812D01*
X148395056Y-94728479D01*
X148487399Y-94951415D01*
X148621461Y-95152052D01*
X148792088Y-95322679D01*
X148992725Y-95456741D01*
X149215661Y-95549084D01*
X149452328Y-95596160D01*
X149693632Y-95596160D01*
X149930299Y-95549084D01*
X150153235Y-95456741D01*
X150353872Y-95322679D01*
X150524499Y-95152052D01*
X150658561Y-94951415D01*
X150750904Y-94728479D01*
X150797980Y-94491812D01*
X150797980Y-94250508D01*
X150750904Y-94013841D01*
X150658561Y-93790905D01*
X150524499Y-93590268D01*
X150353872Y-93419641D01*
X150153235Y-93285579D01*
X149930299Y-93193236D01*
X149693632Y-93146160D01*
X149452328Y-93146160D01*
X149215661Y-93193236D01*
X148992725Y-93285579D01*
X148792088Y-93419641D01*
X148621461Y-93590268D01*
X148487399Y-93790905D01*
X148395056Y-94013841D01*
X148347980Y-94250508D01*
X146303762Y-94250508D01*
X145857020Y-93803767D01*
X145857020Y-90962756D01*
X146182020Y-90962756D01*
X146265334Y-90954550D01*
X146345447Y-90930248D01*
X146419280Y-90890784D01*
X146483994Y-90837674D01*
X146537104Y-90772960D01*
X146576568Y-90699127D01*
X146600870Y-90619014D01*
X146609076Y-90535700D01*
X146609076Y-87035700D01*
X146600870Y-86952386D01*
X146576568Y-86872273D01*
X146537104Y-86798440D01*
X146483994Y-86733726D01*
X146419280Y-86680616D01*
X146345447Y-86641152D01*
X146265334Y-86616850D01*
X146182020Y-86608644D01*
X142682020Y-86608644D01*
X142598706Y-86616850D01*
X142518593Y-86641152D01*
X142444760Y-86680616D01*
X142380046Y-86733726D01*
X142326936Y-86798440D01*
X142287472Y-86872273D01*
X142263170Y-86952386D01*
X142254964Y-87035700D01*
X141847357Y-87035700D01*
X141884057Y-86914719D01*
X141909076Y-86660700D01*
X141909076Y-84910700D01*
X141884057Y-84656681D01*
X141809963Y-84412425D01*
X141742228Y-84285700D01*
X142254964Y-84285700D01*
X142263170Y-84369014D01*
X142287472Y-84449127D01*
X142326936Y-84522960D01*
X142380046Y-84587674D01*
X142444760Y-84640784D01*
X142518593Y-84680248D01*
X142598706Y-84704550D01*
X142682020Y-84712756D01*
X144300770Y-84710700D01*
X144407020Y-84604450D01*
X144407020Y-82810700D01*
X144457020Y-82810700D01*
X144457020Y-84604450D01*
X144563270Y-84710700D01*
X146182020Y-84712756D01*
X146265334Y-84704550D01*
X146345447Y-84680248D01*
X146419280Y-84640784D01*
X146483994Y-84587674D01*
X146537104Y-84522960D01*
X146576568Y-84449127D01*
X146600870Y-84369014D01*
X146609076Y-84285700D01*
X146607020Y-82916950D01*
X146500770Y-82810700D01*
X144457020Y-82810700D01*
X144407020Y-82810700D01*
X142363270Y-82810700D01*
X142257020Y-82916950D01*
X142254964Y-84285700D01*
X141742228Y-84285700D01*
X141689640Y-84187316D01*
X141527713Y-83990007D01*
X141330404Y-83828080D01*
X141105295Y-83707757D01*
X140861039Y-83633663D01*
X140607020Y-83608644D01*
X138857020Y-83608644D01*
X138603001Y-83633663D01*
X138358745Y-83707757D01*
X138133636Y-83828080D01*
X137936327Y-83990007D01*
X137774400Y-84187316D01*
X137654077Y-84412425D01*
X137579983Y-84656681D01*
X137554964Y-84910700D01*
X130156000Y-84910700D01*
X130156000Y-81285700D01*
X142254964Y-81285700D01*
X142257020Y-82654450D01*
X142363270Y-82760700D01*
X144407020Y-82760700D01*
X144407020Y-80966950D01*
X144457020Y-80966950D01*
X144457020Y-82760700D01*
X146500770Y-82760700D01*
X146607020Y-82654450D01*
X146609076Y-81285700D01*
X146600870Y-81202386D01*
X146576568Y-81122273D01*
X146537104Y-81048440D01*
X146483994Y-80983726D01*
X146419280Y-80930616D01*
X146345447Y-80891152D01*
X146265334Y-80866850D01*
X146182020Y-80858644D01*
X144563270Y-80860700D01*
X144457020Y-80966950D01*
X144407020Y-80966950D01*
X144300770Y-80860700D01*
X142682020Y-80858644D01*
X142598706Y-80866850D01*
X142518593Y-80891152D01*
X142444760Y-80930616D01*
X142380046Y-80983726D01*
X142326936Y-81048440D01*
X142287472Y-81122273D01*
X142263170Y-81202386D01*
X142254964Y-81285700D01*
X130156000Y-81285700D01*
X130156000Y-79405000D01*
X132003944Y-79405000D01*
X132012150Y-79488314D01*
X132036452Y-79568427D01*
X132075916Y-79642260D01*
X132129026Y-79706974D01*
X132193740Y-79760084D01*
X132267573Y-79799548D01*
X132347686Y-79823850D01*
X132431000Y-79832056D01*
X133599750Y-79830000D01*
X133706000Y-79723750D01*
X133706000Y-78130000D01*
X133756000Y-78130000D01*
X133756000Y-79723750D01*
X133862250Y-79830000D01*
X135031000Y-79832056D01*
X135114314Y-79823850D01*
X135194427Y-79799548D01*
X135268260Y-79760084D01*
X135332974Y-79706974D01*
X135386084Y-79642260D01*
X135425548Y-79568427D01*
X135449850Y-79488314D01*
X135458056Y-79405000D01*
X135456000Y-78236250D01*
X135349750Y-78130000D01*
X133756000Y-78130000D01*
X133706000Y-78130000D01*
X132112250Y-78130000D01*
X132006000Y-78236250D01*
X132003944Y-79405000D01*
X130156000Y-79405000D01*
X130156000Y-79077256D01*
X130259676Y-78922094D01*
X130389710Y-78608164D01*
X130456000Y-78274898D01*
X130456000Y-77935102D01*
X130389710Y-77601836D01*
X130259676Y-77287906D01*
X130070895Y-77005376D01*
X129870519Y-76805000D01*
X132003944Y-76805000D01*
X132006000Y-77973750D01*
X132112250Y-78080000D01*
X133706000Y-78080000D01*
X133706000Y-76486250D01*
X133756000Y-76486250D01*
X133756000Y-78080000D01*
X135349750Y-78080000D01*
X135456000Y-77973750D01*
X135458056Y-76805000D01*
X135449850Y-76721686D01*
X135425548Y-76641573D01*
X135386084Y-76567740D01*
X135332974Y-76503026D01*
X135268260Y-76449916D01*
X135194427Y-76410452D01*
X135114314Y-76386150D01*
X135031000Y-76377944D01*
X133862250Y-76380000D01*
X133756000Y-76486250D01*
X133706000Y-76486250D01*
X133599750Y-76380000D01*
X132431000Y-76377944D01*
X132347686Y-76386150D01*
X132267573Y-76410452D01*
X132193740Y-76449916D01*
X132129026Y-76503026D01*
X132075916Y-76567740D01*
X132036452Y-76641573D01*
X132012150Y-76721686D01*
X132003944Y-76805000D01*
X129870519Y-76805000D01*
X129830624Y-76765105D01*
X129548094Y-76576324D01*
X129234164Y-76446290D01*
X128900898Y-76380000D01*
X128561102Y-76380000D01*
X128227836Y-76446290D01*
X127913906Y-76576324D01*
X127631376Y-76765105D01*
X127391105Y-77005376D01*
X127202324Y-77287906D01*
X127072290Y-77601836D01*
X127006000Y-77935102D01*
X127006000Y-78274898D01*
X127072290Y-78608164D01*
X127202324Y-78922094D01*
X127306001Y-79077257D01*
X127306000Y-97927006D01*
X127299106Y-97997000D01*
X127306000Y-98066994D01*
X127306000Y-98066996D01*
X127326619Y-98276348D01*
X127408102Y-98544961D01*
X127540424Y-98792517D01*
X127718498Y-99009501D01*
X127772871Y-99054124D01*
X130432721Y-101713975D01*
X128799696Y-103347000D01*
X128095673Y-103347000D01*
X127930545Y-103099869D01*
X127718131Y-102887455D01*
X127468358Y-102720562D01*
X127190826Y-102605605D01*
X126896199Y-102547000D01*
X126595801Y-102547000D01*
X126301174Y-102605605D01*
X126023642Y-102720562D01*
X125773869Y-102887455D01*
X125561455Y-103099869D01*
X125394562Y-103349642D01*
X125279605Y-103627174D01*
X125221000Y-103921801D01*
X123191000Y-103921801D01*
X123132395Y-103627174D01*
X123017438Y-103349642D01*
X122850545Y-103099869D01*
X122638131Y-102887455D01*
X122388358Y-102720562D01*
X122110826Y-102605605D01*
X121816199Y-102547000D01*
X121515801Y-102547000D01*
X121224290Y-102604985D01*
X117184000Y-98564696D01*
X117184000Y-91289056D01*
X117659000Y-91289056D01*
X117742314Y-91280850D01*
X117822427Y-91256548D01*
X117896260Y-91217084D01*
X117960974Y-91163974D01*
X118014084Y-91099260D01*
X118053548Y-91025427D01*
X118077850Y-90945314D01*
X118086056Y-90862000D01*
X118086056Y-89940868D01*
X119938107Y-89940868D01*
X119953248Y-90016994D01*
X120052974Y-90319538D01*
X120209807Y-90596813D01*
X120417720Y-90838164D01*
X120668723Y-91034315D01*
X120953171Y-91177729D01*
X121260132Y-91262894D01*
X121514000Y-91180559D01*
X121514000Y-89687000D01*
X121564000Y-89687000D01*
X121564000Y-91180559D01*
X121817868Y-91262894D01*
X122124829Y-91177729D01*
X122409277Y-91034315D01*
X122660280Y-90838164D01*
X122868193Y-90596813D01*
X123025026Y-90319538D01*
X123124752Y-90016994D01*
X123139893Y-89940868D01*
X123057544Y-89687000D01*
X121564000Y-89687000D01*
X121514000Y-89687000D01*
X120020456Y-89687000D01*
X119938107Y-89940868D01*
X118086056Y-89940868D01*
X118086056Y-89383132D01*
X119938107Y-89383132D01*
X120020456Y-89637000D01*
X121514000Y-89637000D01*
X121514000Y-88143441D01*
X121564000Y-88143441D01*
X121564000Y-89637000D01*
X123057544Y-89637000D01*
X123139893Y-89383132D01*
X123124752Y-89307006D01*
X123025026Y-89004462D01*
X122868193Y-88727187D01*
X122660280Y-88485836D01*
X122409277Y-88289685D01*
X122124829Y-88146271D01*
X121817868Y-88061106D01*
X121564000Y-88143441D01*
X121514000Y-88143441D01*
X121260132Y-88061106D01*
X120953171Y-88146271D01*
X120668723Y-88289685D01*
X120417720Y-88485836D01*
X120209807Y-88727187D01*
X120052974Y-89004462D01*
X119953248Y-89307006D01*
X119938107Y-89383132D01*
X118086056Y-89383132D01*
X118086056Y-88462000D01*
X118077850Y-88378686D01*
X118053548Y-88298573D01*
X118014084Y-88224740D01*
X117960974Y-88160026D01*
X117896260Y-88106916D01*
X117822427Y-88067452D01*
X117742314Y-88043150D01*
X117659000Y-88034944D01*
X117137000Y-88034944D01*
X117137000Y-79671823D01*
X117229094Y-79633676D01*
X117511624Y-79444895D01*
X117551519Y-79405000D01*
X119684944Y-79405000D01*
X119693150Y-79488314D01*
X119717452Y-79568427D01*
X119756916Y-79642260D01*
X119810026Y-79706974D01*
X119874740Y-79760084D01*
X119948573Y-79799548D01*
X120028686Y-79823850D01*
X120112000Y-79832056D01*
X121280750Y-79830000D01*
X121387000Y-79723750D01*
X121387000Y-78130000D01*
X121437000Y-78130000D01*
X121437000Y-79723750D01*
X121543250Y-79830000D01*
X122712000Y-79832056D01*
X122795314Y-79823850D01*
X122875427Y-79799548D01*
X122949260Y-79760084D01*
X123013974Y-79706974D01*
X123067084Y-79642260D01*
X123106548Y-79568427D01*
X123130850Y-79488314D01*
X123139056Y-79405000D01*
X123137000Y-78236250D01*
X123030750Y-78130000D01*
X121437000Y-78130000D01*
X121387000Y-78130000D01*
X119793250Y-78130000D01*
X119687000Y-78236250D01*
X119684944Y-79405000D01*
X117551519Y-79405000D01*
X117751895Y-79204624D01*
X117940676Y-78922094D01*
X118070710Y-78608164D01*
X118137000Y-78274898D01*
X118137000Y-77935102D01*
X118070710Y-77601836D01*
X117940676Y-77287906D01*
X117751895Y-77005376D01*
X117551519Y-76805000D01*
X119684944Y-76805000D01*
X119687000Y-77973750D01*
X119793250Y-78080000D01*
X121387000Y-78080000D01*
X121387000Y-76486250D01*
X121437000Y-76486250D01*
X121437000Y-78080000D01*
X123030750Y-78080000D01*
X123137000Y-77973750D01*
X123139056Y-76805000D01*
X123130850Y-76721686D01*
X123106548Y-76641573D01*
X123067084Y-76567740D01*
X123013974Y-76503026D01*
X122949260Y-76449916D01*
X122875427Y-76410452D01*
X122795314Y-76386150D01*
X122712000Y-76377944D01*
X121543250Y-76380000D01*
X121437000Y-76486250D01*
X121387000Y-76486250D01*
X121280750Y-76380000D01*
X120112000Y-76377944D01*
X120028686Y-76386150D01*
X119948573Y-76410452D01*
X119874740Y-76449916D01*
X119810026Y-76503026D01*
X119756916Y-76567740D01*
X119717452Y-76641573D01*
X119693150Y-76721686D01*
X119684944Y-76805000D01*
X117551519Y-76805000D01*
X117511624Y-76765105D01*
X117229094Y-76576324D01*
X116915164Y-76446290D01*
X116581898Y-76380000D01*
X116242102Y-76380000D01*
X115908836Y-76446290D01*
X115594906Y-76576324D01*
X115312376Y-76765105D01*
X115072105Y-77005376D01*
X114883324Y-77287906D01*
X114753290Y-77601836D01*
X114687000Y-77935102D01*
X113124000Y-77935102D01*
X113124000Y-75278000D01*
X223426000Y-75278000D01*
X223426001Y-143162000D01*
X223426001Y-143162000D01*
G37*
X223426001Y-143162000D02*
X113124000Y-143162000D01*
X113124000Y-137146423D01*
X117851000Y-137146423D01*
X117851000Y-137397577D01*
X117899998Y-137643904D01*
X117996110Y-137875939D01*
X118135643Y-138084765D01*
X118313235Y-138262357D01*
X118401001Y-138321000D01*
X118401001Y-139194493D01*
X118397494Y-139230100D01*
X118401001Y-139265707D01*
X118411492Y-139372225D01*
X118423893Y-139413107D01*
X118452947Y-139508887D01*
X118520269Y-139634836D01*
X118588170Y-139717574D01*
X118588173Y-139717577D01*
X118610869Y-139745232D01*
X118638523Y-139767927D01*
X121471072Y-142600477D01*
X121493768Y-142628132D01*
X121521423Y-142650828D01*
X121521425Y-142650830D01*
X121556205Y-142679373D01*
X121604163Y-142718731D01*
X121730112Y-142786053D01*
X121866775Y-142827509D01*
X121973293Y-142838000D01*
X121973302Y-142838000D01*
X122008899Y-142841506D01*
X122044496Y-142838000D01*
X139664393Y-142838000D01*
X139700000Y-142841507D01*
X139735607Y-142838000D01*
X160218082Y-142838000D01*
X160253679Y-142841506D01*
X160289276Y-142838000D01*
X215229403Y-142838000D01*
X215265000Y-142841506D01*
X215300597Y-142838000D01*
X215300607Y-142838000D01*
X215407125Y-142827509D01*
X215543788Y-142786053D01*
X215669737Y-142718731D01*
X215780132Y-142628132D01*
X215802832Y-142600472D01*
X217657477Y-140745828D01*
X217685132Y-140723132D01*
X217775731Y-140612737D01*
X217843053Y-140486788D01*
X217884509Y-140350125D01*
X217895000Y-140243607D01*
X217895000Y-140243597D01*
X217898506Y-140208000D01*
X217895000Y-140172403D01*
X217895000Y-139285135D01*
X218014638Y-139205195D01*
X218199195Y-139020638D01*
X218344200Y-138803623D01*
X218444081Y-138562488D01*
X218495000Y-138306501D01*
X218495000Y-138045499D01*
X218444081Y-137789512D01*
X218344200Y-137548377D01*
X218199195Y-137331362D01*
X218014638Y-137146805D01*
X217895000Y-137066865D01*
X217895000Y-133893596D01*
X217898506Y-133857999D01*
X217895000Y-133822402D01*
X217895000Y-133822393D01*
X217884509Y-133715875D01*
X217843053Y-133579212D01*
X217775731Y-133453263D01*
X217707830Y-133370525D01*
X217707823Y-133370518D01*
X217685131Y-133342868D01*
X217657482Y-133320177D01*
X193882804Y-109545499D01*
X206955000Y-109545499D01*
X206955000Y-109806501D01*
X207005919Y-110062488D01*
X207105800Y-110303623D01*
X207250805Y-110520638D01*
X207435362Y-110705195D01*
X207652377Y-110850200D01*
X207893512Y-110950081D01*
X208149499Y-111001000D01*
X208410501Y-111001000D01*
X208666488Y-110950081D01*
X208907623Y-110850200D01*
X209124638Y-110705195D01*
X209309195Y-110520638D01*
X209454200Y-110303623D01*
X209550000Y-110072340D01*
X209645800Y-110303623D01*
X209790805Y-110520638D01*
X209975362Y-110705195D01*
X210192377Y-110850200D01*
X210433512Y-110950081D01*
X210689499Y-111001000D01*
X210950501Y-111001000D01*
X211206488Y-110950081D01*
X211447623Y-110850200D01*
X211664638Y-110705195D01*
X211849195Y-110520638D01*
X211994200Y-110303623D01*
X212094081Y-110062488D01*
X212145000Y-109806501D01*
X212145000Y-109545499D01*
X212094081Y-109289512D01*
X212072284Y-109236888D01*
X220223612Y-101085561D01*
X220245554Y-101067554D01*
X220317408Y-100979998D01*
X220370801Y-100880108D01*
X220403680Y-100771720D01*
X220412000Y-100687246D01*
X220412000Y-100687243D01*
X220414782Y-100659000D01*
X220412000Y-100630757D01*
X220412000Y-91341243D01*
X220414782Y-91313000D01*
X220409847Y-91262894D01*
X220403680Y-91200280D01*
X220370801Y-91091892D01*
X220317408Y-90992002D01*
X220245554Y-90904446D01*
X220223613Y-90886440D01*
X219201674Y-89864501D01*
X219244000Y-89651712D01*
X219244000Y-89418288D01*
X219198461Y-89189348D01*
X219109134Y-88973692D01*
X218979450Y-88779606D01*
X218814394Y-88614550D01*
X218620308Y-88484866D01*
X218404652Y-88395539D01*
X218175712Y-88350000D01*
X217942288Y-88350000D01*
X217713348Y-88395539D01*
X217497692Y-88484866D01*
X217303606Y-88614550D01*
X217138550Y-88779606D01*
X217018015Y-88960000D01*
X216559985Y-88960000D01*
X216439450Y-88779606D01*
X216274394Y-88614550D01*
X216080308Y-88484866D01*
X215864652Y-88395539D01*
X215635712Y-88350000D01*
X215402288Y-88350000D01*
X215173348Y-88395539D01*
X214957692Y-88484866D01*
X214763606Y-88614550D01*
X214598550Y-88779606D01*
X214468866Y-88973692D01*
X214379539Y-89189348D01*
X214334000Y-89418288D01*
X214334000Y-89651712D01*
X214379539Y-89880652D01*
X214468866Y-90096308D01*
X214598550Y-90290394D01*
X214763606Y-90455450D01*
X214957692Y-90585134D01*
X215173348Y-90674461D01*
X215402288Y-90720000D01*
X215635712Y-90720000D01*
X215864652Y-90674461D01*
X216080308Y-90585134D01*
X216274394Y-90455450D01*
X216439450Y-90290394D01*
X216559985Y-90110000D01*
X217018015Y-90110000D01*
X217138550Y-90290394D01*
X217303606Y-90455450D01*
X217497692Y-90585134D01*
X217713348Y-90674461D01*
X217942288Y-90720000D01*
X218175712Y-90720000D01*
X218388501Y-90677674D01*
X219262000Y-91551173D01*
X219262001Y-100420826D01*
X211259112Y-108423716D01*
X211206488Y-108401919D01*
X210950501Y-108351000D01*
X210689499Y-108351000D01*
X210433512Y-108401919D01*
X210320401Y-108448771D01*
X217175612Y-101593561D01*
X217197554Y-101575554D01*
X217238673Y-101525450D01*
X217269408Y-101487999D01*
X217322801Y-101388108D01*
X217330986Y-101361125D01*
X217355680Y-101279720D01*
X217364000Y-101195246D01*
X217364000Y-101195244D01*
X217366782Y-101167001D01*
X217364000Y-101138758D01*
X217364000Y-93115985D01*
X217544394Y-92995450D01*
X217709450Y-92830394D01*
X217839134Y-92636308D01*
X217928461Y-92420652D01*
X217974000Y-92191712D01*
X217974000Y-91958288D01*
X217928461Y-91729348D01*
X217839134Y-91513692D01*
X217709450Y-91319606D01*
X217544394Y-91154550D01*
X217350308Y-91024866D01*
X217134652Y-90935539D01*
X216905712Y-90890000D01*
X216672288Y-90890000D01*
X216443348Y-90935539D01*
X216227692Y-91024866D01*
X216033606Y-91154550D01*
X215868550Y-91319606D01*
X215748015Y-91500000D01*
X215289985Y-91500000D01*
X215169450Y-91319606D01*
X215004394Y-91154550D01*
X214810308Y-91024866D01*
X214594652Y-90935539D01*
X214365712Y-90890000D01*
X214132288Y-90890000D01*
X213903348Y-90935539D01*
X213687692Y-91024866D01*
X213493606Y-91154550D01*
X213328550Y-91319606D01*
X213198866Y-91513692D01*
X213109539Y-91729348D01*
X213064000Y-91958288D01*
X213064000Y-92191712D01*
X213109539Y-92420652D01*
X213198866Y-92636308D01*
X213328550Y-92830394D01*
X213493606Y-92995450D01*
X213687692Y-93125134D01*
X213903348Y-93214461D01*
X214132288Y-93260000D01*
X214365712Y-93260000D01*
X214594652Y-93214461D01*
X214810308Y-93125134D01*
X215004394Y-92995450D01*
X215169450Y-92830394D01*
X215289985Y-92650000D01*
X215748015Y-92650000D01*
X215868550Y-92830394D01*
X216033606Y-92995450D01*
X216214000Y-93115985D01*
X216214001Y-100928826D01*
X208719112Y-108423716D01*
X208666488Y-108401919D01*
X208410501Y-108351000D01*
X208149499Y-108351000D01*
X207893512Y-108401919D01*
X207652377Y-108501800D01*
X207435362Y-108646805D01*
X207250805Y-108831362D01*
X207105800Y-109048377D01*
X207005919Y-109289512D01*
X206955000Y-109545499D01*
X193882804Y-109545499D01*
X190623230Y-106285926D01*
X190653529Y-106269731D01*
X190763924Y-106179132D01*
X190786624Y-106151472D01*
X200893482Y-96044615D01*
X200921131Y-96021924D01*
X200943823Y-95994274D01*
X200943830Y-95994267D01*
X201011731Y-95911529D01*
X201079053Y-95785580D01*
X201099881Y-95716918D01*
X201120509Y-95648917D01*
X201131000Y-95542399D01*
X201131000Y-95542390D01*
X201134506Y-95506793D01*
X201131000Y-95471196D01*
X201131000Y-93015759D01*
X201161394Y-92995450D01*
X201326450Y-92830394D01*
X201346759Y-92800000D01*
X201445205Y-92800000D01*
X201480802Y-92803506D01*
X201516399Y-92800000D01*
X201516409Y-92800000D01*
X201622927Y-92789509D01*
X201759590Y-92748053D01*
X201885539Y-92680731D01*
X201995934Y-92590132D01*
X202018634Y-92562472D01*
X204957477Y-89623630D01*
X204985132Y-89600934D01*
X205021387Y-89556758D01*
X205075731Y-89490539D01*
X205112216Y-89422281D01*
X205143053Y-89364590D01*
X205184509Y-89227927D01*
X205195000Y-89121409D01*
X205195000Y-89121400D01*
X205198506Y-89085803D01*
X205195000Y-89050206D01*
X205195000Y-88046596D01*
X205198506Y-88010999D01*
X205195000Y-87975402D01*
X205195000Y-87975393D01*
X205184509Y-87868875D01*
X205143053Y-87732212D01*
X205075731Y-87606263D01*
X205007830Y-87523525D01*
X205007823Y-87523518D01*
X204985131Y-87495868D01*
X204957482Y-87473177D01*
X200877000Y-83392696D01*
X200877000Y-82985555D01*
X202831000Y-82985555D01*
X202831000Y-83384445D01*
X202908820Y-83775671D01*
X203061468Y-84144197D01*
X203283080Y-84475862D01*
X203565138Y-84757920D01*
X203896803Y-84979532D01*
X204265329Y-85132180D01*
X204656555Y-85210000D01*
X205055445Y-85210000D01*
X205446671Y-85132180D01*
X205815197Y-84979532D01*
X206146862Y-84757920D01*
X206428920Y-84475862D01*
X206650532Y-84144197D01*
X206803180Y-83775671D01*
X206881000Y-83384445D01*
X206881000Y-82985555D01*
X209054000Y-82985555D01*
X209054000Y-83384445D01*
X209131820Y-83775671D01*
X209284468Y-84144197D01*
X209506080Y-84475862D01*
X209788138Y-84757920D01*
X210119803Y-84979532D01*
X210488329Y-85132180D01*
X210879555Y-85210000D01*
X211278445Y-85210000D01*
X211669671Y-85132180D01*
X212038197Y-84979532D01*
X212369862Y-84757920D01*
X212651920Y-84475862D01*
X212873532Y-84144197D01*
X213026180Y-83775671D01*
X213104000Y-83384445D01*
X213104000Y-82985555D01*
X219214000Y-82985555D01*
X219214000Y-83384445D01*
X219291820Y-83775671D01*
X219444468Y-84144197D01*
X219666080Y-84475862D01*
X219948138Y-84757920D01*
X220279803Y-84979532D01*
X220648329Y-85132180D01*
X221039555Y-85210000D01*
X221438445Y-85210000D01*
X221829671Y-85132180D01*
X222198197Y-84979532D01*
X222529862Y-84757920D01*
X222811920Y-84475862D01*
X223033532Y-84144197D01*
X223186180Y-83775671D01*
X223264000Y-83384445D01*
X223264000Y-82985555D01*
X223186180Y-82594329D01*
X223033532Y-82225803D01*
X222811920Y-81894138D01*
X222529862Y-81612080D01*
X222198197Y-81390468D01*
X221829671Y-81237820D01*
X221438445Y-81160000D01*
X221039555Y-81160000D01*
X220648329Y-81237820D01*
X220279803Y-81390468D01*
X219948138Y-81612080D01*
X219666080Y-81894138D01*
X219444468Y-82225803D01*
X219291820Y-82594329D01*
X219214000Y-82985555D01*
X213104000Y-82985555D01*
X213026180Y-82594329D01*
X212873532Y-82225803D01*
X212651920Y-81894138D01*
X212369862Y-81612080D01*
X212038197Y-81390468D01*
X211669671Y-81237820D01*
X211278445Y-81160000D01*
X210879555Y-81160000D01*
X210488329Y-81237820D01*
X210119803Y-81390468D01*
X209788138Y-81612080D01*
X209506080Y-81894138D01*
X209284468Y-82225803D01*
X209131820Y-82594329D01*
X209054000Y-82985555D01*
X206881000Y-82985555D01*
X206803180Y-82594329D01*
X206650532Y-82225803D01*
X206428920Y-81894138D01*
X206146862Y-81612080D01*
X205815197Y-81390468D01*
X205446671Y-81237820D01*
X205055445Y-81160000D01*
X204656555Y-81160000D01*
X204265329Y-81237820D01*
X203896803Y-81390468D01*
X203565138Y-81612080D01*
X203283080Y-81894138D01*
X203061468Y-82225803D01*
X202908820Y-82594329D01*
X202831000Y-82985555D01*
X200877000Y-82985555D01*
X200877000Y-81823597D01*
X200880506Y-81788000D01*
X200877000Y-81752403D01*
X200877000Y-81752393D01*
X200866509Y-81645875D01*
X200825053Y-81509212D01*
X200757731Y-81383263D01*
X200715136Y-81331361D01*
X200689830Y-81300525D01*
X200689823Y-81300518D01*
X200667131Y-81272868D01*
X200639482Y-81250177D01*
X198784832Y-79395528D01*
X198762132Y-79367868D01*
X198651737Y-79277269D01*
X198525788Y-79209947D01*
X198389125Y-79168491D01*
X198282607Y-79158000D01*
X198282597Y-79158000D01*
X198247000Y-79154494D01*
X198211403Y-79158000D01*
X189577135Y-79158000D01*
X189497195Y-79038362D01*
X189312638Y-78853805D01*
X189095623Y-78708800D01*
X188864340Y-78613000D01*
X189095623Y-78517200D01*
X189312638Y-78372195D01*
X189497195Y-78187638D01*
X189642200Y-77970623D01*
X189742081Y-77729488D01*
X189793000Y-77473501D01*
X189793000Y-77212499D01*
X189742081Y-76956512D01*
X189642200Y-76715377D01*
X189497195Y-76498362D01*
X189312638Y-76313805D01*
X189095623Y-76168800D01*
X188854488Y-76068919D01*
X188598501Y-76018000D01*
X188337499Y-76018000D01*
X188081512Y-76068919D01*
X187840377Y-76168800D01*
X187623362Y-76313805D01*
X187438805Y-76498362D01*
X187293800Y-76715377D01*
X187193919Y-76956512D01*
X187143000Y-77212499D01*
X187143000Y-77473501D01*
X187193919Y-77729488D01*
X187293800Y-77970623D01*
X187438805Y-78187638D01*
X187623362Y-78372195D01*
X187840377Y-78517200D01*
X188071660Y-78613000D01*
X187840377Y-78708800D01*
X187623362Y-78853805D01*
X187438805Y-79038362D01*
X187293800Y-79255377D01*
X187193919Y-79496512D01*
X187143000Y-79752499D01*
X187143000Y-80013501D01*
X187193919Y-80269488D01*
X187293800Y-80510623D01*
X187352183Y-80597999D01*
X184666243Y-80597999D01*
X184638000Y-80595217D01*
X184609757Y-80597999D01*
X184609755Y-80597999D01*
X184525281Y-80606319D01*
X184416893Y-80639198D01*
X184351797Y-80673993D01*
X184317002Y-80692591D01*
X184274297Y-80727638D01*
X184229447Y-80764445D01*
X184211440Y-80786387D01*
X174767828Y-90230000D01*
X159702803Y-90230000D01*
X159674560Y-90227218D01*
X159646317Y-90230000D01*
X159646314Y-90230000D01*
X159561840Y-90238320D01*
X159464885Y-90267731D01*
X159453452Y-90271199D01*
X159353561Y-90324592D01*
X159307713Y-90362218D01*
X159266006Y-90396446D01*
X159248000Y-90418387D01*
X156046795Y-93619593D01*
X156041539Y-93617416D01*
X155804872Y-93570340D01*
X155563568Y-93570340D01*
X155326901Y-93617416D01*
X155103965Y-93709759D01*
X154903328Y-93843821D01*
X154732701Y-94014448D01*
X154598639Y-94215085D01*
X154506296Y-94438021D01*
X154459220Y-94674688D01*
X154459220Y-94915992D01*
X154506296Y-95152659D01*
X154598639Y-95375595D01*
X154732701Y-95576232D01*
X154903328Y-95746859D01*
X155103965Y-95880921D01*
X155326901Y-95973264D01*
X155563568Y-96020340D01*
X155804872Y-96020340D01*
X156041539Y-95973264D01*
X156264475Y-95880921D01*
X156465112Y-95746859D01*
X156603883Y-95608088D01*
X159986828Y-95608088D01*
X160061074Y-95805670D01*
X160271690Y-95923434D01*
X160501234Y-95997846D01*
X160740885Y-96026046D01*
X160981432Y-96006950D01*
X161213632Y-95941294D01*
X161428561Y-95831599D01*
X161467366Y-95805670D01*
X161541612Y-95608088D01*
X160764220Y-94830695D01*
X159986828Y-95608088D01*
X156603883Y-95608088D01*
X156635739Y-95576232D01*
X156769801Y-95375595D01*
X156862144Y-95152659D01*
X156909220Y-94915992D01*
X156909220Y-94772005D01*
X159533514Y-94772005D01*
X159552610Y-95012552D01*
X159618266Y-95244752D01*
X159727961Y-95459681D01*
X159753890Y-95498486D01*
X159951472Y-95572732D01*
X160728865Y-94795340D01*
X160799575Y-94795340D01*
X161576968Y-95572732D01*
X161774550Y-95498486D01*
X161892314Y-95287870D01*
X161966726Y-95058326D01*
X161994926Y-94818675D01*
X161975830Y-94578128D01*
X161910174Y-94345928D01*
X161800479Y-94130999D01*
X161774550Y-94092194D01*
X161576968Y-94017948D01*
X160799575Y-94795340D01*
X160728865Y-94795340D01*
X159951472Y-94017948D01*
X159753890Y-94092194D01*
X159636126Y-94302810D01*
X159561714Y-94532354D01*
X159533514Y-94772005D01*
X156909220Y-94772005D01*
X156909220Y-94674688D01*
X156862144Y-94438021D01*
X156859967Y-94432765D01*
X157310140Y-93982592D01*
X159986828Y-93982592D01*
X160764220Y-94759985D01*
X161541612Y-93982592D01*
X161467366Y-93785010D01*
X161256750Y-93667246D01*
X161027206Y-93592834D01*
X160787555Y-93564634D01*
X160547008Y-93583730D01*
X160314808Y-93649386D01*
X160099879Y-93759081D01*
X160061074Y-93785010D01*
X159986828Y-93982592D01*
X157310140Y-93982592D01*
X159912733Y-91380000D01*
X174977757Y-91380000D01*
X175006000Y-91382782D01*
X175034243Y-91380000D01*
X175034246Y-91380000D01*
X175118720Y-91371680D01*
X175227108Y-91338801D01*
X175326998Y-91285408D01*
X175414554Y-91213554D01*
X175432566Y-91191606D01*
X184876174Y-81747999D01*
X187327418Y-81747999D01*
X187248635Y-81888393D01*
X187167769Y-82136552D01*
X187136869Y-82395718D01*
X187157124Y-82655933D01*
X187227755Y-82907196D01*
X187345106Y-83137999D01*
X187206244Y-83137999D01*
X187178001Y-83135217D01*
X187149758Y-83137999D01*
X187149755Y-83137999D01*
X187065281Y-83146319D01*
X186956893Y-83179198D01*
X186857002Y-83232591D01*
X186811154Y-83270217D01*
X186769447Y-83304445D01*
X186751440Y-83326387D01*
X178937389Y-91140439D01*
X178915447Y-91158446D01*
X178897441Y-91180387D01*
X178843592Y-91246002D01*
X178790199Y-91345893D01*
X178757321Y-91454281D01*
X178746218Y-91567000D01*
X178749001Y-91595253D01*
X178749000Y-109743827D01*
X177053828Y-111439000D01*
X174866916Y-111439000D01*
X174966063Y-111253509D01*
X175041828Y-111003745D01*
X175067411Y-110744000D01*
X175041828Y-110484255D01*
X174966063Y-110234491D01*
X174843028Y-110004308D01*
X174677450Y-109802550D01*
X174475692Y-109636972D01*
X174245509Y-109513937D01*
X174113854Y-109474000D01*
X174245509Y-109434063D01*
X174475692Y-109311028D01*
X174677450Y-109145450D01*
X174843028Y-108943692D01*
X174966063Y-108713509D01*
X175041828Y-108463745D01*
X175067411Y-108204000D01*
X175041828Y-107944255D01*
X174966063Y-107694491D01*
X174843028Y-107464308D01*
X174677450Y-107262550D01*
X174475692Y-107096972D01*
X174245509Y-106973937D01*
X174102752Y-106930632D01*
X174217978Y-106898230D01*
X174449503Y-106780485D01*
X174653609Y-106619835D01*
X174822452Y-106422452D01*
X174949543Y-106195922D01*
X175029998Y-105948951D01*
X175040543Y-105895931D01*
X174954494Y-105689000D01*
X173761000Y-105689000D01*
X173761000Y-105709000D01*
X173711000Y-105709000D01*
X173711000Y-105689000D01*
X172517506Y-105689000D01*
X172431457Y-105895931D01*
X172442002Y-105948951D01*
X172522457Y-106195922D01*
X172649548Y-106422452D01*
X172818391Y-106619835D01*
X173022497Y-106780485D01*
X173254022Y-106898230D01*
X173369248Y-106930632D01*
X173226491Y-106973937D01*
X172996308Y-107096972D01*
X172794550Y-107262550D01*
X172628972Y-107464308D01*
X172505937Y-107694491D01*
X172430172Y-107944255D01*
X172404589Y-108204000D01*
X172430172Y-108463745D01*
X172505937Y-108713509D01*
X172628972Y-108943692D01*
X172794550Y-109145450D01*
X172996308Y-109311028D01*
X173226491Y-109434063D01*
X173358146Y-109474000D01*
X173226491Y-109513937D01*
X172996308Y-109636972D01*
X172794550Y-109802550D01*
X172628972Y-110004308D01*
X172540943Y-110169000D01*
X171859243Y-110169000D01*
X171831000Y-110166218D01*
X171802757Y-110169000D01*
X171802754Y-110169000D01*
X171718280Y-110177320D01*
X171609892Y-110210199D01*
X171510002Y-110263592D01*
X171422446Y-110335446D01*
X171404439Y-110357388D01*
X166627696Y-115134132D01*
X166631381Y-115121983D01*
X166652000Y-114912631D01*
X166652000Y-114912622D01*
X166658893Y-114842635D01*
X166652000Y-114772648D01*
X166652000Y-113831763D01*
X166693395Y-113731826D01*
X166752000Y-113437199D01*
X166752000Y-113136801D01*
X166693395Y-112842174D01*
X166578438Y-112564642D01*
X166411545Y-112314869D01*
X166199131Y-112102455D01*
X165949358Y-111935562D01*
X165671826Y-111820605D01*
X165377199Y-111762000D01*
X165076801Y-111762000D01*
X164782174Y-111820605D01*
X164504642Y-111935562D01*
X164254869Y-112102455D01*
X164042455Y-112314869D01*
X163875562Y-112564642D01*
X163760605Y-112842174D01*
X163702000Y-113136801D01*
X163702000Y-113437199D01*
X163760605Y-113731826D01*
X163802000Y-113831763D01*
X163802000Y-114252379D01*
X162385381Y-115669000D01*
X155403254Y-115669000D01*
X148745000Y-109010747D01*
X148745000Y-104616763D01*
X148786395Y-104516826D01*
X148845000Y-104222199D01*
X148845000Y-103921801D01*
X148786395Y-103627174D01*
X148671438Y-103349642D01*
X148504545Y-103099869D01*
X148292131Y-102887455D01*
X148042358Y-102720562D01*
X147764826Y-102605605D01*
X147470199Y-102547000D01*
X147169801Y-102547000D01*
X146875174Y-102605605D01*
X146597642Y-102720562D01*
X146347869Y-102887455D01*
X146135455Y-103099869D01*
X145968562Y-103349642D01*
X145853605Y-103627174D01*
X145795000Y-103921801D01*
X145795000Y-104222199D01*
X145853605Y-104516826D01*
X145895001Y-104616765D01*
X145895000Y-109531005D01*
X145888106Y-109601000D01*
X145895000Y-109670994D01*
X145895000Y-109670996D01*
X145915619Y-109880348D01*
X145997102Y-110148961D01*
X146129424Y-110396517D01*
X146307498Y-110613501D01*
X146361871Y-110658124D01*
X153755876Y-118052130D01*
X153800498Y-118106502D01*
X154017482Y-118284576D01*
X154265038Y-118416898D01*
X154533651Y-118498381D01*
X154743003Y-118519000D01*
X154743012Y-118519000D01*
X154812999Y-118525893D01*
X154882986Y-118519000D01*
X162905640Y-118519000D01*
X162975634Y-118525894D01*
X163045628Y-118519000D01*
X163045631Y-118519000D01*
X163254983Y-118498381D01*
X163267132Y-118494696D01*
X156479828Y-125282000D01*
X128171242Y-125282000D01*
X128142999Y-125279218D01*
X128114756Y-125282000D01*
X128114754Y-125282000D01*
X128030280Y-125290320D01*
X127921892Y-125323199D01*
X127822001Y-125376592D01*
X127785902Y-125406218D01*
X127734446Y-125448446D01*
X127716440Y-125470387D01*
X120011929Y-133174899D01*
X119989987Y-133192906D01*
X119971981Y-133214847D01*
X119918132Y-133280462D01*
X119864739Y-133380353D01*
X119831861Y-133488741D01*
X119820758Y-133601460D01*
X119823541Y-133629713D01*
X119823541Y-136204653D01*
X119729939Y-136142110D01*
X119497904Y-136045998D01*
X119251577Y-135997000D01*
X119000423Y-135997000D01*
X118754096Y-136045998D01*
X118522061Y-136142110D01*
X118313235Y-136281643D01*
X118135643Y-136459235D01*
X117996110Y-136668061D01*
X117899998Y-136900096D01*
X117851000Y-137146423D01*
X113124000Y-137146423D01*
X113124000Y-103921801D01*
X115061000Y-103921801D01*
X115061000Y-104222199D01*
X115119605Y-104516826D01*
X115234562Y-104794358D01*
X115401455Y-105044131D01*
X115613869Y-105256545D01*
X115863642Y-105423438D01*
X116141174Y-105538395D01*
X116435801Y-105597000D01*
X116736199Y-105597000D01*
X117030826Y-105538395D01*
X117308358Y-105423438D01*
X117558131Y-105256545D01*
X117770545Y-105044131D01*
X117937438Y-104794358D01*
X118052395Y-104516826D01*
X118111000Y-104222199D01*
X118111000Y-103921801D01*
X118052395Y-103627174D01*
X117937438Y-103349642D01*
X117770545Y-103099869D01*
X117558131Y-102887455D01*
X117308358Y-102720562D01*
X117030826Y-102605605D01*
X116736199Y-102547000D01*
X116435801Y-102547000D01*
X116141174Y-102605605D01*
X115863642Y-102720562D01*
X115613869Y-102887455D01*
X115401455Y-103099869D01*
X115234562Y-103349642D01*
X115119605Y-103627174D01*
X115061000Y-103921801D01*
X113124000Y-103921801D01*
X113124000Y-77935102D01*
X114687000Y-77935102D01*
X114687000Y-78274898D01*
X114753290Y-78608164D01*
X114883324Y-78922094D01*
X115072105Y-79204624D01*
X115312376Y-79444895D01*
X115594906Y-79633676D01*
X115687000Y-79671823D01*
X115687001Y-88034944D01*
X115259000Y-88034944D01*
X115175686Y-88043150D01*
X115095573Y-88067452D01*
X115021740Y-88106916D01*
X114957026Y-88160026D01*
X114903916Y-88224740D01*
X114864452Y-88298573D01*
X114840150Y-88378686D01*
X114831944Y-88462000D01*
X114831944Y-90862000D01*
X114840150Y-90945314D01*
X114864452Y-91025427D01*
X114903916Y-91099260D01*
X114957026Y-91163974D01*
X115021740Y-91217084D01*
X115095573Y-91256548D01*
X115175686Y-91280850D01*
X115259000Y-91289056D01*
X115734000Y-91289056D01*
X115734001Y-98829393D01*
X115730494Y-98865000D01*
X115744492Y-99007124D01*
X115785947Y-99143787D01*
X115853269Y-99269736D01*
X115921170Y-99352474D01*
X115921173Y-99352477D01*
X115943869Y-99380132D01*
X115971523Y-99402827D01*
X120198985Y-103630290D01*
X120141000Y-103921801D01*
X120141000Y-104222199D01*
X120199605Y-104516826D01*
X120314562Y-104794358D01*
X120481455Y-105044131D01*
X120693869Y-105256545D01*
X120943642Y-105423438D01*
X121221174Y-105538395D01*
X121515801Y-105597000D01*
X121816199Y-105597000D01*
X122110826Y-105538395D01*
X122388358Y-105423438D01*
X122638131Y-105256545D01*
X122850545Y-105044131D01*
X123017438Y-104794358D01*
X123132395Y-104516826D01*
X123191000Y-104222199D01*
X123191000Y-103921801D01*
X125221000Y-103921801D01*
X125221000Y-104222199D01*
X125279605Y-104516826D01*
X125394562Y-104794358D01*
X125561455Y-105044131D01*
X125773869Y-105256545D01*
X126023642Y-105423438D01*
X126301174Y-105538395D01*
X126595801Y-105597000D01*
X126896199Y-105597000D01*
X127190826Y-105538395D01*
X127468358Y-105423438D01*
X127718131Y-105256545D01*
X127930545Y-105044131D01*
X128095673Y-104797000D01*
X129064403Y-104797000D01*
X129100000Y-104800506D01*
X129135597Y-104797000D01*
X129135607Y-104797000D01*
X129242125Y-104786509D01*
X129378788Y-104745053D01*
X129504737Y-104677731D01*
X129615132Y-104587132D01*
X129637832Y-104559472D01*
X131597135Y-102600170D01*
X131673651Y-102623381D01*
X131883003Y-102644000D01*
X131883012Y-102644000D01*
X131952999Y-102650893D01*
X132022986Y-102644000D01*
X136622480Y-102644000D01*
X136437642Y-102720562D01*
X136187869Y-102887455D01*
X135975455Y-103099869D01*
X135808562Y-103349642D01*
X135693605Y-103627174D01*
X135635000Y-103921801D01*
X135635000Y-104222199D01*
X135693605Y-104516826D01*
X135808562Y-104794358D01*
X135975455Y-105044131D01*
X136187869Y-105256545D01*
X136437642Y-105423438D01*
X136715174Y-105538395D01*
X137009801Y-105597000D01*
X137310199Y-105597000D01*
X137604826Y-105538395D01*
X137882358Y-105423438D01*
X138132131Y-105256545D01*
X138344545Y-105044131D01*
X138511438Y-104794358D01*
X138626395Y-104516826D01*
X138685000Y-104222199D01*
X138685000Y-103921801D01*
X138626395Y-103627174D01*
X138511438Y-103349642D01*
X138344545Y-103099869D01*
X138132131Y-102887455D01*
X137882358Y-102720562D01*
X137697520Y-102644000D01*
X138796747Y-102644000D01*
X140847167Y-104694422D01*
X140888562Y-104794358D01*
X141055455Y-105044131D01*
X141267869Y-105256545D01*
X141517642Y-105423438D01*
X141795174Y-105538395D01*
X142089801Y-105597000D01*
X142390199Y-105597000D01*
X142684826Y-105538395D01*
X142962358Y-105423438D01*
X143212131Y-105256545D01*
X143424545Y-105044131D01*
X143591438Y-104794358D01*
X143706395Y-104516826D01*
X143765000Y-104222199D01*
X143765000Y-103921801D01*
X143706395Y-103627174D01*
X143591438Y-103349642D01*
X143424545Y-103099869D01*
X143212131Y-102887455D01*
X142962358Y-102720562D01*
X142862422Y-102679167D01*
X140444128Y-100260875D01*
X140399502Y-100206498D01*
X140182518Y-100028424D01*
X139934962Y-99896102D01*
X139666349Y-99814619D01*
X139456997Y-99794000D01*
X139456994Y-99794000D01*
X139387000Y-99787106D01*
X139317006Y-99794000D01*
X132543254Y-99794000D01*
X130156000Y-97406747D01*
X130156000Y-84910700D01*
X137554964Y-84910700D01*
X137554964Y-86660700D01*
X137579983Y-86914719D01*
X137654077Y-87158975D01*
X137774400Y-87384084D01*
X137936327Y-87581393D01*
X138133636Y-87743320D01*
X138358745Y-87863643D01*
X138603001Y-87937737D01*
X138857020Y-87962756D01*
X140607020Y-87962756D01*
X140861039Y-87937737D01*
X141105295Y-87863643D01*
X141330404Y-87743320D01*
X141527713Y-87581393D01*
X141689640Y-87384084D01*
X141809963Y-87158975D01*
X141847357Y-87035700D01*
X142254964Y-87035700D01*
X142254964Y-90535700D01*
X142263170Y-90619014D01*
X142287472Y-90699127D01*
X142326936Y-90772960D01*
X142380046Y-90837674D01*
X142444760Y-90890784D01*
X142518593Y-90930248D01*
X142598706Y-90954550D01*
X142682020Y-90962756D01*
X143007020Y-90962756D01*
X143007021Y-94324016D01*
X143000126Y-94394020D01*
X143025221Y-94648807D01*
X143027640Y-94673369D01*
X143076288Y-94833739D01*
X143109123Y-94941982D01*
X143221733Y-95152659D01*
X143241445Y-95189538D01*
X143419519Y-95406522D01*
X143473890Y-95451143D01*
X158722000Y-110699254D01*
X158722001Y-112742235D01*
X158680605Y-112842174D01*
X158622000Y-113136801D01*
X158622000Y-113437199D01*
X158680605Y-113731826D01*
X158795562Y-114009358D01*
X158962455Y-114259131D01*
X159174869Y-114471545D01*
X159424642Y-114638438D01*
X159702174Y-114753395D01*
X159996801Y-114812000D01*
X160297199Y-114812000D01*
X160591826Y-114753395D01*
X160869358Y-114638438D01*
X161119131Y-114471545D01*
X161331545Y-114259131D01*
X161498438Y-114009358D01*
X161613395Y-113731826D01*
X161672000Y-113437199D01*
X161672000Y-113136801D01*
X161613395Y-112842174D01*
X161572000Y-112742237D01*
X161572000Y-110178994D01*
X161578894Y-110109000D01*
X161572000Y-110039003D01*
X161551381Y-109829651D01*
X161469898Y-109561038D01*
X161409584Y-109448199D01*
X161337577Y-109313482D01*
X161204122Y-109150868D01*
X161204119Y-109150865D01*
X161159501Y-109096498D01*
X161105135Y-109051881D01*
X152637254Y-100584000D01*
X172404589Y-100584000D01*
X172430172Y-100843745D01*
X172505937Y-101093509D01*
X172628972Y-101323692D01*
X172794550Y-101525450D01*
X172996308Y-101691028D01*
X173226491Y-101814063D01*
X173358146Y-101854000D01*
X173226491Y-101893937D01*
X172996308Y-102016972D01*
X172794550Y-102182550D01*
X172628972Y-102384308D01*
X172505937Y-102614491D01*
X172430172Y-102864255D01*
X172404589Y-103124000D01*
X172430172Y-103383745D01*
X172505937Y-103633509D01*
X172628972Y-103863692D01*
X172794550Y-104065450D01*
X172996308Y-104231028D01*
X173226491Y-104354063D01*
X173369248Y-104397368D01*
X173254022Y-104429770D01*
X173022497Y-104547515D01*
X172818391Y-104708165D01*
X172649548Y-104905548D01*
X172522457Y-105132078D01*
X172442002Y-105379049D01*
X172431457Y-105432069D01*
X172517506Y-105639000D01*
X173711000Y-105639000D01*
X173711000Y-105619000D01*
X173761000Y-105619000D01*
X173761000Y-105639000D01*
X174954494Y-105639000D01*
X175040543Y-105432069D01*
X175029998Y-105379049D01*
X174949543Y-105132078D01*
X174822452Y-104905548D01*
X174653609Y-104708165D01*
X174449503Y-104547515D01*
X174217978Y-104429770D01*
X174102752Y-104397368D01*
X174245509Y-104354063D01*
X174475692Y-104231028D01*
X174677450Y-104065450D01*
X174843028Y-103863692D01*
X174966063Y-103633509D01*
X175041828Y-103383745D01*
X175067411Y-103124000D01*
X175041828Y-102864255D01*
X174966063Y-102614491D01*
X174843028Y-102384308D01*
X174677450Y-102182550D01*
X174475692Y-102016972D01*
X174245509Y-101893937D01*
X174113854Y-101854000D01*
X174245509Y-101814063D01*
X174475692Y-101691028D01*
X174677450Y-101525450D01*
X174843028Y-101323692D01*
X174966063Y-101093509D01*
X175041828Y-100843745D01*
X175067411Y-100584000D01*
X175041828Y-100324255D01*
X174966063Y-100074491D01*
X174843028Y-99844308D01*
X174677450Y-99642550D01*
X174475692Y-99476972D01*
X174277536Y-99371056D01*
X174636000Y-99371056D01*
X174719314Y-99362850D01*
X174799427Y-99338548D01*
X174873260Y-99299084D01*
X174937974Y-99245974D01*
X174991084Y-99181260D01*
X175030548Y-99107427D01*
X175054850Y-99027314D01*
X175063056Y-98944000D01*
X175063056Y-97144000D01*
X175054850Y-97060686D01*
X175030548Y-96980573D01*
X174991084Y-96906740D01*
X174937974Y-96842026D01*
X174873260Y-96788916D01*
X174799427Y-96749452D01*
X174719314Y-96725150D01*
X174636000Y-96716944D01*
X172836000Y-96716944D01*
X172752686Y-96725150D01*
X172672573Y-96749452D01*
X172598740Y-96788916D01*
X172534026Y-96842026D01*
X172480916Y-96906740D01*
X172441452Y-96980573D01*
X172417150Y-97060686D01*
X172408944Y-97144000D01*
X172408944Y-98944000D01*
X172417150Y-99027314D01*
X172441452Y-99107427D01*
X172480916Y-99181260D01*
X172534026Y-99245974D01*
X172598740Y-99299084D01*
X172672573Y-99338548D01*
X172752686Y-99362850D01*
X172836000Y-99371056D01*
X173194464Y-99371056D01*
X172996308Y-99476972D01*
X172794550Y-99642550D01*
X172628972Y-99844308D01*
X172505937Y-100074491D01*
X172430172Y-100324255D01*
X172404589Y-100584000D01*
X152637254Y-100584000D01*
X146303762Y-94250508D01*
X148347980Y-94250508D01*
X148347980Y-94491812D01*
X148395056Y-94728479D01*
X148487399Y-94951415D01*
X148621461Y-95152052D01*
X148792088Y-95322679D01*
X148992725Y-95456741D01*
X149215661Y-95549084D01*
X149452328Y-95596160D01*
X149693632Y-95596160D01*
X149930299Y-95549084D01*
X150153235Y-95456741D01*
X150353872Y-95322679D01*
X150524499Y-95152052D01*
X150658561Y-94951415D01*
X150750904Y-94728479D01*
X150797980Y-94491812D01*
X150797980Y-94250508D01*
X150750904Y-94013841D01*
X150658561Y-93790905D01*
X150524499Y-93590268D01*
X150353872Y-93419641D01*
X150153235Y-93285579D01*
X149930299Y-93193236D01*
X149693632Y-93146160D01*
X149452328Y-93146160D01*
X149215661Y-93193236D01*
X148992725Y-93285579D01*
X148792088Y-93419641D01*
X148621461Y-93590268D01*
X148487399Y-93790905D01*
X148395056Y-94013841D01*
X148347980Y-94250508D01*
X146303762Y-94250508D01*
X145857020Y-93803767D01*
X145857020Y-90962756D01*
X146182020Y-90962756D01*
X146265334Y-90954550D01*
X146345447Y-90930248D01*
X146419280Y-90890784D01*
X146483994Y-90837674D01*
X146537104Y-90772960D01*
X146576568Y-90699127D01*
X146600870Y-90619014D01*
X146609076Y-90535700D01*
X146609076Y-87035700D01*
X146600870Y-86952386D01*
X146576568Y-86872273D01*
X146537104Y-86798440D01*
X146483994Y-86733726D01*
X146419280Y-86680616D01*
X146345447Y-86641152D01*
X146265334Y-86616850D01*
X146182020Y-86608644D01*
X142682020Y-86608644D01*
X142598706Y-86616850D01*
X142518593Y-86641152D01*
X142444760Y-86680616D01*
X142380046Y-86733726D01*
X142326936Y-86798440D01*
X142287472Y-86872273D01*
X142263170Y-86952386D01*
X142254964Y-87035700D01*
X141847357Y-87035700D01*
X141884057Y-86914719D01*
X141909076Y-86660700D01*
X141909076Y-84910700D01*
X141884057Y-84656681D01*
X141809963Y-84412425D01*
X141742228Y-84285700D01*
X142254964Y-84285700D01*
X142263170Y-84369014D01*
X142287472Y-84449127D01*
X142326936Y-84522960D01*
X142380046Y-84587674D01*
X142444760Y-84640784D01*
X142518593Y-84680248D01*
X142598706Y-84704550D01*
X142682020Y-84712756D01*
X144300770Y-84710700D01*
X144407020Y-84604450D01*
X144407020Y-82810700D01*
X144457020Y-82810700D01*
X144457020Y-84604450D01*
X144563270Y-84710700D01*
X146182020Y-84712756D01*
X146265334Y-84704550D01*
X146345447Y-84680248D01*
X146419280Y-84640784D01*
X146483994Y-84587674D01*
X146537104Y-84522960D01*
X146576568Y-84449127D01*
X146600870Y-84369014D01*
X146609076Y-84285700D01*
X146607020Y-82916950D01*
X146500770Y-82810700D01*
X144457020Y-82810700D01*
X144407020Y-82810700D01*
X142363270Y-82810700D01*
X142257020Y-82916950D01*
X142254964Y-84285700D01*
X141742228Y-84285700D01*
X141689640Y-84187316D01*
X141527713Y-83990007D01*
X141330404Y-83828080D01*
X141105295Y-83707757D01*
X140861039Y-83633663D01*
X140607020Y-83608644D01*
X138857020Y-83608644D01*
X138603001Y-83633663D01*
X138358745Y-83707757D01*
X138133636Y-83828080D01*
X137936327Y-83990007D01*
X137774400Y-84187316D01*
X137654077Y-84412425D01*
X137579983Y-84656681D01*
X137554964Y-84910700D01*
X130156000Y-84910700D01*
X130156000Y-81285700D01*
X142254964Y-81285700D01*
X142257020Y-82654450D01*
X142363270Y-82760700D01*
X144407020Y-82760700D01*
X144407020Y-80966950D01*
X144457020Y-80966950D01*
X144457020Y-82760700D01*
X146500770Y-82760700D01*
X146607020Y-82654450D01*
X146609076Y-81285700D01*
X146600870Y-81202386D01*
X146576568Y-81122273D01*
X146537104Y-81048440D01*
X146483994Y-80983726D01*
X146419280Y-80930616D01*
X146345447Y-80891152D01*
X146265334Y-80866850D01*
X146182020Y-80858644D01*
X144563270Y-80860700D01*
X144457020Y-80966950D01*
X144407020Y-80966950D01*
X144300770Y-80860700D01*
X142682020Y-80858644D01*
X142598706Y-80866850D01*
X142518593Y-80891152D01*
X142444760Y-80930616D01*
X142380046Y-80983726D01*
X142326936Y-81048440D01*
X142287472Y-81122273D01*
X142263170Y-81202386D01*
X142254964Y-81285700D01*
X130156000Y-81285700D01*
X130156000Y-79405000D01*
X132003944Y-79405000D01*
X132012150Y-79488314D01*
X132036452Y-79568427D01*
X132075916Y-79642260D01*
X132129026Y-79706974D01*
X132193740Y-79760084D01*
X132267573Y-79799548D01*
X132347686Y-79823850D01*
X132431000Y-79832056D01*
X133599750Y-79830000D01*
X133706000Y-79723750D01*
X133706000Y-78130000D01*
X133756000Y-78130000D01*
X133756000Y-79723750D01*
X133862250Y-79830000D01*
X135031000Y-79832056D01*
X135114314Y-79823850D01*
X135194427Y-79799548D01*
X135268260Y-79760084D01*
X135332974Y-79706974D01*
X135386084Y-79642260D01*
X135425548Y-79568427D01*
X135449850Y-79488314D01*
X135458056Y-79405000D01*
X135456000Y-78236250D01*
X135349750Y-78130000D01*
X133756000Y-78130000D01*
X133706000Y-78130000D01*
X132112250Y-78130000D01*
X132006000Y-78236250D01*
X132003944Y-79405000D01*
X130156000Y-79405000D01*
X130156000Y-79077256D01*
X130259676Y-78922094D01*
X130389710Y-78608164D01*
X130456000Y-78274898D01*
X130456000Y-77935102D01*
X130389710Y-77601836D01*
X130259676Y-77287906D01*
X130070895Y-77005376D01*
X129870519Y-76805000D01*
X132003944Y-76805000D01*
X132006000Y-77973750D01*
X132112250Y-78080000D01*
X133706000Y-78080000D01*
X133706000Y-76486250D01*
X133756000Y-76486250D01*
X133756000Y-78080000D01*
X135349750Y-78080000D01*
X135456000Y-77973750D01*
X135458056Y-76805000D01*
X135449850Y-76721686D01*
X135425548Y-76641573D01*
X135386084Y-76567740D01*
X135332974Y-76503026D01*
X135268260Y-76449916D01*
X135194427Y-76410452D01*
X135114314Y-76386150D01*
X135031000Y-76377944D01*
X133862250Y-76380000D01*
X133756000Y-76486250D01*
X133706000Y-76486250D01*
X133599750Y-76380000D01*
X132431000Y-76377944D01*
X132347686Y-76386150D01*
X132267573Y-76410452D01*
X132193740Y-76449916D01*
X132129026Y-76503026D01*
X132075916Y-76567740D01*
X132036452Y-76641573D01*
X132012150Y-76721686D01*
X132003944Y-76805000D01*
X129870519Y-76805000D01*
X129830624Y-76765105D01*
X129548094Y-76576324D01*
X129234164Y-76446290D01*
X128900898Y-76380000D01*
X128561102Y-76380000D01*
X128227836Y-76446290D01*
X127913906Y-76576324D01*
X127631376Y-76765105D01*
X127391105Y-77005376D01*
X127202324Y-77287906D01*
X127072290Y-77601836D01*
X127006000Y-77935102D01*
X127006000Y-78274898D01*
X127072290Y-78608164D01*
X127202324Y-78922094D01*
X127306001Y-79077257D01*
X127306000Y-97927006D01*
X127299106Y-97997000D01*
X127306000Y-98066994D01*
X127306000Y-98066996D01*
X127326619Y-98276348D01*
X127408102Y-98544961D01*
X127540424Y-98792517D01*
X127718498Y-99009501D01*
X127772871Y-99054124D01*
X130432721Y-101713975D01*
X128799696Y-103347000D01*
X128095673Y-103347000D01*
X127930545Y-103099869D01*
X127718131Y-102887455D01*
X127468358Y-102720562D01*
X127190826Y-102605605D01*
X126896199Y-102547000D01*
X126595801Y-102547000D01*
X126301174Y-102605605D01*
X126023642Y-102720562D01*
X125773869Y-102887455D01*
X125561455Y-103099869D01*
X125394562Y-103349642D01*
X125279605Y-103627174D01*
X125221000Y-103921801D01*
X123191000Y-103921801D01*
X123132395Y-103627174D01*
X123017438Y-103349642D01*
X122850545Y-103099869D01*
X122638131Y-102887455D01*
X122388358Y-102720562D01*
X122110826Y-102605605D01*
X121816199Y-102547000D01*
X121515801Y-102547000D01*
X121224290Y-102604985D01*
X117184000Y-98564696D01*
X117184000Y-91289056D01*
X117659000Y-91289056D01*
X117742314Y-91280850D01*
X117822427Y-91256548D01*
X117896260Y-91217084D01*
X117960974Y-91163974D01*
X118014084Y-91099260D01*
X118053548Y-91025427D01*
X118077850Y-90945314D01*
X118086056Y-90862000D01*
X118086056Y-89940868D01*
X119938107Y-89940868D01*
X119953248Y-90016994D01*
X120052974Y-90319538D01*
X120209807Y-90596813D01*
X120417720Y-90838164D01*
X120668723Y-91034315D01*
X120953171Y-91177729D01*
X121260132Y-91262894D01*
X121514000Y-91180559D01*
X121514000Y-89687000D01*
X121564000Y-89687000D01*
X121564000Y-91180559D01*
X121817868Y-91262894D01*
X122124829Y-91177729D01*
X122409277Y-91034315D01*
X122660280Y-90838164D01*
X122868193Y-90596813D01*
X123025026Y-90319538D01*
X123124752Y-90016994D01*
X123139893Y-89940868D01*
X123057544Y-89687000D01*
X121564000Y-89687000D01*
X121514000Y-89687000D01*
X120020456Y-89687000D01*
X119938107Y-89940868D01*
X118086056Y-89940868D01*
X118086056Y-89383132D01*
X119938107Y-89383132D01*
X120020456Y-89637000D01*
X121514000Y-89637000D01*
X121514000Y-88143441D01*
X121564000Y-88143441D01*
X121564000Y-89637000D01*
X123057544Y-89637000D01*
X123139893Y-89383132D01*
X123124752Y-89307006D01*
X123025026Y-89004462D01*
X122868193Y-88727187D01*
X122660280Y-88485836D01*
X122409277Y-88289685D01*
X122124829Y-88146271D01*
X121817868Y-88061106D01*
X121564000Y-88143441D01*
X121514000Y-88143441D01*
X121260132Y-88061106D01*
X120953171Y-88146271D01*
X120668723Y-88289685D01*
X120417720Y-88485836D01*
X120209807Y-88727187D01*
X120052974Y-89004462D01*
X119953248Y-89307006D01*
X119938107Y-89383132D01*
X118086056Y-89383132D01*
X118086056Y-88462000D01*
X118077850Y-88378686D01*
X118053548Y-88298573D01*
X118014084Y-88224740D01*
X117960974Y-88160026D01*
X117896260Y-88106916D01*
X117822427Y-88067452D01*
X117742314Y-88043150D01*
X117659000Y-88034944D01*
X117137000Y-88034944D01*
X117137000Y-79671823D01*
X117229094Y-79633676D01*
X117511624Y-79444895D01*
X117551519Y-79405000D01*
X119684944Y-79405000D01*
X119693150Y-79488314D01*
X119717452Y-79568427D01*
X119756916Y-79642260D01*
X119810026Y-79706974D01*
X119874740Y-79760084D01*
X119948573Y-79799548D01*
X120028686Y-79823850D01*
X120112000Y-79832056D01*
X121280750Y-79830000D01*
X121387000Y-79723750D01*
X121387000Y-78130000D01*
X121437000Y-78130000D01*
X121437000Y-79723750D01*
X121543250Y-79830000D01*
X122712000Y-79832056D01*
X122795314Y-79823850D01*
X122875427Y-79799548D01*
X122949260Y-79760084D01*
X123013974Y-79706974D01*
X123067084Y-79642260D01*
X123106548Y-79568427D01*
X123130850Y-79488314D01*
X123139056Y-79405000D01*
X123137000Y-78236250D01*
X123030750Y-78130000D01*
X121437000Y-78130000D01*
X121387000Y-78130000D01*
X119793250Y-78130000D01*
X119687000Y-78236250D01*
X119684944Y-79405000D01*
X117551519Y-79405000D01*
X117751895Y-79204624D01*
X117940676Y-78922094D01*
X118070710Y-78608164D01*
X118137000Y-78274898D01*
X118137000Y-77935102D01*
X118070710Y-77601836D01*
X117940676Y-77287906D01*
X117751895Y-77005376D01*
X117551519Y-76805000D01*
X119684944Y-76805000D01*
X119687000Y-77973750D01*
X119793250Y-78080000D01*
X121387000Y-78080000D01*
X121387000Y-76486250D01*
X121437000Y-76486250D01*
X121437000Y-78080000D01*
X123030750Y-78080000D01*
X123137000Y-77973750D01*
X123139056Y-76805000D01*
X123130850Y-76721686D01*
X123106548Y-76641573D01*
X123067084Y-76567740D01*
X123013974Y-76503026D01*
X122949260Y-76449916D01*
X122875427Y-76410452D01*
X122795314Y-76386150D01*
X122712000Y-76377944D01*
X121543250Y-76380000D01*
X121437000Y-76486250D01*
X121387000Y-76486250D01*
X121280750Y-76380000D01*
X120112000Y-76377944D01*
X120028686Y-76386150D01*
X119948573Y-76410452D01*
X119874740Y-76449916D01*
X119810026Y-76503026D01*
X119756916Y-76567740D01*
X119717452Y-76641573D01*
X119693150Y-76721686D01*
X119684944Y-76805000D01*
X117551519Y-76805000D01*
X117511624Y-76765105D01*
X117229094Y-76576324D01*
X116915164Y-76446290D01*
X116581898Y-76380000D01*
X116242102Y-76380000D01*
X115908836Y-76446290D01*
X115594906Y-76576324D01*
X115312376Y-76765105D01*
X115072105Y-77005376D01*
X114883324Y-77287906D01*
X114753290Y-77601836D01*
X114687000Y-77935102D01*
X113124000Y-77935102D01*
X113124000Y-75278000D01*
X223426000Y-75278000D01*
X223426001Y-143162000D01*
G36*
X162112001Y-135620174D02*
G01*
X162112001Y-136145123D01*
X162083061Y-136157110D01*
X161874235Y-136296643D01*
X161696643Y-136474235D01*
X161557110Y-136683061D01*
X161460998Y-136915096D01*
X161417000Y-137136287D01*
X161373002Y-136915096D01*
X161276890Y-136683061D01*
X161137357Y-136474235D01*
X160959765Y-136296643D01*
X160750939Y-136157110D01*
X160518904Y-136060998D01*
X160272577Y-136012000D01*
X160021423Y-136012000D01*
X159775096Y-136060998D01*
X159543061Y-136157110D01*
X159334235Y-136296643D01*
X159156643Y-136474235D01*
X159017110Y-136683061D01*
X158920998Y-136915096D01*
X158872000Y-137161423D01*
X158872000Y-137412577D01*
X158920998Y-137658904D01*
X159017110Y-137890939D01*
X159156643Y-138099765D01*
X159334235Y-138277357D01*
X159422000Y-138336000D01*
X159422001Y-141388000D01*
X140425000Y-141388000D01*
X140425000Y-138501404D01*
X140608385Y-138378870D01*
X140760372Y-138226883D01*
X141320472Y-138226883D01*
X141418707Y-138444946D01*
X141663318Y-138582634D01*
X141930091Y-138669956D01*
X142208773Y-138703555D01*
X142488656Y-138682140D01*
X142758982Y-138606534D01*
X143009365Y-138479643D01*
X143061293Y-138444946D01*
X143159528Y-138226883D01*
X142240000Y-137307355D01*
X141320472Y-138226883D01*
X140760372Y-138226883D01*
X140806870Y-138180385D01*
X140962819Y-137946991D01*
X140972583Y-137923418D01*
X141032357Y-138041365D01*
X141067054Y-138093293D01*
X141285117Y-138191528D01*
X142204645Y-137272000D01*
X141285117Y-136352472D01*
X141067054Y-136450707D01*
X140972096Y-136619406D01*
X140962819Y-136597009D01*
X140806870Y-136363615D01*
X140608385Y-136165130D01*
X140374991Y-136009181D01*
X140115657Y-135901762D01*
X139840350Y-135847000D01*
X139559650Y-135847000D01*
X139284343Y-135901762D01*
X139025009Y-136009181D01*
X138791615Y-136165130D01*
X138593130Y-136363615D01*
X138437181Y-136597009D01*
X138329762Y-136856343D01*
X138275000Y-137131650D01*
X138275000Y-137412350D01*
X138329762Y-137687657D01*
X138437181Y-137946991D01*
X138593130Y-138180385D01*
X138791615Y-138378870D01*
X138975000Y-138501404D01*
X138975001Y-141388000D01*
X126422190Y-141388000D01*
X126459108Y-141376801D01*
X126558998Y-141323408D01*
X126646554Y-141251554D01*
X126664566Y-141229606D01*
X133715173Y-134179000D01*
X140873828Y-134179000D01*
X142578099Y-135883271D01*
X142549909Y-135874044D01*
X142271227Y-135840445D01*
X141991344Y-135861860D01*
X141721018Y-135937466D01*
X141470635Y-136064357D01*
X141418707Y-136099054D01*
X141320472Y-136317117D01*
X142240000Y-137236645D01*
X142254143Y-137222503D01*
X142289498Y-137257858D01*
X142275355Y-137272000D01*
X143194883Y-138191528D01*
X143412946Y-138093293D01*
X143507904Y-137924594D01*
X143517181Y-137946991D01*
X143673130Y-138180385D01*
X143871615Y-138378870D01*
X144105009Y-138534819D01*
X144364343Y-138642238D01*
X144639650Y-138697000D01*
X144920350Y-138697000D01*
X145195657Y-138642238D01*
X145454991Y-138534819D01*
X145688385Y-138378870D01*
X145886870Y-138180385D01*
X146042819Y-137946991D01*
X146150238Y-137687657D01*
X146205000Y-137412350D01*
X146205000Y-137131650D01*
X146150238Y-136856343D01*
X146042819Y-136597009D01*
X145886870Y-136363615D01*
X145688385Y-136165130D01*
X145454991Y-136009181D01*
X145195657Y-135901762D01*
X144920350Y-135847000D01*
X144639650Y-135847000D01*
X144364343Y-135901762D01*
X144264352Y-135943179D01*
X141538565Y-133217393D01*
X141520554Y-133195446D01*
X141432998Y-133123592D01*
X141333108Y-133070199D01*
X141224720Y-133037320D01*
X141140246Y-133029000D01*
X141140243Y-133029000D01*
X141112000Y-133026218D01*
X141083757Y-133029000D01*
X133505243Y-133029000D01*
X133477000Y-133026218D01*
X133448757Y-133029000D01*
X133448754Y-133029000D01*
X133364280Y-133037320D01*
X133255892Y-133070199D01*
X133156001Y-133123592D01*
X133110153Y-133161218D01*
X133068446Y-133195446D01*
X133050439Y-133217388D01*
X125999828Y-140268000D01*
X122031173Y-140268000D01*
X120973540Y-139210368D01*
X120973540Y-138345518D01*
X121152432Y-138445730D01*
X121391283Y-138523370D01*
X121640692Y-138552919D01*
X121891074Y-138533244D01*
X122132805Y-138465100D01*
X122355920Y-138351451D01*
X122355920Y-138396677D01*
X122353138Y-138424920D01*
X122355920Y-138453163D01*
X122355920Y-138453165D01*
X122364240Y-138537639D01*
X122385139Y-138606534D01*
X122397119Y-138646027D01*
X122450512Y-138745918D01*
X122454683Y-138751000D01*
X122522366Y-138833474D01*
X122544313Y-138851485D01*
X123271439Y-139578612D01*
X123289446Y-139600554D01*
X123311386Y-139618559D01*
X123377001Y-139672408D01*
X123476892Y-139725801D01*
X123585280Y-139758680D01*
X123669754Y-139767000D01*
X123669757Y-139767000D01*
X123698000Y-139769782D01*
X123726243Y-139767000D01*
X125066757Y-139767000D01*
X125095000Y-139769782D01*
X125123243Y-139767000D01*
X125123246Y-139767000D01*
X125207720Y-139758680D01*
X125316108Y-139725801D01*
X125415998Y-139672408D01*
X125503554Y-139600554D01*
X125521566Y-139578606D01*
X132445173Y-132655000D01*
X159146828Y-132655000D01*
X162112001Y-135620174D01*
X162112001Y-135620174D01*
G37*
X162112001Y-135620174D02*
X162112001Y-136145123D01*
X162083061Y-136157110D01*
X161874235Y-136296643D01*
X161696643Y-136474235D01*
X161557110Y-136683061D01*
X161460998Y-136915096D01*
X161417000Y-137136287D01*
X161373002Y-136915096D01*
X161276890Y-136683061D01*
X161137357Y-136474235D01*
X160959765Y-136296643D01*
X160750939Y-136157110D01*
X160518904Y-136060998D01*
X160272577Y-136012000D01*
X160021423Y-136012000D01*
X159775096Y-136060998D01*
X159543061Y-136157110D01*
X159334235Y-136296643D01*
X159156643Y-136474235D01*
X159017110Y-136683061D01*
X158920998Y-136915096D01*
X158872000Y-137161423D01*
X158872000Y-137412577D01*
X158920998Y-137658904D01*
X159017110Y-137890939D01*
X159156643Y-138099765D01*
X159334235Y-138277357D01*
X159422000Y-138336000D01*
X159422001Y-141388000D01*
X140425000Y-141388000D01*
X140425000Y-138501404D01*
X140608385Y-138378870D01*
X140760372Y-138226883D01*
X141320472Y-138226883D01*
X141418707Y-138444946D01*
X141663318Y-138582634D01*
X141930091Y-138669956D01*
X142208773Y-138703555D01*
X142488656Y-138682140D01*
X142758982Y-138606534D01*
X143009365Y-138479643D01*
X143061293Y-138444946D01*
X143159528Y-138226883D01*
X142240000Y-137307355D01*
X141320472Y-138226883D01*
X140760372Y-138226883D01*
X140806870Y-138180385D01*
X140962819Y-137946991D01*
X140972583Y-137923418D01*
X141032357Y-138041365D01*
X141067054Y-138093293D01*
X141285117Y-138191528D01*
X142204645Y-137272000D01*
X141285117Y-136352472D01*
X141067054Y-136450707D01*
X140972096Y-136619406D01*
X140962819Y-136597009D01*
X140806870Y-136363615D01*
X140608385Y-136165130D01*
X140374991Y-136009181D01*
X140115657Y-135901762D01*
X139840350Y-135847000D01*
X139559650Y-135847000D01*
X139284343Y-135901762D01*
X139025009Y-136009181D01*
X138791615Y-136165130D01*
X138593130Y-136363615D01*
X138437181Y-136597009D01*
X138329762Y-136856343D01*
X138275000Y-137131650D01*
X138275000Y-137412350D01*
X138329762Y-137687657D01*
X138437181Y-137946991D01*
X138593130Y-138180385D01*
X138791615Y-138378870D01*
X138975000Y-138501404D01*
X138975001Y-141388000D01*
X126422190Y-141388000D01*
X126459108Y-141376801D01*
X126558998Y-141323408D01*
X126646554Y-141251554D01*
X126664566Y-141229606D01*
X133715173Y-134179000D01*
X140873828Y-134179000D01*
X142578099Y-135883271D01*
X142549909Y-135874044D01*
X142271227Y-135840445D01*
X141991344Y-135861860D01*
X141721018Y-135937466D01*
X141470635Y-136064357D01*
X141418707Y-136099054D01*
X141320472Y-136317117D01*
X142240000Y-137236645D01*
X142254143Y-137222503D01*
X142289498Y-137257858D01*
X142275355Y-137272000D01*
X143194883Y-138191528D01*
X143412946Y-138093293D01*
X143507904Y-137924594D01*
X143517181Y-137946991D01*
X143673130Y-138180385D01*
X143871615Y-138378870D01*
X144105009Y-138534819D01*
X144364343Y-138642238D01*
X144639650Y-138697000D01*
X144920350Y-138697000D01*
X145195657Y-138642238D01*
X145454991Y-138534819D01*
X145688385Y-138378870D01*
X145886870Y-138180385D01*
X146042819Y-137946991D01*
X146150238Y-137687657D01*
X146205000Y-137412350D01*
X146205000Y-137131650D01*
X146150238Y-136856343D01*
X146042819Y-136597009D01*
X145886870Y-136363615D01*
X145688385Y-136165130D01*
X145454991Y-136009181D01*
X145195657Y-135901762D01*
X144920350Y-135847000D01*
X144639650Y-135847000D01*
X144364343Y-135901762D01*
X144264352Y-135943179D01*
X141538565Y-133217393D01*
X141520554Y-133195446D01*
X141432998Y-133123592D01*
X141333108Y-133070199D01*
X141224720Y-133037320D01*
X141140246Y-133029000D01*
X141140243Y-133029000D01*
X141112000Y-133026218D01*
X141083757Y-133029000D01*
X133505243Y-133029000D01*
X133477000Y-133026218D01*
X133448757Y-133029000D01*
X133448754Y-133029000D01*
X133364280Y-133037320D01*
X133255892Y-133070199D01*
X133156001Y-133123592D01*
X133110153Y-133161218D01*
X133068446Y-133195446D01*
X133050439Y-133217388D01*
X125999828Y-140268000D01*
X122031173Y-140268000D01*
X120973540Y-139210368D01*
X120973540Y-138345518D01*
X121152432Y-138445730D01*
X121391283Y-138523370D01*
X121640692Y-138552919D01*
X121891074Y-138533244D01*
X122132805Y-138465100D01*
X122355920Y-138351451D01*
X122355920Y-138396677D01*
X122353138Y-138424920D01*
X122355920Y-138453163D01*
X122355920Y-138453165D01*
X122364240Y-138537639D01*
X122385139Y-138606534D01*
X122397119Y-138646027D01*
X122450512Y-138745918D01*
X122454683Y-138751000D01*
X122522366Y-138833474D01*
X122544313Y-138851485D01*
X123271439Y-139578612D01*
X123289446Y-139600554D01*
X123311386Y-139618559D01*
X123377001Y-139672408D01*
X123476892Y-139725801D01*
X123585280Y-139758680D01*
X123669754Y-139767000D01*
X123669757Y-139767000D01*
X123698000Y-139769782D01*
X123726243Y-139767000D01*
X125066757Y-139767000D01*
X125095000Y-139769782D01*
X125123243Y-139767000D01*
X125123246Y-139767000D01*
X125207720Y-139758680D01*
X125316108Y-139725801D01*
X125415998Y-139672408D01*
X125503554Y-139600554D01*
X125521566Y-139578606D01*
X132445173Y-132655000D01*
X159146828Y-132655000D01*
X162112001Y-135620174D01*
G36*
X199427000Y-82088305D02*
G01*
X199427001Y-83657393D01*
X199423494Y-83693000D01*
X199437492Y-83835124D01*
X199478947Y-83971787D01*
X199546269Y-84097736D01*
X199614170Y-84180474D01*
X199614173Y-84180477D01*
X199636869Y-84208132D01*
X199664523Y-84230827D01*
X203745000Y-88311305D01*
X203745001Y-88785496D01*
X202852332Y-89678165D01*
X202866534Y-89556758D01*
X202847903Y-89324078D01*
X202784236Y-89099504D01*
X202677981Y-88891665D01*
X202653806Y-88855484D01*
X202460320Y-88786035D01*
X201711355Y-89535000D01*
X201725498Y-89549143D01*
X201690143Y-89584498D01*
X201676000Y-89570355D01*
X200927035Y-90319320D01*
X200996484Y-90512806D01*
X201200301Y-90626585D01*
X201422399Y-90698414D01*
X201654242Y-90725534D01*
X201818083Y-90712415D01*
X201268671Y-91261827D01*
X201161394Y-91154550D01*
X200967308Y-91024866D01*
X200751652Y-90935539D01*
X200522712Y-90890000D01*
X200289288Y-90890000D01*
X200060348Y-90935539D01*
X199844692Y-91024866D01*
X199650606Y-91154550D01*
X199485550Y-91319606D01*
X199355866Y-91513692D01*
X199266539Y-91729348D01*
X199221000Y-91958288D01*
X199221000Y-92191712D01*
X199266539Y-92420652D01*
X199355866Y-92636308D01*
X199485550Y-92830394D01*
X199650606Y-92995450D01*
X199681000Y-93015759D01*
X199681000Y-93185408D01*
X199681001Y-93185418D01*
X199681000Y-95206487D01*
X190029006Y-104858482D01*
X189917450Y-104722550D01*
X189715692Y-104556972D01*
X189485509Y-104433937D01*
X189353854Y-104394000D01*
X189485509Y-104354063D01*
X189715692Y-104231028D01*
X189917450Y-104065450D01*
X190083028Y-103863692D01*
X190206063Y-103633509D01*
X190281828Y-103383745D01*
X190307411Y-103124000D01*
X190281828Y-102864255D01*
X190206063Y-102614491D01*
X190083028Y-102384308D01*
X189917450Y-102182550D01*
X189715692Y-102016972D01*
X189485509Y-101893937D01*
X189342752Y-101850632D01*
X189457978Y-101818230D01*
X189689503Y-101700485D01*
X189893609Y-101539835D01*
X190062452Y-101342452D01*
X190189543Y-101115922D01*
X190269998Y-100868951D01*
X190280543Y-100815931D01*
X190194494Y-100609000D01*
X189001000Y-100609000D01*
X189001000Y-100629000D01*
X188951000Y-100629000D01*
X188951000Y-100609000D01*
X187757506Y-100609000D01*
X187671457Y-100815931D01*
X187682002Y-100868951D01*
X187762457Y-101115922D01*
X187889548Y-101342452D01*
X188058391Y-101539835D01*
X188262497Y-101700485D01*
X188494022Y-101818230D01*
X188609248Y-101850632D01*
X188466491Y-101893937D01*
X188236308Y-102016972D01*
X188034550Y-102182550D01*
X187868972Y-102384308D01*
X187745937Y-102614491D01*
X187670172Y-102864255D01*
X187644589Y-103124000D01*
X187670172Y-103383745D01*
X187745937Y-103633509D01*
X187868972Y-103863692D01*
X188034550Y-104065450D01*
X188236308Y-104231028D01*
X188466491Y-104354063D01*
X188598146Y-104394000D01*
X188466491Y-104433937D01*
X188236308Y-104556972D01*
X188034550Y-104722550D01*
X187868972Y-104924308D01*
X187745937Y-105154491D01*
X187670172Y-105404255D01*
X187644589Y-105664000D01*
X187670172Y-105923745D01*
X187745937Y-106173509D01*
X187868972Y-106403692D01*
X188034550Y-106605450D01*
X188236308Y-106771028D01*
X188466491Y-106894063D01*
X188716255Y-106969828D01*
X188862600Y-106984242D01*
X188735858Y-106996725D01*
X188504945Y-107066772D01*
X188292134Y-107180522D01*
X188105603Y-107333603D01*
X187952522Y-107520134D01*
X187838772Y-107732945D01*
X187768725Y-107963858D01*
X187745073Y-108204000D01*
X187768725Y-108444142D01*
X187838772Y-108675055D01*
X187952522Y-108887866D01*
X188105603Y-109074397D01*
X188292134Y-109227478D01*
X188504945Y-109341228D01*
X188735858Y-109411275D01*
X188915822Y-109429000D01*
X189036178Y-109429000D01*
X189216142Y-109411275D01*
X189447055Y-109341228D01*
X189659866Y-109227478D01*
X189846397Y-109074397D01*
X189999478Y-108887866D01*
X190113228Y-108675055D01*
X190183275Y-108444142D01*
X190206927Y-108204000D01*
X190183275Y-107963858D01*
X190153979Y-107867283D01*
X216445000Y-134158305D01*
X216445001Y-137066865D01*
X216325362Y-137146805D01*
X216140805Y-137331362D01*
X215995800Y-137548377D01*
X215896987Y-137786935D01*
X215870245Y-137691804D01*
X215751952Y-137459148D01*
X215721639Y-137413780D01*
X215513817Y-137327538D01*
X214665355Y-138176000D01*
X215513817Y-139024462D01*
X215721639Y-138938220D01*
X215849365Y-138710607D01*
X215896878Y-138564802D01*
X215995800Y-138803623D01*
X216140805Y-139020638D01*
X216325362Y-139205195D01*
X216445001Y-139285135D01*
X216445001Y-139907694D01*
X214964696Y-141388000D01*
X160872000Y-141388000D01*
X160872000Y-138336000D01*
X160959765Y-138277357D01*
X161137357Y-138099765D01*
X161276890Y-137890939D01*
X161373002Y-137658904D01*
X161417000Y-137437713D01*
X161460998Y-137658904D01*
X161557110Y-137890939D01*
X161696643Y-138099765D01*
X161874235Y-138277357D01*
X162083061Y-138416890D01*
X162315096Y-138513002D01*
X162561423Y-138562000D01*
X162812577Y-138562000D01*
X163058904Y-138513002D01*
X163290939Y-138416890D01*
X163499765Y-138277357D01*
X163641839Y-138135283D01*
X164414073Y-138135283D01*
X164494316Y-138337985D01*
X164713432Y-138460730D01*
X164952283Y-138538370D01*
X165201692Y-138567919D01*
X165452074Y-138548244D01*
X165693805Y-138480100D01*
X165917597Y-138366106D01*
X165959684Y-138337985D01*
X166039927Y-138135283D01*
X165227000Y-137322355D01*
X164414073Y-138135283D01*
X163641839Y-138135283D01*
X163677357Y-138099765D01*
X163816890Y-137890939D01*
X163913002Y-137658904D01*
X163959088Y-137427217D01*
X163965756Y-137512074D01*
X164033900Y-137753805D01*
X164147894Y-137977597D01*
X164176015Y-138019684D01*
X164378717Y-138099927D01*
X165191645Y-137287000D01*
X165262355Y-137287000D01*
X166075283Y-138099927D01*
X166277985Y-138019684D01*
X166400730Y-137800568D01*
X166478370Y-137561717D01*
X166507919Y-137312308D01*
X166488244Y-137061926D01*
X166420100Y-136820195D01*
X166306106Y-136596403D01*
X166277985Y-136554316D01*
X166075283Y-136474073D01*
X165262355Y-137287000D01*
X165191645Y-137287000D01*
X164378717Y-136474073D01*
X164176015Y-136554316D01*
X164053270Y-136773432D01*
X163975630Y-137012283D01*
X163959468Y-137148696D01*
X163913002Y-136915096D01*
X163816890Y-136683061D01*
X163677357Y-136474235D01*
X163641839Y-136438717D01*
X164414073Y-136438717D01*
X165227000Y-137251645D01*
X166039927Y-136438717D01*
X165959684Y-136236015D01*
X165740568Y-136113270D01*
X165501717Y-136035630D01*
X165252308Y-136006081D01*
X165001926Y-136025756D01*
X164760195Y-136093900D01*
X164536403Y-136207894D01*
X164494316Y-136236015D01*
X164414073Y-136438717D01*
X163641839Y-136438717D01*
X163499765Y-136296643D01*
X163290939Y-136157110D01*
X163262000Y-136145123D01*
X163262000Y-135410242D01*
X163264782Y-135381999D01*
X163262000Y-135353754D01*
X163253680Y-135269280D01*
X163220801Y-135160892D01*
X163167408Y-135061001D01*
X163113559Y-134995386D01*
X163095554Y-134973446D01*
X163073612Y-134955439D01*
X159811565Y-131693393D01*
X159793554Y-131671446D01*
X159705998Y-131599592D01*
X159606108Y-131546199D01*
X159497720Y-131513320D01*
X159413246Y-131505000D01*
X159413243Y-131505000D01*
X159385000Y-131502218D01*
X159356757Y-131505000D01*
X132235243Y-131505000D01*
X132207000Y-131502218D01*
X132178757Y-131505000D01*
X132178754Y-131505000D01*
X132094280Y-131513320D01*
X131991796Y-131544408D01*
X131985892Y-131546199D01*
X131886001Y-131599592D01*
X131849902Y-131629218D01*
X131798446Y-131671446D01*
X131780439Y-131693388D01*
X124856828Y-138617000D01*
X123936173Y-138617000D01*
X123805209Y-138486037D01*
X123834096Y-138498002D01*
X124080423Y-138547000D01*
X124331577Y-138547000D01*
X124577904Y-138498002D01*
X124809939Y-138401890D01*
X125018765Y-138262357D01*
X125196357Y-138084765D01*
X125335890Y-137875939D01*
X125432002Y-137643904D01*
X125481000Y-137397577D01*
X125481000Y-137146423D01*
X125432002Y-136900096D01*
X125420015Y-136871157D01*
X131541173Y-130750000D01*
X156816757Y-130750000D01*
X156845000Y-130752782D01*
X156873243Y-130750000D01*
X156873246Y-130750000D01*
X156957720Y-130741680D01*
X157066108Y-130708801D01*
X157165998Y-130655408D01*
X157253554Y-130583554D01*
X157271566Y-130561606D01*
X172500387Y-115332786D01*
X172430172Y-115564255D01*
X172404589Y-115824000D01*
X172430172Y-116083745D01*
X172484381Y-116262447D01*
X170301389Y-118445439D01*
X170279447Y-118463446D01*
X170261441Y-118485387D01*
X170207592Y-118551002D01*
X170154199Y-118650893D01*
X170121321Y-118759281D01*
X170110218Y-118872000D01*
X170113001Y-118900253D01*
X170113000Y-131416757D01*
X170110218Y-131445000D01*
X170113000Y-131473243D01*
X170113000Y-131473245D01*
X170121320Y-131557719D01*
X170145976Y-131639000D01*
X170154199Y-131666107D01*
X170207592Y-131765998D01*
X170232287Y-131796089D01*
X170279446Y-131853554D01*
X170301393Y-131871565D01*
X171150439Y-132720612D01*
X171168446Y-132742554D01*
X171190386Y-132760559D01*
X171256001Y-132814408D01*
X171319375Y-132848282D01*
X171355892Y-132867801D01*
X171464280Y-132900680D01*
X171548754Y-132909000D01*
X171548757Y-132909000D01*
X171577000Y-132911782D01*
X171605243Y-132909000D01*
X172605084Y-132909000D01*
X172505937Y-133094491D01*
X172430172Y-133344255D01*
X172404589Y-133604000D01*
X172430172Y-133863745D01*
X172505937Y-134113509D01*
X172628972Y-134343692D01*
X172794550Y-134545450D01*
X172996308Y-134711028D01*
X173226491Y-134834063D01*
X173476255Y-134909828D01*
X173670909Y-134929000D01*
X173801091Y-134929000D01*
X173995745Y-134909828D01*
X174174447Y-134855619D01*
X179405439Y-140086612D01*
X179423446Y-140108554D01*
X179445386Y-140126559D01*
X179511001Y-140180408D01*
X179562622Y-140208000D01*
X179610892Y-140233801D01*
X179719280Y-140266680D01*
X179803754Y-140275000D01*
X179803757Y-140275000D01*
X179832000Y-140277782D01*
X179860243Y-140275000D01*
X207997757Y-140275000D01*
X208026000Y-140277782D01*
X208054243Y-140275000D01*
X208054246Y-140275000D01*
X208138720Y-140266680D01*
X208247108Y-140233801D01*
X208346998Y-140180408D01*
X208434554Y-140108554D01*
X208452565Y-140086607D01*
X209110889Y-139428284D01*
X209163512Y-139450081D01*
X209419499Y-139501000D01*
X209680501Y-139501000D01*
X209936488Y-139450081D01*
X210177623Y-139350200D01*
X210394638Y-139205195D01*
X210579195Y-139020638D01*
X210724200Y-138803623D01*
X210820000Y-138572340D01*
X210915800Y-138803623D01*
X211060805Y-139020638D01*
X211245362Y-139205195D01*
X211462377Y-139350200D01*
X211703512Y-139450081D01*
X211959499Y-139501000D01*
X212220501Y-139501000D01*
X212476488Y-139450081D01*
X212717623Y-139350200D01*
X212934638Y-139205195D01*
X213080016Y-139059817D01*
X213781538Y-139059817D01*
X213867780Y-139267639D01*
X214095393Y-139395365D01*
X214343552Y-139476231D01*
X214602718Y-139507131D01*
X214862933Y-139486876D01*
X215114196Y-139416245D01*
X215346852Y-139297952D01*
X215392220Y-139267639D01*
X215478462Y-139059817D01*
X214630000Y-138211355D01*
X213781538Y-139059817D01*
X213080016Y-139059817D01*
X213119195Y-139020638D01*
X213264200Y-138803623D01*
X213363013Y-138565065D01*
X213389755Y-138660196D01*
X213508048Y-138892852D01*
X213538361Y-138938220D01*
X213746183Y-139024462D01*
X214594645Y-138176000D01*
X213746183Y-137327538D01*
X213538361Y-137413780D01*
X213410635Y-137641393D01*
X213363122Y-137787198D01*
X213264200Y-137548377D01*
X213119195Y-137331362D01*
X213080016Y-137292183D01*
X213781538Y-137292183D01*
X214630000Y-138140645D01*
X215478462Y-137292183D01*
X215392220Y-137084361D01*
X215164607Y-136956635D01*
X214916448Y-136875769D01*
X214657282Y-136844869D01*
X214397067Y-136865124D01*
X214145804Y-136935755D01*
X213913148Y-137054048D01*
X213867780Y-137084361D01*
X213781538Y-137292183D01*
X213080016Y-137292183D01*
X212934638Y-137146805D01*
X212717623Y-137001800D01*
X212476488Y-136901919D01*
X212220501Y-136851000D01*
X211959499Y-136851000D01*
X211703512Y-136901919D01*
X211650888Y-136923716D01*
X211616564Y-136889392D01*
X211616560Y-136889387D01*
X204134566Y-129407394D01*
X204116554Y-129385446D01*
X204028998Y-129313592D01*
X203929108Y-129260199D01*
X203820720Y-129227320D01*
X203736246Y-129219000D01*
X203736243Y-129219000D01*
X203708000Y-129216218D01*
X203679757Y-129219000D01*
X190106916Y-129219000D01*
X190206063Y-129033509D01*
X190281828Y-128783745D01*
X190307411Y-128524000D01*
X190281828Y-128264255D01*
X190206063Y-128014491D01*
X190083028Y-127784308D01*
X189917450Y-127582550D01*
X189715692Y-127416972D01*
X189485509Y-127293937D01*
X189267733Y-127227875D01*
X189466282Y-127167646D01*
X189687779Y-127049253D01*
X189881923Y-126889923D01*
X190041253Y-126695779D01*
X190159646Y-126474282D01*
X190232552Y-126233944D01*
X190257169Y-125984000D01*
X190232552Y-125734056D01*
X190159646Y-125493718D01*
X190041253Y-125272221D01*
X189881923Y-125078077D01*
X189687779Y-124918747D01*
X189466282Y-124800354D01*
X189225944Y-124727448D01*
X189038636Y-124709000D01*
X188913364Y-124709000D01*
X188726056Y-124727448D01*
X188485718Y-124800354D01*
X188264221Y-124918747D01*
X188070077Y-125078077D01*
X187910747Y-125272221D01*
X187837637Y-125409000D01*
X187436173Y-125409000D01*
X185471173Y-123444000D01*
X187745073Y-123444000D01*
X187768725Y-123684142D01*
X187838772Y-123915055D01*
X187952522Y-124127866D01*
X188105603Y-124314397D01*
X188292134Y-124467478D01*
X188504945Y-124581228D01*
X188735858Y-124651275D01*
X188915822Y-124669000D01*
X189036178Y-124669000D01*
X189216142Y-124651275D01*
X189447055Y-124581228D01*
X189659866Y-124467478D01*
X189846397Y-124314397D01*
X189999478Y-124127866D01*
X190113228Y-123915055D01*
X190183275Y-123684142D01*
X190206927Y-123444000D01*
X190183275Y-123203858D01*
X190113228Y-122972945D01*
X189999478Y-122760134D01*
X189846397Y-122573603D01*
X189659866Y-122420522D01*
X189447055Y-122306772D01*
X189216142Y-122236725D01*
X189036178Y-122219000D01*
X188915822Y-122219000D01*
X188735858Y-122236725D01*
X188504945Y-122306772D01*
X188292134Y-122420522D01*
X188105603Y-122573603D01*
X187952522Y-122760134D01*
X187838772Y-122972945D01*
X187768725Y-123203858D01*
X187745073Y-123444000D01*
X185471173Y-123444000D01*
X183963000Y-121935828D01*
X183963000Y-97266172D01*
X190505606Y-90723566D01*
X190527554Y-90705554D01*
X190592361Y-90626585D01*
X190599408Y-90617999D01*
X190618006Y-90583204D01*
X190652801Y-90518108D01*
X190685680Y-90409720D01*
X190694000Y-90325246D01*
X190694000Y-90325244D01*
X190696782Y-90297001D01*
X190694000Y-90268758D01*
X190694000Y-84142240D01*
X190696782Y-84113997D01*
X190694000Y-84085752D01*
X190685680Y-84001278D01*
X190652801Y-83892890D01*
X190616897Y-83825719D01*
X190599408Y-83792999D01*
X190545559Y-83727384D01*
X190527554Y-83705444D01*
X190505613Y-83687438D01*
X190144566Y-83326392D01*
X190126555Y-83304445D01*
X190038999Y-83232591D01*
X189939109Y-83179198D01*
X189830721Y-83146319D01*
X189746247Y-83137999D01*
X189746244Y-83137999D01*
X189718001Y-83135217D01*
X189689758Y-83137999D01*
X189586137Y-83137999D01*
X189687365Y-82957607D01*
X189768231Y-82709448D01*
X189799131Y-82450282D01*
X189778876Y-82190067D01*
X189708245Y-81938804D01*
X189611231Y-81747999D01*
X190281827Y-81747999D01*
X191195000Y-82661173D01*
X191195001Y-90566826D01*
X185160394Y-96601434D01*
X185138446Y-96619446D01*
X185093592Y-96674103D01*
X185066592Y-96707002D01*
X185043902Y-96749452D01*
X185013199Y-96806893D01*
X184980320Y-96915281D01*
X184973503Y-96984499D01*
X184969218Y-97028000D01*
X184972000Y-97056243D01*
X184972001Y-118970747D01*
X184969218Y-118999000D01*
X184978488Y-119093107D01*
X184980032Y-119108780D01*
X184980321Y-119111719D01*
X185013199Y-119220107D01*
X185066592Y-119319998D01*
X185112441Y-119375865D01*
X185138447Y-119407554D01*
X185160389Y-119425561D01*
X187025439Y-121290612D01*
X187043446Y-121312554D01*
X187065386Y-121330559D01*
X187131001Y-121384408D01*
X187185445Y-121413509D01*
X187230892Y-121437801D01*
X187339280Y-121470680D01*
X187423754Y-121479000D01*
X187423757Y-121479000D01*
X187452000Y-121481782D01*
X187480243Y-121479000D01*
X187837637Y-121479000D01*
X187910747Y-121615779D01*
X188070077Y-121809923D01*
X188264221Y-121969253D01*
X188485718Y-122087646D01*
X188726056Y-122160552D01*
X188913364Y-122179000D01*
X189038636Y-122179000D01*
X189225944Y-122160552D01*
X189466282Y-122087646D01*
X189687779Y-121969253D01*
X189881923Y-121809923D01*
X190041253Y-121615779D01*
X190159646Y-121394282D01*
X190232552Y-121153944D01*
X190257169Y-120904000D01*
X190232552Y-120654056D01*
X190159646Y-120413718D01*
X190041253Y-120192221D01*
X189881923Y-119998077D01*
X189687779Y-119838747D01*
X189466282Y-119720354D01*
X189267733Y-119660125D01*
X189485509Y-119594063D01*
X189715692Y-119471028D01*
X189917450Y-119305450D01*
X190083028Y-119103692D01*
X190206063Y-118873509D01*
X190281828Y-118623745D01*
X190307411Y-118364000D01*
X190281828Y-118104255D01*
X190206063Y-117854491D01*
X190083028Y-117624308D01*
X189917450Y-117422550D01*
X189715692Y-117256972D01*
X189485509Y-117133937D01*
X189267733Y-117067875D01*
X189466282Y-117007646D01*
X189687779Y-116889253D01*
X189881923Y-116729923D01*
X190041253Y-116535779D01*
X190159646Y-116314282D01*
X190232552Y-116073944D01*
X190257169Y-115824000D01*
X190232552Y-115574056D01*
X190159646Y-115333718D01*
X190041253Y-115112221D01*
X189881923Y-114918077D01*
X189687779Y-114758747D01*
X189466282Y-114640354D01*
X189225944Y-114567448D01*
X189038636Y-114549000D01*
X188913364Y-114549000D01*
X188726056Y-114567448D01*
X188577641Y-114612469D01*
X188552564Y-114587392D01*
X188552560Y-114587387D01*
X188183487Y-114218315D01*
X188292134Y-114307478D01*
X188504945Y-114421228D01*
X188735858Y-114491275D01*
X188915822Y-114509000D01*
X189036178Y-114509000D01*
X189216142Y-114491275D01*
X189447055Y-114421228D01*
X189659866Y-114307478D01*
X189846397Y-114154397D01*
X189999478Y-113967866D01*
X190113228Y-113755055D01*
X190183275Y-113524142D01*
X190206927Y-113284000D01*
X190183275Y-113043858D01*
X190113228Y-112812945D01*
X189999478Y-112600134D01*
X189846397Y-112413603D01*
X189659866Y-112260522D01*
X189447055Y-112146772D01*
X189216142Y-112076725D01*
X189036178Y-112059000D01*
X188915822Y-112059000D01*
X188735858Y-112076725D01*
X188504945Y-112146772D01*
X188292134Y-112260522D01*
X188105603Y-112413603D01*
X187952522Y-112600134D01*
X187838772Y-112812945D01*
X187768725Y-113043858D01*
X187745073Y-113284000D01*
X187768725Y-113524142D01*
X187838772Y-113755055D01*
X187952522Y-113967866D01*
X188041686Y-114076513D01*
X187138000Y-113172828D01*
X187138000Y-110744000D01*
X187745073Y-110744000D01*
X187768725Y-110984142D01*
X187838772Y-111215055D01*
X187952522Y-111427866D01*
X188105603Y-111614397D01*
X188292134Y-111767478D01*
X188504945Y-111881228D01*
X188735858Y-111951275D01*
X188915822Y-111969000D01*
X189036178Y-111969000D01*
X189216142Y-111951275D01*
X189447055Y-111881228D01*
X189659866Y-111767478D01*
X189846397Y-111614397D01*
X189999478Y-111427866D01*
X190113228Y-111215055D01*
X190183275Y-110984142D01*
X190206927Y-110744000D01*
X190183275Y-110503858D01*
X190113228Y-110272945D01*
X189999478Y-110060134D01*
X189846397Y-109873603D01*
X189659866Y-109720522D01*
X189447055Y-109606772D01*
X189216142Y-109536725D01*
X189036178Y-109519000D01*
X188915822Y-109519000D01*
X188735858Y-109536725D01*
X188504945Y-109606772D01*
X188292134Y-109720522D01*
X188105603Y-109873603D01*
X187952522Y-110060134D01*
X187838772Y-110272945D01*
X187768725Y-110503858D01*
X187745073Y-110744000D01*
X187138000Y-110744000D01*
X187138000Y-98044000D01*
X187644589Y-98044000D01*
X187670172Y-98303745D01*
X187745937Y-98553509D01*
X187868972Y-98783692D01*
X188034550Y-98985450D01*
X188236308Y-99151028D01*
X188466491Y-99274063D01*
X188609248Y-99317368D01*
X188494022Y-99349770D01*
X188262497Y-99467515D01*
X188058391Y-99628165D01*
X187889548Y-99825548D01*
X187762457Y-100052078D01*
X187682002Y-100299049D01*
X187671457Y-100352069D01*
X187757506Y-100559000D01*
X188951000Y-100559000D01*
X188951000Y-100539000D01*
X189001000Y-100539000D01*
X189001000Y-100559000D01*
X190194494Y-100559000D01*
X190280543Y-100352069D01*
X190269998Y-100299049D01*
X190189543Y-100052078D01*
X190062452Y-99825548D01*
X189893609Y-99628165D01*
X189689503Y-99467515D01*
X189457978Y-99349770D01*
X189342752Y-99317368D01*
X189485509Y-99274063D01*
X189715692Y-99151028D01*
X189917450Y-98985450D01*
X190083028Y-98783692D01*
X190206063Y-98553509D01*
X190281828Y-98303745D01*
X190307411Y-98044000D01*
X190281828Y-97784255D01*
X190206063Y-97534491D01*
X190083028Y-97304308D01*
X189917450Y-97102550D01*
X189715692Y-96936972D01*
X189485509Y-96813937D01*
X189235745Y-96738172D01*
X189041091Y-96719000D01*
X188910909Y-96719000D01*
X188716255Y-96738172D01*
X188466491Y-96813937D01*
X188236308Y-96936972D01*
X188034550Y-97102550D01*
X187868972Y-97304308D01*
X187745937Y-97534491D01*
X187670172Y-97784255D01*
X187644589Y-98044000D01*
X187138000Y-98044000D01*
X187138000Y-97338294D01*
X192518006Y-91958288D01*
X196681000Y-91958288D01*
X196681000Y-92191712D01*
X196726539Y-92420652D01*
X196815866Y-92636308D01*
X196945550Y-92830394D01*
X197110606Y-92995450D01*
X197304692Y-93125134D01*
X197520348Y-93214461D01*
X197749288Y-93260000D01*
X197982712Y-93260000D01*
X198211652Y-93214461D01*
X198427308Y-93125134D01*
X198621394Y-92995450D01*
X198786450Y-92830394D01*
X198916134Y-92636308D01*
X199005461Y-92420652D01*
X199051000Y-92191712D01*
X199051000Y-91958288D01*
X199005461Y-91729348D01*
X198916134Y-91513692D01*
X198786450Y-91319606D01*
X198621394Y-91154550D01*
X198427308Y-91024866D01*
X198211652Y-90935539D01*
X197982712Y-90890000D01*
X197749288Y-90890000D01*
X197520348Y-90935539D01*
X197304692Y-91024866D01*
X197110606Y-91154550D01*
X196945550Y-91319606D01*
X196815866Y-91513692D01*
X196726539Y-91729348D01*
X196681000Y-91958288D01*
X192518006Y-91958288D01*
X194366295Y-90110000D01*
X198095015Y-90110000D01*
X198215550Y-90290394D01*
X198380606Y-90455450D01*
X198574692Y-90585134D01*
X198790348Y-90674461D01*
X199019288Y-90720000D01*
X199252712Y-90720000D01*
X199481652Y-90674461D01*
X199697308Y-90585134D01*
X199891394Y-90455450D01*
X200056450Y-90290394D01*
X200186134Y-90096308D01*
X200275461Y-89880652D01*
X200321000Y-89651712D01*
X200321000Y-89513242D01*
X200485466Y-89513242D01*
X200504097Y-89745922D01*
X200567764Y-89970496D01*
X200674019Y-90178335D01*
X200698194Y-90214516D01*
X200891680Y-90283965D01*
X201640645Y-89535000D01*
X200891680Y-88786035D01*
X200698194Y-88855484D01*
X200584415Y-89059301D01*
X200512586Y-89281399D01*
X200485466Y-89513242D01*
X200321000Y-89513242D01*
X200321000Y-89418288D01*
X200275461Y-89189348D01*
X200186134Y-88973692D01*
X200056450Y-88779606D01*
X200027524Y-88750680D01*
X200927035Y-88750680D01*
X201676000Y-89499645D01*
X202424965Y-88750680D01*
X202355516Y-88557194D01*
X202151699Y-88443415D01*
X201929601Y-88371586D01*
X201697758Y-88344466D01*
X201465078Y-88363097D01*
X201240504Y-88426764D01*
X201032665Y-88533019D01*
X200996484Y-88557194D01*
X200927035Y-88750680D01*
X200027524Y-88750680D01*
X199891394Y-88614550D01*
X199697308Y-88484866D01*
X199481652Y-88395539D01*
X199252712Y-88350000D01*
X199019288Y-88350000D01*
X198790348Y-88395539D01*
X198574692Y-88484866D01*
X198380606Y-88614550D01*
X198215550Y-88779606D01*
X198095015Y-88960000D01*
X194156364Y-88960000D01*
X194128121Y-88957218D01*
X194099878Y-88960000D01*
X194099876Y-88960000D01*
X194015402Y-88968320D01*
X193907014Y-89001199D01*
X193807123Y-89054592D01*
X193761275Y-89092218D01*
X193719568Y-89126446D01*
X193701561Y-89148388D01*
X192345000Y-90504949D01*
X192345000Y-82985555D01*
X192671000Y-82985555D01*
X192671000Y-83384445D01*
X192748820Y-83775671D01*
X192901468Y-84144197D01*
X193123080Y-84475862D01*
X193405138Y-84757920D01*
X193736803Y-84979532D01*
X194105329Y-85132180D01*
X194496555Y-85210000D01*
X194895445Y-85210000D01*
X195286671Y-85132180D01*
X195655197Y-84979532D01*
X195986862Y-84757920D01*
X196268920Y-84475862D01*
X196490532Y-84144197D01*
X196643180Y-83775671D01*
X196721000Y-83384445D01*
X196721000Y-82985555D01*
X196643180Y-82594329D01*
X196490532Y-82225803D01*
X196268920Y-81894138D01*
X195986862Y-81612080D01*
X195655197Y-81390468D01*
X195286671Y-81237820D01*
X194895445Y-81160000D01*
X194496555Y-81160000D01*
X194105329Y-81237820D01*
X193736803Y-81390468D01*
X193405138Y-81612080D01*
X193123080Y-81894138D01*
X192901468Y-82225803D01*
X192748820Y-82594329D01*
X192671000Y-82985555D01*
X192345000Y-82985555D01*
X192345000Y-82451242D01*
X192347782Y-82422999D01*
X192344300Y-82387645D01*
X192336680Y-82310280D01*
X192303801Y-82201892D01*
X192250409Y-82102003D01*
X192250408Y-82102001D01*
X192196559Y-82036386D01*
X192178554Y-82014446D01*
X192156613Y-81996440D01*
X190946564Y-80786392D01*
X190928553Y-80764445D01*
X190840997Y-80692591D01*
X190741107Y-80639198D01*
X190638261Y-80608000D01*
X197946696Y-80608000D01*
X199427000Y-82088305D01*
X199427000Y-82088305D01*
G37*
X199427000Y-82088305D02*
X199427001Y-83657393D01*
X199423494Y-83693000D01*
X199437492Y-83835124D01*
X199478947Y-83971787D01*
X199546269Y-84097736D01*
X199614170Y-84180474D01*
X199614173Y-84180477D01*
X199636869Y-84208132D01*
X199664523Y-84230827D01*
X203745000Y-88311305D01*
X203745001Y-88785496D01*
X202852332Y-89678165D01*
X202866534Y-89556758D01*
X202847903Y-89324078D01*
X202784236Y-89099504D01*
X202677981Y-88891665D01*
X202653806Y-88855484D01*
X202460320Y-88786035D01*
X201711355Y-89535000D01*
X201725498Y-89549143D01*
X201690143Y-89584498D01*
X201676000Y-89570355D01*
X200927035Y-90319320D01*
X200996484Y-90512806D01*
X201200301Y-90626585D01*
X201422399Y-90698414D01*
X201654242Y-90725534D01*
X201818083Y-90712415D01*
X201268671Y-91261827D01*
X201161394Y-91154550D01*
X200967308Y-91024866D01*
X200751652Y-90935539D01*
X200522712Y-90890000D01*
X200289288Y-90890000D01*
X200060348Y-90935539D01*
X199844692Y-91024866D01*
X199650606Y-91154550D01*
X199485550Y-91319606D01*
X199355866Y-91513692D01*
X199266539Y-91729348D01*
X199221000Y-91958288D01*
X199221000Y-92191712D01*
X199266539Y-92420652D01*
X199355866Y-92636308D01*
X199485550Y-92830394D01*
X199650606Y-92995450D01*
X199681000Y-93015759D01*
X199681000Y-93185408D01*
X199681001Y-93185418D01*
X199681000Y-95206487D01*
X190029006Y-104858482D01*
X189917450Y-104722550D01*
X189715692Y-104556972D01*
X189485509Y-104433937D01*
X189353854Y-104394000D01*
X189485509Y-104354063D01*
X189715692Y-104231028D01*
X189917450Y-104065450D01*
X190083028Y-103863692D01*
X190206063Y-103633509D01*
X190281828Y-103383745D01*
X190307411Y-103124000D01*
X190281828Y-102864255D01*
X190206063Y-102614491D01*
X190083028Y-102384308D01*
X189917450Y-102182550D01*
X189715692Y-102016972D01*
X189485509Y-101893937D01*
X189342752Y-101850632D01*
X189457978Y-101818230D01*
X189689503Y-101700485D01*
X189893609Y-101539835D01*
X190062452Y-101342452D01*
X190189543Y-101115922D01*
X190269998Y-100868951D01*
X190280543Y-100815931D01*
X190194494Y-100609000D01*
X189001000Y-100609000D01*
X189001000Y-100629000D01*
X188951000Y-100629000D01*
X188951000Y-100609000D01*
X187757506Y-100609000D01*
X187671457Y-100815931D01*
X187682002Y-100868951D01*
X187762457Y-101115922D01*
X187889548Y-101342452D01*
X188058391Y-101539835D01*
X188262497Y-101700485D01*
X188494022Y-101818230D01*
X188609248Y-101850632D01*
X188466491Y-101893937D01*
X188236308Y-102016972D01*
X188034550Y-102182550D01*
X187868972Y-102384308D01*
X187745937Y-102614491D01*
X187670172Y-102864255D01*
X187644589Y-103124000D01*
X187670172Y-103383745D01*
X187745937Y-103633509D01*
X187868972Y-103863692D01*
X188034550Y-104065450D01*
X188236308Y-104231028D01*
X188466491Y-104354063D01*
X188598146Y-104394000D01*
X188466491Y-104433937D01*
X188236308Y-104556972D01*
X188034550Y-104722550D01*
X187868972Y-104924308D01*
X187745937Y-105154491D01*
X187670172Y-105404255D01*
X187644589Y-105664000D01*
X187670172Y-105923745D01*
X187745937Y-106173509D01*
X187868972Y-106403692D01*
X188034550Y-106605450D01*
X188236308Y-106771028D01*
X188466491Y-106894063D01*
X188716255Y-106969828D01*
X188862600Y-106984242D01*
X188735858Y-106996725D01*
X188504945Y-107066772D01*
X188292134Y-107180522D01*
X188105603Y-107333603D01*
X187952522Y-107520134D01*
X187838772Y-107732945D01*
X187768725Y-107963858D01*
X187745073Y-108204000D01*
X187768725Y-108444142D01*
X187838772Y-108675055D01*
X187952522Y-108887866D01*
X188105603Y-109074397D01*
X188292134Y-109227478D01*
X188504945Y-109341228D01*
X188735858Y-109411275D01*
X188915822Y-109429000D01*
X189036178Y-109429000D01*
X189216142Y-109411275D01*
X189447055Y-109341228D01*
X189659866Y-109227478D01*
X189846397Y-109074397D01*
X189999478Y-108887866D01*
X190113228Y-108675055D01*
X190183275Y-108444142D01*
X190206927Y-108204000D01*
X190183275Y-107963858D01*
X190153979Y-107867283D01*
X216445000Y-134158305D01*
X216445001Y-137066865D01*
X216325362Y-137146805D01*
X216140805Y-137331362D01*
X215995800Y-137548377D01*
X215896987Y-137786935D01*
X215870245Y-137691804D01*
X215751952Y-137459148D01*
X215721639Y-137413780D01*
X215513817Y-137327538D01*
X214665355Y-138176000D01*
X215513817Y-139024462D01*
X215721639Y-138938220D01*
X215849365Y-138710607D01*
X215896878Y-138564802D01*
X215995800Y-138803623D01*
X216140805Y-139020638D01*
X216325362Y-139205195D01*
X216445001Y-139285135D01*
X216445001Y-139907694D01*
X214964696Y-141388000D01*
X160872000Y-141388000D01*
X160872000Y-138336000D01*
X160959765Y-138277357D01*
X161137357Y-138099765D01*
X161276890Y-137890939D01*
X161373002Y-137658904D01*
X161417000Y-137437713D01*
X161460998Y-137658904D01*
X161557110Y-137890939D01*
X161696643Y-138099765D01*
X161874235Y-138277357D01*
X162083061Y-138416890D01*
X162315096Y-138513002D01*
X162561423Y-138562000D01*
X162812577Y-138562000D01*
X163058904Y-138513002D01*
X163290939Y-138416890D01*
X163499765Y-138277357D01*
X163641839Y-138135283D01*
X164414073Y-138135283D01*
X164494316Y-138337985D01*
X164713432Y-138460730D01*
X164952283Y-138538370D01*
X165201692Y-138567919D01*
X165452074Y-138548244D01*
X165693805Y-138480100D01*
X165917597Y-138366106D01*
X165959684Y-138337985D01*
X166039927Y-138135283D01*
X165227000Y-137322355D01*
X164414073Y-138135283D01*
X163641839Y-138135283D01*
X163677357Y-138099765D01*
X163816890Y-137890939D01*
X163913002Y-137658904D01*
X163959088Y-137427217D01*
X163965756Y-137512074D01*
X164033900Y-137753805D01*
X164147894Y-137977597D01*
X164176015Y-138019684D01*
X164378717Y-138099927D01*
X165191645Y-137287000D01*
X165262355Y-137287000D01*
X166075283Y-138099927D01*
X166277985Y-138019684D01*
X166400730Y-137800568D01*
X166478370Y-137561717D01*
X166507919Y-137312308D01*
X166488244Y-137061926D01*
X166420100Y-136820195D01*
X166306106Y-136596403D01*
X166277985Y-136554316D01*
X166075283Y-136474073D01*
X165262355Y-137287000D01*
X165191645Y-137287000D01*
X164378717Y-136474073D01*
X164176015Y-136554316D01*
X164053270Y-136773432D01*
X163975630Y-137012283D01*
X163959468Y-137148696D01*
X163913002Y-136915096D01*
X163816890Y-136683061D01*
X163677357Y-136474235D01*
X163641839Y-136438717D01*
X164414073Y-136438717D01*
X165227000Y-137251645D01*
X166039927Y-136438717D01*
X165959684Y-136236015D01*
X165740568Y-136113270D01*
X165501717Y-136035630D01*
X165252308Y-136006081D01*
X165001926Y-136025756D01*
X164760195Y-136093900D01*
X164536403Y-136207894D01*
X164494316Y-136236015D01*
X164414073Y-136438717D01*
X163641839Y-136438717D01*
X163499765Y-136296643D01*
X163290939Y-136157110D01*
X163262000Y-136145123D01*
X163262000Y-135410242D01*
X163264782Y-135381999D01*
X163262000Y-135353754D01*
X163253680Y-135269280D01*
X163220801Y-135160892D01*
X163167408Y-135061001D01*
X163113559Y-134995386D01*
X163095554Y-134973446D01*
X163073612Y-134955439D01*
X159811565Y-131693393D01*
X159793554Y-131671446D01*
X159705998Y-131599592D01*
X159606108Y-131546199D01*
X159497720Y-131513320D01*
X159413246Y-131505000D01*
X159413243Y-131505000D01*
X159385000Y-131502218D01*
X159356757Y-131505000D01*
X132235243Y-131505000D01*
X132207000Y-131502218D01*
X132178757Y-131505000D01*
X132178754Y-131505000D01*
X132094280Y-131513320D01*
X131991796Y-131544408D01*
X131985892Y-131546199D01*
X131886001Y-131599592D01*
X131849902Y-131629218D01*
X131798446Y-131671446D01*
X131780439Y-131693388D01*
X124856828Y-138617000D01*
X123936173Y-138617000D01*
X123805209Y-138486037D01*
X123834096Y-138498002D01*
X124080423Y-138547000D01*
X124331577Y-138547000D01*
X124577904Y-138498002D01*
X124809939Y-138401890D01*
X125018765Y-138262357D01*
X125196357Y-138084765D01*
X125335890Y-137875939D01*
X125432002Y-137643904D01*
X125481000Y-137397577D01*
X125481000Y-137146423D01*
X125432002Y-136900096D01*
X125420015Y-136871157D01*
X131541173Y-130750000D01*
X156816757Y-130750000D01*
X156845000Y-130752782D01*
X156873243Y-130750000D01*
X156873246Y-130750000D01*
X156957720Y-130741680D01*
X157066108Y-130708801D01*
X157165998Y-130655408D01*
X157253554Y-130583554D01*
X157271566Y-130561606D01*
X172500387Y-115332786D01*
X172430172Y-115564255D01*
X172404589Y-115824000D01*
X172430172Y-116083745D01*
X172484381Y-116262447D01*
X170301389Y-118445439D01*
X170279447Y-118463446D01*
X170261441Y-118485387D01*
X170207592Y-118551002D01*
X170154199Y-118650893D01*
X170121321Y-118759281D01*
X170110218Y-118872000D01*
X170113001Y-118900253D01*
X170113000Y-131416757D01*
X170110218Y-131445000D01*
X170113000Y-131473243D01*
X170113000Y-131473245D01*
X170121320Y-131557719D01*
X170145976Y-131639000D01*
X170154199Y-131666107D01*
X170207592Y-131765998D01*
X170232287Y-131796089D01*
X170279446Y-131853554D01*
X170301393Y-131871565D01*
X171150439Y-132720612D01*
X171168446Y-132742554D01*
X171190386Y-132760559D01*
X171256001Y-132814408D01*
X171319375Y-132848282D01*
X171355892Y-132867801D01*
X171464280Y-132900680D01*
X171548754Y-132909000D01*
X171548757Y-132909000D01*
X171577000Y-132911782D01*
X171605243Y-132909000D01*
X172605084Y-132909000D01*
X172505937Y-133094491D01*
X172430172Y-133344255D01*
X172404589Y-133604000D01*
X172430172Y-133863745D01*
X172505937Y-134113509D01*
X172628972Y-134343692D01*
X172794550Y-134545450D01*
X172996308Y-134711028D01*
X173226491Y-134834063D01*
X173476255Y-134909828D01*
X173670909Y-134929000D01*
X173801091Y-134929000D01*
X173995745Y-134909828D01*
X174174447Y-134855619D01*
X179405439Y-140086612D01*
X179423446Y-140108554D01*
X179445386Y-140126559D01*
X179511001Y-140180408D01*
X179562622Y-140208000D01*
X179610892Y-140233801D01*
X179719280Y-140266680D01*
X179803754Y-140275000D01*
X179803757Y-140275000D01*
X179832000Y-140277782D01*
X179860243Y-140275000D01*
X207997757Y-140275000D01*
X208026000Y-140277782D01*
X208054243Y-140275000D01*
X208054246Y-140275000D01*
X208138720Y-140266680D01*
X208247108Y-140233801D01*
X208346998Y-140180408D01*
X208434554Y-140108554D01*
X208452565Y-140086607D01*
X209110889Y-139428284D01*
X209163512Y-139450081D01*
X209419499Y-139501000D01*
X209680501Y-139501000D01*
X209936488Y-139450081D01*
X210177623Y-139350200D01*
X210394638Y-139205195D01*
X210579195Y-139020638D01*
X210724200Y-138803623D01*
X210820000Y-138572340D01*
X210915800Y-138803623D01*
X211060805Y-139020638D01*
X211245362Y-139205195D01*
X211462377Y-139350200D01*
X211703512Y-139450081D01*
X211959499Y-139501000D01*
X212220501Y-139501000D01*
X212476488Y-139450081D01*
X212717623Y-139350200D01*
X212934638Y-139205195D01*
X213080016Y-139059817D01*
X213781538Y-139059817D01*
X213867780Y-139267639D01*
X214095393Y-139395365D01*
X214343552Y-139476231D01*
X214602718Y-139507131D01*
X214862933Y-139486876D01*
X215114196Y-139416245D01*
X215346852Y-139297952D01*
X215392220Y-139267639D01*
X215478462Y-139059817D01*
X214630000Y-138211355D01*
X213781538Y-139059817D01*
X213080016Y-139059817D01*
X213119195Y-139020638D01*
X213264200Y-138803623D01*
X213363013Y-138565065D01*
X213389755Y-138660196D01*
X213508048Y-138892852D01*
X213538361Y-138938220D01*
X213746183Y-139024462D01*
X214594645Y-138176000D01*
X213746183Y-137327538D01*
X213538361Y-137413780D01*
X213410635Y-137641393D01*
X213363122Y-137787198D01*
X213264200Y-137548377D01*
X213119195Y-137331362D01*
X213080016Y-137292183D01*
X213781538Y-137292183D01*
X214630000Y-138140645D01*
X215478462Y-137292183D01*
X215392220Y-137084361D01*
X215164607Y-136956635D01*
X214916448Y-136875769D01*
X214657282Y-136844869D01*
X214397067Y-136865124D01*
X214145804Y-136935755D01*
X213913148Y-137054048D01*
X213867780Y-137084361D01*
X213781538Y-137292183D01*
X213080016Y-137292183D01*
X212934638Y-137146805D01*
X212717623Y-137001800D01*
X212476488Y-136901919D01*
X212220501Y-136851000D01*
X211959499Y-136851000D01*
X211703512Y-136901919D01*
X211650888Y-136923716D01*
X211616564Y-136889392D01*
X211616560Y-136889387D01*
X204134566Y-129407394D01*
X204116554Y-129385446D01*
X204028998Y-129313592D01*
X203929108Y-129260199D01*
X203820720Y-129227320D01*
X203736246Y-129219000D01*
X203736243Y-129219000D01*
X203708000Y-129216218D01*
X203679757Y-129219000D01*
X190106916Y-129219000D01*
X190206063Y-129033509D01*
X190281828Y-128783745D01*
X190307411Y-128524000D01*
X190281828Y-128264255D01*
X190206063Y-128014491D01*
X190083028Y-127784308D01*
X189917450Y-127582550D01*
X189715692Y-127416972D01*
X189485509Y-127293937D01*
X189267733Y-127227875D01*
X189466282Y-127167646D01*
X189687779Y-127049253D01*
X189881923Y-126889923D01*
X190041253Y-126695779D01*
X190159646Y-126474282D01*
X190232552Y-126233944D01*
X190257169Y-125984000D01*
X190232552Y-125734056D01*
X190159646Y-125493718D01*
X190041253Y-125272221D01*
X189881923Y-125078077D01*
X189687779Y-124918747D01*
X189466282Y-124800354D01*
X189225944Y-124727448D01*
X189038636Y-124709000D01*
X188913364Y-124709000D01*
X188726056Y-124727448D01*
X188485718Y-124800354D01*
X188264221Y-124918747D01*
X188070077Y-125078077D01*
X187910747Y-125272221D01*
X187837637Y-125409000D01*
X187436173Y-125409000D01*
X185471173Y-123444000D01*
X187745073Y-123444000D01*
X187768725Y-123684142D01*
X187838772Y-123915055D01*
X187952522Y-124127866D01*
X188105603Y-124314397D01*
X188292134Y-124467478D01*
X188504945Y-124581228D01*
X188735858Y-124651275D01*
X188915822Y-124669000D01*
X189036178Y-124669000D01*
X189216142Y-124651275D01*
X189447055Y-124581228D01*
X189659866Y-124467478D01*
X189846397Y-124314397D01*
X189999478Y-124127866D01*
X190113228Y-123915055D01*
X190183275Y-123684142D01*
X190206927Y-123444000D01*
X190183275Y-123203858D01*
X190113228Y-122972945D01*
X189999478Y-122760134D01*
X189846397Y-122573603D01*
X189659866Y-122420522D01*
X189447055Y-122306772D01*
X189216142Y-122236725D01*
X189036178Y-122219000D01*
X188915822Y-122219000D01*
X188735858Y-122236725D01*
X188504945Y-122306772D01*
X188292134Y-122420522D01*
X188105603Y-122573603D01*
X187952522Y-122760134D01*
X187838772Y-122972945D01*
X187768725Y-123203858D01*
X187745073Y-123444000D01*
X185471173Y-123444000D01*
X183963000Y-121935828D01*
X183963000Y-97266172D01*
X190505606Y-90723566D01*
X190527554Y-90705554D01*
X190592361Y-90626585D01*
X190599408Y-90617999D01*
X190618006Y-90583204D01*
X190652801Y-90518108D01*
X190685680Y-90409720D01*
X190694000Y-90325246D01*
X190694000Y-90325244D01*
X190696782Y-90297001D01*
X190694000Y-90268758D01*
X190694000Y-84142240D01*
X190696782Y-84113997D01*
X190694000Y-84085752D01*
X190685680Y-84001278D01*
X190652801Y-83892890D01*
X190616897Y-83825719D01*
X190599408Y-83792999D01*
X190545559Y-83727384D01*
X190527554Y-83705444D01*
X190505613Y-83687438D01*
X190144566Y-83326392D01*
X190126555Y-83304445D01*
X190038999Y-83232591D01*
X189939109Y-83179198D01*
X189830721Y-83146319D01*
X189746247Y-83137999D01*
X189746244Y-83137999D01*
X189718001Y-83135217D01*
X189689758Y-83137999D01*
X189586137Y-83137999D01*
X189687365Y-82957607D01*
X189768231Y-82709448D01*
X189799131Y-82450282D01*
X189778876Y-82190067D01*
X189708245Y-81938804D01*
X189611231Y-81747999D01*
X190281827Y-81747999D01*
X191195000Y-82661173D01*
X191195001Y-90566826D01*
X185160394Y-96601434D01*
X185138446Y-96619446D01*
X185093592Y-96674103D01*
X185066592Y-96707002D01*
X185043902Y-96749452D01*
X185013199Y-96806893D01*
X184980320Y-96915281D01*
X184973503Y-96984499D01*
X184969218Y-97028000D01*
X184972000Y-97056243D01*
X184972001Y-118970747D01*
X184969218Y-118999000D01*
X184978488Y-119093107D01*
X184980032Y-119108780D01*
X184980321Y-119111719D01*
X185013199Y-119220107D01*
X185066592Y-119319998D01*
X185112441Y-119375865D01*
X185138447Y-119407554D01*
X185160389Y-119425561D01*
X187025439Y-121290612D01*
X187043446Y-121312554D01*
X187065386Y-121330559D01*
X187131001Y-121384408D01*
X187185445Y-121413509D01*
X187230892Y-121437801D01*
X187339280Y-121470680D01*
X187423754Y-121479000D01*
X187423757Y-121479000D01*
X187452000Y-121481782D01*
X187480243Y-121479000D01*
X187837637Y-121479000D01*
X187910747Y-121615779D01*
X188070077Y-121809923D01*
X188264221Y-121969253D01*
X188485718Y-122087646D01*
X188726056Y-122160552D01*
X188913364Y-122179000D01*
X189038636Y-122179000D01*
X189225944Y-122160552D01*
X189466282Y-122087646D01*
X189687779Y-121969253D01*
X189881923Y-121809923D01*
X190041253Y-121615779D01*
X190159646Y-121394282D01*
X190232552Y-121153944D01*
X190257169Y-120904000D01*
X190232552Y-120654056D01*
X190159646Y-120413718D01*
X190041253Y-120192221D01*
X189881923Y-119998077D01*
X189687779Y-119838747D01*
X189466282Y-119720354D01*
X189267733Y-119660125D01*
X189485509Y-119594063D01*
X189715692Y-119471028D01*
X189917450Y-119305450D01*
X190083028Y-119103692D01*
X190206063Y-118873509D01*
X190281828Y-118623745D01*
X190307411Y-118364000D01*
X190281828Y-118104255D01*
X190206063Y-117854491D01*
X190083028Y-117624308D01*
X189917450Y-117422550D01*
X189715692Y-117256972D01*
X189485509Y-117133937D01*
X189267733Y-117067875D01*
X189466282Y-117007646D01*
X189687779Y-116889253D01*
X189881923Y-116729923D01*
X190041253Y-116535779D01*
X190159646Y-116314282D01*
X190232552Y-116073944D01*
X190257169Y-115824000D01*
X190232552Y-115574056D01*
X190159646Y-115333718D01*
X190041253Y-115112221D01*
X189881923Y-114918077D01*
X189687779Y-114758747D01*
X189466282Y-114640354D01*
X189225944Y-114567448D01*
X189038636Y-114549000D01*
X188913364Y-114549000D01*
X188726056Y-114567448D01*
X188577641Y-114612469D01*
X188552564Y-114587392D01*
X188552560Y-114587387D01*
X188183487Y-114218315D01*
X188292134Y-114307478D01*
X188504945Y-114421228D01*
X188735858Y-114491275D01*
X188915822Y-114509000D01*
X189036178Y-114509000D01*
X189216142Y-114491275D01*
X189447055Y-114421228D01*
X189659866Y-114307478D01*
X189846397Y-114154397D01*
X189999478Y-113967866D01*
X190113228Y-113755055D01*
X190183275Y-113524142D01*
X190206927Y-113284000D01*
X190183275Y-113043858D01*
X190113228Y-112812945D01*
X189999478Y-112600134D01*
X189846397Y-112413603D01*
X189659866Y-112260522D01*
X189447055Y-112146772D01*
X189216142Y-112076725D01*
X189036178Y-112059000D01*
X188915822Y-112059000D01*
X188735858Y-112076725D01*
X188504945Y-112146772D01*
X188292134Y-112260522D01*
X188105603Y-112413603D01*
X187952522Y-112600134D01*
X187838772Y-112812945D01*
X187768725Y-113043858D01*
X187745073Y-113284000D01*
X187768725Y-113524142D01*
X187838772Y-113755055D01*
X187952522Y-113967866D01*
X188041686Y-114076513D01*
X187138000Y-113172828D01*
X187138000Y-110744000D01*
X187745073Y-110744000D01*
X187768725Y-110984142D01*
X187838772Y-111215055D01*
X187952522Y-111427866D01*
X188105603Y-111614397D01*
X188292134Y-111767478D01*
X188504945Y-111881228D01*
X188735858Y-111951275D01*
X188915822Y-111969000D01*
X189036178Y-111969000D01*
X189216142Y-111951275D01*
X189447055Y-111881228D01*
X189659866Y-111767478D01*
X189846397Y-111614397D01*
X189999478Y-111427866D01*
X190113228Y-111215055D01*
X190183275Y-110984142D01*
X190206927Y-110744000D01*
X190183275Y-110503858D01*
X190113228Y-110272945D01*
X189999478Y-110060134D01*
X189846397Y-109873603D01*
X189659866Y-109720522D01*
X189447055Y-109606772D01*
X189216142Y-109536725D01*
X189036178Y-109519000D01*
X188915822Y-109519000D01*
X188735858Y-109536725D01*
X188504945Y-109606772D01*
X188292134Y-109720522D01*
X188105603Y-109873603D01*
X187952522Y-110060134D01*
X187838772Y-110272945D01*
X187768725Y-110503858D01*
X187745073Y-110744000D01*
X187138000Y-110744000D01*
X187138000Y-98044000D01*
X187644589Y-98044000D01*
X187670172Y-98303745D01*
X187745937Y-98553509D01*
X187868972Y-98783692D01*
X188034550Y-98985450D01*
X188236308Y-99151028D01*
X188466491Y-99274063D01*
X188609248Y-99317368D01*
X188494022Y-99349770D01*
X188262497Y-99467515D01*
X188058391Y-99628165D01*
X187889548Y-99825548D01*
X187762457Y-100052078D01*
X187682002Y-100299049D01*
X187671457Y-100352069D01*
X187757506Y-100559000D01*
X188951000Y-100559000D01*
X188951000Y-100539000D01*
X189001000Y-100539000D01*
X189001000Y-100559000D01*
X190194494Y-100559000D01*
X190280543Y-100352069D01*
X190269998Y-100299049D01*
X190189543Y-100052078D01*
X190062452Y-99825548D01*
X189893609Y-99628165D01*
X189689503Y-99467515D01*
X189457978Y-99349770D01*
X189342752Y-99317368D01*
X189485509Y-99274063D01*
X189715692Y-99151028D01*
X189917450Y-98985450D01*
X190083028Y-98783692D01*
X190206063Y-98553509D01*
X190281828Y-98303745D01*
X190307411Y-98044000D01*
X190281828Y-97784255D01*
X190206063Y-97534491D01*
X190083028Y-97304308D01*
X189917450Y-97102550D01*
X189715692Y-96936972D01*
X189485509Y-96813937D01*
X189235745Y-96738172D01*
X189041091Y-96719000D01*
X188910909Y-96719000D01*
X188716255Y-96738172D01*
X188466491Y-96813937D01*
X188236308Y-96936972D01*
X188034550Y-97102550D01*
X187868972Y-97304308D01*
X187745937Y-97534491D01*
X187670172Y-97784255D01*
X187644589Y-98044000D01*
X187138000Y-98044000D01*
X187138000Y-97338294D01*
X192518006Y-91958288D01*
X196681000Y-91958288D01*
X196681000Y-92191712D01*
X196726539Y-92420652D01*
X196815866Y-92636308D01*
X196945550Y-92830394D01*
X197110606Y-92995450D01*
X197304692Y-93125134D01*
X197520348Y-93214461D01*
X197749288Y-93260000D01*
X197982712Y-93260000D01*
X198211652Y-93214461D01*
X198427308Y-93125134D01*
X198621394Y-92995450D01*
X198786450Y-92830394D01*
X198916134Y-92636308D01*
X199005461Y-92420652D01*
X199051000Y-92191712D01*
X199051000Y-91958288D01*
X199005461Y-91729348D01*
X198916134Y-91513692D01*
X198786450Y-91319606D01*
X198621394Y-91154550D01*
X198427308Y-91024866D01*
X198211652Y-90935539D01*
X197982712Y-90890000D01*
X197749288Y-90890000D01*
X197520348Y-90935539D01*
X197304692Y-91024866D01*
X197110606Y-91154550D01*
X196945550Y-91319606D01*
X196815866Y-91513692D01*
X196726539Y-91729348D01*
X196681000Y-91958288D01*
X192518006Y-91958288D01*
X194366295Y-90110000D01*
X198095015Y-90110000D01*
X198215550Y-90290394D01*
X198380606Y-90455450D01*
X198574692Y-90585134D01*
X198790348Y-90674461D01*
X199019288Y-90720000D01*
X199252712Y-90720000D01*
X199481652Y-90674461D01*
X199697308Y-90585134D01*
X199891394Y-90455450D01*
X200056450Y-90290394D01*
X200186134Y-90096308D01*
X200275461Y-89880652D01*
X200321000Y-89651712D01*
X200321000Y-89513242D01*
X200485466Y-89513242D01*
X200504097Y-89745922D01*
X200567764Y-89970496D01*
X200674019Y-90178335D01*
X200698194Y-90214516D01*
X200891680Y-90283965D01*
X201640645Y-89535000D01*
X200891680Y-88786035D01*
X200698194Y-88855484D01*
X200584415Y-89059301D01*
X200512586Y-89281399D01*
X200485466Y-89513242D01*
X200321000Y-89513242D01*
X200321000Y-89418288D01*
X200275461Y-89189348D01*
X200186134Y-88973692D01*
X200056450Y-88779606D01*
X200027524Y-88750680D01*
X200927035Y-88750680D01*
X201676000Y-89499645D01*
X202424965Y-88750680D01*
X202355516Y-88557194D01*
X202151699Y-88443415D01*
X201929601Y-88371586D01*
X201697758Y-88344466D01*
X201465078Y-88363097D01*
X201240504Y-88426764D01*
X201032665Y-88533019D01*
X200996484Y-88557194D01*
X200927035Y-88750680D01*
X200027524Y-88750680D01*
X199891394Y-88614550D01*
X199697308Y-88484866D01*
X199481652Y-88395539D01*
X199252712Y-88350000D01*
X199019288Y-88350000D01*
X198790348Y-88395539D01*
X198574692Y-88484866D01*
X198380606Y-88614550D01*
X198215550Y-88779606D01*
X198095015Y-88960000D01*
X194156364Y-88960000D01*
X194128121Y-88957218D01*
X194099878Y-88960000D01*
X194099876Y-88960000D01*
X194015402Y-88968320D01*
X193907014Y-89001199D01*
X193807123Y-89054592D01*
X193761275Y-89092218D01*
X193719568Y-89126446D01*
X193701561Y-89148388D01*
X192345000Y-90504949D01*
X192345000Y-82985555D01*
X192671000Y-82985555D01*
X192671000Y-83384445D01*
X192748820Y-83775671D01*
X192901468Y-84144197D01*
X193123080Y-84475862D01*
X193405138Y-84757920D01*
X193736803Y-84979532D01*
X194105329Y-85132180D01*
X194496555Y-85210000D01*
X194895445Y-85210000D01*
X195286671Y-85132180D01*
X195655197Y-84979532D01*
X195986862Y-84757920D01*
X196268920Y-84475862D01*
X196490532Y-84144197D01*
X196643180Y-83775671D01*
X196721000Y-83384445D01*
X196721000Y-82985555D01*
X196643180Y-82594329D01*
X196490532Y-82225803D01*
X196268920Y-81894138D01*
X195986862Y-81612080D01*
X195655197Y-81390468D01*
X195286671Y-81237820D01*
X194895445Y-81160000D01*
X194496555Y-81160000D01*
X194105329Y-81237820D01*
X193736803Y-81390468D01*
X193405138Y-81612080D01*
X193123080Y-81894138D01*
X192901468Y-82225803D01*
X192748820Y-82594329D01*
X192671000Y-82985555D01*
X192345000Y-82985555D01*
X192345000Y-82451242D01*
X192347782Y-82422999D01*
X192344300Y-82387645D01*
X192336680Y-82310280D01*
X192303801Y-82201892D01*
X192250409Y-82102003D01*
X192250408Y-82102001D01*
X192196559Y-82036386D01*
X192178554Y-82014446D01*
X192156613Y-81996440D01*
X190946564Y-80786392D01*
X190928553Y-80764445D01*
X190840997Y-80692591D01*
X190741107Y-80639198D01*
X190638261Y-80608000D01*
X197946696Y-80608000D01*
X199427000Y-82088305D01*
G36*
X121715498Y-137257858D02*
G01*
X121701355Y-137272000D01*
X121715498Y-137286142D01*
X121680142Y-137321498D01*
X121666000Y-137307355D01*
X121651858Y-137321498D01*
X121616502Y-137286142D01*
X121630645Y-137272000D01*
X121616502Y-137257858D01*
X121651858Y-137222502D01*
X121666000Y-137236645D01*
X121680142Y-137222502D01*
X121715498Y-137257858D01*
X121715498Y-137257858D01*
G37*
X121715498Y-137257858D02*
X121701355Y-137272000D01*
X121715498Y-137286142D01*
X121680142Y-137321498D01*
X121666000Y-137307355D01*
X121651858Y-137321498D01*
X121616502Y-137286142D01*
X121630645Y-137272000D01*
X121616502Y-137257858D01*
X121651858Y-137222502D01*
X121666000Y-137236645D01*
X121680142Y-137222502D01*
X121715498Y-137257858D01*
G36*
X188517498Y-82408858D02*
G01*
X188503355Y-82423000D01*
X188517498Y-82437143D01*
X188482143Y-82472498D01*
X188468000Y-82458355D01*
X188453858Y-82472498D01*
X188418503Y-82437143D01*
X188432645Y-82423000D01*
X188418503Y-82408858D01*
X188453858Y-82373503D01*
X188468000Y-82387645D01*
X188482143Y-82373503D01*
X188517498Y-82408858D01*
X188517498Y-82408858D01*
G37*
X188517498Y-82408858D02*
X188503355Y-82423000D01*
X188517498Y-82437143D01*
X188482143Y-82472498D01*
X188468000Y-82458355D01*
X188453858Y-82472498D01*
X188418503Y-82437143D01*
X188432645Y-82423000D01*
X188418503Y-82408858D01*
X188453858Y-82373503D01*
X188468000Y-82387645D01*
X188482143Y-82373503D01*
X188517498Y-82408858D01*
M02*
