M48
; DRILL file {KiCad 5.1.2-f72e74a~84~ubuntu18.04.1} date пт, 14-чер-2019 22:07:56 +0300
; FORMAT={2:4/ absolute / inch / suppress trailing zeros}
; #@! TF.CreationDate,2019-06-14T22:07:56+03:00
; #@! TF.GenerationSoftware,Kicad,Pcbnew,5.1.2-f72e74a~84~ubuntu18.04.1
; #@! TF.FileFunction,Plated,1,2,PTH
FMAT,2
INCH,LZ
T1C0.0299
T2C0.0315
T3C0.0354
T4C0.0394
T5C0.0433
T6C0.0472
T7C0.0512
%
G90
G05
T1
X08435Y-03625
X08485Y-03525
X08535Y-03625
X08585Y-03525
X0779Y-03625
X0784Y-03525
X0789Y-03625
X0794Y-03525
T2
X05725Y-03375
X05725Y-03575
X0553Y-035
X0553Y-037
T3
X06305Y-044601
X06305Y-05405
X06405Y-05405
X06505Y-044601
X06505Y-05405
X0742Y-03045
X0742Y-03145
X0742Y-03245
X0742Y-03345
X0742Y-03445
X0742Y-03545
X0684Y-0386
X0684Y-0396
X0684Y-0406
X0684Y-0416
X0684Y-0416
X0684Y-0416
X0684Y-0426
X0684Y-0436
X0684Y-0446
X0684Y-0456
X0684Y-0466
X0684Y-0476
X0684Y-0486
X0684Y-0496
X0684Y-0506
X0684Y-0516
X0684Y-0526
X0744Y-0386
X0744Y-0396
X0744Y-0406
X0744Y-0416
X0744Y-0426
X0744Y-0436
X0744Y-0446
X0744Y-0456
X0744Y-0466
X0744Y-0476
X0744Y-0486
X0744Y-0496
X0744Y-0506
X0744Y-0516
X0744Y-0526
X0469Y-054044
X0479Y-054044
X0489Y-054044
X0795Y-0544
X0805Y-0544
X0815Y-0544
X082Y-04318
X0825Y-0544
X083Y-04318
X0835Y-0544
X0845Y-0544
X0855Y-0544
T4
X055Y-054044
X056Y-054044
X057Y-054044
T5
X0459Y-040973
X0479Y-040973
X0499Y-040973
X054Y-040973
X056Y-040973
X058Y-040973
T6
X04585Y-0353
X04785Y-0353
T7
X050681Y-03075
X045831Y-03075
X0478Y-03075
X055281Y-03075
X05725Y-03075
X05265Y-03075
T0
M30
