G04 #@! TF.GenerationSoftware,KiCad,Pcbnew,5.1.2-f72e74a~84~ubuntu18.04.1*
G04 #@! TF.CreationDate,2019-06-14T22:07:51+03:00*
G04 #@! TF.ProjectId,Borjomi-Main,426f726a-6f6d-4692-9d4d-61696e2e6b69,rev?*
G04 #@! TF.SameCoordinates,Original*
G04 #@! TF.FileFunction,Legend,Top*
G04 #@! TF.FilePolarity,Positive*
%FSLAX46Y46*%
G04 Gerber Fmt 4.6, Leading zero omitted, Abs format (unit mm)*
G04 Created by KiCad (PCBNEW 5.1.2-f72e74a~84~ubuntu18.04.1) date 2019-06-14 22:07:51*
%MOMM*%
%LPD*%
G04 APERTURE LIST*
%ADD10C,0.300000*%
%ADD11C,0.150000*%
%ADD12C,0.120000*%
%ADD13C,0.100000*%
G04 APERTURE END LIST*
D10*
X158250191Y-97331642D02*
X158535905Y-97426880D01*
X158631143Y-97522119D01*
X158726381Y-97712595D01*
X158726381Y-97998309D01*
X158631143Y-98188785D01*
X158535905Y-98284023D01*
X158345429Y-98379261D01*
X157583524Y-98379261D01*
X157583524Y-96379261D01*
X158250191Y-96379261D01*
X158440667Y-96474500D01*
X158535905Y-96569738D01*
X158631143Y-96760214D01*
X158631143Y-96950690D01*
X158535905Y-97141166D01*
X158440667Y-97236404D01*
X158250191Y-97331642D01*
X157583524Y-97331642D01*
X159869239Y-98379261D02*
X159678762Y-98284023D01*
X159583524Y-98188785D01*
X159488286Y-97998309D01*
X159488286Y-97426880D01*
X159583524Y-97236404D01*
X159678762Y-97141166D01*
X159869239Y-97045928D01*
X160154953Y-97045928D01*
X160345429Y-97141166D01*
X160440667Y-97236404D01*
X160535905Y-97426880D01*
X160535905Y-97998309D01*
X160440667Y-98188785D01*
X160345429Y-98284023D01*
X160154953Y-98379261D01*
X159869239Y-98379261D01*
X161393048Y-98379261D02*
X161393048Y-97045928D01*
X161393048Y-97426880D02*
X161488286Y-97236404D01*
X161583524Y-97141166D01*
X161774000Y-97045928D01*
X161964477Y-97045928D01*
X162631143Y-97045928D02*
X162631143Y-98760214D01*
X162535905Y-98950690D01*
X162345429Y-99045928D01*
X162250191Y-99045928D01*
X162631143Y-96379261D02*
X162535905Y-96474500D01*
X162631143Y-96569738D01*
X162726381Y-96474500D01*
X162631143Y-96379261D01*
X162631143Y-96569738D01*
X163869239Y-98379261D02*
X163678762Y-98284023D01*
X163583524Y-98188785D01*
X163488286Y-97998309D01*
X163488286Y-97426880D01*
X163583524Y-97236404D01*
X163678762Y-97141166D01*
X163869239Y-97045928D01*
X164154953Y-97045928D01*
X164345429Y-97141166D01*
X164440667Y-97236404D01*
X164535905Y-97426880D01*
X164535905Y-97998309D01*
X164440667Y-98188785D01*
X164345429Y-98284023D01*
X164154953Y-98379261D01*
X163869239Y-98379261D01*
X165393048Y-98379261D02*
X165393048Y-97045928D01*
X165393048Y-97236404D02*
X165488286Y-97141166D01*
X165678762Y-97045928D01*
X165964477Y-97045928D01*
X166154953Y-97141166D01*
X166250191Y-97331642D01*
X166250191Y-98379261D01*
X166250191Y-97331642D02*
X166345429Y-97141166D01*
X166535905Y-97045928D01*
X166821620Y-97045928D01*
X167012096Y-97141166D01*
X167107334Y-97331642D01*
X167107334Y-98379261D01*
X168059715Y-98379261D02*
X168059715Y-97045928D01*
X168059715Y-96379261D02*
X167964477Y-96474500D01*
X168059715Y-96569738D01*
X168154953Y-96474500D01*
X168059715Y-96379261D01*
X168059715Y-96569738D01*
X159869239Y-101679261D02*
X159869239Y-99679261D01*
X160535905Y-101107833D01*
X161202572Y-99679261D01*
X161202572Y-101679261D01*
X163012096Y-101679261D02*
X163012096Y-100631642D01*
X162916858Y-100441166D01*
X162726381Y-100345928D01*
X162345429Y-100345928D01*
X162154953Y-100441166D01*
X163012096Y-101584023D02*
X162821620Y-101679261D01*
X162345429Y-101679261D01*
X162154953Y-101584023D01*
X162059715Y-101393547D01*
X162059715Y-101203071D01*
X162154953Y-101012595D01*
X162345429Y-100917357D01*
X162821620Y-100917357D01*
X163012096Y-100822119D01*
X163964477Y-101679261D02*
X163964477Y-100345928D01*
X163964477Y-99679261D02*
X163869239Y-99774500D01*
X163964477Y-99869738D01*
X164059715Y-99774500D01*
X163964477Y-99679261D01*
X163964477Y-99869738D01*
X164916858Y-100345928D02*
X164916858Y-101679261D01*
X164916858Y-100536404D02*
X165012096Y-100441166D01*
X165202572Y-100345928D01*
X165488286Y-100345928D01*
X165678762Y-100441166D01*
X165774000Y-100631642D01*
X165774000Y-101679261D01*
X159964477Y-103645928D02*
X160440667Y-104979261D01*
X160916858Y-103645928D01*
X162726381Y-104979261D02*
X161583524Y-104979261D01*
X162154953Y-104979261D02*
X162154953Y-102979261D01*
X161964477Y-103264976D01*
X161774000Y-103455452D01*
X161583524Y-103550690D01*
X163583524Y-104788785D02*
X163678762Y-104884023D01*
X163583524Y-104979261D01*
X163488286Y-104884023D01*
X163583524Y-104788785D01*
X163583524Y-104979261D01*
X164916858Y-102979261D02*
X165107334Y-102979261D01*
X165297810Y-103074500D01*
X165393048Y-103169738D01*
X165488286Y-103360214D01*
X165583524Y-103741166D01*
X165583524Y-104217357D01*
X165488286Y-104598309D01*
X165393048Y-104788785D01*
X165297810Y-104884023D01*
X165107334Y-104979261D01*
X164916858Y-104979261D01*
X164726381Y-104884023D01*
X164631143Y-104788785D01*
X164535905Y-104598309D01*
X164440667Y-104217357D01*
X164440667Y-103741166D01*
X164535905Y-103360214D01*
X164631143Y-103169738D01*
X164726381Y-103074500D01*
X164916858Y-102979261D01*
D11*
X219700339Y-94881960D02*
X219700339Y-93881960D01*
X219938434Y-93881960D01*
X220081291Y-93929580D01*
X220176529Y-94024818D01*
X220224148Y-94120056D01*
X220271767Y-94310532D01*
X220271767Y-94453389D01*
X220224148Y-94643865D01*
X220176529Y-94739103D01*
X220081291Y-94834341D01*
X219938434Y-94881960D01*
X219700339Y-94881960D01*
X221128910Y-94881960D02*
X221128910Y-94358151D01*
X221081291Y-94262913D01*
X220986053Y-94215294D01*
X220795577Y-94215294D01*
X220700339Y-94262913D01*
X221128910Y-94834341D02*
X221033672Y-94881960D01*
X220795577Y-94881960D01*
X220700339Y-94834341D01*
X220652720Y-94739103D01*
X220652720Y-94643865D01*
X220700339Y-94548627D01*
X220795577Y-94501008D01*
X221033672Y-94501008D01*
X221128910Y-94453389D01*
X221462243Y-94215294D02*
X221843196Y-94215294D01*
X221605100Y-93881960D02*
X221605100Y-94739103D01*
X221652720Y-94834341D01*
X221747958Y-94881960D01*
X221843196Y-94881960D01*
X222605100Y-94881960D02*
X222605100Y-94358151D01*
X222557481Y-94262913D01*
X222462243Y-94215294D01*
X222271767Y-94215294D01*
X222176529Y-94262913D01*
X222605100Y-94834341D02*
X222509862Y-94881960D01*
X222271767Y-94881960D01*
X222176529Y-94834341D01*
X222128910Y-94739103D01*
X222128910Y-94643865D01*
X222176529Y-94548627D01*
X222271767Y-94501008D01*
X222509862Y-94501008D01*
X222605100Y-94453389D01*
X200200000Y-94846400D02*
X200200000Y-93846400D01*
X200580952Y-93846400D01*
X200676190Y-93894020D01*
X200723809Y-93941639D01*
X200771428Y-94036877D01*
X200771428Y-94179734D01*
X200723809Y-94274972D01*
X200676190Y-94322591D01*
X200580952Y-94370210D01*
X200200000Y-94370210D01*
X201200000Y-94846400D02*
X201200000Y-94179734D01*
X201200000Y-94370210D02*
X201247619Y-94274972D01*
X201295238Y-94227353D01*
X201390476Y-94179734D01*
X201485714Y-94179734D01*
X202200000Y-94798781D02*
X202104761Y-94846400D01*
X201914285Y-94846400D01*
X201819047Y-94798781D01*
X201771428Y-94703543D01*
X201771428Y-94322591D01*
X201819047Y-94227353D01*
X201914285Y-94179734D01*
X202104761Y-94179734D01*
X202200000Y-94227353D01*
X202247619Y-94322591D01*
X202247619Y-94417829D01*
X201771428Y-94513067D01*
X202628571Y-94798781D02*
X202723809Y-94846400D01*
X202914285Y-94846400D01*
X203009523Y-94798781D01*
X203057142Y-94703543D01*
X203057142Y-94655924D01*
X203009523Y-94560686D01*
X202914285Y-94513067D01*
X202771428Y-94513067D01*
X202676190Y-94465448D01*
X202628571Y-94370210D01*
X202628571Y-94322591D01*
X202676190Y-94227353D01*
X202771428Y-94179734D01*
X202914285Y-94179734D01*
X203009523Y-94227353D01*
X203438095Y-94798781D02*
X203533333Y-94846400D01*
X203723809Y-94846400D01*
X203819047Y-94798781D01*
X203866666Y-94703543D01*
X203866666Y-94655924D01*
X203819047Y-94560686D01*
X203723809Y-94513067D01*
X203580952Y-94513067D01*
X203485714Y-94465448D01*
X203438095Y-94370210D01*
X203438095Y-94322591D01*
X203485714Y-94227353D01*
X203580952Y-94179734D01*
X203723809Y-94179734D01*
X203819047Y-94227353D01*
X204723809Y-94179734D02*
X204723809Y-94846400D01*
X204295238Y-94179734D02*
X204295238Y-94703543D01*
X204342857Y-94798781D01*
X204438095Y-94846400D01*
X204580952Y-94846400D01*
X204676190Y-94798781D01*
X204723809Y-94751162D01*
X205200000Y-94846400D02*
X205200000Y-94179734D01*
X205200000Y-94370210D02*
X205247619Y-94274972D01*
X205295238Y-94227353D01*
X205390476Y-94179734D01*
X205485714Y-94179734D01*
X206200000Y-94798781D02*
X206104761Y-94846400D01*
X205914285Y-94846400D01*
X205819047Y-94798781D01*
X205771428Y-94703543D01*
X205771428Y-94322591D01*
X205819047Y-94227353D01*
X205914285Y-94179734D01*
X206104761Y-94179734D01*
X206200000Y-94227353D01*
X206247619Y-94322591D01*
X206247619Y-94417829D01*
X205771428Y-94513067D01*
X140211585Y-83312308D02*
X140973490Y-83312308D01*
X140592538Y-83693260D02*
X140592538Y-82931356D01*
X142735395Y-83693260D02*
X142163966Y-83693260D01*
X142449680Y-83693260D02*
X142449680Y-82693260D01*
X142354442Y-82836118D01*
X142259204Y-82931356D01*
X142163966Y-82978975D01*
X143116347Y-82788499D02*
X143163966Y-82740880D01*
X143259204Y-82693260D01*
X143497300Y-82693260D01*
X143592538Y-82740880D01*
X143640157Y-82788499D01*
X143687776Y-82883737D01*
X143687776Y-82978975D01*
X143640157Y-83121832D01*
X143068728Y-83693260D01*
X143687776Y-83693260D01*
X143973490Y-82693260D02*
X144306823Y-83693260D01*
X144640157Y-82693260D01*
X145735395Y-83693260D02*
X145735395Y-82693260D01*
X146211585Y-83693260D02*
X146211585Y-82693260D01*
X146783014Y-83693260D01*
X146783014Y-82693260D01*
X128254619Y-83474868D02*
X129016523Y-83474868D01*
X128635571Y-83855820D02*
X128635571Y-83093916D01*
X130778428Y-83855820D02*
X130207000Y-83855820D01*
X130492714Y-83855820D02*
X130492714Y-82855820D01*
X130397476Y-82998678D01*
X130302238Y-83093916D01*
X130207000Y-83141535D01*
X131159380Y-82951059D02*
X131207000Y-82903440D01*
X131302238Y-82855820D01*
X131540333Y-82855820D01*
X131635571Y-82903440D01*
X131683190Y-82951059D01*
X131730809Y-83046297D01*
X131730809Y-83141535D01*
X131683190Y-83284392D01*
X131111761Y-83855820D01*
X131730809Y-83855820D01*
X132016523Y-82855820D02*
X132349857Y-83855820D01*
X132683190Y-82855820D01*
X133968904Y-82855820D02*
X134159380Y-82855820D01*
X134254619Y-82903440D01*
X134349857Y-82998678D01*
X134397476Y-83189154D01*
X134397476Y-83522487D01*
X134349857Y-83712963D01*
X134254619Y-83808201D01*
X134159380Y-83855820D01*
X133968904Y-83855820D01*
X133873666Y-83808201D01*
X133778428Y-83712963D01*
X133730809Y-83522487D01*
X133730809Y-83189154D01*
X133778428Y-82998678D01*
X133873666Y-82903440D01*
X133968904Y-82855820D01*
X134826047Y-82855820D02*
X134826047Y-83665344D01*
X134873666Y-83760582D01*
X134921285Y-83808201D01*
X135016523Y-83855820D01*
X135207000Y-83855820D01*
X135302238Y-83808201D01*
X135349857Y-83760582D01*
X135397476Y-83665344D01*
X135397476Y-82855820D01*
X135730809Y-82855820D02*
X136302238Y-82855820D01*
X136016523Y-83855820D02*
X136016523Y-82855820D01*
X120051106Y-83853280D02*
X120051106Y-82853280D01*
X120432059Y-82853280D01*
X120527297Y-82900900D01*
X120574916Y-82948519D01*
X120622535Y-83043757D01*
X120622535Y-83186614D01*
X120574916Y-83281852D01*
X120527297Y-83329471D01*
X120432059Y-83377090D01*
X120051106Y-83377090D01*
X121479678Y-83186614D02*
X121479678Y-83853280D01*
X121051106Y-83186614D02*
X121051106Y-83710423D01*
X121098725Y-83805661D01*
X121193963Y-83853280D01*
X121336820Y-83853280D01*
X121432059Y-83805661D01*
X121479678Y-83758042D01*
X121955868Y-83853280D02*
X121955868Y-83186614D01*
X121955868Y-83281852D02*
X122003487Y-83234233D01*
X122098725Y-83186614D01*
X122241582Y-83186614D01*
X122336820Y-83234233D01*
X122384440Y-83329471D01*
X122384440Y-83853280D01*
X122384440Y-83329471D02*
X122432059Y-83234233D01*
X122527297Y-83186614D01*
X122670154Y-83186614D01*
X122765392Y-83234233D01*
X122813011Y-83329471D01*
X122813011Y-83853280D01*
X123289201Y-83186614D02*
X123289201Y-84186614D01*
X123289201Y-83234233D02*
X123384440Y-83186614D01*
X123574916Y-83186614D01*
X123670154Y-83234233D01*
X123717773Y-83281852D01*
X123765392Y-83377090D01*
X123765392Y-83662804D01*
X123717773Y-83758042D01*
X123670154Y-83805661D01*
X123574916Y-83853280D01*
X123384440Y-83853280D01*
X123289201Y-83805661D01*
D12*
X175006000Y-99314000D02*
X175006000Y-96774000D01*
X175006000Y-96774000D02*
X172336000Y-96774000D01*
X172336000Y-99314000D02*
X172336000Y-137544000D01*
X172336000Y-94104000D02*
X172336000Y-96774000D01*
X187706000Y-96774000D02*
X190376000Y-96774000D01*
X187706000Y-96774000D02*
X187706000Y-134874000D01*
X187706000Y-134874000D02*
X190376000Y-134874000D01*
X175006000Y-99314000D02*
X172336000Y-99314000D01*
X175006000Y-99314000D02*
X175006000Y-134874000D01*
X175006000Y-134874000D02*
X172336000Y-134874000D01*
X172336000Y-137544000D02*
X190376000Y-137544000D01*
X190376000Y-137544000D02*
X190376000Y-94104000D01*
X190376000Y-94104000D02*
X172336000Y-94104000D01*
D13*
X177546000Y-139954000D02*
X177546000Y-129794000D01*
X185166000Y-139954000D02*
X177546000Y-139954000D01*
X185166000Y-129794000D02*
X185166000Y-139954000D01*
X177546000Y-129794000D02*
X185166000Y-129794000D01*
D12*
X124324000Y-89662000D02*
G75*
G03X124324000Y-89662000I-2785000J0D01*
G01*
X118754000Y-89662000D02*
X117959000Y-89662000D01*
X144731682Y-76570244D02*
G75*
G02X145415000Y-76425000I683318J-1534756D01*
G01*
X143879574Y-78788042D02*
G75*
G02X143880000Y-77421000I1535426J683042D01*
G01*
X146098042Y-79640426D02*
G75*
G02X144731000Y-79640000I-683042J1535426D01*
G01*
X146950426Y-77421958D02*
G75*
G02X146950000Y-78789000I-1535426J-683042D01*
G01*
X145386195Y-76424747D02*
G75*
G02X146099000Y-76570000I28805J-1680253D01*
G01*
X142095000Y-78105000D02*
G75*
G03X142095000Y-78105000I-1680000J0D01*
G01*
X147975000Y-75005000D02*
X137855000Y-75005000D01*
X147975000Y-80406000D02*
X137855000Y-80406000D01*
X147975000Y-82605000D02*
X137855000Y-82605000D01*
X147975000Y-82605000D02*
X147975000Y-75005000D01*
X137855000Y-82605000D02*
X137855000Y-75005000D01*
X139140000Y-79174000D02*
X139187000Y-79128000D01*
X141449000Y-76866000D02*
X141484000Y-76831000D01*
X139345000Y-79380000D02*
X139380000Y-79344000D01*
X141642000Y-77082000D02*
X141689000Y-77036000D01*
X120728682Y-76570244D02*
G75*
G02X121412000Y-76425000I683318J-1534756D01*
G01*
X119876574Y-78788042D02*
G75*
G02X119877000Y-77421000I1535426J683042D01*
G01*
X122095042Y-79640426D02*
G75*
G02X120728000Y-79640000I-683042J1535426D01*
G01*
X122947426Y-77421958D02*
G75*
G02X122947000Y-78789000I-1535426J-683042D01*
G01*
X121383195Y-76424747D02*
G75*
G02X122096000Y-76570000I28805J-1680253D01*
G01*
X118092000Y-78105000D02*
G75*
G03X118092000Y-78105000I-1680000J0D01*
G01*
X123972000Y-75005000D02*
X113852000Y-75005000D01*
X123972000Y-80406000D02*
X113852000Y-80406000D01*
X123972000Y-82605000D02*
X113852000Y-82605000D01*
X123972000Y-82605000D02*
X123972000Y-75005000D01*
X113852000Y-82605000D02*
X113852000Y-75005000D01*
X115137000Y-79174000D02*
X115184000Y-79128000D01*
X117446000Y-76866000D02*
X117481000Y-76831000D01*
X115342000Y-79380000D02*
X115377000Y-79344000D01*
X117639000Y-77082000D02*
X117686000Y-77036000D01*
X129958000Y-77082000D02*
X130005000Y-77036000D01*
X127661000Y-79380000D02*
X127696000Y-79344000D01*
X129765000Y-76866000D02*
X129800000Y-76831000D01*
X127456000Y-79174000D02*
X127503000Y-79128000D01*
X126171000Y-82605000D02*
X126171000Y-75005000D01*
X136291000Y-82605000D02*
X136291000Y-75005000D01*
X136291000Y-82605000D02*
X126171000Y-82605000D01*
X136291000Y-80406000D02*
X126171000Y-80406000D01*
X136291000Y-75005000D02*
X126171000Y-75005000D01*
X130411000Y-78105000D02*
G75*
G03X130411000Y-78105000I-1680000J0D01*
G01*
X133702195Y-76424747D02*
G75*
G02X134415000Y-76570000I28805J-1680253D01*
G01*
X135266426Y-77421958D02*
G75*
G02X135266000Y-78789000I-1535426J-683042D01*
G01*
X134414042Y-79640426D02*
G75*
G02X133047000Y-79640000I-683042J1535426D01*
G01*
X132195574Y-78788042D02*
G75*
G02X132196000Y-77421000I1535426J683042D01*
G01*
X133047682Y-76570244D02*
G75*
G02X133731000Y-76425000I683318J-1534756D01*
G01*
X223229000Y-91305000D02*
X223229000Y-92835000D01*
X222759000Y-84285000D02*
X222759000Y-93305000D01*
D13*
X222759000Y-84355000D02*
X222759000Y-84285000D01*
D12*
X222759000Y-75305000D02*
X222759000Y-82085000D01*
X209559000Y-75305000D02*
X222759000Y-75305000D01*
D13*
X209559000Y-75315000D02*
X209559000Y-75305000D01*
D12*
X209559000Y-75305000D02*
X209559000Y-82085000D01*
D13*
X209559000Y-75425000D02*
X209559000Y-75305000D01*
D12*
X209559000Y-93305000D02*
X209559000Y-84285000D01*
X222759000Y-93305000D02*
X209559000Y-93305000D01*
X206376000Y-93305000D02*
X193176000Y-93305000D01*
X193176000Y-93305000D02*
X193176000Y-84285000D01*
D13*
X193176000Y-75425000D02*
X193176000Y-75305000D01*
D12*
X193176000Y-75305000D02*
X193176000Y-82085000D01*
D13*
X193176000Y-75315000D02*
X193176000Y-75305000D01*
D12*
X193176000Y-75305000D02*
X206376000Y-75305000D01*
X206376000Y-75305000D02*
X206376000Y-82085000D01*
D13*
X206376000Y-84355000D02*
X206376000Y-84285000D01*
D12*
X206376000Y-84285000D02*
X206376000Y-93305000D01*
X206846000Y-91305000D02*
X206846000Y-92835000D01*
X139072000Y-87130000D02*
X141852000Y-87130000D01*
X139072000Y-95750000D02*
X141852000Y-95750000D01*
X141852000Y-95750000D02*
X141852000Y-87130000D01*
X139072000Y-95750000D02*
X139072000Y-87130000D01*
X146805000Y-83955000D02*
X146805000Y-92575000D01*
X144025000Y-83955000D02*
X144025000Y-92575000D01*
X146805000Y-83955000D02*
X144025000Y-83955000D01*
X146805000Y-92575000D02*
X144025000Y-92575000D01*
X223550000Y-140176000D02*
X223550000Y-100176000D01*
X195550000Y-100176000D02*
X223550000Y-100176000D01*
X195550000Y-140176000D02*
X195550000Y-100176000D01*
X195550000Y-140176000D02*
X223550000Y-140176000D01*
X155687000Y-140287000D02*
X155687000Y-108287000D01*
X169687000Y-140287000D02*
X169687000Y-108287000D01*
X169687000Y-140287000D02*
X155687000Y-140287000D01*
X155687000Y-108287000D02*
X169687000Y-108287000D01*
D13*
X133740000Y-140372000D02*
X133740000Y-97372000D01*
X133740000Y-97372000D02*
X150740000Y-97372000D01*
X150740000Y-140372000D02*
X150740000Y-97372000D01*
X133740000Y-140372000D02*
X150740000Y-140372000D01*
X113166000Y-140372000D02*
X130166000Y-140372000D01*
X130166000Y-140372000D02*
X130166000Y-97372000D01*
X113166000Y-97372000D02*
X130166000Y-97372000D01*
X113166000Y-140372000D02*
X113166000Y-97372000D01*
D12*
X190468000Y-92583000D02*
X152468000Y-92583000D01*
X190468000Y-74913000D02*
X152468000Y-74913000D01*
X190468000Y-92583000D02*
X190468000Y-74913000D01*
X152468000Y-92583000D02*
X152468000Y-74913000D01*
D11*
X187997554Y-139264686D02*
X188473744Y-139264686D01*
X187902316Y-139550400D02*
X188235649Y-138550400D01*
X188568982Y-139550400D01*
X189426125Y-139550400D02*
X188854697Y-139550400D01*
X189140411Y-139550400D02*
X189140411Y-138550400D01*
X189045173Y-138693258D01*
X188949935Y-138788496D01*
X188854697Y-138836115D01*
X124166404Y-92987120D02*
X124166404Y-91987120D01*
X124404500Y-91987120D01*
X124547357Y-92034740D01*
X124642595Y-92129978D01*
X124690214Y-92225216D01*
X124737833Y-92415692D01*
X124737833Y-92558549D01*
X124690214Y-92749025D01*
X124642595Y-92844263D01*
X124547357Y-92939501D01*
X124404500Y-92987120D01*
X124166404Y-92987120D01*
X125690214Y-92987120D02*
X125118785Y-92987120D01*
X125404500Y-92987120D02*
X125404500Y-91987120D01*
X125309261Y-92129978D01*
X125214023Y-92225216D01*
X125118785Y-92272835D01*
X116197095Y-92314380D02*
X116197095Y-91314380D01*
X116768523Y-92314380D02*
X116339952Y-91742952D01*
X116768523Y-91314380D02*
X116197095Y-91885809D01*
X137898546Y-82810100D02*
X137898546Y-83524386D01*
X137850927Y-83667243D01*
X137755689Y-83762481D01*
X137612832Y-83810100D01*
X137517594Y-83810100D01*
X138898546Y-83810100D02*
X138327118Y-83810100D01*
X138612832Y-83810100D02*
X138612832Y-82810100D01*
X138517594Y-82952958D01*
X138422356Y-83048196D01*
X138327118Y-83095815D01*
X113920946Y-82886300D02*
X113920946Y-83600586D01*
X113873327Y-83743443D01*
X113778089Y-83838681D01*
X113635232Y-83886300D01*
X113539994Y-83886300D01*
X114349518Y-82981539D02*
X114397137Y-82933920D01*
X114492375Y-82886300D01*
X114730470Y-82886300D01*
X114825708Y-82933920D01*
X114873327Y-82981539D01*
X114920946Y-83076777D01*
X114920946Y-83172015D01*
X114873327Y-83314872D01*
X114301899Y-83886300D01*
X114920946Y-83886300D01*
X126148506Y-82901540D02*
X126148506Y-83615826D01*
X126100887Y-83758683D01*
X126005649Y-83853921D01*
X125862792Y-83901540D01*
X125767554Y-83901540D01*
X126529459Y-82901540D02*
X127148506Y-82901540D01*
X126815173Y-83282493D01*
X126958030Y-83282493D01*
X127053268Y-83330112D01*
X127100887Y-83377731D01*
X127148506Y-83472969D01*
X127148506Y-83711064D01*
X127100887Y-83806302D01*
X127053268Y-83853921D01*
X126958030Y-83901540D01*
X126672316Y-83901540D01*
X126577078Y-83853921D01*
X126529459Y-83806302D01*
X209648466Y-93846400D02*
X209648466Y-94560686D01*
X209600847Y-94703543D01*
X209505609Y-94798781D01*
X209362752Y-94846400D01*
X209267514Y-94846400D01*
X210553228Y-94179734D02*
X210553228Y-94846400D01*
X210315133Y-93798781D02*
X210077038Y-94513067D01*
X210696085Y-94513067D01*
X193143546Y-93681300D02*
X193143546Y-94395586D01*
X193095927Y-94538443D01*
X193000689Y-94633681D01*
X192857832Y-94681300D01*
X192762594Y-94681300D01*
X194095927Y-93681300D02*
X193619737Y-93681300D01*
X193572118Y-94157491D01*
X193619737Y-94109872D01*
X193714975Y-94062253D01*
X193953070Y-94062253D01*
X194048308Y-94109872D01*
X194095927Y-94157491D01*
X194143546Y-94252729D01*
X194143546Y-94490824D01*
X194095927Y-94586062D01*
X194048308Y-94633681D01*
X193953070Y-94681300D01*
X193714975Y-94681300D01*
X193619737Y-94633681D01*
X193572118Y-94586062D01*
X138394380Y-91606666D02*
X137918190Y-91940000D01*
X138394380Y-92178095D02*
X137394380Y-92178095D01*
X137394380Y-91797142D01*
X137442000Y-91701904D01*
X137489619Y-91654285D01*
X137584857Y-91606666D01*
X137727714Y-91606666D01*
X137822952Y-91654285D01*
X137870571Y-91701904D01*
X137918190Y-91797142D01*
X137918190Y-92178095D01*
X138394380Y-90654285D02*
X138394380Y-91225714D01*
X138394380Y-90940000D02*
X137394380Y-90940000D01*
X137537238Y-91035238D01*
X137632476Y-91130476D01*
X137680095Y-91225714D01*
X148387380Y-88431666D02*
X147911190Y-88765000D01*
X148387380Y-89003095D02*
X147387380Y-89003095D01*
X147387380Y-88622142D01*
X147435000Y-88526904D01*
X147482619Y-88479285D01*
X147577857Y-88431666D01*
X147720714Y-88431666D01*
X147815952Y-88479285D01*
X147863571Y-88526904D01*
X147911190Y-88622142D01*
X147911190Y-89003095D01*
X147482619Y-88050714D02*
X147435000Y-88003095D01*
X147387380Y-87907857D01*
X147387380Y-87669761D01*
X147435000Y-87574523D01*
X147482619Y-87526904D01*
X147577857Y-87479285D01*
X147673095Y-87479285D01*
X147815952Y-87526904D01*
X148387380Y-88098333D01*
X148387380Y-87479285D01*
X210682935Y-140734800D02*
X210682935Y-141544324D01*
X210730554Y-141639562D01*
X210778173Y-141687181D01*
X210873411Y-141734800D01*
X211063887Y-141734800D01*
X211159125Y-141687181D01*
X211206744Y-141639562D01*
X211254363Y-141544324D01*
X211254363Y-140734800D01*
X212254363Y-141734800D02*
X211682935Y-141734800D01*
X211968649Y-141734800D02*
X211968649Y-140734800D01*
X211873411Y-140877658D01*
X211778173Y-140972896D01*
X211682935Y-141020515D01*
X161937795Y-140742420D02*
X161937795Y-141551944D01*
X161985414Y-141647182D01*
X162033033Y-141694801D01*
X162128271Y-141742420D01*
X162318747Y-141742420D01*
X162413985Y-141694801D01*
X162461604Y-141647182D01*
X162509223Y-141551944D01*
X162509223Y-140742420D01*
X162937795Y-140837659D02*
X162985414Y-140790040D01*
X163080652Y-140742420D01*
X163318747Y-140742420D01*
X163413985Y-140790040D01*
X163461604Y-140837659D01*
X163509223Y-140932897D01*
X163509223Y-141028135D01*
X163461604Y-141170992D01*
X162890176Y-141742420D01*
X163509223Y-141742420D01*
X141462855Y-140742420D02*
X141462855Y-141551944D01*
X141510474Y-141647182D01*
X141558093Y-141694801D01*
X141653331Y-141742420D01*
X141843807Y-141742420D01*
X141939045Y-141694801D01*
X141986664Y-141647182D01*
X142034283Y-141551944D01*
X142034283Y-140742420D01*
X142415236Y-140742420D02*
X143034283Y-140742420D01*
X142700950Y-141123373D01*
X142843807Y-141123373D01*
X142939045Y-141170992D01*
X142986664Y-141218611D01*
X143034283Y-141313849D01*
X143034283Y-141551944D01*
X142986664Y-141647182D01*
X142939045Y-141694801D01*
X142843807Y-141742420D01*
X142558093Y-141742420D01*
X142462855Y-141694801D01*
X142415236Y-141647182D01*
X120713595Y-140729720D02*
X120713595Y-141539244D01*
X120761214Y-141634482D01*
X120808833Y-141682101D01*
X120904071Y-141729720D01*
X121094547Y-141729720D01*
X121189785Y-141682101D01*
X121237404Y-141634482D01*
X121285023Y-141539244D01*
X121285023Y-140729720D01*
X122189785Y-141063054D02*
X122189785Y-141729720D01*
X121951690Y-140682101D02*
X121713595Y-141396387D01*
X122332642Y-141396387D01*
X168656095Y-93305380D02*
X168656095Y-94114904D01*
X168703714Y-94210142D01*
X168751333Y-94257761D01*
X168846571Y-94305380D01*
X169037047Y-94305380D01*
X169132285Y-94257761D01*
X169179904Y-94210142D01*
X169227523Y-94114904D01*
X169227523Y-93305380D01*
X170179904Y-93305380D02*
X169703714Y-93305380D01*
X169656095Y-93781571D01*
X169703714Y-93733952D01*
X169798952Y-93686333D01*
X170037047Y-93686333D01*
X170132285Y-93733952D01*
X170179904Y-93781571D01*
X170227523Y-93876809D01*
X170227523Y-94114904D01*
X170179904Y-94210142D01*
X170132285Y-94257761D01*
X170037047Y-94305380D01*
X169798952Y-94305380D01*
X169703714Y-94257761D01*
X169656095Y-94210142D01*
M02*
