G04 #@! TF.GenerationSoftware,KiCad,Pcbnew,5.1.2-f72e74a~84~ubuntu18.04.1*
G04 #@! TF.CreationDate,2019-06-14T22:07:51+03:00*
G04 #@! TF.ProjectId,Borjomi-Main,426f726a-6f6d-4692-9d4d-61696e2e6b69,rev?*
G04 #@! TF.SameCoordinates,Original*
G04 #@! TF.FileFunction,Soldermask,Bot*
G04 #@! TF.FilePolarity,Negative*
%FSLAX46Y46*%
G04 Gerber Fmt 4.6, Leading zero omitted, Abs format (unit mm)*
G04 Created by KiCad (PCBNEW 5.1.2-f72e74a~84~ubuntu18.04.1) date 2019-06-14 22:07:51*
%MOMM*%
%LPD*%
G04 APERTURE LIST*
%ADD10C,2.000000*%
%ADD11C,1.000000*%
%ADD12R,1.800000X1.800000*%
%ADD13O,1.800000X1.800000*%
%ADD14O,1.700000X1.700000*%
%ADD15O,1.600000X1.600000*%
%ADD16R,2.400000X2.400000*%
%ADD17O,2.400000X2.400000*%
%ADD18R,2.600000X2.600000*%
%ADD19C,2.600000*%
%ADD20C,3.200000*%
%ADD21C,1.520000*%
%ADD22C,1.600000*%
%ADD23C,1.800000*%
%ADD24C,1.700000*%
%ADD25C,2.200000*%
%ADD26C,2.000000*%
G04 APERTURE END LIST*
D10*
X140415000Y-78105000D02*
X135422000Y-83098000D01*
X135422000Y-83098000D02*
X135422000Y-95417000D01*
X135422000Y-95417000D02*
X137922000Y-97917000D01*
X137922000Y-97917000D02*
X147955000Y-97917000D01*
X147955000Y-97917000D02*
X160147000Y-110109000D01*
X160147000Y-110109000D02*
X160147000Y-113287000D01*
X165227000Y-113287000D02*
X165227000Y-114842634D01*
X165227000Y-114842634D02*
X162975634Y-117094000D01*
X162975634Y-117094000D02*
X154813000Y-117094000D01*
X154813000Y-117094000D02*
X147320000Y-109601000D01*
X147320000Y-109601000D02*
X147320000Y-104072000D01*
X128731000Y-97997000D02*
X128731000Y-78105000D01*
X131953000Y-101219000D02*
X128731000Y-97997000D01*
X139387000Y-101219000D02*
X131953000Y-101219000D01*
X142240000Y-104072000D02*
X139387000Y-101219000D01*
D11*
X143078200Y-75768200D02*
X145415000Y-78105000D01*
X133731000Y-78105000D02*
X136067800Y-75768200D01*
X136067800Y-75768200D02*
X143078200Y-75768200D01*
D12*
X173736000Y-98044000D03*
D13*
X188976000Y-131064000D03*
X173736000Y-100584000D03*
X188976000Y-128524000D03*
X173736000Y-103124000D03*
D14*
X188976000Y-125984000D03*
D13*
X173736000Y-105664000D03*
D15*
X188976000Y-123444000D03*
D13*
X173736000Y-108204000D03*
D14*
X188976000Y-120904000D03*
D13*
X173736000Y-110744000D03*
X188976000Y-118364000D03*
X173736000Y-113284000D03*
D14*
X188976000Y-115824000D03*
D13*
X173736000Y-115824000D03*
D15*
X188976000Y-113284000D03*
D13*
X173736000Y-118364000D03*
D15*
X188976000Y-110744000D03*
D13*
X173736000Y-120904000D03*
D15*
X188976000Y-108204000D03*
D13*
X173736000Y-123444000D03*
X188976000Y-105664000D03*
X173736000Y-125984000D03*
X188976000Y-103124000D03*
X173736000Y-128524000D03*
X188976000Y-100584000D03*
X173736000Y-131064000D03*
X188976000Y-98044000D03*
X173736000Y-133604000D03*
X188976000Y-133604000D03*
X173736000Y-105664000D03*
X173736000Y-105664000D03*
D16*
X116459000Y-89662000D03*
D17*
X121539000Y-89662000D03*
D18*
X145415000Y-78105000D03*
D19*
X140415000Y-78105000D03*
D18*
X121412000Y-78105000D03*
D19*
X116412000Y-78105000D03*
X128731000Y-78105000D03*
D18*
X133731000Y-78105000D03*
D20*
X211079000Y-83185000D03*
D21*
X214249000Y-92075000D03*
X215519000Y-89535000D03*
X216789000Y-92075000D03*
X218059000Y-89535000D03*
D20*
X221239000Y-83185000D03*
X204856000Y-83185000D03*
D21*
X201676000Y-89535000D03*
X200406000Y-92075000D03*
X199136000Y-89535000D03*
X197866000Y-92075000D03*
D20*
X194696000Y-83185000D03*
D22*
X140462000Y-88900000D03*
X140462000Y-93980000D03*
X145415000Y-85725000D03*
X145415000Y-90805000D03*
D23*
X208280000Y-109676000D03*
X201930000Y-138176000D03*
X204470000Y-138176000D03*
X207010000Y-138176000D03*
X209550000Y-138176000D03*
X212090000Y-138176000D03*
X214630000Y-138176000D03*
X217170000Y-138176000D03*
X210820000Y-109676000D03*
D24*
X160147000Y-137287000D03*
X162687000Y-137287000D03*
X165227000Y-137287000D03*
D25*
X160147000Y-113287000D03*
X165227000Y-113287000D03*
D26*
X144780000Y-137272000D03*
X142240000Y-137272000D03*
X139700000Y-137272000D03*
D25*
X142240000Y-104072000D03*
X137160000Y-104072000D03*
X147320000Y-104072000D03*
X126746000Y-104072000D03*
X116586000Y-104072000D03*
X121666000Y-104072000D03*
D24*
X119126000Y-137272000D03*
X121666000Y-137272000D03*
X124206000Y-137272000D03*
D23*
X188468000Y-90043000D03*
X188468000Y-87503000D03*
X188468000Y-84963000D03*
X188468000Y-82423000D03*
X188468000Y-79883000D03*
X188468000Y-77343000D03*
M02*
